<svg height="512pt" viewBox="-22 0 512 512.00104" width="512pt" xmlns="http://www.w3.org/2000/svg"><path d="m259.789062 108.855469c.003907 69.675781-56.339843 126.023437-126.019531 126.023437-45.359375 0-85.117187-23.964844-107.3125-59.917968-4.960937-8.039063 2.878907-17.957032 11.835938-14.953126 11.527343 3.863282 23.867187 5.960938 36.695312 5.972657 63.867188.058593 115.902344-51.925781 115.902344-115.792969 0-12.871094-2.097656-25.25-5.972656-36.816406-3-8.953125 6.921875-16.792969 14.957031-11.828125 35.953125 22.195312 59.914062 61.953125 59.914062 107.3125zm0 0" fill="#f6cb43"/><path d="m259.789062 108.855469c0 69.59375-56.425781 126.023437-126.019531 126.023437-42.800781 0-80.617187-21.335937-103.378906-53.949218 20.421875 14.257812 45.261719 22.617187 72.042969 22.617187 69.597656 0 126.023437-56.429687 126.023437-126.023437 0-26.796876-8.363281-51.636719-22.621093-72.058594 32.621093 22.773437 53.953124 60.585937 53.953124 103.390625zm0 0" fill="#fab03c"/><path d="m410.730469 220.519531c-3.480469-57.511719-51.21875-103.082031-109.605469-103.082031-47.089844 0-87.253906 29.640625-102.859375 71.285156-40.550781.488282-73.277344 33.496094-73.277344 74.164063 0 40.972656 33.214844 74.183593 74.1875 74.183593h209.519531c32.199219 0 58.300782-26.101562 58.300782-58.300781 0-31.515625-25.011719-57.175781-56.265625-58.25zm0 0" fill="#a09d9c"/><path d="m467 278.769531c0 32.199219-26.109375 58.304688-58.308594 58.304688h-4.515625c4.226563-8.070313 6.617188-17.257813 6.617188-27 0-31.515625-25.007813-57.175781-56.265625-58.253907-3.480469-57.507812-51.21875-103.082031-109.609375-103.082031-7.875 0-15.550781.828125-22.949219 2.402344 19.976562-20.773437 48.050781-33.703125 79.152344-33.703125 58.390625 0 106.128906 45.566406 109.613281 103.085938 31.253906 1.066406 56.265625 26.730468 56.265625 58.246093zm0 0" fill="#82807f"/><path d="m383.003906 229.808594c-3.996094 0-7.347656-3.113282-7.589844-7.152344-.269531-4.402344-.925781-8.792969-1.960937-13.042969-.992187-4.085937 1.515625-8.203125 5.601563-9.191406 4.082031-.996094 8.199218 1.511719 9.191406 5.597656 1.246094 5.128907 2.042968 10.414063 2.363281 15.71875.253906 4.195313-2.941406 7.800781-7.140625 8.054688-.15625.011719-.3125.015625-.464844.015625zm0 0" fill="#a09d9c"/><path d="m372.890625 195.078125c-2.671875 0-5.265625-1.410156-6.65625-3.914063-9.941406-17.863281-26.960937-31-46.707031-36.042968-4.074219-1.039063-6.53125-5.183594-5.492188-9.257813 1.039063-4.070312 5.183594-6.527343 9.257813-5.492187 23.78125 6.074218 44.28125 21.890625 56.242187 43.394531 2.042969 3.671875.722656 8.308594-2.949218 10.351563-1.171876.652343-2.445313.960937-3.695313.960937zm0 0" fill="#a09d9c"/><path d="m103.457031 253.746094c2.488281-41.117188 36.617188-73.695313 78.359375-73.695313 33.664063 0 62.375 21.191407 73.535156 50.960938 28.988282.351562 52.386719 23.949219 52.386719 53.023437 0 29.289063-23.746093 53.035156-53.039062 53.035156-12.261719 0-137.1875 0-149.789063 0-23.019531 0-41.679687-18.660156-41.679687-41.679687 0-22.53125 17.882812-40.875 40.226562-41.644531zm0 0" fill="#38aaff"/><path d="m307.742188 284.039062c0 29.039063-23.355469 52.628907-52.308594 53.023438 8.679687-9.449219 13.976562-22.035156 13.976562-35.867188 0-29.070312-23.394531-52.671874-52.394531-53.023437-11.15625-29.765625-39.863281-50.960937-73.535156-50.960937-3.976563 0-7.882813.300781-11.707031.867187 13.582031-11.261719 31.019531-18.023437 50.042968-18.023437 33.667969 0 62.378906 21.183593 73.535156 50.960937 28.996094.351563 52.390626 23.941406 52.390626 53.023437zm0 0" fill="#2081f6"/><path d="m234.550781 299.46875h-223.582031c-6.058594 0-10.96875-4.910156-10.96875-10.964844 0-6.058594 4.910156-10.96875 10.96875-10.96875h223.582031c15.5625 0 28.222657-12.660156 28.222657-28.222656 0-15.558594-12.660157-28.21875-28.222657-28.21875-15.558593 0-28.21875 12.660156-28.21875 28.21875 0 6.058594-4.910156 10.96875-10.96875 10.96875-6.058593 0-10.96875-4.910156-10.96875-10.96875 0-27.65625 22.5-50.15625 50.15625-50.15625s50.160157 22.5 50.160157 50.15625-22.503907 50.15625-50.160157 50.15625zm0 0" fill="#f0f5f7"/><path d="m203.941406 366.011719h-128.625c-6.058594 0-10.96875 4.910156-10.96875 10.96875 0 6.054687 4.910156 10.964843 10.96875 10.964843h128.625c15.558594 0 28.21875 12.660157 28.21875 28.222657 0 15.558593-12.660156 28.21875-28.21875 28.21875-15.5625 0-28.222656-12.660157-28.222656-28.21875 0-6.058594-4.910156-10.96875-10.96875-10.96875-6.054688 0-10.964844 4.910156-10.964844 10.96875 0 27.65625 22.5 50.15625 50.15625 50.15625s50.15625-22.5 50.15625-50.15625-22.5-50.15625-50.15625-50.15625zm0 0" fill="#f0f5f7"/><path d="m320.820312 322.433594h-276.230468c-6.058594 0-10.96875 4.910156-10.96875 10.96875s4.910156 10.96875 10.96875 10.96875h276.230468c15.5625 0 28.222657 12.65625 28.222657 28.21875 0 15.558594-12.660157 28.21875-28.222657 28.21875-15.558593 0-28.21875-12.65625-28.21875-28.21875 0-6.058594-4.910156-10.96875-10.96875-10.96875-6.054687 0-10.96875 4.910156-10.96875 10.96875 0 27.65625 22.5 50.15625 50.160157 50.15625 27.65625 0 50.15625-22.5 50.15625-50.15625-.003907-27.65625-22.503907-50.15625-50.160157-50.15625zm0 0" fill="#f0f5f7"/><g fill="#a0ecff"><path d="m18.960938 502.519531c-1.949219 0-3.894532-.746093-5.382813-2.230469-2.972656-2.972656-2.972656-7.792968 0-10.765624l72.160156-72.15625c2.972657-2.972657 7.792969-2.972657 10.765625 0 2.96875 2.972656 2.96875 7.789062 0 10.761718l-72.160156 72.160156c-1.488281 1.484376-3.4375 2.230469-5.382812 2.230469zm0 0"/><path d="m76.164062 490.246094c-1.949218 0-3.898437-.742188-5.382812-2.230469-2.972656-2.972656-2.972656-7.792969 0-10.761719l37.421875-37.421875c2.972656-2.972656 7.789063-2.972656 10.761719 0 2.972656 2.972657 2.972656 7.789063 0 10.761719l-37.417969 37.421875c-1.488281 1.484375-3.433594 2.230469-5.382813 2.230469zm0 0"/><path d="m308.425781 512c-1.945312 0-3.894531-.742188-5.382812-2.226562-2.96875-2.972657-2.96875-7.792969 0-10.765626l131.800781-131.796874c2.972656-2.972657 7.789062-2.972657 10.765625 0 2.96875 2.96875 2.96875 7.789062 0 10.761718l-131.800781 131.800782c-1.484375 1.484374-3.433594 2.226562-5.382813 2.226562zm0 0"/><path d="m395.320312 469.335938c-1.949218 0-3.898437-.742188-5.386718-2.230469-2.96875-2.972657-2.96875-7.792969 0-10.761719l16.511718-16.511719c2.972657-2.972656 7.792969-2.972656 10.765626 0 2.972656 2.972657 2.972656 7.789063 0 10.761719l-16.511719 16.511719c-1.484375 1.488281-3.433594 2.230469-5.378907 2.230469zm0 0"/><path d="m282.53125 469.335938c-1.949219 0-3.898438-.742188-5.382812-2.230469-2.972657-2.972657-2.972657-7.792969 0-10.761719l16.507812-16.511719c2.972656-2.972656 7.792969-2.972656 10.765625 0 2.972656 2.972657 2.972656 7.789063 0 10.761719l-16.511719 16.511719c-1.484375 1.488281-3.433594 2.230469-5.378906 2.230469zm0 0"/><path d="m142.96875 510.773438c-1.945312 0-3.894531-.742188-5.382812-2.226563-2.972657-2.972656-2.972657-7.792969 0-10.765625l16.511718-16.511719c2.972656-2.972656 7.789063-2.972656 10.765625 0 2.96875 2.972657 2.96875 7.792969 0 10.765625l-16.511719 16.511719c-1.488281 1.484375-3.4375 2.226563-5.382812 2.226563zm0 0"/></g></svg>