<svg height="512pt" viewBox="0 -13 512 511" width="512pt" xmlns="http://www.w3.org/2000/svg"><path d="m470.890625 347.429688-202.148437 135.269531c-5.730469 3.835937-11.777344 1.816406-15.105469-2.359375-3.25-4.082032-3.917969-10.21875.855469-14.992188l99.5625-99.5625h-66.191407c-10.042969 0-15.085937-12.152344-7.976562-19.257812l106.511719-106.5h95.117187l-86.746094 86.746094h69.847657c11.144531 0 15.535156 14.453124 6.273437 20.65625zm0 0" fill="#f6cb43"/><path d="m470.890625 347.429688-202.148437 135.269531c-5.730469 3.835937-11.777344 1.816406-15.105469-2.359375l167.21875-133.644532h-66.328125c-10.050782 0-15.082032-12.152343-7.976563-19.257812l87.402344-87.410156h47.5625l-86.746094 86.746094h69.847657c11.144531 0 15.535156 14.453124 6.273437 20.65625zm0 0" fill="#fab03c"/><path d="m115.964844 119.886719c4.03125-66.609375 59.316406-119.386719 126.941406-119.386719 54.539062 0 101.054688 34.332031 119.128906 82.558594 46.96875.570312 84.871094 38.796875 84.871094 85.898437 0 47.453125-38.46875 85.921875-85.921875 85.921875-19.867187 0-222.25 0-242.664063 0-37.292968 0-67.523437-30.230468-67.523437-67.523437 0-36.503907 28.96875-66.222657 65.167969-67.46875zm0 0" fill="#a09d9c"/><path d="m446.90625 168.957031c0 45.179688-34.875 82.222657-79.191406 85.664063 11.019531-14.441406 17.558594-32.480469 17.558594-52.042969 0-47.101563-37.910157-85.324219-84.875-85.902344-18.070313-48.222656-64.585938-82.550781-119.128907-82.550781-9.5 0-18.765625 1.042969-27.671875 3.027344 22.960938-22.664063 54.492188-36.648438 89.304688-36.648438 54.542968 0 101.0625 34.324219 119.132812 82.558594 46.972656.566406 84.871094 38.792969 84.871094 85.894531zm0 0" fill="#82807f"/><path d="m465.410156 158.371094c-2.882812-47.621094-42.40625-85.351563-90.753906-85.351563-38.992188 0-72.246094 24.542969-85.167969 59.023438-33.578125.402343-60.675781 27.734375-60.675781 61.40625 0 33.929687 27.503906 61.429687 61.429688 61.429687h173.484374c26.660157 0 48.273438-21.613281 48.273438-48.273437 0-26.097657-20.710938-47.34375-46.589844-48.234375zm0 0" fill="#f0f5f7"/><path d="m512 206.605469c0 26.453125-21.285156 47.9375-47.65625 48.265625 4.304688-7.222656 6.78125-15.671875 6.78125-24.6875 0-26.09375-20.710938-47.339844-46.585938-48.234375-2.875-47.617188-42.410156-85.355469-90.753906-85.355469-8.085937 0-15.929687 1.050781-23.386718 3.042969 16.433593-16.445313 39.15625-26.621094 64.261718-26.621094 48.339844 0 87.867188 37.742187 90.753906 85.359375 25.875.890625 46.585938 22.136719 46.585938 48.230469zm0 0" fill="#dde9ed"/><path d="m434.578125 167.964844c-4.054687 0-7.457031-3.160156-7.703125-7.261719-.136719-2.25-.421875-4.503906-.84375-6.699219-.804688-4.191406 1.941406-8.242187 6.132812-9.046875 4.191407-.804687 8.238282 1.941407 9.042969 6.132813.546875 2.847656.914063 5.769531 1.089844 8.679687.257813 4.261719-2.984375 7.921875-7.246094 8.179688-.15625.011719-.316406.015625-.472656.015625zm0 0" fill="#f0f5f7"/><path d="m426.429688 141.234375c-2.644532 0-5.21875-1.355469-6.660157-3.800781-4.59375-7.785156-11.167969-14.292969-19.011719-18.820313-3.695312-2.136719-4.960937-6.859375-2.828124-10.554687 2.136718-3.699219 6.859374-4.960938 10.554687-2.828125 10.144531 5.859375 18.648437 14.277343 24.59375 24.351562 2.167969 3.675781.945313 8.410157-2.726563 10.578125-1.234374.730469-2.585937 1.074219-3.921874 1.074219zm0 0" fill="#f0f5f7"/><g fill="#a0ecff"><path d="m237.082031 219.332031h-225.996093c-6.121094 0-11.085938-4.964843-11.085938-11.085937s4.964844-11.085938 11.085938-11.085938h225.996093c15.726563 0 28.523438-12.796875 28.523438-28.523437 0-15.730469-12.792969-28.527344-28.523438-28.527344s-28.523437 12.796875-28.523437 28.527344c0 6.121093-4.964844 11.085937-11.089844 11.085937-6.121094 0-11.085938-4.964844-11.085938-11.085937 0-27.957031 22.742188-50.699219 50.699219-50.699219 27.953125 0 50.695313 22.742188 50.695313 50.699219 0 27.953125-22.742188 50.695312-50.695313 50.695312zm0 0"/><path d="m206.140625 286.59375h-130.011719c-6.125 0-11.089844 4.964844-11.089844 11.085938 0 6.125 4.964844 11.085937 11.089844 11.085937h130.011719c15.726563 0 28.523437 12.796875 28.523437 28.527344 0 15.726562-12.796874 28.523437-28.523437 28.523437-15.730469 0-28.527344-12.796875-28.527344-28.523437 0-6.125-4.960937-11.089844-11.085937-11.089844-6.121094 0-11.085938 4.964844-11.085938 11.089844 0 27.953125 22.742188 50.695312 50.699219 50.695312 27.953125 0 50.695313-22.742187 50.695313-50.695312s-22.742188-50.699219-50.695313-50.699219zm0 0"/><path d="m324.28125 242.546875h-279.210938c-6.121093 0-11.085937 4.964844-11.085937 11.085937 0 6.125 4.960937 11.085938 11.085937 11.085938h279.210938c15.730469 0 28.527344 12.796875 28.527344 28.527344 0 15.726562-12.796875 28.523437-28.527344 28.523437-15.726562 0-28.523438-12.796875-28.523438-28.523437 0-6.125-4.964843-11.089844-11.085937-11.089844-6.125 0-11.089844 4.964844-11.089844 11.089844 0 27.953125 22.742188 50.695312 50.699219 50.695312 27.953125 0 50.699219-22.742187 50.699219-50.695312 0-27.957032-22.742188-50.699219-50.699219-50.699219zm0 0"/></g><path d="m151.90625 485.824219c-1.976562 0-3.957031-.753907-5.464844-2.261719-3.015625-3.015625-3.015625-7.910156 0-10.925781l17.941406-17.941407h-12.476562c-3.125 0-5.941406-1.882812-7.140625-4.769531-1.195313-2.890625-.535156-6.210937 1.675781-8.421875l21.234375-21.230468c3.015625-3.019532 7.910157-3.019532 10.925781 0 3.015626 3.015624 3.015626 7.90625 0 10.925781l-8.042968 8.042969h12.480468c3.125 0 5.941407 1.878906 7.136719 4.769531 1.195313 2.886719.535157 6.210937-1.675781 8.417969l-31.132812 31.132812c-1.507813 1.507812-3.484376 2.261719-5.460938 2.261719zm0 0" fill="#f6cb43"/><path d="m446.90625 466.511719c-1.976562 0-3.957031-.753907-5.464844-2.261719-3.015625-3.015625-3.015625-7.910156 0-10.925781l17.945313-17.945313h-12.480469c-3.125 0-5.941406-1.882812-7.136719-4.769531-1.195312-2.886719-.535156-6.210937 1.675781-8.417969l21.230469-21.234375c3.019531-3.015625 7.910157-3.015625 10.925781 0 3.019532 3.019531 3.019532 7.910157 0 10.929688l-8.039062 8.039062h12.476562c3.125 0 5.941407 1.882813 7.140626 4.769531 1.195312 2.890626.535156 6.210938-1.675782 8.421876l-31.132812 31.132812c-1.511719 1.507812-3.488282 2.261719-5.464844 2.261719zm0 0" fill="#fab03c"/><path d="m70.210938 433.109375c-1.976563 0-3.953126-.753906-5.464844-2.261719-3.015625-3.019531-3.015625-7.910156 0-10.929687l17.945312-17.941407h-12.480468c-3.125 0-5.941407-1.882812-7.136719-4.769531-1.195313-2.886719-.535157-6.210937 1.671875-8.421875l43.660156-43.65625c3.015625-3.019531 7.90625-3.019531 10.925781 0 3.019531 3.015625 3.019531 7.90625 0 10.925782l-30.46875 30.46875h12.480469c3.125 0 5.941406 1.882812 7.136719 4.769531 1.195312 2.886719.535156 6.210937-1.675781 8.421875l-31.128907 31.128906c-1.511719 1.511719-3.488281 2.265625-5.464843 2.265625zm0 0" fill="#fab03c"/></svg>