<svg height="512pt" viewBox="0 -7 512 512" width="512pt" xmlns="http://www.w3.org/2000/svg"><path d="m148.414062 169.324219c2.664063-43.976563 39.167969-78.824219 83.816407-78.824219 36.007812 0 66.71875 22.667969 78.652343 54.507812 31.011719.375 56.035157 25.617188 56.035157 56.714844 0 31.328125-25.398438 56.726563-56.730469 56.726563-13.113281 0-146.738281 0-160.214844 0-24.625 0-44.582031-19.960938-44.582031-44.582031 0-24.097657 19.125-43.71875 43.023437-44.542969zm0 0" fill="#a09d9c"/><path d="m366.917969 201.722656c0 22.667969-13.300781 42.234375-32.523438 51.316406 3.460938-7.339843 5.40625-15.542968 5.40625-24.203124 0-31.097657-25.023437-56.339844-56.03125-56.707032-11.9375-31.847656-42.648437-54.515625-78.660156-54.515625-16.238281 0-31.398437 4.609375-44.25 12.597657 14.820313-23.84375 41.238281-39.710938 71.371094-39.710938 36.003906 0 66.71875 22.667969 78.652343 54.507812 31.007813.378907 56.035157 25.617188 56.035157 56.714844zm0 0" fill="#82807f"/><path d="m461.625 300.023438c-3.117188-51.492188-45.851562-92.285157-98.125-92.285157-42.160156 0-78.113281 26.535157-92.085938 63.816407-36.304687.4375-65.601562 29.988281-65.601562 66.394531 0 36.683593 29.734375 66.417969 66.414062 66.417969h187.574219c28.828125 0 52.195313-23.371094 52.195313-52.195313 0-28.214844-22.390625-51.1875-50.371094-52.148437zm0 0" fill="#6d6d6d"/><path d="m512 352.171875c0 28.824219-23.371094 52.199219-52.199219 52.199219h-4.042969c3.78125-7.226563 5.925782-15.453125 5.925782-24.171875 0-28.214844-22.390625-51.1875-50.375-52.152344-3.113282-51.488281-45.855469-92.289063-98.128906-92.289063-7.046876 0-13.921876.742188-20.542969 2.152344 17.882812-18.597656 43.015625-30.171875 70.859375-30.171875 52.273437 0 95.015625 40.792969 98.132812 92.285157 27.980469.957031 50.371094 23.933593 50.371094 52.148437zm0 0" fill="#565656"/><path d="m282.054688 308.058594c-2.996094-49.488282-44.074219-88.703125-94.316407-88.703125-40.519531 0-75.078125 25.507812-88.507812 61.339843-34.894531.421876-63.054688 28.824219-63.054688 63.820313 0 35.253906 28.578125 63.835937 63.835938 63.835937h180.289062c27.710938 0 50.171875-22.460937 50.171875-50.167968-.003906-27.121094-21.523437-49.199219-48.417968-50.125zm0 0" fill="#6d6d6d"/><path d="m330.472656 358.179688c0 27.707031-22.464844 50.175781-50.171875 50.175781h-3.886719c3.636719-6.945313 5.695313-14.851563 5.695313-23.234375 0-27.117188-21.519531-49.199219-48.417969-50.128906-2.992187-49.484376-44.074218-88.703126-94.316406-88.703126-6.777344 0-13.382812.714844-19.746094 2.070313 17.1875-17.875 41.347656-29 68.109375-29 50.242188 0 91.324219 39.207031 94.320313 88.703125 26.894531.917969 48.414062 23 48.414062 50.117188zm0 0" fill="#565656"/><path d="m400.429688 96.195312-32.769532 75.433594h21.417969c6.296875 0 9.734375 7.34375 5.703125 12.175782l-170.617188 185.140624 42.757813-166.757812h-25.96875c-5.34375 0-8.9375-5.476562-6.804687-10.378906l32.773437-75.425782h-25.96875c-5.34375 0-8.9375-5.480468-6.804687-10.382812l44.117187-101.527344c1.175781-2.710937 3.851563-4.4648435 6.804687-4.4648435h108.550782c5.34375 0 8.9375 5.4765625 6.808594 10.3789065l-32.769532 75.425781h25.960938c5.34375 0 8.9375 5.476562 6.808594 10.382812zm0 0" fill="#fab03c"/><path d="m400.433594 96.191406-32.769532 75.429688h21.410157c6.308593 0 9.742187 7.34375 5.699219 12.183594l-170.609376 185.148437 25.386719-98.996094 79.390625-86.152343c4.039063-4.839844.605469-12.183594-5.703125-12.183594h-11.136719c-4.851562 0-8.113281-4.972656-6.179687-9.421875l28.675781-66.007813c2.128906-4.902344-1.46875-10.375-6.816406-10.375h-15.679688c-4.851562 0-8.113281-4.96875-6.179687-9.421875l28.675781-66.003906c2.128906-4.90625-1.46875-10.390625-6.816406-10.390625h65.835938c5.347656 0 8.945312 5.484375 6.816406 10.390625l-32.769532 75.425781h25.949219c5.351563 0 8.949219 5.472656 6.820313 10.375zm0 0" fill="#f6cb43"/><path d="m397.144531 384.382812c-3.40625-56.273437-50.117187-100.863281-107.25-100.863281-46.078125 0-85.378906 29.003907-100.652343 69.75-39.679688.480469-71.703126 32.777344-71.703126 72.570313 0 40.09375 32.503907 72.59375 72.59375 72.59375h205.015626c31.507812 0 57.050781-25.542969 57.050781-57.050782 0-30.839843-24.472657-55.945312-55.054688-57zm0 0" fill="#a09d9c"/><path d="m452.203125 441.382812c0 31.507813-25.546875 57.054688-57.054687 57.054688h-4.417969c4.136719-7.898438 6.476562-16.890625 6.476562-26.417969 0-30.839843-24.472656-55.949219-55.054687-57.003906-3.40625-56.273437-50.121094-100.867187-107.257813-100.867187-7.703125 0-15.214843.808593-22.453125 2.351562 19.542969-20.328125 47.019532-32.976562 77.449219-32.976562 57.136719 0 103.851563 44.582031 107.257813 100.867187 30.582031 1.042969 55.054687 26.152344 55.054687 56.992187zm0 0" fill="#82807f"/><g fill="#a09d9c"><path d="m368.699219 379.683594c-3.488281 0-6.652344-2.378906-7.507813-5.921875-.972656-4.046875-2.304687-8.035157-3.953125-11.851563-1.695312-3.917968.105469-8.464844 4.019531-10.160156 3.921876-1.695312 8.46875.109375 10.160157 4.023438 2.003906 4.632812 3.617187 9.46875 4.800781 14.375.996094 4.148437-1.558594 8.320312-5.707031 9.320312-.609375.144531-1.214844.214844-1.8125.214844zm0 0"/><path d="m348.398438 342.628906c-2.03125 0-4.058594-.796875-5.574219-2.378906-13.996094-14.578125-32.792969-22.609375-52.929688-22.609375-4.269531 0-7.726562-3.457031-7.726562-7.726563 0-4.265624 3.457031-7.722656 7.726562-7.722656 24.382813 0 47.140625 9.714844 64.078125 27.359375 2.953125 3.078125 2.851563 7.96875-.226562 10.925781-1.496094 1.433594-3.421875 2.152344-5.347656 2.152344zm0 0"/><path d="m39.359375 416.898438c2.4375-40.234376 35.832031-72.113282 76.675781-72.113282 32.941406 0 61.039063 20.738282 71.957032 49.867188 28.367187.34375 51.261718 23.433594 51.261718 51.882812 0 28.664063-23.238281 51.898438-51.898437 51.898438-12 0-134.242188 0-146.570313 0-22.523437 0-40.785156-18.261719-40.785156-40.785156 0-22.046876 17.496094-40 39.359375-40.75zm0 0"/></g><path d="m239.253906 446.539062c0 28.414063-22.847656 51.496094-51.183594 51.882813 8.496094-9.242187 13.675782-21.5625 13.675782-35.09375 0-28.445313-22.890625-51.539063-51.265625-51.886719-10.917969-29.125-39.007813-49.863281-71.957031-49.863281-3.890626 0-7.714844.292969-11.453126.851563 13.289063-11.019532 30.351563-17.640626 48.964844-17.640626 32.945313 0 61.035156 20.730469 71.953125 49.867188 28.375.34375 51.265625 23.425781 51.265625 51.882812zm0 0" fill="#82807f"/><path d="m168.902344 65.253906h-.105469c-4.269531 0-7.726563-3.460937-7.726563-7.726562s3.457032-7.726563 7.726563-7.726563h.105469c4.269531 0 7.726562 3.460938 7.726562 7.726563s-3.457031 7.726562-7.726562 7.726562zm0 0" fill="#565656"/><path d="m467.1875 198.410156c-.011719 0-.023438 0-.035156 0h-.109375c-4.265625-.019531-7.707031-3.496094-7.6875-7.761718.019531-4.257813 3.472656-7.691407 7.722656-7.691407h.039063.105468c4.269532.019531 7.710938 3.496094 7.691406 7.765625-.019531 4.253906-3.476562 7.6875-7.726562 7.6875zm0 0" fill="#82807f"/><path d="m67.125 236.371094c-.015625 0-.027344 0-.039062 0h-.105469c-4.269531-.019532-7.710938-3.496094-7.691407-7.761719.019532-4.257813 3.476563-7.691406 7.726563-7.691406h.035156.109375c4.265625.019531 7.707032 3.496093 7.6875 7.765625-.019531 4.253906-3.476562 7.6875-7.722656 7.6875zm0 0" fill="#82807f"/><path d="m82.816406 168.195312c-1.976562 0-3.957031-.753906-5.464844-2.261718-3.015624-3.019532-3.015624-7.910156 0-10.925782l17.945313-17.945312h-12.480469c-3.125 0-5.945312-1.882812-7.136718-4.769531-1.199219-2.886719-.535157-6.210938 1.671874-8.421875l21.234376-21.230469c3.015624-3.019531 7.90625-3.019531 10.925781 0 3.015625 3.019531 3.015625 7.910156 0 10.925781l-8.042969 8.042969h12.480469c3.125 0 5.941406 1.882813 7.136719 4.769531 1.195312 2.886719.535156 6.210938-1.671876 8.421875l-31.132812 31.132813c-1.511719 1.507812-3.488281 2.261718-5.464844 2.261718zm0 0" fill="#f6cb43"/><path d="m451.515625 142.015625c-1.980469 0-3.957031-.753906-5.464844-2.265625-3.019531-3.015625-3.019531-7.90625 0-10.925781l17.941407-17.941407h-12.476563c-3.125 0-5.945313-1.882812-7.140625-4.773437-1.195312-2.886719-.535156-6.207031 1.675781-8.417969l21.230469-21.230468c3.019531-3.019532 7.910156-3.019532 10.929688 0 3.015624 3.015624 3.015624 7.90625 0 10.925781l-8.042969 8.042969h12.480469c3.125 0 5.941406 1.878906 7.136718 4.769531 1.195313 2.886719.535156 6.207031-1.675781 8.417969l-31.132813 31.132812c-1.507812 1.507812-3.484374 2.265625-5.460937 2.265625zm0 0" fill="#f6cb43"/><path d="m135.535156 353.617188c-1.976562 0-3.953125-.753907-5.464844-2.261719-3.015624-3.019531-3.015624-7.910157 0-10.929688l17.945313-17.941406h-12.480469c-3.125 0-5.941406-1.882813-7.136718-4.769531-1.195313-2.886719-.535157-6.210938 1.671874-8.421875l21.234376-21.230469c3.015624-3.015625 7.90625-3.015625 10.925781 0 3.015625 3.015625 3.015625 7.910156 0 10.925781l-8.042969 8.042969h12.480469c3.125 0 5.941406 1.882812 7.136719 4.769531 1.199218 2.886719.535156 6.210938-1.671876 8.421875l-31.132812 31.132813c-1.507812 1.507812-3.488281 2.261719-5.464844 2.261719zm0 0" fill="#f6cb43"/></svg>