<svg height="512pt" viewBox="0 -20 512 512" width="512pt" xmlns="http://www.w3.org/2000/svg"><path d="m108.226562 182.703125c4.113282-67.910156 60.480469-121.71875 129.425782-121.71875 55.605468 0 103.027344 35.003906 121.457031 84.171875 47.882813.578125 86.527344 39.554688 86.527344 87.574219 0 48.382812-39.222657 87.601562-87.601563 87.601562-20.253906 0-226.59375 0-247.402344 0-38.023437 0-68.84375-30.824219-68.84375-68.84375-.003906-37.214843 29.53125-67.515625 66.4375-68.785156zm0 0" fill="#6d6d6d"/><path d="m445.632812 232.730469c0 46.0625-35.554687 83.832031-80.734374 87.339843 11.234374-14.722656 17.898437-33.117187 17.898437-53.058593 0-48.023438-38.648437-86.996094-86.53125-87.582031-18.421875-49.164063-65.851563-84.164063-121.457031-84.164063-9.6875 0-19.132813 1.0625-28.210938 3.085937 23.410156-23.109374 55.554688-37.367187 91.046875-37.367187 55.609375 0 103.035157 35 121.457031 84.175781 47.894532.578125 86.53125 39.550782 86.53125 87.570313zm0 0" fill="#565656"/><path d="m464.5 221.941406c-2.9375-48.550781-43.234375-87.019531-92.527344-87.019531-39.753906 0-73.65625 25.023437-86.832031 60.175781-34.234375.410156-61.859375 28.277344-61.859375 62.605469 0 34.589844 28.039062 62.628906 62.628906 62.628906h176.871094c27.183594 0 49.21875-22.035156 49.21875-49.21875 0-26.605469-21.113281-48.265625-47.5-49.171875zm0 0" fill="#a09d9c"/><path d="m512 271.117188c0 26.96875-21.699219 48.871093-48.589844 49.207031 4.390625-7.363281 6.917969-15.976563 6.917969-25.167969 0-26.605469-21.113281-48.265625-47.496094-49.175781-2.933593-48.550781-43.242187-87.027344-92.527343-87.027344-8.242188 0-16.242188 1.074219-23.84375 3.105469 16.753906-16.765625 39.921874-27.140625 65.515624-27.140625 49.285157 0 89.582032 38.476562 92.527344 87.023437 26.382813.910156 47.496094 22.570313 47.496094 49.175782zm0 0" fill="#82807f"/><path d="m433.066406 231.570312c-4.054687 0-7.457031-3.160156-7.707031-7.261718-.136719-2.296875-.425781-4.601563-.855469-6.851563-.808594-4.191406 1.9375-8.238281 6.128906-9.042969 4.191407-.804687 8.238282 1.941407 9.042969 6.132813.558594 2.898437.929688 5.871094 1.109375 8.828125.257813 4.261719-2.984375 7.921875-7.246094 8.179688-.15625.007812-.316406.015624-.472656.015624zm0 0" fill="#a09d9c"/><path d="m424.757812 204.316406c-2.644531 0-5.21875-1.355468-6.660156-3.800781-4.699218-7.957031-11.417968-14.613281-19.4375-19.242187-3.695312-2.132813-4.960937-6.859376-2.828125-10.554688 2.136719-3.695312 6.859375-4.960938 10.554688-2.828125 10.320312 5.960937 18.972656 14.527344 25.015625 24.773437 2.171875 3.675782.949218 8.414063-2.726563 10.582032-1.230469.726562-2.582031 1.070312-3.917969 1.070312zm0 0" fill="#a09d9c"/><path d="m426.082031 386.472656c0 11.089844 8.992188 20.078125 20.082031 20.078125 11.089844 0 20.078126-8.988281 20.078126-20.078125 0-7.28125-8.644532-21.566406-14.59375-30.527344-2.605469-3.925781-8.367188-3.925781-10.972657 0-5.945312 8.960938-14.59375 23.246094-14.59375 30.527344zm0 0" fill="#a0ecff"/><path d="m426.085938 386.472656c0 11.085938 8.984374 20.082032 20.078124 20.082032 2.78125 0 5.429688-.570313 7.839844-1.589844-7.199218-3.050782-12.246094-10.183594-12.246094-18.492188 0-6.363281 6.609376-18.082031 12.238282-26.917968-.804688-1.265626-1.589844-2.472657-2.335938-3.59375-2.605468-3.933594-8.375-3.945313-10.980468-.015626-5.949219 8.960938-14.59375 23.246094-14.59375 30.527344zm0 0" fill="#60daff"/><path d="m335.46875 386.472656c0 11.089844 8.992188 20.078125 20.082031 20.078125 11.089844 0 20.082031-8.988281 20.082031-20.078125 0-7.28125-8.648437-21.566406-14.597656-30.527344-2.605468-3.925781-8.367187-3.925781-10.972656 0-5.945312 8.960938-14.59375 23.246094-14.59375 30.527344zm0 0" fill="#a0ecff"/><path d="m335.472656 386.472656c0 11.085938 8.984375 20.082032 20.078125 20.082032 2.78125 0 5.429688-.570313 7.839844-1.589844-7.199219-3.050782-12.246094-10.183594-12.246094-18.492188 0-6.363281 6.609375-18.082031 12.242188-26.917968-.808594-1.265626-1.59375-2.472657-2.339844-3.59375-2.605469-3.933594-8.371094-3.945313-10.980469-.015626-5.949218 8.960938-14.59375 23.246094-14.59375 30.527344zm0 0" fill="#60daff"/><path d="m380.777344 452.417969c0 11.089843 8.988281 20.082031 20.078125 20.082031 11.089843 0 20.082031-8.992188 20.082031-20.082031 0-7.277344-8.648438-21.5625-14.59375-30.523438-2.605469-3.925781-8.367188-3.925781-10.976562 0-5.941407 8.960938-14.589844 23.246094-14.589844 30.523438zm0 0" fill="#a0ecff"/><path d="m380.777344 452.421875c0 11.085937 8.988281 20.078125 20.082031 20.078125 2.777344 0 5.425781-.566406 7.839844-1.589844-7.203125-3.046875-12.25-10.183594-12.25-18.488281 0-6.367187 6.609375-18.085937 12.242187-26.917969-.804687-1.269531-1.59375-2.472656-2.335937-3.597656-2.609375-3.933594-8.375-3.945312-10.984375-.011719-5.945313 8.960938-14.59375 23.246094-14.59375 30.527344zm0 0" fill="#60daff"/><path d="m290.164062 452.417969c0 11.089843 8.988282 20.082031 20.078126 20.082031 11.09375 0 20.082031-8.992188 20.082031-20.082031 0-7.277344-8.648438-21.5625-14.59375-30.523438-2.605469-3.925781-8.367188-3.925781-10.972657 0-5.945312 8.960938-14.59375 23.246094-14.59375 30.523438zm0 0" fill="#a0ecff"/><path d="m290.164062 452.421875c0 11.085937 8.988282 20.078125 20.082032 20.078125 2.777344 0 5.425781-.566406 7.839844-1.589844-7.203126-3.046875-12.246094-10.183594-12.246094-18.488281 0-6.367187 6.605468-18.085937 12.238281-26.917969-.804687-1.269531-1.59375-2.472656-2.335937-3.597656-2.609376-3.933594-8.375-3.945312-10.984376-.011719-5.945312 8.960938-14.59375 23.246094-14.59375 30.527344zm0 0" fill="#60daff"/><path d="m220.039062 117.746094c0 60.761718-49.257812 110.019531-110.019531 110.019531s-110.019531-49.257813-110.019531-110.019531c0-60.761719 49.257812-110.019532 110.019531-110.019532s110.019531 49.257813 110.019531 110.019532zm0 0" fill="#dde9ed"/><g fill="#a4d5dd"><path d="m174.636719 133.367188-10.984375 4.828124c.367187-2.980468-1.035156-6.03125-3.796875-7.632812-3.191407-1.847656-7.152344-1.152344-9.550781 1.453125l-8.179688-4.707031 5.664062-2.488282c2.808594-1.234374 4.621094-4.011718 4.621094-7.074218 0-3.066406-1.8125-5.839844-4.621094-7.074219l-5.660156-2.488281 8.183594-4.710938c1.484375 1.609375 3.550781 2.496094 5.675781 2.496094 1.316407 0 2.648438-.335938 3.867188-1.039062 2.761719-1.601563 4.160156-4.652344 3.792969-7.632813l10.988281 4.824219c1.011719.445312 2.066406.65625 3.105469.65625 2.972656 0 5.804687-1.722656 7.074218-4.621094 1.71875-3.902344-.054687-8.464844-3.964844-10.179688l-2.097656-.921874c3.140625-2.296876 4.117188-6.636719 2.132813-10.085938-1.996094-3.472656-6.277344-4.804688-9.855469-3.199219l.25-2.292969c.464844-4.242187-2.601562-8.054687-6.839844-8.519531-4.246094-.464843-8.058594 2.601563-8.519531 6.84375l-1.296875 11.878907c-2.40625-1.832032-5.773438-2.148438-8.550781-.539063-3.179688 1.839844-4.546875 5.597656-3.507813 8.960937l-8.207031 4.722657.671875-6.160157c.332031-3.042968-1.164062-5.992187-3.8125-7.527343-2.648438-1.53125-5.949219-1.359375-8.421875.449219l-5.050781 3.679687v-9.410156c3.453125-.773438 6.03125-3.851563 6.03125-7.535157 0-3.191406-1.9375-5.929687-4.699219-7.109374l9.636719-7.027344c3.445312-2.515625 4.199218-7.347656 1.6875-10.796875-2.515625-3.445313-7.347656-4.203125-10.796875-1.6875l-1.902344 1.386719c-.402344-3.890626-3.6875-6.921876-7.683594-6.921876-3.996093 0-7.28125 3.035157-7.683593 6.925782l-1.90625-1.390625c-3.449219-2.515625-8.28125-1.761719-10.796876 1.6875-2.515624 3.449219-1.761718 8.28125 1.6875 10.796875l9.632813 7.027344c-2.761719 1.179687-4.699219 3.917968-4.699219 7.109374 0 3.6875 2.585938 6.765626 6.039063 7.539063v9.414063l-5.058594-3.6875c-2.46875-1.804688-5.773437-1.980469-8.421875-.445313-2.648438 1.53125-4.144531 4.480469-3.8125 7.523437l.675781 6.164063-8.210937-4.722656c1.042968-3.367188-.328125-7.121094-3.503906-8.964844-2.78125-1.609375-6.148438-1.292969-8.554688.539063l-1.296875-11.878907c-.460937-4.242187-4.273437-7.308593-8.515625-6.84375-4.242188.464844-7.308594 4.277344-6.84375 8.519531l.25 2.292969c-3.574219-1.609375-7.859375-.273437-9.855469 3.199219-1.988281 3.449219-1.007812 7.789062 2.132813 10.085938l-2.097656.921874c-3.90625 1.71875-5.679688 6.277344-3.964844 10.183594 1.273437 2.894532 4.105468 4.617188 7.078125 4.617188 1.035156 0 2.09375-.207032 3.105469-.652344l10.984374-4.828125c-.367187 2.980469 1.03125 6.03125 3.796876 7.632813 1.21875.707031 2.550781 1.042968 3.867187 1.042968 2.121094 0 4.191406-.890625 5.671875-2.5l8.1875 4.710938-5.664062 2.492187c-2.804688 1.230469-4.617188 4.007813-4.617188 7.070313 0 3.066406 1.8125 5.84375 4.617188 7.074218l5.664062 2.488282-8.175781 4.707031c-2.398438-2.605469-6.363281-3.296875-9.550781-1.449219-2.765626 1.597656-4.164063 4.648438-3.796876 7.628906l-10.984374-4.828124c-3.90625-1.714844-8.464844.058593-10.179688 3.964843s.058594 8.464844 3.964844 10.183594l2.101562.921875c-3.144531 2.296875-4.125 6.636719-2.136718 10.089844 1.429687 2.484375 4.027343 3.875 6.703124 3.875 1.0625 0 2.132813-.234375 3.152344-.691406l-.25 2.304687c-.464844 4.242187 2.601563 8.054687 6.839844 8.519531.285156.03125.566406.046875.847656.046875 3.890625 0 7.242188-2.933593 7.671875-6.890625l1.296875-11.878906c1.351563 1.027344 3.003906 1.582031 4.6875 1.582031 1.3125 0 2.644532-.335937 3.863282-1.042969 3.179687-1.839843 4.546874-5.597656 3.507812-8.960937l8.207031-4.722656-.671875 6.160156c-.332031 3.039063 1.164063 5.992187 3.8125 7.523437 1.199219.699219 2.535156 1.039063 3.867188 1.039063 1.605468 0 3.203125-.496094 4.554687-1.484375l5.058594-3.6875v9.414062c-3.457031.773438-6.039063 3.851563-6.039063 7.539063 0 3.191406 1.9375 5.929687 4.699219 7.109375l-9.632812 7.027344c-3.449219 2.515625-4.203125 7.347656-1.6875 10.796875 2.511719 3.445312 7.34375 4.203125 10.792969 1.6875l1.90625-1.390625c.402343 3.890625 3.6875 6.925781 7.6875 6.925781 3.996093 0 7.28125-3.03125 7.683593-6.921875l1.898438 1.386719c1.375 1 2.96875 1.484375 4.546875 1.484375 2.382812 0 4.734375-1.101563 6.246094-3.171875 2.515624-3.449219 1.761718-8.28125-1.6875-10.796875l-9.632813-7.03125c2.761719-1.175782 4.699219-3.914063 4.699219-7.109375 0-3.683594-2.582032-6.757813-6.03125-7.53125v-9.414063l5.046875 3.683594c2.472656 1.804688 5.777343 1.980469 8.425781.445312 2.648438-1.53125 4.144531-4.484374 3.8125-7.523437l-.671875-6.160156 8.207031 4.722656c-1.039062 3.367187.328125 7.121094 3.507813 8.960937 1.21875.707032 2.550781 1.042969 3.863281 1.042969 1.683594 0 3.335938-.554687 4.6875-1.582031l1.296875 11.878906c.429687 3.957032 3.777344 6.890625 7.671875 6.890625.277344 0 .5625-.015625.847656-.046875 4.238282-.464844 7.304688-4.277344 6.839844-8.519531l-.25-2.304687c1.015625.460937 2.085938.691406 3.152344.691406 2.671875 0 5.273437-1.390625 6.703125-3.875 1.984375-3.453125 1.007812-7.792969-2.136719-10.085938l2.101562-.925781c3.90625-1.714844 5.679688-6.273437 3.964844-10.179687-1.714844-3.910157-6.273437-5.679688-10.179687-3.96875zm-60.0625-4.589844c-.023438-.015625-.050781-.027344-.074219-.042969-.296875-.210937-.605469-.402344-.929688-.570313-.054687-.027343-.109374-.054687-.167968-.082031-.304688-.148437-.617188-.28125-.945313-.390625-.03125-.007812-.0625-.023437-.097656-.035156-.328125-.101562-.667969-.179688-1.011719-.242188-.097656-.015624-.191406-.027343-.285156-.042968-.308594-.039063-.621094-.066406-.941406-.070313-.035156 0-.070313-.007812-.105469-.007812-.039063 0-.078125.007812-.117187.007812-.308594.003907-.609376.03125-.910157.070313-.105469.015625-.207031.03125-.3125.050781-.332031.058594-.660156.128906-.976562.230469-.0625.019531-.125.046875-.1875.070312-.28125.09375-.554688.207032-.820313.335938-.085937.039062-.171875.078125-.257812.125-.292969.15625-.578125.328125-.847656.519531-.039063.027344-.082032.046875-.121094.074219l-3.199219 2.335937.425781-3.890625c.003906-.039062 0-.074218.003906-.109375.03125-.351562.042969-.703125.027344-1.058593 0-.074219-.007812-.148438-.015625-.21875-.023437-.328126-.0625-.65625-.128906-.980469-.007813-.042969-.011719-.082031-.019531-.125-.074219-.335938-.179688-.667969-.296875-.996094-.035157-.089844-.070313-.175781-.105469-.265625-.125-.304688-.261719-.605469-.429688-.894531-.027343-.050781-.058593-.097657-.085937-.144531-.164063-.273438-.339844-.53125-.53125-.773438-.058594-.078125-.121094-.15625-.183594-.230469-.222656-.265625-.453125-.515625-.703125-.746093-.042968-.039063-.09375-.074219-.136718-.113282-.238282-.207031-.484376-.394531-.742188-.570312-.066406-.042969-.128906-.089844-.195312-.132813-.292969-.1875-.597657-.347656-.914063-.492187-.039063-.019532-.074219-.046875-.113281-.0625l-3.558594-1.5625 3.558594-1.566406c.074218-.03125.140625-.078126.210937-.113282.246094-.117187.488281-.246094.726563-.390625.109375-.066406.21875-.140625.328125-.214843.207031-.144532.410156-.300782.605469-.464844.097656-.085938.199218-.167969.292968-.253906.191406-.179688.371094-.375.546875-.574219.074219-.089844.160157-.171875.230469-.261719.199219-.25.378906-.515625.546875-.796875.03125-.050781.070313-.097656.101563-.152344.175781-.308593.320312-.625.453124-.945312.03125-.082031.066407-.164063.09375-.246094.125-.332031.226563-.667969.304688-1.007813.007812-.039062.007812-.074218.015625-.109374.070313-.332032.109375-.664063.132813-.996094.007812-.070313.015624-.140625.015624-.214844.015626-.351562.003907-.707031-.027343-1.054688-.003907-.039062 0-.074218-.003907-.113281l-.425781-3.890625 3.199219 2.335938c.03125.019531.0625.035156.09375.054687.285156.203125.585938.386719.902344.550781.058594.035157.125.0625.1875.09375.300781.144532.609375.277344.933594.382813.03125.011719.0625.023437.09375.035156.335937.105469.683593.183594 1.039062.246094.078125.015625.15625.023437.234375.035156.351563.050781.703125.082031 1.066406.082031h.003907.003906c.367187 0 .730468-.035156 1.082031-.082031.070313-.011719.136719-.019531.207031-.03125.367188-.0625.726563-.144531 1.074219-.257812h.003906c.367188-.117188.71875-.265625 1.058594-.433594.03125-.019531.066406-.035156.101563-.050781.339843-.175782.664062-.375.972656-.597656.015625-.011719.035156-.019532.050781-.03125l3.199219-2.335938-.425782 3.894531c-.003906.023438 0 .050781 0 .078125-.039062.371094-.050781.742188-.03125 1.117188 0 .046875.003907.089844.007813.136718.023437.375.070313.746094.148437 1.117188.003907.003906.003907.007812.003907.011719.078125.359375.1875.714843.316406 1.066406.023437.0625.046875.121094.070313.179687.136718.335938.285156.664063.46875.984376.195312.34375.417968.65625.65625.957031.058593.070312.121093.132812.179687.199219.191406.226562.386719.441406.601563.636718.082031.078125.167968.148438.253906.222656.210937.175782.425781.34375.648437.496094.097657.066406.195313.132813.296875.195313.246094.152343.503906.289062.765625.410156.066407.03125.121094.074219.1875.101563l3.558594 1.5625-3.558594 1.566406c-.03125.011718-.0625.035156-.09375.050781-.328125.148437-.644531.316406-.953125.511719-.050781.03125-.09375.066406-.144531.097656-.285156.191406-.554687.398438-.816406.628906-.027344.023438-.054688.042969-.082031.066406-.261719.242188-.507813.503907-.738282.78125-.050781.058594-.097656.121094-.144531.179688-.214844.273438-.417969.558594-.597656.867188-.003907.011718-.007813.019531-.015625.027343 0 .003907-.003906.003907-.003906.007813-.183594.316406-.328126.640625-.464844.96875-.023438.066406-.050782.136718-.078125.203125-.128907.347656-.234375.699219-.3125 1.050781-.003907.011719-.003907.019531-.003907.027344-.078124.367187-.125.734375-.148437 1.105468-.003906.046876-.007813.09375-.011719.140626-.015625.375-.003906.75.03125 1.121093.003906.023438 0 .046875.003906.074219l.425782 3.890625zm0 0"/><path d="m281.492188 365.46875c-.011719 0-.023438 0-.039063 0-4.265625-.023438-7.707031-3.496094-7.6875-7.765625l.015625-2.949219c.019531-4.253906 3.476562-7.6875 7.722656-7.6875h.039063c4.265625.019532 7.710937 3.496094 7.6875 7.761719l-.011719 2.949219c-.019531 4.253906-3.476562 7.691406-7.726562 7.691406zm0 0"/><path d="m281.398438 395.488281c-.011719 0-.023438 0-.035157 0-4.269531-.019531-7.710937-3.496093-7.691406-7.761719l.015625-2.949218c.019531-4.253906 3.476562-7.691406 7.722656-7.691406h.039063c4.269531.023437 7.710937 3.496093 7.691406 7.765624l-.015625 2.949219c-.019531 4.253907-3.476562 7.6875-7.726562 7.6875zm0 0"/><path d="m297.976562 379.058594c-.015624 0-.027343 0-.039062 0l-2.957031-.015625c-4.265625-.019531-7.707031-3.496094-7.6875-7.761719.019531-4.257812 3.476562-7.691406 7.722656-7.691406h.039063l2.957031.015625c4.265625.019531 7.707031 3.496093 7.6875 7.761719-.019531 4.253906-3.476563 7.691406-7.722657 7.691406zm0 0"/><path d="m267.890625 378.964844c-.015625 0-.027344 0-.039063 0l-2.957031-.015625c-4.265625-.019531-7.707031-3.496094-7.6875-7.761719.019531-4.253906 3.476563-7.691406 7.722657-7.691406h.039062l2.957031.015625c4.265625.019531 7.707031 3.496093 7.6875 7.761719-.019531 4.253906-3.472656 7.691406-7.722656 7.691406zm0 0"/><path d="m104.023438 373.96875c-.011719 0-.023438 0-.035157 0-4.269531-.023438-7.710937-3.496094-7.691406-7.765625l.015625-2.949219c.019531-4.265625 3.453125-7.714844 7.761719-7.6875 4.269531.019532 7.710937 3.496094 7.691406 7.761719l-.015625 2.949219c-.019531 4.253906-3.476562 7.691406-7.726562 7.691406zm0 0"/><path d="m103.933594 403.988281c-.011719 0-.027344 0-.039063 0-4.265625-.019531-7.707031-3.496093-7.6875-7.761719l.011719-2.949218c.019531-4.253906 3.476562-7.6875 7.726562-7.6875h.039063c4.265625.019531 7.707031 3.496094 7.6875 7.761718l-.015625 2.949219c-.019531 4.253907-3.472656 7.6875-7.722656 7.6875zm0 0"/><path d="m120.507812 387.558594c-.015624 0-.027343 0-.039062 0l-2.957031-.015625c-4.265625-.019531-7.707031-3.496094-7.6875-7.761719.019531-4.257812 3.476562-7.691406 7.726562-7.691406h.035157l2.957031.015625c4.265625.019531 7.710937 3.496093 7.6875 7.761719-.019531 4.253906-3.472657 7.691406-7.722657 7.691406zm0 0"/><path d="m90.421875 387.464844c-.011719 0-.023437 0-.039063 0l-2.953124-.015625c-4.269532-.019531-7.710938-3.496094-7.691407-7.761719.019531-4.253906 3.476563-7.691406 7.726563-7.691406h.039062l2.953125.015625c4.269531.019531 7.710938 3.496093 7.691407 7.761719-.019532 4.257812-3.476563 7.691406-7.726563 7.691406zm0 0"/></g><path d="m155.070312 363.460938c-.011718 0-.023437 0-.039062 0h-.101562c-4.269532-.023438-7.710938-3.5-7.691407-7.765626.023438-4.253906 3.476563-7.6875 7.726563-7.6875h.039062.101563c4.269531.019532 7.710937 3.496094 7.691406 7.761719-.023437 4.253907-3.476563 7.691407-7.726563 7.691407zm0 0" fill="#dde9ed"/><path d="m185.734375 389.753906h-.105469c-4.265625 0-7.726562-3.460937-7.726562-7.726562 0-4.269532 3.460937-7.726563 7.726562-7.726563h.105469c4.269531 0 7.726563 3.457031 7.726563 7.726563 0 4.265625-3.457032 7.726562-7.726563 7.726562zm0 0" fill="#60daff"/><path d="m117.660156 440.421875c-.015625 0-.027344 0-.039062 0h-.105469c-4.265625-.019531-7.707031-3.496094-7.6875-7.765625.019531-4.253906 3.476563-7.6875 7.722656-7.6875h.039063.105468c4.265626.023438 7.707032 3.496094 7.6875 7.765625-.019531 4.253906-3.476562 7.6875-7.722656 7.6875zm0 0" fill="#dde9ed"/><path d="m45.898438 339.183594c-.015626 0-.027344 0-.039063 0h-.105469c-4.265625-.023438-7.707031-3.496094-7.6875-7.765625.019532-4.253907 3.476563-7.6875 7.722656-7.6875h.039063.105469c4.265625.023437 7.707031 3.496093 7.6875 7.765625-.019532 4.253906-3.472656 7.6875-7.722656 7.6875zm0 0" fill="#a4d5dd"/><path d="m424.804688 90.570312c-.015626 0-.027344 0-.039063 0h-.105469c-4.265625-.023437-7.707031-3.5-7.6875-7.765624.019532-4.253907 3.476563-7.6875 7.722656-7.6875h.039063.105469c4.265625.019531 7.707031 3.496093 7.6875 7.765624-.019532 4.253907-3.476563 7.6875-7.722656 7.6875zm0 0" fill="#a0ecff"/><path d="m386.550781 112.714844c-.015625 0-.027343 0-.039062 0h-.105469c-4.265625-.023438-7.707031-3.496094-7.6875-7.765625.019531-4.253907 3.476562-7.6875 7.722656-7.6875h.039063.105469c4.265624.019531 7.707031 3.496093 7.6875 7.765625-.019532 4.253906-3.472657 7.6875-7.722657 7.6875zm0 0" fill="#60daff"/><path d="m208.371094 446.445312h-.105469c-4.265625 0-7.726563-3.457031-7.726563-7.726562 0-4.265625 3.460938-7.726562 7.726563-7.726562h.105469c4.269531 0 7.726562 3.460937 7.726562 7.726562 0 4.269531-3.457031 7.726562-7.726562 7.726562zm0 0" fill="#a4d5dd"/><path d="m227.398438 365.46875h-.105469c-4.269531 0-7.726563-3.460938-7.726563-7.726562 0-4.269532 3.457032-7.726563 7.726563-7.726563h.105469c4.265624 0 7.722656 3.457031 7.722656 7.726563.003906 4.265624-3.457032 7.726562-7.722656 7.726562zm0 0" fill="#dde9ed"/><path d="m343.761719 18.402344c-.015625 0-.027344 0-.039063 0-4.265625-.019532-7.707031-3.496094-7.6875-7.761719l.011719-2.949219c.019531-4.257812 3.476563-7.691406 7.726563-7.691406h.039062c4.265625.0195312 7.707031 3.496094 7.6875 7.761719l-.015625 2.953125c-.019531 4.253906-3.472656 7.6875-7.722656 7.6875zm0 0" fill="#a4d5dd"/><path d="m343.667969 48.425781c-.011719 0-.023438 0-.039063 0-4.265625-.023437-7.707031-3.496093-7.6875-7.765625l.011719-2.949218c.023437-4.253907 3.476563-7.6875 7.726563-7.6875h.039062c4.265625.019531 7.707031 3.496093 7.6875 7.761718l-.011719 2.949219c-.023437 4.253906-3.476562 7.691406-7.726562 7.691406zm0 0" fill="#a4d5dd"/><path d="m360.242188 31.992188c-.015626 0-.027344 0-.039063 0l-2.957031-.011719c-4.265625-.023438-7.707032-3.496094-7.6875-7.765625.019531-4.253906 3.476562-7.6875 7.726562-7.6875h.035156l2.957032.011718c4.265625.023438 7.707031 3.496094 7.6875 7.765626-.019532 4.253906-3.472656 7.6875-7.722656 7.6875zm0 0" fill="#a4d5dd"/><path d="m330.15625 31.898438c-.011719 0-.023438 0-.039062 0l-2.953126-.011719c-4.269531-.023438-7.710937-3.496094-7.691406-7.765625.019532-4.253906 3.476563-7.6875 7.726563-7.6875h.039062l2.953125.011718c4.269532.023438 7.710938 3.496094 7.691406 7.765626-.023437 4.253906-3.476562 7.6875-7.726562 7.6875zm0 0" fill="#a4d5dd"/></svg>