<svg height="512pt" viewBox="0 -38 512 512" width="512pt" xmlns="http://www.w3.org/2000/svg"><path d="m235.765625 380.453125c-89.332031 0-162.007813-72.675781-162.007813-162.007813 0-89.328124 72.675782-162.003906 162.007813-162.003906 89.328125 0 162.003906 72.675782 162.003906 162.003906 0 89.332032-72.675781 162.007813-162.003906 162.007813zm0-308.789063c-80.9375 0-146.785156 65.847657-146.785156 146.78125 0 80.9375 65.847656 146.785157 146.785156 146.785157 80.933594 0 146.78125-65.847657 146.78125-146.785157 0-80.933593-65.847656-146.78125-146.78125-146.78125zm0 0" fill="#00df97"/><path d="m471.527344 218.445312c0 32.179688-26.082032 58.253907-58.261719 58.253907-16.476563 0-31.347656-6.84375-41.945313-17.839844 0 0 0 0 0-.007813-10.105468-10.464843-16.304687-24.714843-16.304687-40.402343 0-32.179688 26.082031-58.253907 58.25-58.253907 29.664063 0 54.140625 22.15625 57.792969 50.816407.304687 2.433593.46875 4.917969.46875 7.433593zm0 0" fill="#fab03c"/><path d="m471.527344 218.445312c0 32.179688-26.082032 58.253907-58.261719 58.253907-16.476563 0-31.347656-6.84375-41.945313-17.839844 0 0 0 0 0-.007813-.304687-2.425781-.46875-4.902343-.46875-7.417968 0-32.175782 26.082032-58.261719 58.25-58.261719 16.476563 0 31.359376 6.84375 41.957032 17.839844.304687 2.433593.46875 4.917969.46875 7.433593zm0 0" fill="#fd8f3e"/><g fill="#f8e98e"><path d="m413.273438 147.488281c-4.207032 0-7.613282-3.40625-7.613282-7.609375v-12.546875c0-4.203125 3.410156-7.613281 7.613282-7.613281 4.203124 0 7.609374 3.410156 7.609374 7.613281v12.546875c0 4.203125-3.40625 7.609375-7.609374 7.609375zm0 0"/><path d="m413.273438 317.175781c-4.207032 0-7.613282-3.410156-7.613282-7.613281v-12.546875c0-4.203125 3.410156-7.609375 7.613282-7.609375 4.203124 0 7.609374 3.40625 7.609374 7.609375v12.546875c0 4.207031-3.40625 7.613281-7.609374 7.613281zm0 0"/><path d="m458.835938 304.96875c-2.628907 0-5.1875-1.363281-6.597657-3.804688l-6.273437-10.867187c-2.101563-3.640625-.855469-8.296875 2.785156-10.398437 3.640625-2.101563 8.296875-.851563 10.398438 2.789062l6.273437 10.863281c2.101563 3.640625.855469 8.296875-2.785156 10.398438-1.199219.691406-2.507813 1.019531-3.800781 1.019531zm0 0"/><path d="m345.222656 186.773438c-1.292968 0-2.601562-.328126-3.800781-1.019532l-10.867187-6.273437c-3.640626-2.101563-4.886719-6.757813-2.785157-10.398438 2.101563-3.640625 6.757813-4.886719 10.398438-2.785156l10.863281 6.273437c3.644531 2.101563 4.890625 6.757813 2.789062 10.398438-1.410156 2.441406-3.96875 3.804688-6.597656 3.804688zm0 0"/><path d="m492.175781 271.617188c-1.292969 0-2.601562-.328126-3.800781-1.019532l-10.867188-6.273437c-3.640624-2.101563-4.886718-6.757813-2.785156-10.398438 2.101563-3.640625 6.753906-4.886719 10.394532-2.785156l10.867187 6.273437c3.640625 2.101563 4.890625 6.757813 2.789063 10.398438-1.410157 2.441406-3.96875 3.804688-6.597657 3.804688zm0 0"/><path d="m504.386719 226.058594h-12.546875c-4.203125 0-7.609375-3.40625-7.609375-7.613282 0-4.203124 3.40625-7.609374 7.609375-7.609374h12.546875c4.207031 0 7.613281 3.40625 7.613281 7.609374 0 4.203126-3.40625 7.613282-7.613281 7.613282zm0 0"/><path d="m334.703125 226.058594h-12.550781c-4.203125 0-7.609375-3.40625-7.609375-7.613282 0-4.203124 3.40625-7.609374 7.609375-7.609374h12.550781c4.203125 0 7.609375 3.40625 7.609375 7.609374 0 4.203126-3.40625 7.613282-7.609375 7.613282zm0 0"/><path d="m481.320312 186.773438c-2.628906 0-5.1875-1.363282-6.597656-3.804688-2.101562-3.640625-.855468-8.296875 2.785156-10.398438l10.867188-6.273437c3.640625-2.101563 8.296875-.855469 10.398438 2.785156 2.101562 3.640625.855468 8.296875-2.785157 10.398438l-10.867187 6.273437c-1.199219.691406-2.507813 1.019532-3.800782 1.019532zm0 0"/><path d="m334.367188 271.617188c-2.628907 0-5.1875-1.363282-6.597657-3.804688-2.101562-3.640625-.855469-8.296875 2.785157-10.398438l10.867187-6.273437c3.640625-2.101563 8.296875-.855469 10.398437 2.785156 2.101563 3.640625.855469 8.296875-2.789062 10.398438l-10.863281 6.273437c-1.199219.691406-2.507813 1.019532-3.800781 1.019532zm0 0"/><path d="m452.550781 158.015625c-1.292969 0-2.601562-.328125-3.800781-1.019531-3.640625-2.101563-4.886719-6.757813-2.785156-10.398438l6.273437-10.867187c2.101563-3.640625 6.757813-4.886719 10.398438-2.785157 3.640625 2.101563 4.886719 6.757813 2.785156 10.398438l-6.273437 10.867188c-1.410157 2.441406-3.96875 3.804687-6.597657 3.804687zm0 0"/></g><path d="m116.511719 218.445312c0 8.09375-1.648438 15.792969-4.625 22.789063-8.867188 20.847656-29.546875 35.464844-53.625 35.464844-24.097657 0-44.78125-14.617188-53.628907-35.484375-.324218-.753906-.632812-1.511719-.917968-2.28125-2.40625-6.371094-3.714844-13.277344-3.714844-20.488282 0-32.175781 26.082031-58.25 58.261719-58.25 7.210937 0 14.113281 1.308594 20.484375 3.703126 22.066406 8.296874 37.765625 29.582031 37.765625 54.546874zm0 0" fill="#fab03c"/><path d="m111.886719 241.234375c-8.867188 20.847656-29.546875 35.464844-53.625 35.464844-24.097657 0-44.78125-14.617188-53.628907-35.484375 8.871094-20.84375 29.542969-35.460938 53.628907-35.460938 7.210937 0 14.113281 1.308594 20.484375 3.703125 14.925781 5.605469 26.933594 17.160157 33.140625 31.777344zm0 0" fill="#fd8f3e"/><path d="m82.449219 184.386719c0 32.179687-26.070313 58.261719-58.25 58.261719-7.210938 0-14.113281-1.308594-20.484375-3.714844-2.40625-6.371094-3.714844-13.277344-3.714844-20.488282 0-32.175781 26.082031-58.25 58.261719-58.25 7.210937 0 14.113281 1.308594 20.484375 3.703126 2.394531 6.371093 3.703125 13.277343 3.703125 20.488281zm0 0" fill="#3e4eb7"/><path d="m294.015625 58.261719c0 32.167969-26.074219 58.25-58.253906 58.25-20.464844 0-38.457031-10.542969-48.839844-26.5-5.953125-9.136719-9.410156-20.039063-9.410156-31.75 0-32.179688 26.074219-58.261719 58.253906-58.261719 11.71875 0 22.625 3.457031 31.757813 9.410156 15.945312 10.390625 26.492187 28.394532 26.492187 48.851563zm0 0" fill="#fab03c"/><path d="m276.941406 41.179688c0 32.167968-26.082031 58.25-58.257812 58.25-11.710938 0-22.625-3.464844-31.761719-9.417969-5.953125-9.136719-9.410156-20.039063-9.410156-31.75 0-32.179688 26.074219-58.261719 58.253906-58.261719 11.71875 0 22.625 3.457031 31.757813 9.410156 5.953124 9.132813 9.417968 20.046875 9.417968 31.769532zm0 0" fill="#3e4eb7"/><path d="m294.015625 378.632812c0 4.757813-.574219 9.378907-1.648437 13.796876-6.1875 25.519531-29.183594 44.464843-56.605469 44.464843-14.347657 0-27.492188-5.1875-37.640625-13.796875-12.242188-10.375-20.136719-25.714844-20.589844-42.917968-.007812-.511719-.019531-1.023438-.019531-1.546876 0-32.167968 26.074219-58.25 58.253906-58.25.519531 0 1.03125.011719 1.542969.019532 31.460937.820312 56.707031 26.574218 56.707031 58.230468zm0 0" fill="#fab03c"/><path d="m220.257812 363.136719c-11.761718 11.761719-27.308593 17.4375-42.722656 17.039062-.011718-.511719-.019531-1.023437-.019531-1.542969 0-32.167968 26.070313-58.25 58.25-58.25.519531 0 1.03125.007813 1.542969.019532.398437 15.425781-5.277344 30.960937-17.050782 42.734375zm0 0" fill="#3e4eb7"/><path d="m292.367188 392.429688c-6.1875 25.519531-29.179688 44.464843-56.601563 44.464843-14.351563 0-27.496094-5.1875-37.640625-13.796875 6.1875-25.523437 29.179688-44.464844 56.601562-44.464844.523438 0 1.035157.011719 1.546876.03125 13.746093.359376 26.316406 5.472657 36.09375 13.765626zm0 0" fill="#fd8f3e"/><path d="m356.910156 383.472656h-16.6875c-4.203125 0-7.609375-3.410156-7.609375-7.613281s3.40625-7.613281 7.609375-7.613281h16.6875c4.207032 0 7.613282 3.410156 7.613282 7.613281s-3.40625 7.613281-7.613282 7.613281zm0 0" fill="#6d6d6d"/><path d="m420.328125 410.726562h-80.105469c-4.203125 0-7.609375-3.40625-7.609375-7.609374 0-4.203126 3.40625-7.613282 7.609375-7.613282h80.105469c4.203125 0 7.613281 3.40625 7.613281 7.613282 0 4.203124-3.410156 7.609374-7.613281 7.609374zm0 0" fill="#6d6d6d"/><path d="m420.328125 432.566406h-80.105469c-4.203125 0-7.609375-3.40625-7.609375-7.613281 0-4.203125 3.40625-7.609375 7.609375-7.609375h80.105469c4.203125 0 7.613281 3.410156 7.613281 7.609375 0 4.203125-3.410156 7.613281-7.613281 7.613281zm0 0" fill="#6d6d6d"/><path d="m345.480469 15.25h-16.6875c-4.203125 0-7.613281-3.410156-7.613281-7.613281s3.410156-7.6093752 7.613281-7.6093752h16.6875c4.203125 0 7.613281 3.4062502 7.613281 7.6093752s-3.410156 7.613281-7.613281 7.613281zm0 0" fill="#6d6d6d"/><path d="m408.894531 42.503906h-80.105469c-4.203124 0-7.609374-3.40625-7.609374-7.609375s3.40625-7.613281 7.609374-7.613281h80.105469c4.203125 0 7.613281 3.410156 7.613281 7.613281s-3.410156 7.609375-7.613281 7.609375zm0 0" fill="#6d6d6d"/><path d="m408.894531 64.34375h-80.105469c-4.203124 0-7.609374-3.40625-7.609374-7.609375s3.40625-7.613281 7.609374-7.613281h80.105469c4.203125 0 7.613281 3.410156 7.613281 7.613281s-3.410156 7.609375-7.613281 7.609375zm0 0" fill="#6d6d6d"/><path d="m125.859375 30.054688c-.011719 0-.023437 0-.035156 0-4.203125-.023438-7.597657-3.445313-7.578125-7.648438l.015625-2.777344c.019531-4.203125 3.417969-7.613281 7.644531-7.578125 4.207031.019531 7.597656 3.445313 7.578125 7.648438l-.011719 2.777343c-.019531 4.191407-3.425781 7.578126-7.613281 7.578126zm0 0" fill="#fab03c"/><path d="m125.773438 58.332031c-.011719 0-.027344 0-.039063 0-4.203125-.019531-7.59375-3.445312-7.574219-7.648437l.011719-2.777344c.019531-4.191406 3.425781-7.578125 7.613281-7.578125h.035156c4.207032.023437 7.597657 3.445313 7.578126 7.648437l-.015626 2.78125c-.019531 4.1875-3.421874 7.574219-7.609374 7.574219zm0 0" fill="#fab03c"/><path d="m141.382812 42.851562c-.011718 0-.023437 0-.035156 0l-2.785156-.011718c-4.203125-.019532-7.59375-3.445313-7.574219-7.648438.019531-4.191406 3.421875-7.574218 7.609375-7.574218h.039063l2.785156.011718c4.203125.019532 7.59375 3.445313 7.574219 7.648438-.023438 4.191406-3.425782 7.574218-7.613282 7.574218zm0 0" fill="#fab03c"/><path d="m113.046875 42.765625c-.011719 0-.023437 0-.039063 0l-2.78125-.011719c-4.203124-.019531-7.59375-3.445312-7.574218-7.648437.019531-4.191407 3.421875-7.574219 7.609375-7.574219h.039062l2.78125.011719c4.203125.019531 7.597657 3.445312 7.574219 7.648437-.019531 4.191406-3.421875 7.574219-7.609375 7.574219zm0 0" fill="#fab03c"/><path d="m160.363281 258.867188c-.011719 0-.023437 0-.039062 0-4.203125-.019532-7.59375-3.445313-7.574219-7.648438l.015625-2.777344c.019531-4.191406 3.421875-7.574218 7.609375-7.574218h.039062c4.203126.019531 7.59375 3.445312 7.574219 7.648437l-.011719 2.777344c-.023437 4.191406-3.425781 7.574219-7.613281 7.574219zm0 0" fill="#fd8f3e"/><path d="m160.277344 287.144531c-.011719 0-.023438 0-.039063 0-4.203125-.019531-7.59375-3.445312-7.574219-7.648437l.011719-2.777344c.019531-4.191406 3.425781-7.574219 7.613281-7.574219h.035157c4.207031.019531 7.597656 3.445313 7.578125 7.648438l-.015625 2.777343c-.019531 4.191407-3.421875 7.574219-7.609375 7.574219zm0 0" fill="#fd8f3e"/><path d="m175.886719 271.667969c-.011719 0-.023438 0-.035157 0l-2.785156-.011719c-4.203125-.019531-7.59375-3.445312-7.574218-7.648438.019531-4.203124 3.457031-7.582031 7.648437-7.574218l2.78125.011718c4.207031.019532 7.597656 3.445313 7.574219 7.648438-.019532 4.1875-3.421875 7.574219-7.609375 7.574219zm0 0" fill="#fd8f3e"/><path d="m147.550781 271.578125c-.011719 0-.023437 0-.035156 0l-2.785156-.011719c-4.203125-.019531-7.59375-3.441406-7.574219-7.644531.019531-4.195313 3.421875-7.578125 7.609375-7.578125h.035156l2.785157.011719c4.203124.019531 7.597656 3.445312 7.574218 7.648437-.019531 4.191406-3.421875 7.574219-7.609375 7.574219zm0 0" fill="#fd8f3e"/><path d="m125.910156 397.976562c-.011718 0-.023437 0-.039062 0-4.203125-.019531-7.59375-3.445312-7.574219-7.648437l.015625-2.777344c.019531-4.203125 3.476562-7.570312 7.648438-7.574219 4.203124.019532 7.59375 3.445313 7.574218 7.648438l-.015625 2.777344c-.019531 4.191406-3.421875 7.574218-7.609375 7.574218zm0 0" fill="#fab03c"/><path d="m125.824219 426.253906c-.011719 0-.023438 0-.039063 0-4.203125-.019531-7.59375-3.441406-7.574218-7.644531l.011718-2.78125c.019532-4.191406 3.425782-7.574219 7.613282-7.574219h.035156c4.203125.019532 7.597656 3.441406 7.574218 7.648438l-.011718 2.777344c-.019532 4.191406-3.421875 7.574218-7.609375 7.574218zm0 0" fill="#fab03c"/><path d="m141.433594 410.777344c-.011719 0-.023438 0-.035156 0l-2.785157-.011719c-4.203125-.019531-7.59375-3.445313-7.574219-7.648437.019532-4.191407 3.421876-7.574219 7.609376-7.574219h.039062l2.785156.011719c4.203125.019531 7.59375 3.445312 7.574219 7.648437-.023437 4.191406-3.425781 7.574219-7.613281 7.574219zm0 0" fill="#fab03c"/><path d="m113.097656 410.691406c-.011718 0-.023437 0-.035156 0l-2.785156-.015625c-4.203125-.019531-7.597656-3.441406-7.578125-7.644531.019531-4.191406 3.425781-7.578125 7.613281-7.578125h.035156l2.785156.015625c4.203126.015625 7.59375 3.441406 7.574219 7.644531-.019531 4.191407-3.421875 7.578125-7.609375 7.578125zm0 0" fill="#fab03c"/></svg>