<svg height="512pt" viewBox="0 -7 512.00127 512" width="512pt" xmlns="http://www.w3.org/2000/svg"><path d="m249.375 393.601562c0 5.800782-4.921875 10.375-10.710938 9.980469-80.367187-5.5-143.859374-72.4375-143.859374-154.207031 0-81.765625 63.492187-148.703125 143.859374-154.203125 5.789063-.398437 10.710938 4.179687 10.710938 9.980469zm0 0" fill="#f6cb43"/><path d="m249.371094 105.148438v288.457031c0 5.785156-4.894532 10.375-10.667969 9.980469-44.042969-3.003907-83.023437-24.460938-109.265625-56.703126 50.246094-25.511718 84.667969-77.6875 84.667969-137.898437 0-36.972656-12.980469-70.910156-34.636719-97.507813 17.988281-9.140624 38.011719-14.863281 59.207031-16.308593 5.785157-.394531 10.695313 4.1875 10.695313 9.980469zm0 0" fill="#fab03c"/><g fill="#f8e98e"><path d="m249.375 48.515625c-4.203125 0-7.609375-3.40625-7.609375-7.609375v-33.292969c0-4.207031 3.40625-7.613281 7.609375-7.613281s7.613281 3.410156 7.613281 7.613281v33.289063c0 4.207031-3.410156 7.613281-7.613281 7.613281zm0 0"/><path d="m249.375 498.753906c-4.203125 0-7.609375-3.410156-7.609375-7.613281v-33.292969c0-4.203125 3.40625-7.609375 7.609375-7.609375s7.613281 3.40625 7.613281 7.609375v33.292969c0 4.203125-3.410156 7.613281-7.613281 7.613281zm0 0"/><path d="m145.148438 76.445312c-2.632813 0-5.191407-1.363281-6.601563-3.804687l-16.644531-28.832031c-2.101563-3.640625-.855469-8.296875 2.785156-10.398438 3.640625-2.101562 8.296875-.855468 10.398438 2.785156l16.644531 28.832032c2.101562 3.640625.855469 8.296875-2.785157 10.398437-1.199218.691407-2.507812 1.019531-3.796874 1.019531zm0 0"/><path d="m68.828125 152.753906c-1.292969 0-2.601563-.328125-3.800781-1.019531l-28.832032-16.648437c-3.640624-2.101563-4.886718-6.757813-2.785156-10.394532 2.101563-3.640625 6.753906-4.890625 10.398438-2.789062l28.832031 16.648437c3.640625 2.101563 4.886719 6.753907 2.785156 10.394531-1.410156 2.441407-3.96875 3.808594-6.597656 3.808594zm0 0"/><path d="m40.902344 256.988281h-33.292969c-4.203125 0-7.609375-3.40625-7.609375-7.613281 0-4.203125 3.40625-7.609375 7.609375-7.609375h33.292969c4.203125 0 7.613281 3.40625 7.613281 7.609375s-3.40625 7.613281-7.613281 7.613281zm0 0"/><path d="m40.007812 377.871094c-2.628906 0-5.1875-1.363282-6.597656-3.804688-2.101562-3.644531-.855468-8.296875 2.785156-10.398437l28.832032-16.644531c3.640625-2.105469 8.296875-.855469 10.398437 2.785156 2.101563 3.640625.855469 8.296875-2.785156 10.394531l-28.832031 16.648437c-1.199219.691407-2.507813 1.019532-3.800782 1.019532zm0 0"/><path d="m128.488281 466.363281c-1.292969 0-2.601562-.328125-3.800781-1.019531-3.640625-2.101562-4.886719-6.757812-2.785156-10.398438l16.644531-28.832031c2.101563-3.640625 6.757813-4.886719 10.398437-2.785156 3.640626 2.101563 4.886719 6.757813 2.785157 10.398437l-16.644531 28.828126c-1.410157 2.445312-3.96875 3.808593-6.597657 3.808593zm0 0"/></g><path d="m277.96875 479.109375c0 6.644531 5.386719 12.03125 12.027344 12.03125 6.644531 0 12.03125-5.386719 12.03125-12.03125v-20.972656l24.707031 18.085937c2.140625 1.566406 4.628906 2.324219 7.097656 2.324219 3.703125 0 7.359375-1.707031 9.71875-4.925781 3.921875-5.363282 2.757813-12.890625-2.601562-16.816406l-38.917969-28.488282v-13.167968h6.671875c6.644531 0 12.03125-5.386719 12.03125-12.03125 0-6.644532-5.386719-12.03125-12.03125-12.03125h-6.671875v-64.257813l34.59375 25.328125c3.847656 2.8125 8.992188 3.09375 13.121094.710938 4.132812-2.382813 6.464844-6.980469 5.945312-11.722657l-4.632812-42.621093 55.648437 32.128906-3.339843 5.777344c-3.320313 5.757812-1.347657 13.113281 4.40625 16.4375 1.894531 1.09375 3.960937 1.613281 6.003906 1.613281 4.15625 0 8.203125-2.15625 10.429687-6.015625l3.339844-5.78125 11.402344 6.582031 5.214843 47.949219c.671876 6.164062 5.886719 10.734375 11.945313 10.734375.4375 0 .875-.023438 1.316406-.074219 6.605469-.71875 11.378907-6.65625 10.660157-13.261719l-3.308594-30.4375 18.160156 10.488281c1.898438 1.09375 3.964844 1.613282 6.003906 1.613282 4.160156 0 8.203125-2.15625 10.433594-6.015625 3.320312-5.753907 1.351562-13.113281-4.40625-16.433594l-18.160156-10.488281 28.011718-12.351563c6.082032-2.679687 8.835938-9.78125 6.15625-15.863281-2.683593-6.082031-9.789062-8.835938-15.863281-6.152344l-44.132812 19.457032-11.40625-6.585938 3.339843-5.777344c3.320313-5.753906 1.351563-13.113281-4.40625-16.4375-5.753906-3.320312-13.113281-1.347656-16.433593 4.40625l-3.335938 5.78125-55.648437-32.128906 39.230468-17.300781c4.363282-1.921875 7.175782-6.238281 7.175782-11.007813 0-4.765625-2.8125-9.082031-7.175782-11.007812l-39.230468-17.296875 55.648437-32.128907 3.335938 5.78125c2.230469 3.859376 6.273437 6.015626 10.429687 6.015626 2.042969 0 4.109375-.519532 6.003906-1.613282 5.757813-3.320312 7.726563-10.679687 4.40625-16.433594l-3.339843-5.78125 11.40625-6.585937 44.132812 19.460937c1.578125.695313 3.226563 1.027344 4.847657 1.027344 4.621093 0 9.027343-2.679687 11.015624-7.183594 2.679688-6.078124-.074218-13.179687-6.15625-15.859374l-28.011718-12.355469 18.160156-10.484375c5.757812-3.320313 7.726562-10.679688 4.40625-16.433594-3.324219-5.753906-10.679688-7.726562-16.4375-4.40625l-18.160156 10.488281 3.308594-30.4375c.71875-6.605469-4.054688-12.542969-10.660157-13.261719-6.597656-.722656-12.542969 4.054688-13.261719 10.660157l-5.214843 47.949219-11.402344 6.585937-3.339844-5.78125c-3.320312-5.753906-10.679687-7.726563-16.433593-4.40625-5.753907 3.324219-7.726563 10.683594-4.40625 16.4375l3.339843 5.78125-55.648437 32.128906 4.632812-42.625c.519532-4.742187-1.8125-9.335937-5.945312-11.71875-4.128906-2.386719-9.273438-2.105469-13.121094.710938l-34.59375 25.324219v-64.257813h6.671875c6.644531 0 12.03125-5.386719 12.03125-12.03125s-5.386719-12.03125-12.03125-12.03125h-6.671875v-13.171875l38.917969-28.488281c5.359375-3.925781 6.523437-11.453125 2.601562-16.816407-3.925781-5.363281-11.453125-6.527343-16.816406-2.601562l-24.703125 18.085938v-20.972657c0-6.644531-5.386719-12.03125-12.03125-12.03125s-12.03125 5.386719-12.03125 12.03125zm89.675781-229.734375-30.382812 13.398438-23.203125-13.398438 23.203125-13.394531zm-38.820312-67.242188-3.589844 33.007813-23.203125 13.398437v-26.792968zm-50.855469 88.082032v26.792968m50.855469 19.613282-26.792969-19.613282v-26.792968l23.203125 13.398437zm0 0" fill="#c4e1e8"/><path d="m389.339844 400.210938c-.011719 0-.023438 0-.035156 0h-.105469c-4.207031-.019532-7.597657-3.445313-7.578125-7.648438.019531-4.191406 3.425781-7.574219 7.613281-7.574219h.035156.105469c4.203125.019531 7.597656 3.441407 7.574219 7.644531-.019531 4.191407-3.421875 7.578126-7.609375 7.578126zm0 0" fill="#a0ecff"/><path d="m356.410156 86.761719c-.011718 0-.023437 0-.035156 0h-.105469c-4.203125-.019531-7.59375-3.445313-7.574219-7.648438.019532-4.191406 3.421876-7.574219 7.609376-7.574219h.039062.101562c4.207032.019532 7.597657 3.441407 7.578126 7.644532-.019532 4.191406-3.425782 7.578125-7.613282 7.578125zm0 0" fill="#a0ecff"/><path d="m405.578125 117.207031c-.011719 0-.023437 0-.039063 0h-.101562c-4.207031-.019531-7.597656-3.445312-7.578125-7.648437.019531-4.191406 3.425781-7.574219 7.613281-7.574219h.035156.105469c4.203125.019531 7.597657 3.441406 7.574219 7.644531-.019531 4.191406-3.421875 7.578125-7.609375 7.578125zm0 0" fill="#a0ecff"/><path d="m456.929688 256.988281h-.105469c-4.203125 0-7.609375-3.40625-7.609375-7.613281 0-4.203125 3.40625-7.609375 7.609375-7.609375h.105469c4.207031 0 7.613281 3.40625 7.613281 7.609375s-3.410157 7.613281-7.613281 7.613281zm0 0" fill="#a0ecff"/><path d="m384.992188 132.863281c-.011719 0-.023438 0-.035157 0h-.105469c-4.203124-.019531-7.59375-3.445312-7.574218-7.648437.019531-4.191406 3.421875-7.574219 7.609375-7.574219h.039062.101563c4.207031.019531 7.597656 3.441406 7.578125 7.644531-.019531 4.195313-3.425781 7.578125-7.613281 7.578125zm0 0" fill="#a0ecff"/><path d="m374.789062 423.042969h-.101562c-4.207031 0-7.613281-3.410157-7.613281-7.613281 0-4.203126 3.410156-7.609376 7.613281-7.609376h.101562c4.207032 0 7.613282 3.40625 7.613282 7.609376 0 4.203124-3.40625 7.613281-7.613282 7.613281zm0 0" fill="#a0ecff"/></svg>