<svg height="512pt" viewBox="-59 0 512 512.00065" width="512pt" xmlns="http://www.w3.org/2000/svg"><path d="m224.941406 142.167969-48.4375 111.492187h31.660156c9.304688 0 14.386719 10.855469 8.425782 18l-90.269532 108.210938-106.886718 128.132812c-7.492188 8.976563-21.957032 1.570313-19.054688-9.757812l51.132813-199.414063h-38.378907c-7.902343 0-13.2148432-8.097656-10.066406-15.34375l48.445313-111.480469h-38.382813c-7.898437 0-13.2109372-8.097656-10.0625-15.347656l65.207032-150.0625c1.742187-4.003906 5.695312-6.597656 10.0625-6.597656h136.539062c7.902344 0 13.210938 8.097656 10.0625 15.34375l-48.433594 111.480469h38.371094c7.902344 0 13.214844 8.097656 10.066406 15.34375zm0 0" fill="#f6cb43"/><path d="m224.941406 142.167969-48.4375 111.492187h31.660156c9.304688 0 14.386719 10.855469 8.425782 18l-90.269532 108.210938 17.480469-68.179688c1.671875-6.515625-3.25-12.859375-9.976562-12.859375h-25.105469c-7.902344 0-13.210938-8.097656-10.0625-15.34375l42.183594-97.074219c2.957031-6.804687-2.03125-14.40625-9.449219-14.40625h-22.671875c-7.902344 0-13.210938-8.101562-10.0625-15.347656l68.074219-156.660156h48.148437c7.898438 0 13.210938 8.097656 10.0625 15.34375l-48.4375 111.480469h38.375c7.898438 0 13.210938 8.097656 10.0625 15.34375zm0 0" fill="#fab03c"/><path d="m393.902344 222.675781-25.054688 57.671875h16.375c4.816406 0 7.445313 5.613282 4.359375 9.308594l-102.734375 111.484375c-7.253906 7.871094-20.210937.828125-17.554687-9.542969l22.535156-87.882812h-19.851563c-4.089843 0-6.835937-4.191406-5.207031-7.941406l25.058594-57.664063h-19.851563c-4.089843 0-6.835937-4.1875-5.207031-7.9375l33.730469-77.625c.902344-2.074219 2.945312-3.414063 5.207031-3.414063h82.992188c4.085937 0 6.832031 4.1875 5.203125 7.9375l-25.054688 57.667969h19.851563c4.085937 0 6.832031 4.1875 5.203125 7.9375zm0 0" fill="#fab03c"/><path d="m393.90625 222.671875-25.054688 57.671875h16.371094c4.820313 0 7.445313 5.613281 4.355469 9.3125l-102.726563 111.480469c-7.253906 7.875-20.214843.832031-17.554687-9.539063l9.25-36.074218 60.695313-65.867188c3.09375-3.699219.464843-9.3125-4.355469-9.3125h-8.515625c-3.710938 0-6.203125-3.804688-4.726563-7.203125l21.925781-50.46875c1.628907-3.75-1.121093-7.929687-5.214843-7.929687h-11.984375c-3.710938 0-6.203125-3.804688-4.726563-7.203126l21.925781-50.46875c1.628907-3.75-1.121093-7.941406-5.210937-7.941406h50.332031c4.09375 0 6.84375 4.191406 5.214844 7.941406l-25.054688 57.671876h19.839844c4.089844 0 6.839844 4.179687 5.214844 7.929687zm0 0" fill="#f6cb43"/></svg>