<svg height="512pt" viewBox="-81 0 512 512" width="512pt" xmlns="http://www.w3.org/2000/svg"><path d="m132.132812 373.390625v-320.617187c0-29.144532-23.628906-52.773438-52.773437-52.773438s-52.773437 23.628906-52.773437 52.773438v320.617187c-16.308594 14.535156-26.585938 35.6875-26.585938 59.25 0 43.828125 35.53125 79.359375 79.359375 79.359375s79.359375-35.53125 79.359375-79.359375c0-23.5625-10.28125-44.714844-26.585938-59.25zm0 0" fill="#a09d9c"/><g fill="#565656"><path d="m107.714844 124.035156h-9.191406c-4.265626 0-7.726563-3.457031-7.726563-7.726562 0-4.265625 3.460937-7.722656 7.726563-7.722656h9.191406c4.269531 0 7.726562 3.457031 7.726562 7.722656 0 4.269531-3.457031 7.726562-7.726562 7.726562zm0 0"/><path d="m107.714844 180.484375h-9.191406c-4.265626 0-7.726563-3.460937-7.726563-7.726563 0-4.265624 3.460937-7.726562 7.726563-7.726562h9.191406c4.269531 0 7.726562 3.460938 7.726562 7.726562 0 4.265626-3.457031 7.726563-7.726562 7.726563zm0 0"/><path d="m107.714844 236.933594h-9.191406c-4.265626 0-7.726563-3.460938-7.726563-7.726563s3.460937-7.726562 7.726563-7.726562h9.191406c4.269531 0 7.726562 3.460937 7.726562 7.726562s-3.457031 7.726563-7.726562 7.726563zm0 0"/><path d="m107.714844 293.382812h-9.191406c-4.265626 0-7.726563-3.460937-7.726563-7.726562 0-4.269531 3.460937-7.726562 7.726563-7.726562h9.191406c4.269531 0 7.726562 3.457031 7.726562 7.726562 0 4.265625-3.457031 7.726562-7.726562 7.726562zm0 0"/><path d="m107.714844 349.828125h-9.191406c-4.265626 0-7.726563-3.457031-7.726563-7.722656 0-4.269531 3.460937-7.726563 7.726563-7.726563h9.191406c4.269531 0 7.726562 3.457032 7.726562 7.726563 0 4.265625-3.457031 7.722656-7.726562 7.722656zm0 0"/></g><path d="m123.007812 432.644531c0 24.058594-19.574218 43.648438-43.648437 43.648438s-43.648437-19.589844-43.648437-43.648438c0-12.425781 5.335937-24.304687 14.640624-32.589843l11.941407-10.652344v-336.625c0-9.167969 7.265625-16.667969 16.339843-17.046875.242188-.019531.484376-.019531.726563-.019531 9.410156 0 17.066406 7.65625 17.066406 17.066406v336.625l11.941407 10.652344c9.304687 8.285156 14.640624 20.164062 14.640624 32.589843zm0 0" fill="#c4e1e8"/><path d="m96.425781 52.777344v277.789062h-17.792969v-294.835937c.242188-.019531.484376-.019531.726563-.019531 9.410156 0 17.066406 7.65625 17.066406 17.066406zm0 0" fill="#a4d5dd"/><path d="m123.007812 432.644531c0 19.300781-12.601562 35.730469-30.015624 41.464844-4.296876 1.417969-8.875 2.183594-13.632813 2.183594-24.074219 0-43.648437-19.589844-43.648437-43.648438 0-12.425781 5.335937-24.304687 14.640624-32.589843l11.941407-10.652344v-69.339844h34.132812v69.339844l11.941407 10.652344c9.304687 8.285156 14.640624 20.164062 14.640624 32.589843zm0 0" fill="#38aaff"/><path d="m123.007812 432.644531c0 19.300781-12.601562 35.730469-30.015624 41.464844 7.5625-7.847656 12.226562-18.527344 12.226562-30.269531 0-12.414063-5.335938-24.292969-14.632812-32.589844l-11.949219-10.652344v-80.535156h17.789062v69.339844l11.941407 10.652344c9.304687 8.285156 14.640624 20.164062 14.640624 32.589843zm0 0" fill="#2081f6"/><path d="m283.78125 302.179688c-42.285156 0-76.6875-34.40625-76.6875-76.691407 0-42.289062 34.402344-76.691406 76.6875-76.691406 24.914062 0 48.351562 12.160156 62.699219 32.527344 5.019531 7.128906 3.3125 16.980469-3.816407 22-7.128906 5.023437-16.980468 3.316406-22.003906-3.8125-8.4375-11.984375-22.222656-19.136719-36.878906-19.136719-11.9375 0-23.238281 4.722656-31.8125 13.296875s-13.296875 19.875-13.296875 31.816406c0 11.9375 4.722656 23.238281 13.296875 31.8125s19.875 13.296875 31.8125 13.296875c14.171875 0 27.691406-6.78125 36.160156-18.140625 5.214844-6.988281 15.109375-8.429687 22.097656-3.214843 6.992188 5.210937 8.429688 15.105468 3.21875 22.09375-14.40625 19.3125-37.386718 30.84375-61.476562 30.84375zm0 0" fill="#60daff"/><path d="m225.039062 132.355469c0 11.355469-9.207031 20.5625-20.5625 20.5625-11.355468 0-20.5625-9.207031-20.5625-20.5625s9.207032-20.5625 20.5625-20.5625c11.355469 0 20.5625 9.207031 20.5625 20.5625zm0 0" fill="#38aaff"/><path d="m223.902344 338.1875h-16.808594c-4.269531 0-7.726562-3.460938-7.726562-7.726562 0-4.269532 3.457031-7.726563 7.726562-7.726563h16.808594c4.265625 0 7.726562 3.457031 7.726562 7.726563 0 4.265624-3.460937 7.726562-7.726562 7.726562zm0 0" fill="#38aaff"/><path d="m287.773438 365.636719h-80.679688c-4.269531 0-7.726562-3.457031-7.726562-7.726563 0-4.265625 3.457031-7.722656 7.726562-7.722656h80.679688c4.265624 0 7.726562 3.457031 7.726562 7.722656 0 4.269532-3.460938 7.726563-7.726562 7.726563zm0 0" fill="#a09d9c"/><path d="m287.773438 387.636719h-80.679688c-4.269531 0-7.726562-3.460938-7.726562-7.726563 0-4.269531 3.457031-7.726562 7.726562-7.726562h80.679688c4.265624 0 7.726562 3.457031 7.726562 7.726562 0 4.265625-3.460938 7.726563-7.726562 7.726563zm0 0" fill="#a09d9c"/><path d="m247.8125 484.015625h-8.789062c-10.328126 0-18.726563-8.398437-18.726563-18.726563v-38.113281c0-10.324219 8.398437-18.726562 18.726563-18.726562h8.789062c10.328125 0 18.726562 8.402343 18.726562 18.726562v38.113281c0 10.328126-8.398437 18.726563-18.726562 18.726563zm-8.789062-60.113281c-1.804688 0-3.277344 1.46875-3.277344 3.273437v38.113281c0 1.804688 1.472656 3.273438 3.277344 3.273438h8.789062c1.804688 0 3.273438-1.464844 3.273438-3.273438v-38.113281c0-1.804687-1.46875-3.273437-3.273438-3.273437zm0 0" fill="#565656"/><path d="m207.148438 423.902344c-.015626 0-.027344 0-.039063 0h-.105469c-4.269531-.019532-7.710937-3.496094-7.691406-7.761719.019531-4.257813 3.476562-7.691406 7.726562-7.691406h.035157.109375c4.265625.019531 7.707031 3.496093 7.6875 7.765625-.019532 4.253906-3.476563 7.6875-7.722656 7.6875zm0 0" fill="#565656"/></svg>