<svg height="512pt" viewBox="0 -47 512 512" width="512pt" xmlns="http://www.w3.org/2000/svg"><path d="m307.175781 190.34375c0 64.523438-52.308593 116.832031-116.832031 116.832031s-116.828125-52.308593-116.828125-116.832031 52.304687-116.828125 116.828125-116.828125 116.832031 52.304687 116.832031 116.828125zm0 0" fill="#f6cb43"/><path d="m307.171875 190.339844c0 64.527344-52.304687 116.832031-116.828125 116.832031-56.59375 0-103.792969-40.238281-114.53125-93.667969 7.492188 1.507813 15.230469 2.300782 23.164062 2.300782 64.527344 0 116.828126-52.304688 116.828126-116.832032 0-7.933594-.789063-15.671875-2.300782-23.160156 53.433594 10.746094 93.667969 57.945312 93.667969 114.527344zm0 0" fill="#fab03c"/><g fill="#f8e98e"><path d="m190.34375 40.386719c-4.203125 0-7.609375-3.410157-7.609375-7.613281v-25.164063c0-4.203125 3.40625-7.609375 7.609375-7.609375 4.207031 0 7.613281 3.40625 7.613281 7.609375v25.164063c0 4.203124-3.40625 7.613281-7.613281 7.613281zm0 0"/><path d="m111.566406 61.496094c-2.628906 0-5.1875-1.363282-6.597656-3.804688l-12.582031-21.792968c-2.101563-3.640626-.855469-8.292969 2.785156-10.394532 3.640625-2.105468 8.296875-.855468 10.398437 2.785156l12.582032 21.789063c2.101562 3.640625.855468 8.296875-2.785156 10.398437-1.199219.691407-2.507813 1.019532-3.800782 1.019532zm0 0"/><path d="m53.878906 119.171875c-1.292968 0-2.601562-.328125-3.800781-1.019531l-21.792969-12.582032c-3.636718-2.101562-4.886718-6.757812-2.785156-10.398437s6.757812-4.886719 10.398438-2.785156l21.792968 12.582031c3.636719 2.101562 4.886719 6.757812 2.785156 10.394531-1.410156 2.445313-3.96875 3.808594-6.597656 3.808594zm0 0"/><path d="m32.773438 197.957031h-25.164063c-4.203125 0-7.609375-3.410156-7.609375-7.613281s3.40625-7.609375 7.609375-7.609375h25.164063c4.207031 0 7.613281 3.40625 7.613281 7.609375s-3.40625 7.613281-7.613281 7.613281zm0 0"/><path d="m326.8125 119.171875c-2.628906 0-5.191406-1.363281-6.597656-3.808594-2.105469-3.640625-.855469-8.292969 2.785156-10.394531l21.789062-12.582031c3.644532-2.101563 8.296876-.855469 10.398438 2.785156s.855469 8.296875-2.785156 10.398437l-21.792969 12.582032c-1.199219.691406-2.507813 1.019531-3.796875 1.019531zm0 0"/><path d="m32.101562 289.324219c-2.632812 0-5.191406-1.363281-6.601562-3.808594-2.101562-3.636719-.855469-8.292969 2.785156-10.394531l21.792969-12.582032c3.640625-2.105468 8.296875-.855468 10.398437 2.785157 2.101563 3.640625.855469 8.292969-2.785156 10.398437l-21.792968 12.582032c-1.199219.691406-2.507813 1.019531-3.796876 1.019531zm0 0"/><path d="m269.121094 61.496094c-1.289063 0-2.597656-.328125-3.796875-1.019532-3.640625-2.101562-4.886719-6.757812-2.785157-10.398437l12.582032-21.789063c2.101562-3.640624 6.757812-4.890624 10.394531-2.785156 3.640625 2.101563 4.890625 6.753906 2.789063 10.394532l-12.582032 21.792968c-1.410156 2.441406-3.96875 3.804688-6.601562 3.804688zm0 0"/></g><path d="m446.917969 283.945312c-4.023438-66.519531-59.238281-119.226562-126.769531-119.226562-54.464844 0-100.914063 34.285156-118.964844 82.445312-46.902344.566407-84.753906 38.742188-84.753906 85.78125 0 47.386719 38.417968 85.804688 85.804687 85.804688h242.328125c37.242188 0 67.433594-30.191406 67.433594-67.433594 0-36.453125-28.929688-66.128906-65.078125-67.371094zm0 0" fill="#a0ecff"/><path d="m512 351.316406c0 37.242188-30.195312 67.4375-67.4375 67.4375h-5.222656c4.886718-9.335937 7.65625-19.964844 7.65625-31.226562 0-36.453125-28.925782-66.132813-65.078125-67.378906-4.027344-66.515626-59.242188-119.226563-126.773438-119.226563-9.109375 0-17.988281.960937-26.542969 2.78125 23.101563-24.027344 55.574219-38.980469 91.546876-38.980469 67.53125 0 122.75 52.699219 126.773437 119.226563 36.152344 1.234375 65.078125 30.914062 65.078125 67.367187zm0 0" fill="#60daff"/><path d="m413.296875 276.867188c-3.4375 0-6.554687-2.347657-7.394531-5.835938-1.167969-4.867188-2.769532-9.664062-4.757813-14.257812-1.667969-3.855469.105469-8.335938 3.964844-10.007813 3.855469-1.667969 8.335937.105469 10.007813 3.964844 2.335937 5.394531 4.214843 11.027343 5.589843 16.742187.980469 4.089844-1.535156 8.199219-5.621093 9.179688-.601563.144531-1.199219.214844-1.789063.214844zm0 0" fill="#a0ecff"/><path d="m389.304688 233.066406c-2 0-4-.785156-5.492188-2.34375-16.832031-17.535156-39.441406-27.191406-63.664062-27.191406-4.203126 0-7.613282-3.40625-7.613282-7.609375s3.410156-7.613281 7.613282-7.613281c28.40625 0 54.917968 11.320312 74.644531 31.875 2.910156 3.035156 2.8125 7.851562-.222657 10.761718-1.472656 1.414063-3.371093 2.121094-5.265624 2.121094zm0 0" fill="#a0ecff"/><path d="m97.953125 322.375c2.878906-47.558594 42.351563-85.238281 90.628906-85.238281 38.9375 0 72.144531 24.511719 85.050781 58.941406 33.53125.40625 60.589844 27.699219 60.589844 61.324219 0 33.878906-27.460937 61.34375-61.339844 61.34375-14.183593 0-158.671874 0-173.246093 0-26.625 0-48.210938-21.582032-48.210938-48.207032 0-26.058593 20.683594-47.277343 46.527344-48.164062zm0 0" fill="#f0f5f7"/><path d="m334.226562 357.410156c0 33.585938-27.007812 60.871094-60.5 61.328125 10.039063-10.929687 16.164063-25.488281 16.164063-41.484375 0-33.621094-27.058594-60.917968-60.597656-61.328125-12.902344-34.425781-46.109375-58.941406-85.050781-58.941406-4.601563 0-9.121094.347656-13.539063 1.007813 15.707031-13.023438 35.875-20.851563 57.875-20.851563 38.941406 0 72.148437 24.503906 85.050781 58.945313 33.539063.40625 60.597656 27.691406 60.597656 61.324218zm0 0" fill="#dde9ed"/></svg>