<svg height="512pt" viewBox="-82 0 512 512" width="512pt" xmlns="http://www.w3.org/2000/svg"><path d="m132.132812 373.390625v-320.617187c0-29.144532-23.628906-52.773438-52.773437-52.773438s-52.773437 23.628906-52.773437 52.773438v320.617187c-16.308594 14.535156-26.585938 35.6875-26.585938 59.25 0 43.828125 35.53125 79.359375 79.359375 79.359375s79.359375-35.53125 79.359375-79.359375c0-23.5625-10.28125-44.714844-26.585938-59.25zm0 0" fill="#a09d9c"/><g fill="#565656"><path d="m107.71875 124.035156h-9.195312c-4.265626 0-7.722657-3.457031-7.722657-7.726562 0-4.265625 3.457031-7.722656 7.722657-7.722656h9.195312c4.265625 0 7.722656 3.457031 7.722656 7.722656 0 4.269531-3.457031 7.726562-7.722656 7.726562zm0 0"/><path d="m107.71875 180.484375h-9.195312c-4.265626 0-7.722657-3.460937-7.722657-7.726563 0-4.265624 3.457031-7.726562 7.722657-7.726562h9.195312c4.265625 0 7.722656 3.460938 7.722656 7.726562 0 4.265626-3.457031 7.726563-7.722656 7.726563zm0 0"/><path d="m107.71875 236.933594h-9.195312c-4.265626 0-7.722657-3.460938-7.722657-7.726563s3.457031-7.726562 7.722657-7.726562h9.195312c4.265625 0 7.722656 3.460937 7.722656 7.726562s-3.457031 7.726563-7.722656 7.726563zm0 0"/><path d="m107.71875 293.382812h-9.195312c-4.265626 0-7.722657-3.460937-7.722657-7.726562 0-4.269531 3.457031-7.726562 7.722657-7.726562h9.195312c4.265625 0 7.722656 3.457031 7.722656 7.726562 0 4.265625-3.457031 7.726562-7.722656 7.726562zm0 0"/><path d="m107.71875 349.828125h-9.195312c-4.265626 0-7.722657-3.457031-7.722657-7.722656 0-4.269531 3.457031-7.726563 7.722657-7.726563h9.195312c4.265625 0 7.722656 3.457032 7.722656 7.726563 0 4.265625-3.457031 7.722656-7.722656 7.722656zm0 0"/></g><path d="m123.007812 432.644531c0 24.058594-19.574218 43.648438-43.648437 43.648438s-43.648437-19.589844-43.648437-43.648438c0-12.425781 5.335937-24.304687 14.640624-32.589843l11.941407-10.652344v-336.625c0-9.167969 7.265625-16.667969 16.339843-17.046875.242188-.019531.484376-.019531.726563-.019531 9.410156 0 17.066406 7.65625 17.066406 17.066406v336.625l11.941407 10.652344c9.304687 8.285156 14.640624 20.164062 14.640624 32.589843zm0 0" fill="#c4e1e8"/><path d="m96.425781 52.777344v277.789062h-17.792969v-294.835937c.242188-.019531.484376-.019531.726563-.019531 9.410156 0 17.066406 7.65625 17.066406 17.066406zm0 0" fill="#a4d5dd"/><path d="m123.007812 432.644531c0 19.300781-12.601562 35.730469-30.015624 41.464844-4.296876 1.417969-8.875 2.183594-13.632813 2.183594-24.074219 0-43.648437-19.589844-43.648437-43.648438 0-12.425781 5.335937-24.304687 14.640624-32.589843l11.941407-10.652344v-285.355469h34.132812v285.355469l11.941407 10.652344c9.304687 8.285156 14.640624 20.164062 14.640624 32.589843zm0 0" fill="#fc4830"/><path d="m123.007812 432.644531c0 19.300781-12.601562 35.730469-30.015624 41.464844 7.5625-7.847656 12.226562-18.527344 12.226562-30.269531 0-12.414063-5.335938-24.292969-14.632812-32.589844l-11.949219-10.652344v-296.550781h17.789062v285.355469l11.941407 10.652344c9.304687 8.285156 14.640624 20.164062 14.640624 32.589843zm0 0" fill="#e81610"/><path d="m225.039062 132.355469c0 11.355469-9.207031 20.5625-20.5625 20.5625-11.355468 0-20.5625-9.207031-20.5625-20.5625s9.207032-20.5625 20.5625-20.5625c11.355469 0 20.5625 9.207031 20.5625 20.5625zm0 0" fill="#fc4830"/><path d="m223.902344 338.1875h-16.808594c-4.269531 0-7.726562-3.460938-7.726562-7.726562 0-4.269532 3.457031-7.726563 7.726562-7.726563h16.808594c4.265625 0 7.726562 3.457031 7.726562 7.726563 0 4.265624-3.460937 7.726562-7.726562 7.726562zm0 0" fill="#fc4830"/><path d="m287.773438 365.636719h-80.679688c-4.269531 0-7.726562-3.457031-7.726562-7.726563 0-4.265625 3.457031-7.722656 7.726562-7.722656h80.679688c4.265624 0 7.722656 3.457031 7.722656 7.722656 0 4.269532-3.457032 7.726563-7.722656 7.726563zm0 0" fill="#a09d9c"/><path d="m287.773438 387.636719h-80.679688c-4.269531 0-7.726562-3.460938-7.726562-7.726563 0-4.269531 3.457031-7.726562 7.726562-7.726562h80.679688c4.265624 0 7.722656 3.457031 7.722656 7.726562 0 4.265625-3.457032 7.726563-7.722656 7.726563zm0 0" fill="#a09d9c"/><path d="m328.046875 178.964844c0-8.597656-6.96875-15.5625-15.5625-15.5625h-64.867187c-8.214844 0-14.875 6.660156-14.875 14.871094v110.398437c0 8.597656 6.972656 15.566406 15.566406 15.566406 8.597656 0 15.566406-6.96875 15.566406-15.566406v-40.074219h29.726562c8.597657 0 15.5625-6.96875 15.5625-15.566406 0-8.59375-6.96875-15.5625-15.5625-15.5625h-29.726562v-22.9375h48.609375c8.59375 0 15.5625-6.96875 15.5625-15.566406zm0 0" fill="#ff756e"/><path d="m278.71875 408.449219h-8.792969c-10.324219 0-18.726562 8.402343-18.726562 18.726562v4.785157c0 4.113281 1.351562 7.90625 3.605469 11-2.253907 3.09375-3.605469 6.886718-3.605469 11v11.328124c0 10.328126 8.402343 18.726563 18.726562 18.726563h8.792969c10.324219 0 18.726562-8.398437 18.726562-18.726563v-11.328124c0-4.113282-1.347656-7.90625-3.605468-11 2.257812-3.09375 3.605468-6.886719 3.605468-11v-4.785157c0-10.324219-8.402343-18.726562-18.726562-18.726562zm-12.066406 18.726562c0-1.804687 1.46875-3.273437 3.273437-3.273437h8.792969c1.804688 0 3.273438 1.46875 3.273438 3.273437v4.785157c0 1.804687-1.46875 3.273437-3.273438 3.273437h-8.792969c-1.804687 0-3.273437-1.46875-3.273437-3.273437zm15.339844 38.113281c0 1.804688-1.46875 3.273438-3.273438 3.273438h-8.792969c-1.804687 0-3.273437-1.464844-3.273437-3.273438v-11.328124c0-1.804688 1.46875-3.273438 3.273437-3.273438h8.792969c1.804688 0 3.273438 1.46875 3.273438 3.273438zm0 0" fill="#565656"/><path d="m329.253906 408.449219h-8.789062c-10.328125 0-18.726563 8.402343-18.726563 18.726562v38.113281c0 10.328126 8.398438 18.726563 18.726563 18.726563h8.789062c10.324219 0 18.726563-8.398437 18.726563-18.726563v-38.113281c0-10.324219-8.402344-18.726562-18.726563-18.726562zm3.273438 56.839843c0 1.804688-1.46875 3.273438-3.273438 3.273438h-8.792968c-1.804688 0-3.273438-1.464844-3.273438-3.273438v-38.113281c0-1.804687 1.46875-3.273437 3.273438-3.273437h8.792968c1.804688 0 3.273438 1.46875 3.273438 3.273437zm0 0" fill="#565656"/><path d="m207.183594 408.449219h-.109375c-.011719 0-.023438 0-.035157 0-4.25 0-7.707031 3.433593-7.726562 7.691406-.019531 4.265625 3.421875 7.742187 7.691406 7.761719h.105469.039063c4.246093 0 7.703124-3.433594 7.722656-7.691406.023437-4.265626-3.421875-7.742188-7.6875-7.761719zm0 0" fill="#565656"/><path d="m240.210938 411.363281c-2.894532-1.195312-6.214844-.53125-8.425782 1.683594l-9.089844 9.105469c-3.015624 3.019531-3.011718 7.914062.011719 10.925781 1.855469 1.855469 4.421875 2.566406 6.820313 2.140625v38.890625c0 4.265625 3.460937 7.726563 7.726562 7.726563s7.726563-3.460938 7.726563-7.726563v-55.605469c0-3.128906-1.882813-5.945312-4.769531-7.140625zm0 0" fill="#565656"/></svg>