<svg height="512pt" viewBox="0 -6 512 512" width="512pt" xmlns="http://www.w3.org/2000/svg"><path d="m173.195312 84.816406c2.867188-47.320312 42.144532-84.816406 90.1875-84.816406 38.746094 0 71.792969 24.390625 84.636719 58.652344 33.363281.402344 60.292969 27.5625 60.292969 61.023437 0 33.714844-27.332031 61.042969-61.042969 61.042969-14.113281 0-157.894531 0-172.398437 0-26.492188 0-47.96875-21.476562-47.96875-47.972656-.003906-25.929688 20.578125-47.042969 46.292968-47.929688zm0 0" fill="#f0f5f7"/><path d="m408.3125 119.679688c0 24.390624-14.316406 45.445312-35 55.21875 3.726562-7.898438 5.816406-16.726563 5.816406-26.042969 0-33.460938-26.921875-60.621094-60.289062-61.019531-12.84375-34.269532-45.886719-58.660157-84.636719-58.660157-17.472656 0-33.789063 4.960938-47.613281 13.554688 15.941406-25.652344 44.371094-42.72656275 76.796875-42.72656275 38.742187 0 71.789062 24.39062475 84.628906 58.64843775 33.367187.40625 60.296875 27.566406 60.296875 61.027344zm0 0" fill="#dde9ed"/><path d="m457.796875 203.722656c-3.355469-55.402344-49.339844-99.300781-105.585937-99.300781-45.363282 0-84.054688 28.554687-99.089844 68.671875-39.0625.46875-70.589844 32.265625-70.589844 71.441406 0 39.472656 32 71.46875 71.46875 71.46875h201.832031c31.019531 0 56.164063-25.148437 56.164063-56.164062 0-30.363282-24.09375-55.078125-54.199219-56.117188zm0 0" fill="#c4e1e8"/><path d="m512 259.835938c0 31.019531-25.148438 56.167968-56.167969 56.167968h-4.351562c4.074219-7.773437 6.378906-16.625 6.378906-26.007812 0-30.359375-24.09375-55.078125-54.203125-56.117188-3.351562-55.398437-49.34375-99.300781-105.589844-99.300781-7.585937 0-14.980468.796875-22.105468 2.3125 19.242187-20.007813 46.285156-32.464844 76.246093-32.464844 56.25 0 102.238281 43.894531 105.589844 99.304688 30.109375 1.027343 54.203125 25.746093 54.203125 56.105469zm0 0" fill="#a4d5dd"/><path d="m264.574219 212.371094c-3.222657-53.253906-47.425781-95.445313-101.488281-95.445313-43.601563 0-80.785157 27.445313-95.238282 66.003907-37.546875.453124-67.847656 31.015624-67.847656 68.667968 0 37.9375 30.753906 68.691406 68.691406 68.691406h193.996094c29.8125 0 53.984375-24.167968 53.984375-53.984374 0-29.179688-23.160156-52.9375-52.097656-53.933594zm0 0" fill="#c4e1e8"/><path d="m316.671875 266.304688c0 29.8125-24.171875 53.988281-53.984375 53.988281h-4.183594c3.914063-7.472657 6.128906-15.980469 6.128906-25 0-29.179688-23.15625-52.941407-52.097656-53.9375-3.222656-53.25-47.425781-95.445313-101.488281-95.445313-7.289063 0-14.398437.765625-21.246094 2.226563 18.492188-19.234375 44.488281-31.207031 73.285157-31.207031 54.0625 0 98.265624 42.1875 101.488281 95.445312 28.941406.988281 52.097656 24.75 52.097656 53.929688zm0 0" fill="#a4d5dd"/><path d="m421.90625 307.71875c-3.222656-53.253906-47.421875-95.445312-101.484375-95.445312-43.601563 0-80.789063 27.445312-95.238281 66-37.546875.453124-67.847656 31.015624-67.847656 68.671874 0 37.9375 30.753906 68.691407 68.6875 68.691407h193.996093c29.816407 0 53.984375-24.171875 53.984375-53.984375 0-29.179688-23.15625-52.9375-52.097656-53.933594zm0 0" fill="#f0f5f7"/><path d="m474.007812 361.652344c0 29.8125-24.171874 53.984375-53.988281 53.984375h-4.179687c3.914062-7.472657 6.128906-15.980469 6.128906-24.996094 0-29.179687-23.15625-52.941406-52.097656-53.941406-3.222656-53.246094-47.425782-95.445313-101.488282-95.445313-7.292968 0-14.398437.769532-21.25 2.226563 18.496094-19.234375 44.488282-31.203125 73.289063-31.203125 54.0625 0 98.265625 42.1875 101.488281 95.445312 28.941406.988282 52.097656 24.746094 52.097656 53.929688zm0 0" fill="#dde9ed"/><path d="m394.988281 303.683594c-3.488281 0-6.652343-2.378906-7.503906-5.921875-.914063-3.800781-2.164063-7.550781-3.71875-11.144531-1.695313-3.917969.105469-8.464844 4.019531-10.160157 3.917969-1.695312 8.46875.105469 10.160156 4.023438 1.90625 4.40625 3.441407 9.007812 4.5625 13.671875 1 4.148437-1.558593 8.320312-5.707031 9.316406-.605469.144531-1.210937.214844-1.8125.214844zm0 0" fill="#f0f5f7"/><path d="m375.78125 268.621094c-2.03125 0-4.058594-.796875-5.574219-2.378906-13.160156-13.710938-30.84375-21.265626-49.785156-21.265626-4.265625 0-7.726563-3.457031-7.726563-7.722656 0-4.269531 3.460938-7.726562 7.726563-7.726562 23.191406 0 44.832031 9.238281 60.933594 26.019531 2.957031 3.074219 2.855469 7.96875-.222657 10.921875-1.5 1.4375-3.425781 2.152344-5.351562 2.152344zm0 0" fill="#f0f5f7"/><path d="m75.238281 338.484375c2.304688-38.074219 33.90625-68.238281 72.554688-68.238281 31.171875 0 57.757812 19.625 68.089843 47.1875 26.839844.324218 48.503907 22.171875 48.503907 49.09375 0 27.121094-21.988281 49.109375-49.109375 49.109375-11.351563 0-127.023438 0-138.6875 0-21.316406 0-38.59375-17.28125-38.59375-38.59375-.003906-20.863281 16.554687-37.847657 37.242187-38.558594zm0 0" fill="#f0f5f7"/><path d="m264.386719 366.53125c0 26.886719-21.621094 48.730469-48.433594 49.09375 8.039063-8.746094 12.941406-20.402344 12.941406-33.210938 0-26.914062-21.660156-48.765624-48.507812-49.09375-10.332031-27.558593-36.914063-47.183593-68.089844-47.183593-3.683594 0-7.300781.277343-10.839844.804687 12.574219-10.425781 28.71875-16.691406 46.332031-16.691406 31.175782 0 57.757813 19.617188 68.089844 47.1875 26.847656.324219 48.507813 22.167969 48.507813 49.09375zm0 0" fill="#dde9ed"/><g fill="#a4d5dd"><path d="m455.328125 450.167969h-316.425781c-4.265625 0-7.726563-3.460938-7.726563-7.726563s3.460938-7.726562 7.726563-7.726562h316.425781c4.269531 0 7.726563 3.460937 7.726563 7.726562s-3.457032 7.726563-7.726563 7.726563zm0 0"/><path d="m110.742188 450.167969h-54.070313c-4.269531 0-7.726563-3.460938-7.726563-7.726563s3.457032-7.726562 7.726563-7.726562h54.070313c4.269531 0 7.726562 3.460937 7.726562 7.726562s-3.457031 7.726563-7.726562 7.726563zm0 0"/><path d="m455.328125 474.6875h-47.890625c-4.265625 0-7.726562-3.460938-7.726562-7.726562 0-4.269532 3.460937-7.726563 7.726562-7.726563h47.890625c4.269531 0 7.726563 3.457031 7.726563 7.726563 0 4.265624-3.457032 7.726562-7.726563 7.726562zm0 0"/><path d="m380.851562 474.6875h-324.179687c-4.269531 0-7.726563-3.460938-7.726563-7.726562 0-4.269532 3.457032-7.726563 7.726563-7.726563h324.179687c4.265626 0 7.722657 3.457031 7.722657 7.726563 0 4.265624-3.457031 7.726562-7.722657 7.726562zm0 0"/><path d="m455.328125 499.203125h-308c-4.265625 0-7.726563-3.457031-7.726563-7.722656 0-4.269531 3.460938-7.726563 7.726563-7.726563h308c4.269531 0 7.726563 3.457032 7.726563 7.726563 0 4.265625-3.457032 7.722656-7.726563 7.722656zm0 0"/><path d="m125.855469 499.203125h-10.988281c-4.269532 0-7.726563-3.457031-7.726563-7.722656 0-4.269531 3.457031-7.726563 7.726563-7.726563h10.988281c4.265625 0 7.726562 3.457032 7.726562 7.726563 0 4.265625-3.460937 7.722656-7.726562 7.722656zm0 0"/><path d="m91.453125 499.203125h-34.78125c-4.269531 0-7.726563-3.457031-7.726563-7.722656 0-4.269531 3.457032-7.726563 7.726563-7.726563h34.78125c4.265625 0 7.726563 3.457032 7.726563 7.726563 0 4.265625-3.460938 7.722656-7.726563 7.722656zm0 0"/></g></svg>