<svg height="512pt" viewBox="0 -131 512 512" width="512pt" xmlns="http://www.w3.org/2000/svg"><path d="m476.925781 247.800781h-111.152343c-4.144532 0-7.5-3.359375-7.5-7.5s3.355468-7.5 7.5-7.5h111.152343c4.144531 0 7.5 3.359375 7.5 7.5s-3.355469 7.5-7.5 7.5zm0 0" fill="#60daff"/><path d="m367.835938 132.53125c-3.527344-58.234375-51.863282-104.378906-110.984376-104.378906-47.683593 0-88.351562 30.015625-104.15625 72.183594-41.058593.492187-74.199218 33.917968-74.199218 75.09375 0 41.488281 33.636718 75.121093 75.121094 75.121093h212.15625c32.605468 0 59.035156-26.429687 59.035156-59.035156 0-31.914063-25.324219-57.894531-56.972656-58.984375zm0 0" fill="#a0ecff"/><path d="m424.8125 191.515625c0 32.601563-26.4375 59.039063-59.039062 59.039063h-4.574219c4.277343-8.171876 6.703125-17.476563 6.703125-27.339844 0-31.910156-25.324219-57.894532-56.976563-58.988282-3.523437-58.230468-51.863281-104.378906-110.988281-104.378906-7.972656 0-15.746094.839844-23.234375 2.433594 20.226563-21.03125 48.652344-34.125 80.144531-34.125 59.125 0 107.464844 46.136719 110.992188 104.378906 31.648437 1.082032 56.972656 27.066406 56.972656 58.980469zm0 0" fill="#60daff"/><path d="m62.320312 166.175781c2.519532-41.632812 37.078126-74.621093 79.34375-74.621093 34.089844 0 63.164063 21.457031 74.460938 51.601562 29.355469.355469 53.046875 24.25 53.046875 53.691406 0 29.660156-24.042969 53.703125-53.703125 53.703125-12.417969 0-138.917969 0-151.675781 0-23.308594 0-42.203125-18.894531-42.203125-42.207031 0-22.8125 18.105468-41.390625 40.730468-42.167969zm0 0" fill="#f0f5f7"/><path d="m269.175781 196.851562c0 29.40625-23.648437 53.289063-52.96875 53.6875 8.792969-9.566406 14.152344-22.3125 14.152344-36.316406 0-29.4375-23.6875-53.332031-53.050781-53.691406-11.296875-30.136719-40.367188-51.601562-74.460938-51.601562-4.027344 0-7.980468.304687-11.851562.882812 13.75-11.40625 31.40625-18.253906 50.667968-18.253906 34.09375 0 63.164063 21.453125 74.460938 51.601562 29.363281.355469 53.050781 24.242188 53.050781 53.691406zm0 0" fill="#dde9ed"/><path d="m440.125 43.152344h-183.273438c-4.140624 0-7.5-3.355469-7.5-7.5 0-4.140625 3.359376-7.5 7.5-7.5h183.273438c4.144531 0 7.5 3.359375 7.5 7.5 0 4.144531-3.355469 7.5-7.5 7.5zm0 0" fill="#60daff"/><path d="m398.8125 78.464844h-98.054688c-4.144531 0-7.5-3.355469-7.5-7.5 0-4.140625 3.355469-7.5 7.5-7.5h98.054688c4.144531 0 7.5 3.359375 7.5 7.5 0 4.144531-3.359375 7.5-7.5 7.5zm0 0" fill="#a0ecff"/><path d="m358.515625 190.851562h-149.371094c-4.140625 0-7.5-3.359374-7.5-7.5 0-4.144531 3.359375-7.5 7.5-7.5h149.371094c4.140625 0 7.5 3.355469 7.5 7.5 0 4.140626-3.359375 7.5-7.5 7.5zm0 0" fill="#f0f5f7"/><path d="m329.515625 213.675781h-28.757813c-4.144531 0-7.5-3.359375-7.5-7.5 0-4.144531 3.355469-7.5 7.5-7.5h28.757813c4.140625 0 7.5 3.355469 7.5 7.5 0 4.140625-3.359375 7.5-7.5 7.5zm0 0" fill="#60daff"/><path d="m488.101562 140.03125h-120.265624c-4.144532 0-7.5-3.355469-7.5-7.5 0-4.140625 3.355468-7.5 7.5-7.5h120.265624c4.144532 0 7.5 3.359375 7.5 7.5 0 4.144531-3.359374 7.5-7.5 7.5zm0 0" fill="#60daff"/><path d="m424.808594 118.375h-33.992188c-4.140625 0-7.5-3.355469-7.5-7.5 0-4.140625 3.359375-7.5 7.5-7.5h33.992188c4.144531 0 7.5 3.359375 7.5 7.5 0 4.144531-3.359375 7.5-7.5 7.5zm0 0" fill="#a0ecff"/><g fill="#60daff"><path d="m504.5 175.554688h-83.148438c-4.144531 0-7.5-3.359376-7.5-7.5 0-4.144532 3.355469-7.5 7.5-7.5h83.148438c4.144531 0 7.5 3.355468 7.5 7.5 0 4.140624-3.355469 7.5-7.5 7.5zm0 0"/><path d="m256 70.964844h-115.421875c-4.140625 0-7.5-3.355469-7.5-7.5 0-4.140625 3.359375-7.5 7.5-7.5h115.421875c4.140625 0 7.5 3.359375 7.5 7.5 0 4.144531-3.359375 7.5-7.5 7.5zm0 0"/><path d="m312.527344 15h-35.4375c-4.144532 0-7.5-3.359375-7.5-7.5s3.355468-7.5 7.5-7.5h35.4375c4.140625 0 7.5 3.359375 7.5 7.5s-3.359375 7.5-7.5 7.5zm0 0"/></g><path d="m117.296875 144.960938h-63.15625c-4.144531 0-7.5-3.359376-7.5-7.5 0-4.140626 3.355469-7.5 7.5-7.5h63.15625c4.140625 0 7.5 3.359374 7.5 7.5 0 4.140624-3.359375 7.5-7.5 7.5zm0 0" fill="#dde9ed"/><path d="m172.679688 225.214844h-165.179688c-4.140625 0-7.5-3.359375-7.5-7.5 0-4.144532 3.359375-7.5 7.5-7.5h165.179688c4.144531 0 7.5 3.355468 7.5 7.5 0 4.140625-3.355469 7.5-7.5 7.5zm0 0" fill="#dde9ed"/><path d="m102.722656 201.054688h-17.003906c-4.144531 0-7.5-3.359376-7.5-7.5 0-4.144532 3.355469-7.5 7.5-7.5h17.003906c4.140625 0 7.5 3.355468 7.5 7.5 0 4.140624-3.359375 7.5-7.5 7.5zm0 0" fill="#dde9ed"/></svg>