<svg height="511pt" viewBox="0 -80 511.99927 511" width="511pt" xmlns="http://www.w3.org/2000/svg"><path d="m287.621094.5c-33.636719 0-61.023438 27.261719-61.226563 60.855469-.046875 7.296875 5.691407 13.546875 12.988281 13.757812 7.578126.222657 13.789063-5.855469 13.789063-13.382812 0-19.8125 16.808594-35.769531 36.914063-34.363281 16.972656 1.183593 30.71875 14.933593 31.902343 31.902343 1.402344 20.105469-14.558593 36.910157-34.367187 36.910157h-267.773438c-7.394531 0-13.390625 5.996093-13.390625 13.390624 0 7.394532 5.996094 13.390626 13.390625 13.390626h266.84375c33.601563 0 61.640625-26.683594 62.15625-60.28125.519532-34.195313-27.148437-62.179688-61.226562-62.179688zm0 0" fill="#78ffce"/><path d="m450.769531.5c-33.636719 0-61.027343 27.261719-61.230469 60.855469-.042968 7.296875 5.691407 13.546875 12.988282 13.757812 7.578125.222657 13.792968-5.855469 13.792968-13.382812 0-19.8125 16.808594-35.769531 36.914063-34.363281 16.96875 1.183593 30.714844 14.933593 31.898437 31.902343 1.402344 20.105469-14.554687 36.910157-34.363281 36.910157h-74.640625c-4.261718 0-8.269531 2.03125-10.792968 5.46875-6.492188 8.84375-.175782 21.3125 10.792968 21.3125h73.710938c33.601562 0 61.640625-26.683594 62.152344-60.28125.523437-34.195313-27.144532-62.179688-61.222657-62.179688zm0 0" fill="#00b579"/><path d="m249.324219 204.191406h-229.476563c-7.394531 0-13.390625 5.996094-13.390625 13.390625s5.996094 13.390625 13.390625 13.390625h229.757813c18.8125 0 34.640625 14.8125 35.085937 33.621094.460938 19.371094-15.167968 35.28125-34.4375 35.28125-18.863281 0-34.234375-15.242188-34.449218-34.054688-.078126-6.753906-4.789063-12.730468-11.480469-13.65625-8.246094-1.136718-15.300781 5.238282-15.300781 13.257813 0 33.761719 27.464843 61.230469 61.230468 61.230469 34.078125 0 61.742188-27.984375 61.222656-62.179688-.511718-33.597656-28.550781-60.28125-62.152343-60.28125zm0 0" fill="#00df97"/><path d="m427.585938 150.996094h-407.738282c-7.394531 0-13.390625 5.992187-13.390625 13.386718 0 7.398438 5.996094 13.390626 13.390625 13.390626h408.019532c18.8125 0 34.640624 14.8125 35.085937 33.621093.457031 19.375-15.167969 35.28125-34.441406 35.28125-18.863281 0-34.234375-15.238281-34.445313-34.050781-.078125-6.757812-4.789062-12.730469-11.480468-13.65625-8.246094-1.140625-15.304688 5.234375-15.304688 13.257812 0 33.761719 27.46875 61.226563 61.234375 61.226563 34.078125 0 61.742187-27.984375 61.222656-62.179687-.515625-33.597657-28.554687-60.277344-62.152343-60.277344zm0 0" fill="#00fbaa"/><path d="m175.082031 77.175781h-167.453125c-4.214844 0-7.628906-3.414062-7.628906-7.628906 0-4.210937 3.414062-7.628906 7.628906-7.628906h167.453125c7.449219 0 13.507813-6.058594 13.507813-13.507813 0-7.445312-6.058594-13.503906-13.507813-13.503906-7.445312 0-13.507812 6.058594-13.507812 13.503906 0 4.214844-3.414063 7.628906-7.628907 7.628906-4.210937 0-7.628906-3.414062-7.628906-7.628906 0-15.859375 12.90625-28.761718 28.765625-28.761718s28.765625 12.902343 28.765625 28.761718c0 15.863282-12.90625 28.765625-28.765625 28.765625zm0 0" fill="#00b579"/><path d="m432.414062 351.160156c-15.859374 0-28.761718-12.90625-28.761718-28.765625 0-4.210937 3.414062-7.628906 7.628906-7.628906 4.210938 0 7.628906 3.417969 7.628906 7.628906 0 7.449219 6.058594 13.507813 13.503906 13.507813 7.449219 0 13.507813-6.058594 13.507813-13.507813 0-7.445312-6.058594-13.507812-13.507813-13.507812h-90.078124c-4.214844 0-7.628907-3.414063-7.628907-7.628907 0-4.210937 3.414063-7.628906 7.628907-7.628906h90.078124c15.863282 0 28.765626 12.90625 28.765626 28.765625s-12.902344 28.765625-28.765626 28.765625zm0 0" fill="#00b579"/><path d="m144.773438 307.460938c-15.859376 0-28.761719-12.90625-28.761719-28.765626 0-4.210937 3.414062-7.628906 7.628906-7.628906s7.628906 3.417969 7.628906 7.628906c0 7.449219 6.058594 13.507813 13.507813 13.507813 7.445312 0 13.503906-6.058594 13.503906-13.507813 0-7.445312-6.058594-13.503906-13.503906-13.503906h-137.148438c-4.214844 0-7.628906-3.417968-7.628906-7.628906 0-4.214844 3.414062-7.632812 7.628906-7.632812h137.144532c15.863281 0 28.765624 12.90625 28.765624 28.765624 0 15.859376-12.902343 28.765626-28.765624 28.765626zm0 0" fill="#00fbaa"/></svg>