<svg height="512pt" viewBox="0 -62 512.00076 512" width="512pt" xmlns="http://www.w3.org/2000/svg"><path d="m207.742188 321.765625c-51.070313-33.367187-106.511719-92.378906-108.984376-191.929687-.613281-24.660157-19.144531-45.167969-43.648437-48.023438-29.203125-3.40625-54.9375 19.304688-55.1015625 48.703125-1.0742185 190.550781 197.7851565 218.761719 197.7851565 218.761719 15.769531 1.839844 23.242187-18.828125 9.949219-27.511719zm0 0" fill="#f0f5f7"/><path d="m214.289062 337.265625c-1.4375 7.023437-7.660156 13.042969-16.492187 12.015625 0 0-198.859375-28.214844-197.79296875-218.757812.01562495-1.859376.12109375-3.695313.33203175-5.496094 2.796874-24.003906 22.761718-42.382813 46.664062-43.492188-10.421875 7.867188-17.675781 19.800782-19.28125 33.574219-.210938 1.800781-.316406 3.632813-.332031 5.492187-.914063 163.476563 145.34375 207.46875 186.902343 216.664063zm0 0" fill="#dde9ed"/><path d="m194.246094 387.476562c-.296875 0-.59375-.015624-.894532-.050781l-.378906-.042969c-.066406-.007812-.132812-.019531-.199218-.027343l-.378907-.054688c-2.351562-.332031-58.371093-8.585937-114.195312-43.34375-3.601563-2.242187-4.703125-6.980469-2.460938-10.582031 2.242188-3.601562 6.976563-4.699219 10.578125-2.460938 53.109375 33.066407 106.015625 40.863282 108.238282 41.179688l.566406.070312c4.214844.488282 7.234375 4.300782 6.746094 8.515626-.453126 3.914062-3.773438 6.796874-7.621094 6.796874zm0 0" fill="#f0f5f7"/><path d="m99.101562 267.910156c-2.625 0-5.183593-1.347656-6.617187-3.769531-3.082031-5.199219-6.011719-10.570313-8.707031-15.957031-1.898438-3.792969-.363282-8.410156 3.429687-10.308594s8.410157-.359375 10.304688 3.429688c2.539062 5.070312 5.292969 10.117187 8.191406 15.007812 2.160156 3.648438.953125 8.359375-2.695313 10.523438-1.226562.726562-2.578124 1.074218-3.90625 1.074218zm0 0" fill="#dde9ed"/><path d="m79.886719 227.679688c-3.117188 0-6.046875-1.910157-7.199219-5.003907-10.554688-28.363281-16.3125-59.238281-17.121094-91.765625-.105468-4.242187 3.246094-7.765625 7.488282-7.871094 4.238281-.09375 7.761718 3.246094 7.867187 7.488282.765625 30.824218 6.203125 60.023437 16.164063 86.789062 1.476562 3.976563-.546876 8.398438-4.523438 9.878906-.878906.328126-1.785156.484376-2.675781.484376zm0 0" fill="#dde9ed"/><path d="m354.929688 299.960938c-51.070313-33.367188-106.511719-92.378907-108.984376-191.929688-.613281-24.660156-19.144531-45.167969-43.648437-48.023438-29.203125-3.40625-54.9375 19.304688-55.101563 48.703126-1.074218 190.550781 197.785157 218.761718 197.785157 218.761718 15.773437 1.839844 23.242187-18.828125 9.949219-27.511718zm0 0" fill="#f0f5f7"/><path d="m361.476562 315.460938c-1.4375 7.019531-7.660156 13.042968-16.496093 12.011718 0 0-198.855469-28.214844-197.789063-218.757812.015625-1.855469.121094-3.691406.328125-5.492188 2.800781-24.003906 22.765625-42.382812 46.664063-43.496094-10.417969 7.871094-17.671875 19.804688-19.28125 33.574219-.207032 1.800781-.3125 3.636719-.328125 5.496094-.914063 163.472656 145.34375 207.46875 186.902343 216.664063zm0 0" fill="#dde9ed"/><path d="m246.289062 246.101562c-2.625 0-5.183593-1.34375-6.617187-3.765624-3.074219-5.195313-6.003906-10.5625-8.707031-15.957032-1.898438-3.792968-.363282-8.40625 3.429687-10.308594 3.792969-1.898437 8.40625-.363281 10.308594 3.429688 2.539063 5.074219 5.292969 10.121094 8.1875 15.007812 2.160156 3.648438.957031 8.359376-2.695313 10.523438-1.226562.726562-2.574218 1.070312-3.90625 1.070312zm0 0" fill="#dde9ed"/><path d="m227.074219 205.875c-3.117188 0-6.046875-1.910156-7.199219-5.003906-10.550781-28.363282-16.3125-59.238282-17.121094-91.765625-.105468-4.242188 3.246094-7.765625 7.488282-7.871094 4.25-.0625 7.761718 3.246094 7.867187 7.488281.765625 30.824219 6.203125 60.023438 16.164063 86.789063 1.476562 3.976562-.546876 8.398437-4.519532 9.878906-.882812.328125-1.789062.484375-2.679687.484375zm0 0" fill="#dde9ed"/><path d="m502.117188 278.152344c-51.066407-33.363282-106.511719-92.375-108.984376-191.925782-.613281-24.664062-19.144531-45.167968-43.648437-48.027343-29.199219-3.402344-54.9375 19.308593-55.101563 48.707031-1.074218 190.546875 197.789063 218.761719 197.789063 218.761719 15.765625 1.839843 23.238281-18.832031 9.945313-27.515625zm0 0" fill="#f0f5f7"/><path d="m508.664062 293.65625c-1.4375 7.019531-7.660156 13.042969-16.492187 12.011719 0 0-198.859375-28.214844-197.792969-218.757813.015625-1.855468.121094-3.691406.332032-5.492187 2.796874-24.003907 22.761718-42.382813 46.664062-43.496094-10.421875 7.871094-17.675781 19.804687-19.28125 33.574219-.210938 1.800781-.316406 3.636718-.332031 5.492187-.914063 163.476563 145.34375 207.472657 186.902343 216.667969zm0 0" fill="#dde9ed"/><g fill="#f0f5f7"><path d="m504.3125 249.851562c-1.613281 0-3.238281-.507812-4.625-1.554687-3.191406-2.414063-6.339844-4.917969-9.355469-7.433594-3.253906-2.722656-3.6875-7.566406-.96875-10.820312 2.722657-3.253907 7.5625-3.6875 10.820313-.96875 2.824218 2.359375 5.777344 4.707031 8.769531 6.972656 3.382813 2.558594 4.050781 7.375 1.492187 10.757813-1.511718 1.996093-3.808593 3.046874-6.132812 3.046874zm0 0"/><path d="m479.039062 227.679688c-1.992187 0-3.984374-.769532-5.492187-2.308594-14.785156-15.113282-26.890625-31.972656-35.980469-50.109375-1.902344-3.792969-.367187-8.40625 3.425782-10.308594 3.792968-1.898437 8.40625-.367187 10.304687 3.425781 8.378906 16.714844 19.558594 32.273438 33.230469 46.25 2.96875 3.03125 2.914062 7.894532-.117188 10.859375-1.492187 1.464844-3.433594 2.191407-5.371094 2.191407zm0 0"/><path d="m425.570312 116.417969c-3.8125 0-7.117187-2.835938-7.609374-6.71875-.988282-7.796875-1.589844-15.886719-1.792969-24.046875-.433594-17.464844-7.125-34.191406-18.835938-47.101563-11.757812-12.960937-27.804687-21.214843-45.179687-23.238281-4.210938-.492188-7.230469-4.304688-6.738282-8.519531.488282-4.210938 4.3125-7.238281 8.515626-6.7382815 21.070312 2.4531245 40.523437 12.4609375 54.78125 28.1757815 14.183593 15.636719 22.289062 35.894531 22.8125 57.039062.191406 7.644531.753906 15.214844 1.675781 22.5.53125 4.207031-2.445313 8.050781-6.65625 8.585938-.324219.042969-.652344.0625-.972657.0625zm0 0"/></g><path d="m393.476562 224.296875c-2.625 0-5.183593-1.34375-6.617187-3.765625-3.078125-5.199219-6.007813-10.570312-8.707031-15.957031-1.898438-3.792969-.363282-8.40625 3.429687-10.308594 3.792969-1.898437 8.40625-.363281 10.308594 3.429687 2.535156 5.066407 5.292969 10.117188 8.1875 15.007813 2.164063 3.648437.957031 8.359375-2.695313 10.523437-1.230468.726563-2.578124 1.070313-3.90625 1.070313zm0 0" fill="#dde9ed"/><path d="m374.261719 184.070312c-3.117188 0-6.046875-1.910156-7.199219-5.007812-10.550781-28.363281-16.3125-59.238281-17.121094-91.765625-.105468-4.238281 3.246094-7.761719 7.488282-7.867187.0625-.003907.128906-.003907.195312-.003907 4.152344 0 7.570312 3.3125 7.671875 7.492188.765625 30.820312 6.207031 60.019531 16.164063 86.789062 1.480468 3.976563-.542969 8.398438-4.519532 9.878907-.882812.328124-1.789062.484374-2.679687.484374zm0 0" fill="#dde9ed"/></svg>