<svg height="512pt" viewBox="-37 0 512 512.00232" width="512pt" xmlns="http://www.w3.org/2000/svg"><path d="m425.113281 259.628906c-7.8125-5.101562-15.71875-10.761718-23.546875-17.023437 10.597656-4.710938 17.992188-15.324219 17.992188-27.667969 0-9.894531-4.746094-18.675781-12.085938-24.203125 21.007813-20.335937 23.777344-53.65625 5.429688-77.285156-14.058594-18.113281-36.714844-25.617188-57.746094-21.238281-2.136719-24.695313-22.832031-44.078126-48.074219-44.105469-2.519531-24.765625-21.800781-44.816407-46.886719-47.738281-31.550781-3.679688-59.359374 20.859374-59.535156 52.625-1.164062 205.882812 213.703125 236.367187 213.703125 236.367187 17.039063 1.988281 25.109375-20.34375 10.75-29.730469zm0 0" fill="#f0f5f7"/><path d="m416.480469 289.480469c-.683594 0-1.390625-.03125-2.109375-.121094 0 0-12.339844-1.75-31.082032-7.25-.941406-3.507813-3.15625-6.78125-6.863281-9.203125-7.8125-5.101562-15.722656-10.757812-23.546875-17.019531 10.601563-4.714844 17.992188-15.324219 17.992188-27.675781 0-9.890626-4.746094-18.675782-12.082032-24.199219 21-20.335938 23.765626-53.65625 5.433594-77.277344-14.066406-18.117187-36.726562-25.617187-57.75-21.246094-2.136718-24.699219-22.839844-44.074219-48.082031-44.105469-2.3125-22.828124-18.875-41.652343-41.105469-46.742187 9.613282-9.105469 22.570313-14.63671875 36.636719-14.63671875 2.070313 0 4.160156.12109375 6.273437.36328175 25.085938 2.921874 44.371094 22.972656 46.882813 47.738281 25.242187.03125 45.945313 19.40625 48.082031 44.105469 21.023438-4.371094 43.683594 3.128906 57.75 21.242187 18.332032 23.625 15.566406 56.945313-5.433594 77.28125 7.335938 5.523437 12.082032 14.308594 12.082032 24.199219 0 12.351562-7.390625 22.960937-17.992188 27.675781 7.824219 6.261719 15.734375 11.917969 23.546875 17.015625 13.753907 8.988281 6.925781 29.855469-8.632812 29.855469zm0 0" fill="#dde9ed"/><path d="m415.148438 81.878906c-1.433594 0-2.882813-.394531-4.179688-1.230468-10.335938-6.660157-21.816406-10.78125-34.121094-12.25-4.238281-.507813-7.261718-4.351563-6.757812-8.589844.507812-4.238282 4.351562-7.261719 8.589844-6.757813 14.652343 1.753907 28.332031 6.664063 40.660156 14.605469 3.585937 2.3125 4.621094 7.09375 2.308594 10.679688-1.476563 2.292968-3.964844 3.542968-6.5 3.542968zm0 0" fill="#dde9ed"/><path d="m427.375 466.125c-10.945312-7.152344-22.019531-15.042969-32.996094-23.707031 16.265625-6.890625 27.675782-23.003907 27.675782-41.78125 0-22.777344-16.789063-41.632813-38.667969-44.867188 7.464843-11.382812 11.816406-24.992187 11.816406-39.621093 0-39.980469-32.410156-72.394532-72.394531-72.394532-2.90625 0-5.769532.191406-8.585938.527344-5.460937-29.191406-30.433594-51.5-60.871094-52.851562-1.28125-11.625-2.097656-23.621094-2.40625-36.007813-.992187-39.921875-30.992187-73.117187-70.65625-77.742187-47.277343-5.515626-88.9375 31.253906-89.203124 78.847656-1.742188 308.46875 320.1875 354.140625 320.1875 354.140625 25.527343 2.976562 37.621093-30.484375 16.101562-44.542969zm0 0" fill="#c4e1e8"/><path d="m414.433594 510.855469c-1.027344 0-2.089844-.066407-3.164063-.191407 0 0-12.8125-1.8125-33.304687-7.179687.21875-7.691406-3.132813-15.558594-11.097656-20.757813-10.945313-7.148437-22.023438-15.039062-33-23.703124 16.265624-6.894532 27.675781-23.015626 27.675781-41.792969 0-22.773438-16.785157-41.628907-38.664063-44.859375 7.460938-11.386719 11.808594-24.996094 11.808594-39.625 0-39.980469-32.410156-72.390625-72.390625-72.390625-2.910156 0-5.761719.1875-8.585937.519531-5.464844-29.1875-30.429688-51.496094-60.871094-52.847656-1.28125-11.617188-2.101563-23.621094-2.410156-36.003906-.972657-39.40625-30.207032-72.257813-69.125-77.558594 13.699218-10.886719 31.003906-17.339844 49.582031-17.339844 3.097656 0 6.230469.1875 9.394531.554688 39.671875 4.625 69.667969 37.820312 70.664062 77.742187.308594 12.382813 1.128907 24.378906 2.402344 36.007813 30.441406 1.351562 55.414063 23.660156 60.878906 52.847656 2.8125-.332032 5.675782-.519532 8.585938-.519532 39.980469 0 72.390625 32.410157 72.390625 72.390626 0 14.628906-4.359375 28.238281-11.816406 39.625 21.875 3.230468 38.671875 22.085937 38.671875 44.859374 0 18.777344-11.417969 34.898438-27.683594 41.78125 10.984375 8.664063 22.050781 16.554688 33.007812 23.714844 20.601563 13.453125 10.378907 44.726563-12.949218 44.726563zm0 0" fill="#a4d5dd"/><path d="m60.179688 164.078125c-.011719 0-.027344 0-.042969 0-4.265625-.023437-7.707031-3.503906-7.683594-7.769531.253906-44.671875 25.300781-84.980469 65.367187-105.199219 3.808594-1.917969 8.457032-.386719 10.378907 3.417969 1.921875 3.8125.390625 8.457031-3.417969 10.378906-34.863281 17.589844-56.65625 52.648438-56.875 91.488281-.023438 4.253907-3.480469 7.683594-7.726562 7.683594zm0 0" fill="#a4d5dd"/><path d="m243.507812 479.613281c-7.925781-5.179687-15.945312-10.890625-23.894531-17.164062 11.777344-4.992188 20.039063-16.65625 20.039063-30.253907 0-16.496093-12.15625-30.144531-27.996094-32.488281 5.402344-8.242187 8.554688-18.09375 8.554688-28.6875 0-28.949219-23.46875-52.417969-52.417969-52.417969-2.105469 0-4.175781.140626-6.21875.382813-3.953125-21.136719-22.035157-37.289063-44.074219-38.269531-.925781-8.417969-1.519531-17.101563-1.742188-26.070313-.71875-28.90625-22.441406-52.945312-51.164062-56.292969-34.226562-3.992187-64.394531 22.628907-64.5859375 57.089844-1.2617185 223.355469 231.8398435 256.425782 231.8398435 256.425782 18.484375 2.152343 27.238282-22.074219 11.660156-32.253907zm0 0" fill="#f0f5f7"/><path d="m234.136719 511.992188c-.742188 0-1.503907-.042969-2.289063-.132813 0 0-8.851562-1.25-23.09375-4.921875-.132812-5.246094-2.601562-10.492188-8.035156-14.042969-7.921875-5.179687-15.945312-10.898437-23.886719-17.171875 11.773438-4.980468 20.039063-16.652344 20.039063-30.253906 0-16.488281-12.164063-30.140625-27.996094-32.476562 5.398438-8.246094 8.550781-18.101563 8.550781-28.691407 0-28.949219-23.46875-52.417969-52.414062-52.417969-2.113281 0-4.183594.132813-6.21875.378907-3.949219-21.136719-22.042969-37.292969-44.074219-38.265625-.929688-8.421875-1.527344-17.105469-1.746094-26.070313-.71875-28.914062-22.441406-52.949219-51.15625-56.300781-.386718-.042969-.765625-.089844-1.152344-.121094 10.113282-8.488281 23.117188-13.554687 37.136719-13.554687 2.246094 0 4.515625.132812 6.792969.398437 28.726562 3.351563 50.449219 27.386719 51.167969 56.300782.21875 8.960937.816406 17.648437 1.734375 26.066406 22.042968.976562 40.125 17.132812 44.074218 38.265625 2.046876-.242188 4.117188-.375 6.21875-.375 28.957032 0 52.425782 23.46875 52.425782 52.414062 0 10.589844-3.152344 20.449219-8.5625 28.691407 15.84375 2.335937 28.003906 15.992187 28.003906 32.480468 0 13.597656-8.265625 25.269532-20.039062 30.25 7.945312 6.273438 15.957031 11.996094 23.890624 17.175782 14.917969 9.746093 7.527344 32.375-9.371093 32.375zm0 0" fill="#dde9ed"/><g fill="#c4e1e8"><path d="m69.496094 392.261719c-2.382813 0-4.734375-1.101563-6.246094-3.171875-26.875-36.808594-40.355469-81.730469-40.0625-133.519532.023438-4.265624 3.519531-7.738281 7.769531-7.679687 4.265625.023437 7.707031 3.5 7.683594 7.769531-.273437 48.410156 12.203125 90.234375 37.089844 124.316406 2.515625 3.445313 1.761719 8.28125-1.683594 10.796876-1.375 1.003906-2.972656 1.488281-4.550781 1.488281zm0 0"/><path d="m104.851562 429.578125c-1.734374 0-3.480468-.578125-4.921874-1.773437-4.976563-4.121094-9.78125-8.445313-14.273438-12.855469-3.046875-2.988281-3.089844-7.878907-.101562-10.925781 2.988281-3.046876 7.878906-3.089844 10.925781-.101563 4.183593 4.105469 8.65625 8.136719 13.300781 11.976563 3.289062 2.722656 3.746094 7.59375 1.027344 10.878906-1.527344 1.847656-3.734375 2.800781-5.957032 2.800781zm0 0"/></g></svg>