<svg height="512pt" viewBox="0 -66 512.00022 512" width="512pt" xmlns="http://www.w3.org/2000/svg"><path d="m346.179688 190.433594c5.042968-26.3125-12.199219-51.726563-38.507813-56.769532-13.519531-2.59375-26.796875.710938-37.199219 8.09375-5.214844-2.78125-10.929687-4.835937-17.039062-6.007812-18.488282-3.542969-36.621094 1.773438-50.019532 12.972656-4.683593-5.65625-11.28125-9.777344-19.054687-11.269531-17.769531-3.40625-34.933594 8.238281-38.339844 26.003906-3.40625 17.769531 8.238281 34.933594 26.003907 38.339844 3.460937.664063 6.894531.75 10.210937.335937 3.035156 25.355469 22.085937 46.949219 48.507813 52.015626 24.152343 4.628906 47.6875-5.867188 60.871093-24.84375 25.511719 3.703124 49.664063-13.296876 54.566407-38.871094zm0 0" fill="#a0ecff"/><path d="m346.179688 190.433594c-4.90625 25.574218-29.054688 42.574218-54.566407 38.867187-13.183593 18.984375-36.714843 29.476563-60.871093 24.847657-16.34375-3.132813-29.867188-12.597657-38.519532-25.359376 3.324219 1.28125 6.816406 2.289063 10.449219 2.988282 24.160156 4.628906 47.699219-5.863282 60.882813-24.835938 25.5 3.695313 49.660156-13.308594 54.566406-38.878906 2.269531-11.839844.019531-23.492188-5.523438-33.195312 23.5 7.097656 38.304688 30.933593 33.582032 55.566406zm0 0" fill="#60daff"/><path d="m183.589844 370.59375c6.585937-6.585938 10.117187-15.070312 10.597656-23.695312 7.765625 1.964843 16.339844-.085938 22.414062-6.164063 9.183594-9.183594 9.183594-24.070313 0-33.25-9.183593-9.183594-24.070312-9.183594-33.253906 0-2.171875 2.171875-3.820312 4.664063-4.964844 7.320313-14.175781-9.703126-33.683593-8.273438-46.273437 4.316406-14.214844 14.214844-14.214844 37.257812 0 51.472656 14.21875 14.21875 37.265625 14.21875 51.480469 0zm0 0" fill="#a0ecff"/><path d="m191.214844 359.421875c-1.765625 4.054687-4.3125 7.855469-7.625 11.167969-14.21875 14.222656-37.257813 14.222656-51.480469 0-14.207031-14.207032-14.207031-37.257813 0-51.476563 2.660156-2.65625 5.636719-4.824219 8.800781-6.488281-5.800781 13.328125-3.265625 29.40625 7.628906 40.296875 11.558594 11.5625 28.941407 13.714844 42.675782 6.5zm0 0" fill="#60daff"/><path d="m434.371094 274.71875c8.054687-8.054688 12.328125-18.460938 12.820312-29.011719 15.539063 5.644531 33.625 2.246094 46.089844-10.21875 14.855469-14.855469 16.839844-37.699219 5.96875-54.699219 17.898438-20.945312 16.957031-52.460937-2.855469-72.273437-20.820312-20.816406-54.574219-20.816406-75.390625 0s-20.816406 54.570313 0 75.390625c.523438.519531 1.058594 1.019531 1.597656 1.515625-2.570312 5.359375-4 11.128906-4.269531 16.945313-15.539062-5.644532-33.625-2.246094-46.089843 10.21875-17.15625 17.15625-17.15625 44.976562 0 62.132812s44.972656 17.15625 62.128906 0zm0 0" fill="#a0ecff"/><path d="m499.246094 180.789062c10.871094 17.003907 8.890625 39.84375-5.964844 54.703126-12.464844 12.460937-30.554688 15.859374-46.085938 10.214843-.492187 10.550781-4.765624 20.953125-12.824218 29.011719-17.15625 17.15625-44.976563 17.15625-62.132813 0-4.117187-4.117188-7.238281-8.839844-9.375-13.890625 15.484375 5.523437 33.449219 2.082031 45.84375-10.320313 8.058594-8.046874 12.328125-18.457031 12.820313-29 15.535156 5.644532 33.625 2.238282 46.089844-10.226562 14.855468-14.855469 16.835937-37.699219 5.964843-54.691406 14.300781-16.734375 16.578125-40.214844 6.804688-59.082032 5.800781 2.574219 11.242187 6.242188 16.007812 11.003907 19.8125 19.816406 20.757813 51.332031 2.851563 72.277343zm0 0" fill="#60daff"/><path d="m249.960938 84.386719c9.125 2.128906 18.144531.300781 25.375-4.292969 3.261718 12.058594 13.21875 21.761719 26.335937 24.050781 15.632813 2.730469 30.613281-5.964843 36.398437-20.070312 21.390626 2.03125 41.019532-13.242188 43.734376-35.195313 2.480468-20.046875-10.628907-39.128906-30.242188-43.964844-22.902344-5.652343-45.414062 9.308594-49.398438 32.152344-.003906.003906-.003906.011719-.003906.015625-.164062.945313-.855468 1.722657-1.789062 1.925781-3.855469.832032-7.503906 2.34375-10.78125 4.425782-3.261719-12.058594-13.21875-21.761719-26.335938-24.050782-18.820312-3.289062-36.707031 9.980469-38.726562 29.316407-1.71875 16.480469 9.296875 31.925781 25.433594 35.6875zm0 0" fill="#a0ecff"/><path d="m224.523438 48.699219c1.113281-10.613281 7.011718-19.398438 15.203124-24.617188-.011718.105469-.027343.199219-.039062.304688-1.996094 19.175781 10.820312 37.144531 29.59375 41.519531 10.609375 2.476562 21.109375.347656 29.519531-5 3.796875 14.035156 15.375 25.324219 30.640625 27.984375 1.945313.335937 3.890625.53125 5.800782.570313-7.019532 10.855468-20.039063 17.042968-33.574219 14.679687-13.113281-2.285156-23.074219-11.988281-26.328125-24.050781-7.230469 4.601562-16.253906 6.425781-25.378906 4.296875-16.132813-3.761719-27.15625-19.203125-25.4375-35.6875zm0 0" fill="#60daff"/><path d="m123.128906 214.792969c0-23.601563-19.132812-42.734375-42.734375-42.734375-23.601562 0-42.734375 19.132812-42.734375 42.734375 0 6.164062 1.316406 12.015625 3.664063 17.308593-15.941407 7.8125-26.921875 24.191407-26.921875 43.140626 0 26.515624 21.496094 48.011718 48.015625 48.011718s48.015625-21.496094 48.015625-48.011718c0-8.996094-2.480469-17.40625-6.78125-24.605469 11.71875-7.621094 19.476562-20.820313 19.476562-35.84375zm0 0" fill="#a0ecff"/><path d="m103.652344 250.636719c4.300781 7.195312 6.785156 15.605469 6.785156 24.597656 0 26.519531-21.496094 48.015625-48.015625 48.015625-7.957031 0-15.460937-1.9375-22.0625-5.367188 21.230469-4.960937 37.050781-24.015624 37.050781-46.753906 0-8.996094-2.484375-17.402344-6.785156-24.597656 11.722656-7.621094 19.476562-20.824219 19.476562-35.84375 0-15.808594-8.585937-29.628906-21.355468-37.019531 3.707031-1.046875 7.605468-1.613281 11.652344-1.613281 23.601562 0 42.730468 19.136718 42.730468 42.742187 0 15.019531-7.753906 28.222656-19.476562 35.839844zm0 0" fill="#60daff"/><path d="m298.59375 206.710938c-4.25 0-7.699219-3.445313-7.699219-7.699219 0-4.253907 3.449219-7.699219 7.699219-7.699219 4.761719 0 8.871094-3.417969 9.773438-8.125.503906-2.625-.046876-5.289062-1.546876-7.5-1.5-2.214844-3.773437-3.710938-6.398437-4.210938-4.175781-.800781-6.914063-4.835937-6.113281-9.011718.800781-4.179688 4.839844-6.914063 9.011718-6.113282 6.664063 1.277344 12.433594 5.074219 16.242188 10.691407 3.8125 5.617187 5.207031 12.378906 3.925781 19.042969-2.285156 11.949218-12.757812 20.625-24.894531 20.625zm0 0" fill="#60daff"/><path d="m.785156 57.917969c-4.511718 23.515625 10.898438 46.234375 34.414063 50.742187 12.085937 2.3125 23.949219-.636718 33.25-7.238281 4.660156 2.488281 9.765625 4.324219 15.226562 5.371094 16.527344 3.167969 32.730469-1.585938 44.707031-11.59375 4.183594 5.054687 10.085938 8.738281 17.03125 10.070312 15.882813 3.046875 31.222657-7.359375 34.265626-23.242187 3.046874-15.878906-7.359376-31.222656-23.242188-34.265625-3.089844-.59375-6.160156-.667969-9.125-.300781-2.714844-22.660157-19.742188-41.960938-43.351562-46.488282-21.589844-4.136718-42.625 5.242188-54.40625 22.203125-22.800782-3.308593-44.390626 11.882813-48.769532 34.742188zm0 0" fill="#a0ecff"/><path d="m179.675781 82.027344c-3.039062 15.882812-18.375 26.285156-34.257812 23.246094-6.953125-1.335938-12.847657-5.023438-17.035157-10.074219-11.980468 10.011719-28.179687 14.761719-44.710937 11.589843-5.460937-1.046874-10.5625-2.882812-15.222656-5.367187-9.304688 6.601563-21.160157 9.558594-33.242188 7.238281-18.863281-3.613281-32.503906-18.941406-34.847656-36.992187 4.929687 3.53125 10.6875 6.078125 17.042969 7.300781 12.085937 2.320312 23.953125-.636719 33.253906-7.238281 4.660156 2.484375 9.765625 4.320312 15.226562 5.367187 16.527344 3.175782 32.730469-1.578125 44.710938-11.589844 4.179688 5.050782 10.082031 8.738282 17.03125 10.074219 15.871094 3.039063 31.222656-7.363281 34.261719-23.246093.183593-.945313.316406-1.878907.398437-2.8125 12.484375 5.234374 20.050782 18.664062 17.390625 32.503906zm0 0" fill="#60daff"/><path d="m116.722656 58.824219c-3.84375 0-7.167968-2.871094-7.636718-6.785157-.796876-6.664062-5.769532-11.992187-12.371094-13.257812-6.058594-1.15625-12.089844 1.390625-15.539063 6.355469-2.429687 3.492187-7.226562 4.355469-10.71875 1.929687-3.492187-2.425781-4.355469-7.222656-1.929687-10.71875 5.765625-8.296875 15.199218-13.25 25.238281-13.25 1.941406 0 3.90625.1875 5.84375.558594 13.214844 2.535156 23.167969 13.203125 24.769531 26.550781.503906 4.222657-2.507812 8.054688-6.730468 8.558594-.3125.039063-.621094.058594-.925782.058594zm0 0" fill="#60daff"/><path d="m314.144531 361.839844c8.640625-3.488282 15.203125-9.921875 19.019531-17.671875 6.378907 4.84375 15.070313 6.304687 23.039063 3.089843 12.042969-4.867187 17.859375-18.570312 12.996094-30.609374-4.863281-12.042969-18.566407-17.859376-30.609375-12.996094-2.847656 1.148437-5.339844 2.800781-7.433594 4.800781-9.253906-14.472656-27.769531-20.78125-44.277344-14.113281-18.636718 7.527344-27.644531 28.742187-20.117187 47.382812 7.53125 18.640625 28.746093 27.644532 47.382812 20.117188zm0 0" fill="#a0ecff"/><path d="m266.769531 341.71875c-1.648437-4.078125-2.496093-8.273438-2.640625-12.429688 9.863282 11.761719 26.523438 16.414063 41.53125 10.363282 8.632813-3.496094 15.199219-9.921875 19.015625-17.671875 6.386719 4.84375 15.078125 6.304687 23.039063 3.078125 7.886718-3.175782 13.097656-10.144532 14.390625-17.949219 3.050781 2.433594 5.527343 5.660156 7.09375 9.539063 4.871093 12.039062-.949219 25.75-12.996094 30.609374-7.96875 3.21875-16.660156 1.757813-23.035156-3.089843-3.816407 7.75-10.382813 14.183593-19.023438 17.664062-18.636719 7.539063-39.851562-1.46875-47.375-20.113281zm0 0" fill="#60daff"/><path d="m163.707031 245.554688h-.105469c-4.253906 0-7.703124-3.449219-7.703124-7.699219 0-4.253907 3.449218-7.703125 7.703124-7.703125h.105469c4.253907 0 7.699219 3.449218 7.699219 7.703125 0 4.25-3.445312 7.699219-7.699219 7.699219zm0 0" fill="#a0ecff"/><path d="m423.347656 58.824219h-.105468c-4.253907 0-7.703126-3.449219-7.703126-7.699219 0-4.253906 3.449219-7.703125 7.703126-7.703125h.105468c4.25 0 7.699219 3.449219 7.699219 7.703125 0 4.25-3.449219 7.699219-7.699219 7.699219zm0 0" fill="#60daff"/><g fill="#38aaff"><path d="m410.105469 80.261719h-.105469c-4.253906 0-7.699219-3.445313-7.699219-7.699219s3.445313-7.699219 7.699219-7.699219h.105469c4.253906 0 7.699219 3.445313 7.699219 7.699219s-3.445313 7.699219-7.699219 7.699219zm0 0"/><path d="m430.640625 343.503906h-.105469c-4.253906 0-7.703125-3.449218-7.703125-7.699218 0-4.253907 3.449219-7.699219 7.703125-7.699219h.105469c4.25 0 7.699219 3.445312 7.699219 7.699219 0 4.25-3.449219 7.699218-7.699219 7.699218zm0 0"/><path d="m401.890625 335.789062h-.105469c-4.25 0-7.699218-3.445312-7.699218-7.699218s3.449218-7.699219 7.699218-7.699219h.105469c4.253906 0 7.703125 3.445313 7.703125 7.699219s-3.449219 7.699218-7.703125 7.699218zm0 0"/></g><path d="m40.410156 153.15625h-.105468c-4.253907 0-7.699219-3.449219-7.699219-7.703125 0-4.25 3.445312-7.699219 7.699219-7.699219h.105468c4.253906 0 7.699219 3.449219 7.699219 7.699219 0 4.253906-3.445313 7.703125-7.699219 7.703125zm0 0" fill="#60daff"/><path d="m62.015625 141.175781h-.105469c-4.253906 0-7.703125-3.449219-7.703125-7.703125 0-4.25 3.449219-7.699218 7.703125-7.699218h.105469c4.25 0 7.699219 3.449218 7.699219 7.699218 0 4.253906-3.449219 7.703125-7.699219 7.703125zm0 0" fill="#38aaff"/><path d="m435.683594 162.398438c-3.15625 0-6.113282-1.957032-7.246094-5.097657-.28125-.785156-6.757812-19.433593 7.460938-35.929687 2.78125-3.21875 7.640624-3.582032 10.859374-.804688 3.222657 2.773438 3.582032 7.636719.804688 10.859375-8.28125 9.609375-4.671875 20.554688-4.632812 20.664063 1.441406 4-.636719 8.410156-4.636719 9.851562-.863281.308594-1.742188.457032-2.609375.457032zm0 0" fill="#60daff"/><path d="m48.957031 302.707031c-2.082031 0-4.15625-.839843-5.675781-2.496093-9.03125-9.855469-12.070312-22.734376-8.554688-36.269532 1.066407-4.117187 5.273438-6.59375 9.386719-5.515625 4.117188 1.066407 6.585938 5.269531 5.519531 9.386719-2.222656 8.550781-.539062 15.949219 5 21.988281 2.871094 3.136719 2.660157 8.007813-.472656 10.878907-1.476562 1.355468-3.34375 2.027343-5.203125 2.027343zm0 0" fill="#60daff"/></svg>