<svg height="512pt" viewBox="0 -64 512 512" width="512pt" xmlns="http://www.w3.org/2000/svg"><path d="m101.191406 50.933594c-.0625-.707032-.097656-1.414063-.097656-2.132813.003906-13.992187 11.546875-25.332031 25.777344-25.328125 13.632812.007813 24.78125 10.417969 25.695312 23.59375 29.964844-1.652344 63.226563-2.566406 98.246094-2.554687 22.425781.007812 44.128906.398437 64.703125 1.117187-.011719-.363281-.027344-.726562-.027344-1.09375.007813-16.390625 13.53125-29.675781 30.203125-29.667968 7.148438 0 13.707032 2.449218 18.875 6.53125 5.972656-12.636719 18.996094-21.40234425 34.105469-21.398438 20.757813.0078125 37.578125 16.558594 37.570313 36.964844-.003907 6.449218-1.691407 12.515625-4.652344 17.792968 36.101562 5.152344 57.933594 11.851563 57.929687 19.175782-.003906 16.195312-106.886719 29.285156-238.730469 29.234375-131.839843-.050781-238.710937-13.222657-238.703124-29.417969.003906-9.238281 34.777343-17.464844 89.105468-22.816406zm0 0" fill="#c4e1e8"/><g fill="#a4d5dd"><path d="m489.519531 73.929688c-.007812 8.519531-29.523437 16.171874-76.664062 21.507812-3.234375-6.621094-24.351563-12.660156-57.496094-17.386719 2.957031-5.277343 4.648437-11.34375 4.648437-17.792969.007813-19.707031-15.691406-35.816406-35.460937-36.898437 5.449219-5.253906 12.921875-8.492187 21.152344-8.492187 7.136719 0 13.699219 2.453124 18.871093 6.53125 5.976563-12.636719 18.996094-21.4062505 34.101563-21.39453175 20.757813 0 37.578125 16.55468775 37.570313 36.96093775 0 6.449218-1.691407 12.519531-4.648438 17.792968 36.097656 5.148438 57.925781 11.855469 57.925781 19.171876zm0 0"/><path d="m251.550781 141.800781h-.773437c-4.265625 0-7.722656-3.460937-7.722656-7.726562 0-4.269531 3.457031-7.726563 7.722656-7.726563h.773437c64.511719 0 125.285157-3.101562 171.113281-8.730468 4.222657-.515626 8.09375 2.492187 8.613282 6.726562.519531 4.234375-2.492188 8.09375-6.726563 8.613281-46.4375 5.703125-107.878906 8.84375-173 8.84375zm0 0"/><path d="m452.074219 128.835938c-3.683594 0-6.941407-2.640626-7.601563-6.390626-.738281-4.203124 2.066406-8.207031 6.269532-8.945312 6.085937-1.070312 11.71875-2.207031 16.746093-3.378906 4.160157-.96875 8.3125 1.613281 9.28125 5.769531s-1.617187 8.308594-5.769531 9.28125c-5.304688 1.234375-11.21875 2.429687-17.578125 3.546875-.453125.078125-.90625.117188-1.347656.117188zm0 0"/></g><path d="m95.023438 225.140625c-1.320313-3.363281-2.054688-7.023437-2.054688-10.855469 0-16.394531 13.289062-29.683594 29.683594-29.683594 5.246094 0 10.175781 1.367188 14.453125 3.757813 5.335937-17.558594 21.648437-30.34375 40.953125-30.34375 22.824218 0 41.46875 17.871094 42.722656 40.378906 3.269531-1.539062 6.921875-2.402343 10.773438-2.402343 11.59375 0 21.359374 7.785156 24.371093 18.414062 7.042969-.082031 14.171875-.125 21.382813-.125 9.851562 0 19.558594.078125 29.089844.226562 0-.074218-.003907-.148437-.003907-.226562 0-13.992188 11.339844-25.335938 25.335938-25.335938 6.335937 0 12.128906 2.335938 16.570312 6.183594 6.375-12.035156 19.019531-20.242187 33.589844-20.242187 20.980469 0 37.988281 17.007812 37.988281 37.988281 0 2.523438-.25 4.984375-.71875 7.371094 56.40625 5.359375 92.839844 13.828125 92.839844 23.367187 0 16.195313-105.074219 29.328125-234.695312 29.328125-129.617188 0-234.691407-13.132812-234.691407-29.328125 0-7.003906 19.648438-13.429687 52.410157-18.472656zm0 0" fill="#a0ecff"/><path d="m512 243.609375c0 4.59375-8.476562 8.953125-23.582031 12.828125-11.742188-7.5625-45.613281-14.125-92.859375-18.605469.492187-2.503906.761718-5.089843.761718-7.738281 0-22.003906-17.84375-39.847656-39.847656-39.847656-1.8125 0-3.605468.125-5.355468.363281 6.902343-9.519531 18.109374-15.722656 30.769531-15.722656 20.984375 0 37.992187 17.007812 37.992187 37.992187 0 2.523438-.257812 4.988282-.71875 7.367188 56.414063 5.355468 92.839844 13.835937 92.839844 23.363281zm0 0" fill="#60daff"/><path d="m372.027344 300.144531c.640625-2.292969.988281-4.703125.988281-7.195312 0-14.777344-11.980469-26.757813-26.757813-26.757813-6.652343 0-12.730468 2.433594-17.410156 6.449219-3.226562-18.53125-19.375-32.625-38.828125-32.625-17.78125 0-32.808593 11.777344-37.722656 27.953125-3.941406-2.203125-8.480469-3.460938-13.316406-3.460938-15.097657 0-27.339844 12.238282-27.339844 27.339844v.007813c-37.304687.097656-108.160156 4.042969-144.066406 7.390625-41.722657 3.890625-67.574219 11.890625-67.574219 19.617187 0 14.921875 96.792969 27.015625 216.191406 27.015625 119.398438 0 216.191406-12.097656 216.191406-27.015625 0-7.269531-22.988281-13.863281-60.355468-18.71875zm0 0" fill="#f0f5f7"/><path d="m432.386719 318.863281c0 4.667969-9.488281 9.054688-26.175781 12.898438-6.871094-5.632813-27.679688-10.691407-57.875-14.617188.636718-2.296875.988281-4.707031.988281-7.203125 0-14.769531-11.980469-26.753906-26.765625-26.753906-6.644532 0-12.722656 2.433594-17.410156 6.449219-3.222657-18.53125-19.367188-32.625-38.824219-32.625-3.277344 0-6.460938.402343-9.5 1.152343 7.003906-10.917968 19.253906-18.148437 33.191406-18.148437 19.460937 0 35.605469 14.089844 38.828125 32.625 4.6875-4.019531 10.765625-6.449219 17.410156-6.449219 14.78125 0 26.765625 11.980469 26.765625 26.753906 0 2.492188-.351562 4.902344-.992187 7.199219 37.367187 4.851563 60.359375 11.445313 60.359375 18.71875zm0 0" fill="#dde9ed"/><path d="m81.160156 378.746094c-.246094 0-.5-.011719-.753906-.035156-7.632812-.738282-14.992188-1.550782-21.875-2.410157-4.234375-.527343-7.238281-4.390625-6.710938-8.625.53125-4.234375 4.382813-7.234375 8.628907-6.707031 6.738281.839844 13.957031 1.636719 21.445312 2.359375 4.25.410156 7.359375 4.1875 6.949219 8.433594-.386719 3.996093-3.75 6.984375-7.683594 6.984375zm0 0" fill="#dde9ed"/><path d="m216.191406 384.511719c-37.859375 0-75.222656-1.214844-108.054687-3.507813-4.257813-.300781-7.46875-3.992187-7.167969-8.246094.296875-4.257812 3.96875-7.472656 8.246094-7.167968 32.476562 2.269531 69.472656 3.46875 106.976562 3.46875 58.675782 0 113.988282-2.875 155.746094-8.09375 4.222656-.519532 8.09375 2.476562 8.625 6.710937.527344 4.230469-2.476562 8.09375-6.710938 8.625-42.371093 5.292969-98.363281 8.210938-157.660156 8.210938zm0 0" fill="#dde9ed"/></svg>