<svg height="512pt" viewBox="0 -44 512 512" width="512pt" xmlns="http://www.w3.org/2000/svg"><path d="m394.464844 221.914062c0 108.929688-88.304688 197.230469-197.234375 197.230469-108.925781 0-197.230469-88.300781-197.230469-197.230469 0-108.929687 88.304688-197.230468 197.230469-197.230468 108.929687 0 197.234375 88.300781 197.234375 197.230468zm0 0" fill="#fc4830"/><path d="m354.945312 221.914062c0 87.101563-70.609374 157.714844-157.714843 157.714844-87.101563 0-157.710938-70.613281-157.710938-157.714844 0-87.101562 70.609375-157.714843 157.710938-157.714843 87.105469 0 157.714843 70.613281 157.714843 157.714843zm0 0" fill="#f6cb43"/><path d="m317.261719 221.914062c0 66.289063-53.738281 120.027344-120.03125 120.027344-66.289063 0-120.027344-53.738281-120.027344-120.027344 0-66.289062 53.738281-120.027343 120.027344-120.027343 66.292969 0 120.03125 53.738281 120.03125 120.027343zm0 0" fill="#00fbaa"/><path d="m277.800781 221.914062c0 44.496094-36.070312 80.570313-80.570312 80.570313-44.496094 0-80.570313-36.074219-80.570313-80.570313 0-44.496093 36.074219-80.570312 80.570313-80.570312 44.5 0 80.570312 36.074219 80.570312 80.570312zm0 0" fill="#2081f6"/><path d="m241.359375 221.914062c0 24.371094-19.757813 44.125-44.128906 44.125-24.367188 0-44.125-19.753906-44.125-44.125 0-24.371093 19.757812-44.125 44.125-44.125 24.371093 0 44.128906 19.753907 44.128906 44.125zm0 0" fill="#3e4eb7"/><path d="m444.015625 283.136719c-4.203125-69.488281-61.878906-124.542969-132.421875-124.542969-56.894531 0-105.417969 35.8125-124.273438 86.125-48.992187.589844-88.535156 40.46875-88.535156 89.601562 0 49.503907 40.132813 89.632813 89.632813 89.632813h253.136719c38.90625 0 70.441406-31.539063 70.441406-70.441406 0-38.078125-30.21875-69.078125-67.980469-70.375zm0 0" fill="#a0ecff"/><path d="m512 353.511719c0 38.902343-31.542969 70.445312-70.445312 70.445312h-5.457032c5.105469-9.753906 7.996094-20.855469 7.996094-32.621093 0-38.074219-30.214844-69.078126-67.980469-70.382813-4.203125-69.480469-61.882812-124.542969-132.429687-124.542969-9.511719 0-18.785156 1-27.722656 2.902344 24.132812-25.09375 58.054687-40.714844 95.628906-40.714844 70.546875 0 128.222656 55.046875 132.429687 124.542969 37.765625 1.289063 67.980469 32.292969 67.980469 70.371094zm0 0" fill="#60daff"/><path d="m408.894531 275.515625c-3.488281 0-6.652343-2.378906-7.503906-5.921875-1.226563-5.097656-2.902344-10.117188-4.984375-14.929688-1.695312-3.914062.109375-8.464843 4.023438-10.15625 3.917968-1.695312 8.464843.105469 10.160156 4.019532 2.433594 5.625 4.390625 11.496094 5.824218 17.453125.996094 4.152343-1.558593 8.324219-5.707031 9.320312-.605469.144531-1.214843.214844-1.8125.214844zm0 0" fill="#a0ecff"/><path d="m383.828125 229.761719c-2.027344 0-4.054687-.792969-5.574219-2.375-17.621094-18.363281-41.296875-28.476563-66.660156-28.476563-4.269531 0-7.726562-3.457031-7.726562-7.722656 0-4.269531 3.457031-7.726562 7.726562-7.726562 29.609375 0 57.242188 11.800781 77.808594 33.226562 2.957031 3.078125 2.855468 7.96875-.222656 10.921875-1.496094 1.4375-3.425782 2.152344-5.351563 2.152344zm0 0" fill="#a0ecff"/><path d="m79.484375 323.277344c3.003906-49.675782 44.238281-89.035156 94.671875-89.035156 40.675781 0 75.363281 25.605468 88.84375 61.570312 35.027344.421875 63.296875 28.933594 63.296875 64.058594 0 35.390625-28.691406 64.082031-64.082031 64.082031-14.8125 0-165.75 0-180.972656 0-27.8125 0-50.359376-22.546875-50.359376-50.359375 0-27.222656 21.605469-49.386719 48.601563-50.316406zm0 0" fill="#f0f5f7"/><path d="m326.296875 359.878906c0 35.085938-28.210937 63.585938-63.199219 64.0625 10.492188-11.417968 16.886719-26.625 16.886719-43.335937 0-35.121094-28.261719-63.636719-63.296875-64.0625-13.484375-35.960938-48.167969-61.570313-88.847656-61.570313-4.808594 0-9.523438.363282-14.144532 1.050782 16.410157-13.605469 37.476563-21.777344 60.457032-21.777344 40.679687 0 75.367187 25.597656 88.847656 61.570312 35.03125.425782 63.296875 28.925782 63.296875 64.0625zm0 0" fill="#dde9ed"/><path d="m383.867188 44.578125c-.011719 0-.023438 0-.039063 0-4.265625-.019531-7.707031-3.496094-7.6875-7.761719l.011719-2.878906c.023437-4.265625 3.546875-7.726562 7.765625-7.691406 4.265625.023437 7.710937 3.5 7.6875 7.765625l-.011719 2.878906c-.023438 4.253906-3.476562 7.6875-7.726562 7.6875zm0 0" fill="#fc4830"/><path d="m383.777344 73.890625c-.011719 0-.023438 0-.035156 0-4.269532-.023437-7.710938-3.496094-7.691407-7.765625l.015625-2.878906c.019532-4.253906 3.472656-7.6875 7.722656-7.6875h.039063c4.265625.019531 7.707031 3.492187 7.6875 7.761718l-.011719 2.878907c-.019531 4.253906-3.476562 7.691406-7.726562 7.691406zm0 0" fill="#fc4830"/><path d="m399.957031 57.847656c-.011719 0-.023437 0-.039062 0l-2.882813-.015625c-4.269531-.019531-7.710937-3.496093-7.691406-7.761719.023438-4.253906 3.476562-7.691406 7.726562-7.691406h.039063l2.882813.015625c4.269531.019531 7.710937 3.496094 7.691406 7.761719-.023438 4.257812-3.476563 7.691406-7.726563 7.691406zm0 0" fill="#fc4830"/><path d="m370.589844 57.757812c-.015625 0-.027344 0-.039063 0l-2.886719-.015624c-4.265624-.019532-7.710937-3.496094-7.6875-7.761719.019532-4.269531 3.496094-7.703125 7.761719-7.691407l2.886719.015626c4.265625.019531 7.707031 3.496093 7.6875 7.761718-.019531 4.253906-3.476562 7.691406-7.722656 7.691406zm0 0" fill="#fc4830"/><g fill="#f6cb43"><path d="m408.941406 101.34375c-.011718 0-.023437 0-.035156 0-4.269531-.019531-7.710938-3.496094-7.691406-7.765625l.015625-2.878906c.019531-4.253907 3.472656-7.6875 7.722656-7.6875h.039063c4.265624.019531 7.707031 3.496093 7.6875 7.761719l-.011719 2.878906c-.019531 4.253906-3.476563 7.691406-7.726563 7.691406zm0 0"/><path d="m408.851562 130.652344c-.011718 0-.023437 0-.035156 0-4.269531-.019532-7.710937-3.496094-7.691406-7.761719l.015625-2.878906c.019531-4.253907 3.472656-7.691407 7.722656-7.691407h.039063c4.265625.019532 7.707031 3.496094 7.6875 7.765626l-.011719 2.878906c-.019531 4.253906-3.476563 7.6875-7.726563 7.6875zm0 0"/><path d="m425.03125 114.609375c-.011719 0-.023438 0-.035156 0l-2.886719-.011719c-4.265625-.023437-7.710937-3.496094-7.6875-7.765625.019531-4.265625 3.492187-7.71875 7.761719-7.6875l2.882812.011719c4.269532.019531 7.710938 3.496094 7.691406 7.765625-.019531 4.253906-3.476562 7.6875-7.726562 7.6875zm0 0"/><path d="m395.660156 114.519531c-.011718 0-.023437 0-.035156 0l-2.886719-.011719c-4.265625-.023437-7.710937-3.496093-7.6875-7.765624.019531-4.253907 3.472657-7.6875 7.722657-7.6875h.039062l2.882812.011718c4.269532.019532 7.710938 3.496094 7.691407 7.761719-.019531 4.257813-3.476563 7.691406-7.726563 7.691406zm0 0"/><path d="m30.921875 18.332031c-.011719 0-.023437 0-.035156 0-4.269531-.019531-7.710938-3.496093-7.691407-7.761719l.015626-2.878906c.019531-4.257812 3.476562-7.691406 7.722656-7.691406h.039062c4.265625.0195312 7.710938 3.496094 7.6875 7.761719l-.011718 2.878906c-.019532 4.257813-3.476563 7.691406-7.726563 7.691406zm0 0"/><path d="m30.832031 47.640625c-.011719 0-.023437 0-.035156 0-4.269531-.019531-7.710937-3.492187-7.691406-7.761719l.011719-2.878906c.023437-4.253906 3.476562-7.691406 7.726562-7.691406h.039062c4.265626.019531 7.707032 3.496094 7.6875 7.765625l-.011718 2.878906c-.019532 4.253906-3.476563 7.6875-7.726563 7.6875zm0 0"/><path d="m47.011719 31.597656c-.011719 0-.023438 0-.035157 0l-2.886718-.011718c-4.265625-.019532-7.707032-3.496094-7.6875-7.765626.019531-4.253906 3.476562-7.6875 7.722656-7.6875h.039062l2.882813.011719c4.269531.019531 7.710937 3.496094 7.691406 7.765625-.019531 4.253906-3.476562 7.6875-7.726562 7.6875zm0 0"/><path d="m17.640625 31.507812c-.011719 0-.023437 0-.035156 0l-2.886719-.011718c-4.265625-.019532-7.707031-3.496094-7.6875-7.765625.019531-4.253907 3.476562-7.6875 7.722656-7.6875h.039063l2.882812.011719c4.269531.019531 7.710938 3.496093 7.691407 7.765624-.019532 4.253907-3.476563 7.6875-7.726563 7.6875zm0 0"/></g></svg>