<svg height="512pt" viewBox="0 -43 512 512" width="512pt" xmlns="http://www.w3.org/2000/svg"><path d="m492.507812 67.578125h-30.269531c.121094-1.304687.191407-2.628906.191407-3.964844 0-23.351562-18.929688-42.285156-42.28125-42.285156-19.027344 0-35.113282 12.570313-40.421876 29.855469-3.785156-2.3125-8.230468-3.648438-12.988281-3.648438-12.09375 0-22.175781 8.617188-24.449219 20.042969h-51.328124c-2.273438-11.425781-12.355469-20.042969-24.449219-20.042969-12.097657 0-22.175781 8.617188-24.453125 20.042969h-75.109375c-1.566407-18.308594-16.808594-32.710937-35.46875-32.933594-7.585938-20.238281-27.105469-34.644531-49.992188-34.644531-28.375 0-51.578125 22.148438-53.269531 50.097656-15.1875.523438-27.34375 12.992188-27.34375 28.308594 0 15.652344 12.6875 28.335938 28.335938 28.335938 8.5625 0 463.296874-.179688 463.296874-.179688 10.765626 0 19.492188-8.726562 19.492188-19.492188 0-10.765624-8.726562-19.492187-19.492188-19.492187zm0 0" fill="#dde9ed"/><path d="m512 87.070312c0 10.769532-8.730469 19.492188-19.488281 19.492188 0 0-2.355469 0-6.734375 0v-.074219c0-5.386719-2.179688-10.253906-5.710938-13.78125-3.527344-3.527343-8.402344-5.707031-13.78125-5.707031h-30.273437c.121093-1.304688.195312-2.632812.195312-3.96875 0-23.355469-18.933593-42.277344-42.277343-42.277344-3.488282 0-6.871094.421875-10.109376 1.222656 7.371094-12.371093 20.886719-20.652343 36.332032-20.652343 23.34375 0 42.277344 18.933593 42.277344 42.289062 0 1.335938-.070313 2.652344-.195313 3.960938h30.277344c5.378906 0 10.253906 2.179687 13.78125 5.707031 3.527343 3.527344 5.707031 8.402344 5.707031 13.789062zm0 0" fill="#c4e1e8"/><path d="m484.65625 190.527344c-1.691406-27.949219-24.894531-50.097656-53.269531-50.097656-22.886719 0-42.40625 14.40625-49.992188 34.644531-18.660156.226562-33.902343 14.625-35.46875 32.933593h-29.695312c1.125-10.113281-4.054688-20.300781-13.699219-25.085937-11.632812-5.777344-25.601562-1.625-32.289062 9.214844-3.953126-2.632813-8.699219-4.171875-13.804688-4.171875-12.09375 0-22.175781 8.613281-24.449219 20.042968h-10.980469c-10.765624 0-19.492187 8.726563-19.492187 19.492188s8.726563 19.492188 19.492187 19.492188c0 0 254.09375.179687 262.65625.179687 15.648438 0 28.335938-12.6875 28.335938-28.335937 0-15.316407-12.15625-27.785157-27.34375-28.308594zm0 0" fill="#a0ecff"/><path d="m512 218.832031c0 15.652344-12.691406 28.34375-28.332031 28.34375-1.183594 0-7.046875 0-16.269531-.011719.03125-.429687.039062-.851562.039062-1.285156 0-15.320312-12.15625-27.785156-27.34375-28.3125-1.699219-27.949218-24.898438-50.09375-53.273438-50.09375-.625 0-1.253906.011719-1.882812.03125 9.164062-16.164062 26.535156-27.078125 46.445312-27.078125 28.382813 0 51.585938 22.152344 53.269532 50.105469 15.191406.515625 27.347656 12.988281 27.347656 28.300781zm0 0" fill="#60daff"/><path d="m142.300781 208.007812h-20.125c1.136719-3.382812 1.765625-7 1.765625-10.769531 0-18.644531-15.117187-33.761719-33.761718-33.761719-14.390626 0-26.671876 9.007813-31.53125 21.6875-9.117188-3.96875-20.121094-2.246093-27.582032 5.214844-4.867187 4.867188-7.300781 11.25-7.300781 17.628906h-3.398437c-10.761719 0-19.488282 8.726563-19.488282 19.492188s8.726563 19.492188 19.488282 19.492188c0 0 70.898437.027343 121.929687.058593 10.785156.007813 19.527344-8.734375 19.527344-19.523437 0-10.78125-8.742188-19.519532-19.523438-19.519532zm0 0" fill="#f0f5f7"/><path d="m161.824219 227.53125c0 10.78125-8.742188 19.519531-19.53125 19.519531-2.097657 0-4.238281 0-6.398438-.007812.25-1.214844.371094-2.46875.371094-3.753907 0-5.390624-2.191406-10.265624-5.71875-13.800781-3.535156-3.539062-8.421875-5.71875-13.8125-5.71875h-20.125c1.144531-3.382812 1.769531-7.003906 1.769531-10.769531 0-18.644531-15.117187-33.761719-33.761718-33.761719-1.039063 0-2.066407.050781-3.085938.144531 5.957031-9.554687 16.558594-15.910156 28.644531-15.910156 18.652344 0 33.761719 15.117188 33.761719 33.761719 0 3.773437-.628906 7.382813-1.757812 10.769531h20.125c5.386718 0 10.261718 2.191406 13.800781 5.71875 3.539062 3.539063 5.71875 8.421875 5.71875 13.808594zm0 0" fill="#dde9ed"/><path d="m491.632812 354.890625h-23.203124c-2.476563-11.164063-12.429688-19.515625-24.339844-19.515625-2.171875 0-4.28125.277344-6.292969.800781-5.984375-16.078125-21.46875-27.53125-39.632813-27.53125-19.933593 0-36.636718 13.800781-41.101562 32.363281-2.535156-1.578124-5.515625-2.503906-8.722656-2.503906-9.085938 0-16.449219 7.324219-16.53125 16.390625h-64.019532c-4.007812-8.402343-12.582031-14.207031-22.511718-14.207031-6.332032 0-12.109375 2.363281-16.507813 6.253906-1.972656-16.914062-16.34375-30.046875-33.789062-30.046875-15.558594 0-28.667969 10.445313-32.726563 24.699219-5.90625-11.535156-17.839844-19.46875-31.652344-19.632812-7.582031-20.238282-27.101562-34.644532-49.988281-34.644532-28.375 0-51.578125 22.144532-53.269531 50.097656-15.1875.519532-27.34375 12.992188-27.34375 28.308594 0 15.648438 12.6875 28.335938 28.335938 28.335938 8.5625 0 463.296874-.179688 463.296874-.179688 10.765626 0 19.492188-8.730468 19.492188-19.492187 0-10.769531-8.726562-19.496094-19.492188-19.496094zm0 0" fill="#a0ecff"/><path d="m511.125 374.382812c0 10.765626-8.730469 19.496094-19.496094 19.496094 0 0-5.824218 0-16.167968.011719.007812-.105469.007812-.207031.007812-.308594 0-5.390625-2.179688-10.253906-5.707031-13.78125-3.527344-3.527343-8.402344-5.707031-13.78125-5.707031h-23.199219c-2.480469-11.171875-12.433594-19.519531-24.34375-19.519531-2.171875 0-4.277344.277343-6.292969.800781-5.957031-16.011719-21.320312-27.429688-39.390625-27.53125 7.539063-11.558594 20.582032-19.199219 35.410156-19.199219 18.160157 0 33.648438 11.457031 39.636719 27.53125 2.003907-.527343 4.113281-.804687 6.292969-.804687 11.910156 0 21.863281 8.351562 24.332031 19.519531h23.199219c5.378906 0 10.253906 2.179687 13.792969 5.707031 3.527343 3.53125 5.707031 8.40625 5.707031 13.785156zm0 0" fill="#60daff"/><path d="m455.90625 195.988281c-4.046875 0-7.441406-3.152343-7.691406-7.246093-.46875-7.769532-6.957032-13.859376-14.773438-13.859376-4.257812 0-7.710937-3.453124-7.710937-7.714843 0-4.257813 3.453125-7.710938 7.710937-7.710938 15.957032 0 29.210938 12.453125 30.171875 28.355469.257813 4.25-2.980469 7.90625-7.230469 8.164062-.160156.007813-.316406.011719-.476562.011719zm0 0" fill="#a0ecff"/><path d="m278.035156 138.785156h-84.332031c-4.257813 0-7.710937-3.449218-7.710937-7.710937s3.453124-7.714844 7.710937-7.714844h84.332031c4.261719 0 7.710938 3.453125 7.710938 7.714844s-3.449219 7.710937-7.710938 7.710937zm0 0" fill="#c4e1e8"/><path d="m316.085938 138.785156h-14.398438c-4.257812 0-7.710938-3.449218-7.710938-7.710937s3.453126-7.714844 7.710938-7.714844h14.398438c4.261718 0 7.714843 3.453125 7.714843 7.714844s-3.453125 7.710937-7.714843 7.710937zm0 0" fill="#c4e1e8"/><g fill="#a0ecff"><path d="m196.789062 426.738281h-87.414062c-4.261719 0-7.714844-3.453125-7.714844-7.710937 0-4.261719 3.453125-7.714844 7.714844-7.714844h87.414062c4.261719 0 7.714844 3.453125 7.714844 7.714844 0 4.257812-3.453125 7.710937-7.714844 7.710937zm0 0"/><path d="m85.71875 426.738281h-11.3125c-4.257812 0-7.710938-3.453125-7.710938-7.710937 0-4.261719 3.453126-7.714844 7.710938-7.714844h11.3125c4.261719 0 7.714844 3.453125 7.714844 7.714844 0 4.257812-3.453125 7.710937-7.714844 7.710937zm0 0"/></g></svg>