<svg height="512pt" viewBox="0 -62 512 512" width="512pt" xmlns="http://www.w3.org/2000/svg"><path d="m457.039062 44.609375h-20.78125c1.171876-3.386719 1.820313-7.011719 1.820313-10.785156 0-18.679688-15.609375-33.82031275-34.859375-33.82031275-14.859375 0-27.539062 9.02343775-32.558594 21.72656275-9.414062-3.976563-20.777344-2.25-28.476562 5.21875-5.027344 4.878906-7.542969 11.269531-7.542969 17.660156h-3.503906c-11.117188 0-20.128907 8.742187-20.128907 19.527344 0 10.785156 9.011719 19.527343 20.128907 19.527343 0 0 73.203125.023438 125.894531.058594 11.136719.003906 20.164062-8.75 20.164062-19.558594 0-10.796874-9.023437-19.554687-20.15625-19.554687zm0 0" fill="#f0f5f7"/><path d="m477.195312 64.171875c0 10.792969-9.023437 19.550781-20.164062 19.550781-2.167969 0-4.375 0-6.605469-.007812.253907-1.21875.382813-2.472656.382813-3.761719 0-5.398437-2.261719-10.28125-5.90625-13.824219-3.652344-3.542968-8.695313-5.730468-14.261719-5.730468h-20.78125c1.179687-3.386719 1.828125-7.015626 1.828125-10.785157 0-18.675781-15.609375-33.820312-34.863281-33.820312-1.070313 0-2.132813.050781-3.183594.144531 6.144531-9.570312 17.09375-15.9375 29.574219-15.9375 19.261718 0 34.859375 15.144531 34.859375 33.820312 0 3.78125-.648438 7.398438-1.816407 10.785157h20.78125c5.566407 0 10.597657 2.195312 14.25 5.730469 3.65625 3.542968 5.90625 8.4375 5.90625 13.835937zm0 0" fill="#dde9ed"/><path d="m41.417969 81.984375c2.53125-40.578125 37.25-72.726563 79.714843-72.726563 34.25 0 63.457032 20.914063 74.808594 50.292969 27.925782.328125 50.738282 21.230469 53.082032 47.8125h44.4375c-1.679688-14.679687 6.070312-29.472656 20.5-36.421875 17.40625-8.386718 38.3125-2.355468 48.320312 13.382813 5.914062-3.824219 13.015625-6.054688 20.65625-6.054688 18.101562 0 33.1875 12.503907 36.589844 29.09375h16.429687c16.109375 0 29.171875 12.667969 29.171875 28.296875 0 15.625-13.0625 28.296875-29.171875 28.296875 0 0-380.242187.261719-393.058593.261719-23.417969 0-42.402344-18.417969-42.402344-41.136719 0-22.234375 18.191406-40.339843 40.921875-41.097656zm0 0" fill="#c4e1e8"/><path d="m.496094 123.078125c0 22.722656 18.988281 41.144531 42.398437 41.144531 1.769531 0 10.542969 0 24.347657-.011718-.046876-.628907-.0625-1.242188-.0625-1.867188 0-22.246094 18.191406-40.339844 40.921874-41.101562 2.539063-40.582032 37.257813-72.722657 79.722657-72.722657.9375 0 1.875.011719 2.816406.042969-13.710937-23.46875-39.707031-39.308594-69.5-39.308594-42.480469 0-77.199219 32.15625-79.722656 72.738282-22.730469.746093-40.921875 18.855468-40.921875 41.085937zm0 0" fill="#a4d5dd"/><path d="m84.433594 86.445312c-.164063 0-.324219-.003906-.488282-.015624-4.257812-.265626-7.496093-3.933594-7.230468-8.191407 1.324218-21.246093 19.484375-37.886719 41.339844-37.886719 4.269531 0 7.726562 3.457032 7.726562 7.722657 0 4.269531-3.457031 7.726562-7.726562 7.726562-13.714844 0-25.097657 10.277344-25.917969 23.398438-.253907 4.097656-3.65625 7.246093-7.703125 7.246093zm0 0" fill="#c4e1e8"/><path d="m469.945312 139.589844c-2.300781-36.867188-33.84375-66.078125-72.425781-66.078125-31.117187 0-57.652343 19.003906-67.964843 45.695312-25.375.296875-46.097657 19.289063-48.226563 43.441407h-40.375c1.527344-13.335938-5.515625-26.777344-18.621094-33.089844-15.816406-7.621094-34.8125-2.140625-43.902343 12.15625-5.375-3.472656-11.828126-5.5-18.769532-5.5-16.445312 0-30.148437 11.359375-33.242187 26.433594h-14.925781c-14.636719 0-26.503907 11.511718-26.503907 25.710937s11.867188 25.707031 26.503907 25.707031c0 0 345.460937.238282 357.105468.238282 21.277344 0 38.523438-16.730469 38.523438-37.371094 0-20.207032-16.527344-36.652344-37.175782-37.34375zm0 0" fill="#a0ecff"/><path d="m507.121094 176.925781c0 20.644531-17.253906 37.382813-38.519532 37.382813-1.609374 0-9.578124 0-22.121093-.011719.042969-.570313.054687-1.128906.054687-1.699219 0-20.210937-16.523437-36.652344-37.175781-37.34375-2.308594-36.867187-33.851563-66.074218-72.429687-66.074218-.855469 0-1.707032.015624-2.558594.042968 12.457031-21.324218 36.074218-35.714844 63.144531-35.714844 38.589844 0 70.132813 29.214844 72.425781 66.085938 20.652344.679688 37.179688 17.132812 37.179688 37.332031zm0 0" fill="#60daff"/><path d="m430.863281 144.347656c-4.050781 0-7.449219-3.148437-7.707031-7.246094-.71875-11.546874-10.753906-20.59375-22.839844-20.59375-4.269531 0-7.726562-3.460937-7.726562-7.726562s3.457031-7.726562 7.726562-7.726562c20.230469 0 37.035156 15.410156 38.261719 35.085937.269531 4.261719-2.96875 7.929687-7.226563 8.195313-.164062.007812-.328124.011718-.488281.011718zm0 0" fill="#a0ecff"/><path d="m166.359375 205.578125c-1.570313-17.792969-16.835937-31.789063-35.53125-32.007813-7.597656-19.664062-27.152344-33.664062-50.074219-33.664062-28.425781 0-51.667968 21.523438-53.363281 48.683594-15.214844.507812-27.390625 12.628906-27.390625 27.511718 0 15.207032 12.707031 27.535157 28.382812 27.535157 8.582032 0 464.089844-.171875 464.089844-.171875 10.785156 0 19.523438-8.484375 19.523438-18.945313 0-10.460937-8.738282-18.941406-19.523438-18.941406h-30.320312c.121094-1.269531.191406-2.554687.191406-3.851563 0-22.695312-18.964844-41.089843-42.355469-41.089843-19.058593 0-35.175781 12.210937-40.492187 29.011719-3.789063-2.25-8.242188-3.546876-13.011719-3.546876-12.113281 0-22.210937 8.371094-24.492187 19.476563zm0 0" fill="#dde9ed"/><path d="m512 224.519531c0 10.464844-8.746094 18.941407-19.523438 18.941407 0 0-2.359374 0-6.746093 0v-.070313c0-5.238281-2.183594-9.964844-5.71875-13.394531-3.535157-3.425782-8.417969-5.546875-13.804688-5.546875h-30.328125c.125-1.265625.195313-2.554688.195313-3.855469 0-22.699219-18.964844-41.085938-42.351563-41.085938-3.492187 0-6.882812.410157-10.125 1.1875 7.386719-12.023437 20.921875-20.066406 36.394532-20.066406 23.386718 0 42.351562 18.398438 42.351562 41.09375 0 1.300782-.074219 2.578125-.195312 3.847656h30.328124c5.386719 0 10.269532 2.121094 13.804688 5.546876 3.53125 3.429687 5.71875 8.167968 5.71875 13.402343zm0 0" fill="#c4e1e8"/><path d="m149.148438 281.214844c10.082031 0 19.191406 4.152344 25.722656 10.832031 6.464844-15.515625 21.527344-26.546875 39.238281-27.15625 2.636719-43.566406 38.792969-78.082031 83.019531-78.082031 35.671875 0 66.089844 22.453125 77.910156 53.996094 26.4375.316406 48.464844 18.886718 54.097657 43.691406 4.570312-2.101563 9.652343-3.28125 15.011719-3.28125 19.871093 0 35.980468 16.105468 35.980468 35.976562s-16.109375 35.980469-35.980468 35.980469c-12.632813 0-281.753907 0-295 0-19.871094 0-35.980469-16.109375-35.980469-35.980469s16.109375-35.976562 35.980469-35.976562zm0 0" fill="#a0ecff"/><path d="m480.128906 317.195312c0 18.699219-14.253906 34.0625-32.503906 35.8125 1.628906-4.101562 2.519531-8.566406 2.519531-13.234374 0-19.867188-16.097656-35.976563-35.980469-35.976563-5.355468 0-10.441406 1.175781-15.007812 3.277344-5.628906-24.804688-27.664062-43.375-54.097656-43.695313-11.824219-31.539062-42.238282-53.988281-77.90625-53.988281-12.023438 0-23.445313 2.546875-33.757813 7.136719 15.269531-18.167969 38.15625-29.710938 63.742188-29.710938 35.667969 0 66.078125 22.445313 77.902343 53.988282 26.433594.316406 48.472657 18.886718 54.097657 43.691406 4.566406-2.097656 9.652343-3.277344 15.011719-3.277344 19.878906 0 35.980468 16.101562 35.980468 35.976562zm0 0" fill="#60daff"/><path d="m492.472656 349.640625h-23.242187c-2.476563-10.851563-12.449219-18.96875-24.378907-18.96875-2.175781 0-4.289062.273437-6.304687.78125-5.996094-15.625-21.503906-26.757813-39.699219-26.757813-19.96875 0-36.699218 13.410157-41.171875 31.449219-2.539062-1.535156-5.527343-2.433593-8.738281-2.433593-9.097656 0-16.480469 7.117187-16.558594 15.929687h-64.128906c-4.019531-8.164063-12.605469-13.808594-22.550781-13.808594-6.34375 0-12.128907 2.300781-16.535157 6.078125-1.980468-16.4375-16.375-29.195312-33.851562-29.195312-15.582031 0-28.714844 10.148437-32.78125 24-5.917969-11.207032-17.867188-18.917969-31.703125-19.082032-7.597656-19.664062-27.148437-33.664062-50.074219-33.664062-28.425781 0-51.664062 21.519531-53.359375 48.683594-15.21875.507812-27.394531 12.625-27.394531 27.511718 0 15.207032 12.707031 27.535157 28.382812 27.535157 8.582032 0 464.089844-.175781 464.089844-.175781 10.785156 0 19.523438-8.480469 19.523438-18.941407.003906-10.460937-8.738282-18.941406-19.523438-18.941406zm0 0" fill="#c4e1e8"/><path d="m512 368.578125c0 10.464844-8.746094 18.949219-19.53125 18.949219 0 0-5.832031 0-16.195312.011718.011718-.101562.011718-.199218.011718-.300781 0-5.238281-2.183594-9.964843-5.71875-13.390625-3.535156-3.429687-8.417968-5.546875-13.804687-5.546875h-23.242188c-2.480469-10.855469-12.453125-18.972656-24.382812-18.972656-2.171875 0-4.285157.273437-6.304688.78125-5.964843-15.558594-21.355469-26.652344-39.457031-26.753906 7.550781-11.234375 20.613281-18.660157 35.46875-18.660157 18.195312 0 33.707031 11.132813 39.703125 26.753907 2.011719-.507813 4.121094-.777344 6.304687-.777344 11.929688 0 21.902344 8.113281 24.375 18.96875h23.242188c5.386719 0 10.269531 2.117187 13.8125 5.546875 3.535156 3.425781 5.71875 8.164062 5.71875 13.390625zm0 0" fill="#a4d5dd"/></svg>