<svg height="512pt" viewBox="0 -59 512.00002 512" width="512pt" xmlns="http://www.w3.org/2000/svg"><path d="m315.796875 370.96875c-13.953125 4.230469-28.273437 2.914062-40.597656-2.660156-1.746094 6.75-4.566407 13.175781-8.332031 19.007812h-109.148438c-3.195312-4.960937-5.773438-10.429687-7.570312-16.359375-8.089844-26.699219 1.835937-54.546875 22.792968-70.511719-7.132812-7.316406-12.683594-16.390624-15.851562-26.84375-10.53125-34.777343 9.113281-71.507812 43.882812-82.050781 14.707032-4.457031 29.746094-3.5 43.019532 1.695313 7.167968-10.3125 17.722656-18.378906 30.679687-22.308594 30.570313-9.265625 62.871094 8.007812 72.136719 38.585938 6.507812 21.453124-.070313 43.742187-15.128906 58.34375 10.503906 7.175781 18.722656 17.832031 22.699218 30.953124.882813 2.914063 1.53125 5.847657 1.9375 8.78125 3.910156 27.753907-12.855468 54.984376-40.519531 63.367188zm0 0" fill="#f0f5f7"/><path d="m315.796875 370.96875c-13.953125 4.230469-28.273437 2.914062-40.597656-2.660156-1.746094 6.75-4.566407 13.175781-8.332031 19.007812h-91.914063c-9.101563-34.117187 10.441406-69.566406 44.5-79.886718 14.707031-4.457032 29.746094-3.492188 43.023437 1.691406 7.164063-10.308594 17.71875-18.378906 30.675782-22.304688 23.972656-7.265625 49 1.785156 63.167968 20.785156 3.90625 27.753907-12.859374 54.984376-40.523437 63.367188zm0 0" fill="#dde9ed"/><path d="m78.652344 161.972656c1.875 19.242188 18.992187 33.320313 38.230468 31.445313 4.226563-.410157 8.203126-1.558594 11.816407-3.300781 1.167969 4.855468 3.027343 9.628906 5.648437 14.179687 14.742188 25.625 47.46875 34.449219 73.09375 19.703125 12.429688-7.148438 20.894532-18.535156 24.644532-31.285156 9.28125 8.042968 21.707031 12.417968 34.894531 11.132812 7.859375-.765625 15.058593-3.453125 21.199219-7.542968 10.042968 18.0625 30.117187 29.425781 51.996093 27.292968 23.132813-2.253906 41.378907-18.914062 46.734375-40.234375 6.050782 2.796875 12.898438 4.078125 20.011719 3.386719 21.335937-2.078125 36.945313-21.058594 34.867187-42.394531-2.078124-21.335938-21.058593-36.949219-42.394531-34.871094-13.160156 1.28125-24.132812 9-30.128906 19.726563-10.617187-8.851563-24.628906-13.617188-39.472656-12.171876-11.558594 1.125-21.890625 5.863282-30.015625 12.96875-9.386719-12.648437-24.980469-20.203124-41.796875-18.5625-17.894531 1.742188-32.410157 13.433594-38.636719 29.058594-16.640625-17.339844-43.523438-21.828125-65.292969-9.304687-4.152343 2.390625-7.855469 5.257812-11.097656 8.488281-6.871094-10.695312-19.335937-17.261719-32.855469-15.945312-19.242187 1.875-33.320312 18.992187-31.445312 38.230468zm0 0" fill="#c4e1e8"/><path d="m406.921875 186.75c-7.113281.691406-13.964844-.589844-20.015625-3.390625-5.355469 21.324219-23.59375 37.988281-46.734375 40.238281-21.878906 2.132813-41.953125-9.234375-51.992187-27.289062-6.140626 4.082031-13.34375 6.769531-21.199219 7.542968-13.183594 1.277344-25.617188-3.097656-34.890625-11.132812-3.753906 12.746094-12.21875 24.132812-24.652344 31.285156-25.625 14.738282-58.34375 5.917969-73.089844-19.707031-2.617187-4.546875-4.476562-9.328125-5.652344-14.179687-3.613281 1.738281-7.582031 2.882812-11.8125 3.296874-19.242187 1.878907-36.355468-12.195312-38.230468-31.4375-.914063-9.347656 1.9375-18.199218 7.335937-25.039062 7.125 9.054688 18.570313 14.382812 30.894531 13.183594 4.230469-.40625 8.199219-1.554688 11.8125-3.296875 1.175782 4.851562 3.03125 9.628906 5.652344 14.175781 14.746094 25.625 47.464844 34.457031 73.089844 19.710938 12.433594-7.15625 20.898438-18.542969 24.652344-31.289063 9.273437 8.039063 21.707031 12.421875 34.890625 11.132813 7.855469-.761719 15.058593-3.449219 21.199219-7.539063 10.039062 18.0625 30.113281 29.421875 51.992187 27.289063 23.140625-2.253907 41.378906-18.917969 46.734375-40.230469 6.050781 2.792969 12.902344 4.082031 20.015625 3.378906 12.015625-1.175781 22.203125-7.703125 28.457031-16.988281 3.480469 5.167968 5.761719 11.246094 6.414063 17.882812 2.078125 21.34375-13.539063 40.324219-34.871094 42.402344zm0 0" fill="#a4d5dd"/><path d="m19.238281 356.421875h22.898438c2.4375-10.6875 12.261719-18.6875 24.015625-18.6875 2.144531 0 4.226562.269531 6.210937.769531 5.90625-15.390625 21.1875-26.359375 39.109375-26.359375 19.671875 0 36.152344 13.210938 40.558594 30.984375 2.5-1.511718 5.445312-2.398437 8.609375-2.398437 8.964844 0 16.234375 7.011719 16.3125 15.691406h63.175781c3.957032-8.042969 12.417969-13.601563 22.214844-13.601563 6.25 0 11.949219 2.265626 16.289062 5.988282 1.949219-16.195313 16.132813-28.761719 33.347657-28.761719 15.351562 0 28.285156 9.996094 32.292969 23.640625 5.828124-11.039062 17.601562-18.636719 31.234374-18.792969 7.484376-19.375 26.746094-33.167969 49.328126-33.167969 28.003906 0 50.898437 21.203126 52.566406 47.960938 14.988281.5 26.984375 12.4375 26.984375 27.101562 0 14.980469-12.519531 27.125-27.960938 27.125-8.449219 0-457.1875-.171874-457.1875-.171874-10.625 0-19.23437475-8.355469-19.23437475-18.660157-.00390625-10.304687 8.60937475-18.660156 19.23437475-18.660156zm0 0" fill="#c4e1e8"/><path d="m0 375.078125c0 10.308594 8.617188 18.667969 19.242188 18.667969 0 0 5.742187 0 15.953124.011718-.007812-.101562-.007812-.199218-.007812-.296874 0-5.160157 2.152344-9.816407 5.632812-13.191407 3.480469-3.378906 8.289063-5.464843 13.597657-5.464843h22.894531c2.445312-10.691407 12.269531-18.6875 24.023438-18.6875 2.140624 0 4.222656.265624 6.210937.769531 5.875-15.332031 21.039063-26.261719 38.867187-26.359375-7.4375-11.0625-20.308593-18.378906-34.941406-18.378906-17.921875 0-33.207031 10.964843-39.113281 26.355468-1.976563-.503906-4.058594-.769531-6.210937-.769531-11.75 0-21.574219 7.996094-24.011719 18.6875h-22.894531c-5.308594 0-10.117188 2.085937-13.609376 5.464844-3.480468 3.375-5.632812 8.042969-5.632812 13.191406zm0 0" fill="#a4d5dd"/><path d="m511.769531 95.816406c-2.597656-26.652344-26.308593-46.152344-52.964843-43.558594-5.851563.570313-11.359376 2.160157-16.363282 4.574219-1.621094-6.726562-4.199218-13.339843-7.824218-19.644531-20.425782-35.5-65.761719-47.71875-101.261719-27.296875-17.21875 9.90625-28.941407 25.679687-34.136719 43.34375-12.855469-11.140625-30.070312-17.203125-48.339844-15.421875-10.882812 1.058594-20.859375 4.78125-29.367187 10.449219-13.910157-25.023438-41.722657-40.765625-72.03125-37.8125-32.042969 3.125-57.320313 26.207031-64.738281 55.738281-8.382813-3.875-17.867188-5.648438-27.722657-4.691406-29.558593 2.882812-51.183593 29.175781-48.304687 58.734375 2.882812 29.554687 29.175781 51.179687 58.730468 48.300781 18.230469-1.773438 33.433594-12.464844 41.742188-27.324219 14.703125 12.261719 34.113281 18.863281 54.675781 16.859375 16.015625-1.558594 30.328125-8.121094 41.578125-17.964844 13.007813 17.519532 34.609375 27.988282 57.90625 25.71875 24.789063-2.417968 44.898438-18.613281 53.519532-40.257812 23.054687 24.019531 60.296874 30.238281 90.453124 12.886719 5.753907-3.308594 10.882813-7.28125 15.375-11.753907 9.519532 14.816407 26.785157 23.910157 45.515626 22.085938 26.652343-2.597656 46.152343-26.308594 43.558593-52.964844zm0 0" fill="#f0f5f7"/><path d="m468.207031 148.785156c-18.722656 1.816406-35.996093-7.277344-45.515625-22.09375-4.488281 4.472656-9.621094 8.441406-15.375 11.761719-30.152344 17.34375-67.398437 11.132813-90.445312-12.890625-8.625 21.648438-28.730469 37.835938-53.523438 40.25-23.300781 2.273438-44.898437-8.191406-57.910156-25.707031-11.242188 9.84375-25.5625 16.402343-41.578125 17.964843-20.558594 1.996094-39.964844-4.609374-54.671875-16.867187-8.308594 14.867187-23.511719 25.554687-41.738281 27.328125-29.554688 2.871094-55.847657-18.746094-58.730469-48.308594-.875-9 .515625-17.6875 3.722656-25.511718 8.75 21.433593 30.78125 35.539062 55.007813 33.175781 18.226562-1.777344 33.429687-12.464844 41.742187-27.320313 14.703125 12.257813 34.109375 18.855469 54.667969 16.855469 16.015625-1.5625 30.335937-8.117187 41.582031-17.960937 13.007813 17.515624 34.605469 27.980468 57.90625 25.714843 24.792969-2.414062 44.898438-18.613281 53.523438-40.257812 23.050781 24.019531 60.292968 30.242187 90.445312 12.886719 5.753906-3.308594 10.890625-7.285157 15.375-11.75 9.519532 14.804687 26.792969 23.910156 45.519532 22.082031 17.757812-1.734375 32.34375-12.835938 39.335937-27.949219 2.210937 4.808594 3.671875 10.066406 4.21875 15.628906 2.597656 26.652344-16.90625 50.371094-43.558594 52.96875zm0 0" fill="#dde9ed"/><path d="m481.457031 106.496094c-3.929687 0-7.292969-2.984375-7.679687-6.976563-.519532-5.3125-4.90625-9.320312-10.210938-9.320312-4.265625 0-7.726562-3.457031-7.726562-7.726563 0-4.265625 3.460937-7.726562 7.726562-7.726562 13.296875 0 24.296875 10.007812 25.589844 23.277344.414062 4.246093-2.691406 8.023437-6.941406 8.4375-.253906.023437-.507813.035156-.757813.035156zm-367.179687-25.160156c-.625 0-1.257813-.078126-1.890625-.234376-4.140625-1.039062-6.648438-5.238281-5.609375-9.378906 5.28125-21.019531 23.328125-36.558594 44.90625-38.660156 4.246094-.394531 8.027344 2.695312 8.441406 6.941406s-2.695312 8.023438-6.941406 8.4375c-15.097656 1.472656-27.726563 12.34375-31.421875 27.050782-.878907 3.503906-4.027344 5.84375-7.484375 5.84375zm0 0" fill="#a4d5dd"/><g fill="#dde9ed"><path d="m204.664062 272.582031h-.105468c-4.265625 0-7.722656-3.460937-7.722656-7.726562 0-4.269531 3.457031-7.726563 7.722656-7.726563h.105468c4.269532 0 7.726563 3.460938 7.726563 7.726563s-3.457031 7.726562-7.726563 7.726562zm0 0"/><path d="m219.824219 290.847656h-.105469c-4.269531 0-7.726562-3.457031-7.726562-7.726562 0-4.265625 3.457031-7.726563 7.726562-7.726563h.105469c4.265625 0 7.726562 3.460938 7.726562 7.726563 0 4.269531-3.460937 7.726562-7.726562 7.726562zm0 0"/><path d="m281.550781 234.886719c-.027343 0-.050781 0-.078125 0l-.105468-.003907c-4.265626-.039062-7.691407-3.53125-7.648438-7.800781.039062-4.265625 3.566406-7.660156 7.800781-7.652343l.101563.003906c4.269531.039062 7.695312 3.53125 7.652344 7.800781-.039063 4.238281-3.492188 7.652344-7.722657 7.652344zm0 0"/></g><path d="m189.777344 338.171875h-.105469c-4.265625 0-7.726563-3.457031-7.726563-7.726563 0-4.265624 3.460938-7.722656 7.726563-7.722656h.105469c4.265625 0 7.726562 3.457032 7.726562 7.722656 0 4.269532-3.460937 7.726563-7.726562 7.726563zm0 0" fill="#a4d5dd"/><path d="m307 304.300781c-.027344 0-.050781 0-.078125 0h-.105469c-4.265625-.042969-7.691406-3.535156-7.652344-7.800781.042969-4.242188 3.496094-7.652344 7.726563-7.652344h.074219.105468c4.269532.042969 7.691407 3.535156 7.652344 7.800782-.039062 4.242187-3.492187 7.652343-7.722656 7.652343zm0 0" fill="#a4d5dd"/></svg>