<svg height="511pt" viewBox="0 -5 511.99926 511" width="511pt" xmlns="http://www.w3.org/2000/svg"><path d="m467.40625 112.886719c-3.230469-.414063-6.429688-.503907-9.566406-.316407-2.101563-26.28125-24.078125-46.953124-50.894532-46.953124-11.917968 0-22.875 4.089843-31.5625 10.933593-10.535156-12.132812-25.996093-19.871093-43.277343-20.078125-12.253907-32.699218-43.789063-55.972656-80.761719-55.972656-31.121094 0-58.371094 16.496094-73.53125 41.210938-6.660156-3.179688-14.109375-4.960938-21.976562-4.960938-26.25 0-47.867188 19.804688-50.742188 45.285156-6.179688-1.929687-12.746094-2.976562-19.5625-2.976562-36.128906 0-65.414062 29.285156-65.414062 65.414062 0 14.6875 4.84375 28.246094 13.019531 39.164063-19.789063 11.28125-33.136719 32.550781-33.136719 56.957031 0 21.671875 10.523438 40.882812 26.730469 52.8125-11.679688 12.363281-18.851563 29.023438-18.851563 47.371094 0 38.105468 30.890625 69 69 69 15.304688 0 29.421875-5.007813 40.863282-13.441406 2.699218 37.582031 34.023437 67.238281 72.296874 67.238281 19.949219 0 38.011719-8.058594 51.121094-21.097657 6.714844 2.277344 13.902344 3.53125 21.386719 3.53125 15.019531 0 28.878906-4.976562 40.019531-13.367187 12.148438 16.175781 31.492188 26.640625 53.28125 26.640625 36.78125 0 66.597656-29.816406 66.597656-66.597656 0-3.972656-.371093-7.855469-1.035156-11.640625 18.199219-7.945313 30.921875-26.09375 30.921875-47.222657 0-12.148437-4.207031-23.3125-11.246093-32.121093 26.730468-3.027344 47.503906-25.703125 47.503906-53.242188 0-13.753906-5.1875-26.285156-13.707032-35.769531 19.0625-5.429688 34.019532-21.75 36.695313-42.652344 3.585937-27.980468-16.191406-53.566406-44.171875-57.148437zm0 0" fill="#c4e1e8"/><g fill="#a4d5dd"><path d="m421.40625 381.042969c.667969 3.78125 1.039062 7.664062 1.039062 11.640625 0 36.777344-29.824218 66.601562-66.601562 66.601562-21.785156 0-41.125-10.464844-53.28125-26.652344-11.132812 8.398438-25 13.375-40.023438 13.375-7.476562 0-14.667968-1.257812-21.375-3.523437-13.113281 13.03125-31.183593 21.085937-51.128906 21.085937-38.269531 0-69.597656-29.648437-72.296875-67.230468-11.433593 8.429687-25.558593 13.4375-40.855469 13.4375-38.117187 0-69.003906-30.898438-69.003906-69.003906 0-18.347657 7.171875-35.003907 18.851563-47.367188-16.210938-11.929688-26.730469-31.144531-26.730469-52.808594 0-6.839844 1.050781-13.433594 2.996094-19.625 6.441406 40.289063 41.34375 71.074219 83.445312 71.074219 18.742188 0 36.039063-6.132813 50.046875-16.464844 3.308594 46.03125 41.683594 82.363281 88.554688 82.363281 24.4375 0 46.5625-9.878906 62.613281-25.84375 8.230469 2.789063 17.03125 4.324219 26.199219 4.324219 18.398437 0 35.363281-6.097656 49.015625-16.378906 14.886718 19.820313 38.578125 32.636719 65.261718 32.636719 7.507813 0 14.773438-1.011719 21.675782-2.914063-4.566406 14.039063-15 25.421875-28.402344 31.273438zm0 0"/><path d="m482.304688 92.117188c-2.996094 0-5.851563-1.753907-7.105469-4.683594-4.101563-9.574219-10.082031-18.046875-17.769531-25.183594-13.769532-12.777344-31.695313-19.8125-50.484376-19.8125-4.269531 0-7.726562-3.457031-7.726562-7.726562 0-4.265626 3.457031-7.726563 7.726562-7.726563 22.699219 0 44.359376 8.503906 60.996094 23.9375 9.28125 8.617187 16.5 18.851563 21.460938 30.425781 1.679687 3.921875-.136719 8.464844-4.058594 10.144532-.992188.421874-2.023438.625-3.039062.625zm0 0"/><path d="m190.035156 502.207031c-28.277344 0-55.222656-10.632812-75.871094-29.941406-3.117187-2.914063-3.28125-7.804687-.367187-10.921875s7.804687-3.277344 10.921875-.363281c17.777344 16.621093 40.972656 25.773437 65.320312 25.773437 4.265626 0 7.726563 3.457032 7.726563 7.726563 0 4.265625-3.460937 7.726562-7.730469 7.726562zm0 0"/><path d="m423.539062 251.59375c-4.269531 0-7.726562-3.460938-7.726562-7.726562 0-7.617188-2.804688-14.9375-7.894531-20.605469-1.78125-1.984375-2.410157-4.742188-1.675781-7.304688.738281-2.5625 2.746093-4.558593 5.308593-5.289062 11.210938-3.191407 19.40625-12.71875 20.886719-24.273438 2.035156-15.898437-9.242188-30.484375-25.136719-32.519531-1.785156-.226562-3.617187-.289062-5.449219-.179688-4.195312.253907-7.828124-2.902343-8.164062-7.097656-1.195312-14.976562-13.917969-26.710937-28.960938-26.710937-6.574218 0-12.785156 2.152343-17.953124 6.222656-3.351563 2.636719-8.210938 2.058594-10.851563-1.292969-2.640625-3.355468-2.058594-8.210937 1.292969-10.851562 7.917968-6.234375 17.433594-9.53125 27.511718-9.53125 20.652344 0 38.449219 14.445312 43.238282 33.964844.433594.042968.863281.09375 1.296875.148437 24.347656 3.117187 41.621093 25.460937 38.503906 49.808594-1.8125 14.152343-10.203125 26.316406-22.273437 33.121093 3.765624 6.804688 5.773437 14.488282 5.773437 22.390626 0 4.265624-3.457031 7.726562-7.726563 7.726562zm0 0"/></g><path d="m208.484375 406.546875c-31.28125 0-57.539063-24.425781-59.78125-55.605469-.308594-4.257812 2.894531-7.957031 7.152344-8.261718 4.242187-.308594 7.953125 2.894531 8.257812 7.152343 1.664063 23.136719 21.15625 41.261719 44.371094 41.261719 11.839844 0 22.984375-4.601562 31.378906-12.949219 2.078125-2.066406 5.148438-2.78125 7.929688-1.839843 4.175781 1.414062 8.523437 2.132812 12.921875 2.132812 8.804687 0 17.164062-2.792969 24.179687-8.074219 1.636719-1.234375 3.703125-1.769531 5.730469-1.476562 2.03125.285156 3.863281 1.367187 5.097656 3.007812 7.683594 10.234375 19.421875 16.105469 32.199219 16.105469 4.269531 0 7.726563 3.460938 7.726563 7.726562 0 4.265626-3.460938 7.726563-7.726563 7.726563-15.230469 0-29.394531-6.027344-39.824219-16.746094-8.316406 4.71875-17.65625 7.183594-27.382812 7.183594-4.523438 0-9.007813-.546875-13.378906-1.632813-10.835938 9.246094-24.464844 14.289063-38.851563 14.289063zm0 0" fill="#c4e1e8"/><path d="m71.597656 245.929688c-4.269531 0-7.726562-3.460938-7.726562-7.726563 0-16.960937 7.898437-32.886719 21.042968-43.214844-4.304687-7.949219-6.550781-16.8125-6.550781-26.023437 0-30.242188 24.605469-54.847656 54.847657-54.847656 4.265624 0 7.722656 3.460937 7.722656 7.726562 0 4.269531-3.457032 7.726562-7.722656 7.726562-21.722657 0-39.394532 17.671876-39.394532 39.390626 0 8.582031 2.710938 16.738281 7.835938 23.582031 1.328125 1.777343 1.832031 4.035156 1.378906 6.203125-.453125 2.171875-1.8125 4.042968-3.738281 5.140625-12.316407 7.019531-19.96875 20.167969-19.96875 34.316406 0 4.265625-3.460938 7.726563-7.726563 7.726563zm0 0" fill="#a4d5dd"/><path d="m350.839844 415.96875h-.109375c-4.265625 0-7.726563-3.460938-7.726563-7.726562 0-4.265626 3.460938-7.726563 7.726563-7.726563h.109375c4.265625 0 7.722656 3.460937 7.722656 7.726563 0 4.265624-3.457031 7.726562-7.722656 7.726562zm0 0" fill="#dde9ed"/><path d="m365.9375 398.394531h-.109375c-4.265625 0-7.726563-3.460937-7.726563-7.726562s3.460938-7.726563 7.726563-7.726563h.109375c4.265625 0 7.722656 3.460938 7.722656 7.726563s-3.457031 7.726562-7.722656 7.726562zm0 0" fill="#dde9ed"/><path d="m63.234375 327.121094h-.105469c-4.269531 0-7.726562-3.460938-7.726562-7.726563 0-4.269531 3.457031-7.726562 7.726562-7.726562h.105469c4.269531 0 7.726563 3.460937 7.726563 7.726562s-3.457032 7.726563-7.726563 7.726563zm0 0" fill="#dde9ed"/><path d="m464.480469 406.546875h-.109375c-4.265625 0-7.722656-3.460937-7.722656-7.726563 0-4.269531 3.457031-7.726562 7.722656-7.726562h.109375c4.265625 0 7.726562 3.457031 7.726562 7.726562 0 4.265626-3.460937 7.726563-7.726562 7.726563zm0 0" fill="#c4e1e8"/><path d="m451.550781 432.789062c-.023437 0-.046875 0-.074219 0l-.105468-.003906c-4.269532-.039062-7.695313-3.53125-7.652344-7.796875.039062-4.242187 3.492188-7.65625 7.722656-7.65625h.074219l.105469.003907c4.269531.039062 7.695312 3.53125 7.65625 7.796874-.042969 4.242188-3.492188 7.65625-7.726563 7.65625zm0 0" fill="#c4e1e8"/><path d="m80.675781 56.242188c-.027343 0-.050781 0-.074219 0l-.109374-.003907c-4.265626-.039062-7.691407-3.53125-7.652344-7.796875.039062-4.242187 3.492187-7.65625 7.722656-7.65625h.074219l.109375.003906c4.265625.039063 7.691406 3.53125 7.652344 7.796876-.039063 4.242187-3.492188 7.65625-7.722657 7.65625zm0 0" fill="#a4d5dd"/><path d="m51.179688 56.242188c-.027344 0-.050782 0-.074219 0l-.109375-.003907c-4.265625-.039062-7.691406-3.53125-7.652344-7.796875.039062-4.242187 3.492188-7.65625 7.722656-7.65625h.074219l.109375.003906c4.265625.039063 7.691406 3.53125 7.652344 7.796876-.039063 4.242187-3.492188 7.65625-7.722656 7.65625zm0 0" fill="#a4d5dd"/><path d="m71.652344 28.769531h-.109375c-4.265625 0-7.726563-3.460937-7.726563-7.726562s3.460938-7.726563 7.726563-7.726563h.109375c4.265625 0 7.726562 3.460938 7.726562 7.726563s-3.460937 7.726562-7.726562 7.726562zm0 0" fill="#c4e1e8"/><path d="m71.601562 451.507812c-.027343 0-.050781 0-.074218 0h-.109375c-4.265625-.039062-7.691407-3.53125-7.652344-7.800781.039063-4.242187 3.492187-7.652343 7.722656-7.652343h.074219.109375c4.265625.039062 7.691406 3.53125 7.652344 7.800781-.039063 4.242187-3.492188 7.652343-7.722657 7.652343zm0 0" fill="#c4e1e8"/></svg>