<svg height="511pt" viewBox="-20 0 511 511.99926" width="511pt" xmlns="http://www.w3.org/2000/svg"><path d="m463.207031 447.167969c4.039063 4.851562 6.464844 11.082031 6.464844 17.890625 0 9.480468-4.710937 17.851562-11.914063 22.917968-6.882812-16.066406-19.285156-42.929687-38.007812-76.117187 5.125-6.453125 13.039062-10.582031 21.921875-10.582031 15.464844 0 28 12.53125 28 28-.003906 6.796875-2.425781 13.039062-6.464844 17.890625zm0 0" fill="#a0ecff"/><path d="m469.667969 429.277344c0 2.160156-.242188 4.261718-.71875 6.28125-4.832031-8.363282-13.875-13.984375-24.234375-13.984375-6.210938 0-11.957032 2.019531-16.59375 5.449219-2.640625-4.882813-5.429688-9.945313-8.375-15.164063 5.125-6.453125 13.042968-10.582031 21.921875-10.582031 15.46875-.003906 28 12.53125 28 28zm0 0" fill="#60daff"/><path d="m202.214844 161.902344c-1.65625 0-3.328125-.539063-4.726563-1.648438-58.984375-46.835937-123.632812-84.175781-192.148437-110.988281-3.914063-1.535156-5.847656-5.949219-4.316406-9.863281 1.535156-3.914063 5.945312-5.84375 9.863281-4.3125 69.929687 27.363281 135.894531 65.464844 196.066406 113.238281 3.292969 2.613281 3.84375 7.402344 1.230469 10.695313-1.503906 1.894531-3.726563 2.878906-5.96875 2.878906zm0 0" fill="#a0ecff"/><path d="m464.394531 512c-3.117187 0-6.039062-1.925781-7.160156-5.023438-.019531-.054687-2.128906-5.851562-6.476563-16.003906-7.023437-16.394531-19.25-42.78125-37.636718-75.371094-3.738282-6.613281-7.648438-13.339843-11.625-19.988281-30.539063-50.992187-65.765625-98.722656-104.703125-141.863281-2.820313-3.121094-2.570313-7.933594.546875-10.75 3.121094-2.816406 7.933594-2.570312 10.75.550781 39.601562 43.871094 75.421875 92.402344 106.464844 144.242188 4.046874 6.761719 8.019531 13.597656 11.820312 20.324219 18.726562 33.191406 31.207031 60.117187 38.375 76.863281 4.542969 10.601562 6.710938 16.566406 6.796875 16.816406 1.433594 3.949219-.609375 8.316406-4.566406 9.746094-.851563.308593-1.726563.457031-2.585938.457031zm0 0" fill="#a0ecff"/><path d="m313.933594 38.914062c-46.683594 16.273438-87.027344 38.726563-121.632813 64.027344-3.296875-1.070312-6.179687-3.402344-7.847656-6.746094-3.234375-6.488281-.730469-14.324218 5.589844-17.761718-5.183594-12.171875-.054688-26.445313 11.945312-32.441406 4.550781-2.269532 9.445313-3.019532 14.144531-2.484376 1.734376-1.765624 3.769532-3.308593 6.105469-4.507812-1.5-14.21875 5.792969-28.511719 19.335938-35.269531 16.789062-8.394531 37.066406-2.140625 46.328125 13.898437 9.132812-4.1875 20.011718-.394531 24.539062 8.671875 2.035156 4.058594 2.445313 8.511719 1.492188 12.613281zm0 0" fill="#a0ecff"/><path d="m313.929688 38.910156c-6.261719 2.179688-12.414063 4.476563-18.441407 6.871094-4.832031-8.273438-15.191406-11.582031-23.941406-7.570312-9.265625-16.035157-29.542969-22.289063-46.328125-13.894532-.578125.285156-1.144531.589844-1.703125.914063 2.6875-9.023438 8.960937-16.960938 18.066406-21.496094 16.785157-8.394531 37.0625-2.140625 46.324219 13.894531 9.136719-4.183594 20.003906-.398437 24.542969 8.675782 2.027343 4.058593 2.433593 8.503906 1.480469 12.605468zm0 0" fill="#60daff"/><path d="m177.191406 215.128906c-28.328125 31.394532-49.976562 62.722656-65.824218 89.191406-3.074219.707032-6.425782.09375-9.121094-1.972656-4.714844-3.605468-5.699219-10.277344-2.28125-15.085937-8.210938-7.097657-9.582032-19.453125-2.902344-28.191407 2.527344-3.308593 5.855469-5.632812 9.507812-6.925781.644532-1.925781 1.585938-3.800781 2.871094-5.523437-6.222656-9.925782-6.007812-23.074219 1.519532-32.9375 9.335937-12.226563 26.511718-14.933594 39.113281-6.464844 5.222656-6.371094 14.601562-7.507812 21.199219-2.464844 3.4375 2.613282 5.449218 6.40625 5.917968 10.375zm0 0" fill="#a0ecff"/><path d="m177.195312 215.128906c-4.292968 4.761719-8.433593 9.507813-12.421874 14.25-.058594-.0625-.121094-.101562-.183594-.152344-6.585938-5.042968-15.972656-3.90625-21.1875 2.464844-12.058594-8.109375-28.296875-5.976562-37.867188 4.933594-1.46875-7.792969.234375-16.148438 5.421875-22.9375 9.335938-12.226562 26.515625-14.9375 39.109375-6.472656 5.226563-6.363282 14.605469-7.5 21.203125-2.457032 3.441407 2.609376 5.449219 6.402344 5.925781 10.371094zm0 0" fill="#60daff"/><path d="m315.613281 187.859375c-31.0625 23-57.433593 48.277344-79.554687 73.355469-2.613282-.578125-5.105469-1.863282-7.171875-3.878906-5.804688-5.621094-6.058594-14.816407-.675781-20.757813-9.976563-10.914063-9.839844-27.851563.589843-38.601563 7.488281-7.726562 18.332031-10.242187 28.003907-7.476562 2.101562.601562 4.363281.269531 6.164062-.972656.015625-.007813.03125-.019532.046875-.03125 1.300781-.890625 2.3125-2.15625 2.796875-3.65625.914062-2.835938 2.46875-5.511719 4.683594-7.796875 7.460937-7.691407 19.550781-8.148438 27.570312-1.265625 4.132813-3.980469 10.707032-4.003906 14.851563.023437 3.050781 2.953125 3.960937 7.28125 2.695312 11.058594zm0 0" fill="#a0ecff"/><g fill="#60daff"><path d="m315.613281 187.859375c-2.863281 2.121094-5.683593 4.253906-8.464843 6.414063-2.203126.285156-4.332032 1.257812-6.039063 2.902343-8.015625-6.878906-20.101563-6.421875-27.570313 1.269531-2.207031 2.285157-3.761718 4.957032-4.679687 7.792969-.484375 1.5-1.496094 2.765625-2.796875 3.65625-.019531.011719-.039062.023438-.058594.039063-1.796875 1.238281-4.054687 1.566406-6.15625.96875-9.671875-2.765625-20.515625-.253906-28 7.476562-3.714844 3.824219-6.121094 8.433594-7.226562 13.273438-6.140625-10.625-4.789063-24.4375 4.179687-33.671875 7.488281-7.730469 18.328125-10.25 28.003907-7.480469 2.097656.601562 4.359374.269531 6.15625-.96875.019531-.011719.039062-.023438.054687-.035156 1.300781-.890625 2.316406-2.15625 2.800781-3.660156.914063-2.835938 2.472656-5.515626 4.675782-7.796876 7.46875-7.683593 19.554687-8.140624 27.574218-1.261718 4.128906-3.984375 10.707032-4.007813 14.847656.023437 3.054688 2.949219 3.96875 7.273438 2.699219 11.058594zm0 0"/><path d="m13.289062 340.660156c-.863281 0-1.738281-.148437-2.597656-.460937-3.949218-1.433594-5.992187-5.796875-4.558594-9.746094.511719-1.410156 12.859376-35.066406 41.460938-80.875 26.363281-42.226563 72.089844-103.007813 140.214844-152.78125 38.121094-27.871094 79.710937-49.761719 123.617187-65.070313 8.992188-3.148437 18.226563-6.0625 27.433594-8.660156 4.046875-1.140625 8.25 1.214844 9.390625 5.261719s-1.214844 8.25-5.261719 9.390625c-8.90625 2.507812-17.835937 5.328125-26.539062 8.378906-42.496094 14.816406-82.75 36.007813-119.65625 62.992188-66.019531 48.234375-110.425781 107.203125-136.054688 148.175781-27.84375 44.527344-40.175781 78.046875-40.296875 78.378906-1.121094 3.09375-4.042968 5.015625-7.152344 5.015625zm0 0"/><path d="m76.226562 382.179688c-.863281 0-1.742187-.148438-2.601562-.460938-3.949219-1.433594-5.988281-5.796875-4.554688-9.746094.445313-1.226562 11.175782-30.476562 35.765626-71.5625 19.429687-32.453125 41.875-62.859375 66.707031-90.378906 27.132812-30.070312 57.050781-56.535156 88.925781-78.65625 3.453125-2.398438 8.195312-1.539062 10.59375 1.910156 2.394531 3.453125 1.539062 8.195313-1.914062 10.59375-30.917969 21.460938-59.953126 47.148438-86.304688 76.351563-24.171875 26.785156-46.023438 56.394531-64.949219 88-23.773437 39.726562-34.410156 68.652343-34.515625 68.941406-1.125 3.089844-4.042968 5.007813-7.152344 5.007813zm0 0"/><path d="m139.160156 423.703125c-.859375 0-1.738281-.148437-2.597656-.460937-3.949219-1.433594-5.988281-5.796876-4.554688-9.746094.160157-.445313 4.058594-11.128906 12.492188-28.570313 1.832031-3.785156 6.382812-5.371093 10.167969-3.539062 3.785156 1.828125 5.367187 6.378906 3.539062 10.164062-8.058593 16.664063-11.855469 27.035157-11.894531 27.136719-1.121094 3.09375-4.042969 5.015625-7.152344 5.015625zm0 0"/><path d="m166.675781 366.570312c-1.261719 0-2.546875-.3125-3.726562-.976562-3.660157-2.0625-4.960938-6.707031-2.898438-10.367188 20.003907-35.527343 43.660157-68.851562 70.300781-99.050781 24.742188-28.046875 51.90625-53.089843 80.734376-74.433593 21.289062-15.777344 43.851562-29.796876 67.050781-41.667969 3.738281-1.914063 8.328125-.433594 10.242187 3.308593 1.914063 3.742188.433594 8.328126-3.308594 10.242188-22.457031 11.492188-44.300781 25.066406-64.925781 40.351562-27.96875 20.707032-54.339843 45.023438-78.375 72.273438-25.9375 29.394531-48.96875 61.84375-68.453125 96.445312-1.398437 2.480469-3.980468 3.875-6.640625 3.875zm0 0"/><path d="m404.097656 143.710938c-2.914062 0-5.695312-1.683594-6.957031-4.515626-1.710937-3.839843.015625-8.339843 3.855469-10.050781 10.828125-4.824219 21.996094-9.292969 33.195312-13.289062 3.953125-1.414063 8.3125.652343 9.726563 4.609375 1.410156 3.960937-.652344 8.3125-4.613281 9.726562-10.832032 3.867188-21.636719 8.191406-32.117188 12.859375-1.003906.449219-2.054688.660157-3.089844.660157zm0 0"/></g><path d="m264.859375 294.308594h-.101563c-4.207031 0-7.613281-3.40625-7.613281-7.609375s3.40625-7.613281 7.613281-7.613281h.101563c4.207031 0 7.613281 3.410156 7.613281 7.613281s-3.40625 7.609375-7.613281 7.609375zm0 0" fill="#a0ecff"/><path d="m286.085938 294.308594h-.105469c-4.207031 0-7.613281-3.40625-7.613281-7.609375s3.40625-7.613281 7.613281-7.613281h.105469c4.203124 0 7.609374 3.410156 7.609374 7.613281s-3.40625 7.609375-7.609374 7.609375zm0 0" fill="#a0ecff"/><path d="m420.472656 370.425781h-.105468c-4.203126 0-7.609376-3.410156-7.609376-7.613281s3.40625-7.609375 7.609376-7.609375h.105468c4.203125 0 7.613282 3.40625 7.613282 7.609375s-3.410157 7.613281-7.613282 7.613281zm0 0" fill="#60daff"/><path d="m111.527344 137.171875h-.105469c-4.203125 0-7.609375-3.40625-7.609375-7.609375 0-4.207031 3.40625-7.613281 7.609375-7.613281h.105469c4.203125 0 7.613281 3.40625 7.613281 7.613281 0 4.203125-3.410156 7.609375-7.613281 7.609375zm0 0" fill="#a0ecff"/><path d="m76.28125 302.027344c-.027344 0-.050781 0-.074219 0h-.105469c-4.203124-.042969-7.578124-3.480469-7.539062-7.683594.039062-4.179688 3.441406-7.539062 7.609375-7.539062h.074219.101562c4.207032.039062 7.582032 3.480468 7.542969 7.683593-.039063 4.179688-3.441406 7.539063-7.609375 7.539063zm0 0" fill="#a0ecff"/><path d="m323.535156 74.660156c-.097656 0-.195312 0-.292968-.003906l-.105469-.003906c-4.199219-.160156-7.476563-3.695313-7.320313-7.894532.160156-4.199218 3.660156-7.457031 7.894532-7.320312l.105468.003906c4.199219.160156 7.476563 3.695313 7.320313 7.894532-.15625 4.101562-3.53125 7.324218-7.601563 7.324218zm0 0" fill="#a0ecff"/><path d="m302.492188 79.507812c-.023438 0-.050782 0-.070313 0l-.105469-.003906c-4.207031-.039062-7.582031-3.480468-7.542968-7.683594.042968-4.175781 3.441406-7.539062 7.609374-7.539062h.074219l.105469.003906c4.203125.039063 7.578125 3.476563 7.539062 7.679688-.039062 4.179687-3.4375 7.542968-7.609374 7.542968zm0 0" fill="#a0ecff"/></svg>