<svg height="512pt" viewBox="0 -22 512 512" width="512pt" xmlns="http://www.w3.org/2000/svg"><path d="m313.871094 142.199219c0 91.019531-73.605469 164.625-164.625 164.628906-59.253906 0-111.195313-31.304687-140.183594-78.273437-6.484375-10.5 3.761719-23.453126 15.460938-19.535157 15.058593 5.046875 31.175781 7.789063 47.933593 7.804688 83.433594.078125 151.410157-67.832031 151.410157-151.265625 0-16.8125-2.742188-32.980469-7.804688-48.089844-3.917969-11.699219 9.042969-21.9375 19.539062-15.457031 46.964844 28.996093 78.269532 80.933593 78.269532 140.1875zm0 0" fill="#f6cb43"/><path d="m313.871094 142.199219c0 90.914062-73.714844 164.628906-164.628906 164.628906-55.90625 0-105.308594-27.871094-135.042969-70.476563 26.675781 18.625 59.125 29.542969 94.113281 29.542969 90.914062 0 164.625-73.710937 164.625-164.625 0-35.007812-10.925781-67.457031-29.550781-94.132812 42.617187 29.753906 70.484375 79.144531 70.484375 135.0625zm0 0" fill="#fab03c"/><path d="m262.136719 254.078125c2.667969-44.078125 39.253906-79 84-79 36.089843 0 66.867187 22.714844 78.828125 54.628906 31.078125.375 56.160156 25.671875 56.160156 56.835938 0 31.402343-25.457031 56.855469-56.855469 56.855469-13.144531 0-147.066406 0-160.570312 0-24.679688 0-44.683594-20.003907-44.683594-44.679688 0-24.152344 19.167969-43.820312 43.121094-44.640625zm0 0" fill="#1e6be7"/><path d="m481.125 286.550781c0 31.128907-25.03125 56.417969-56.074219 56.839844 9.308594-10.128906 14.980469-23.625 14.980469-38.449219 0-31.164062-25.074219-56.464844-56.160156-56.839844-11.960938-31.910156-42.734375-54.632812-78.828125-54.632812-4.265625 0-8.453125.324219-12.550781.933594 14.558593-12.070313 33.25-19.324219 53.640624-19.324219 36.09375 0 66.867188 22.714844 78.828126 54.632813 31.085937.375 56.164062 25.664062 56.164062 56.839843zm0 0" fill="#3e4eb7"/><path d="m164.851562 268.390625c2.042969-33.769531 30.074219-60.523437 64.355469-60.523437 27.648438 0 51.226563 17.402343 60.390625 41.851562 23.808594.289062 43.023438 19.667969 43.023438 43.546875 0 24.058594-19.5 43.558594-43.554688 43.558594-10.070312 0-112.671875 0-123.019531 0-18.90625 0-34.230469-15.328125-34.230469-34.234375 0-18.503906 14.683594-33.570313 33.035156-34.199219zm0 0" fill="#38aaff"/><path d="m332.625 293.269531c0 23.847657-19.179688 43.222657-42.960938 43.542969 7.132813-7.757812 11.480469-18.097656 11.480469-29.453125 0-23.875-19.214843-43.257813-43.027343-43.546875-9.164063-24.445312-32.742188-41.851562-60.394532-41.851562-3.265625 0-6.476562.246093-9.613281.714843 11.152344-9.25 25.472656-14.804687 41.09375-14.804687 27.652344 0 51.230469 17.398437 60.394531 41.851562 23.8125.289063 43.027344 19.664063 43.027344 43.546875zm0 0" fill="#2081f6"/><path d="m501.699219 305.296875c5.6875 0 10.300781 4.613281 10.300781 10.300781v130.855469c0 11.371094-9.21875 20.601563-20.605469 20.601563h-470.789062c-11.378907 0-20.605469-9.222657-20.605469-20.601563v-130.855469c0-5.6875 4.613281-10.300781 10.300781-10.300781zm0 0" fill="#1e6be7"/><path d="m313.863281 445.246094c0 7.398437-.480469 14.671875-1.429687 21.808594h-98.855469c-22.027344-56.421876-77.007813-96.496094-141.113281-96.433594-16.761719.007812-32.886719 2.75-47.945313 7.796875-11.695312 3.925781-21.945312-9.035157-15.453125-19.53125 13.410156-21.738281 31.738282-40.117188 53.433594-53.589844h173.574219c46.730469 29.019531 77.800781 80.804687 77.789062 139.949219zm0 0" fill="#f6cb43"/><path d="m512 315.597656v23.230469h-512v-23.230469c0-5.6875 4.613281-10.300781 10.300781-10.300781h491.398438c5.6875 0 10.300781 4.613281 10.300781 10.300781zm0 0" fill="#2081f6"/><path d="m274.933594 338.828125h-251.289063c11.09375-13.105469 24.207031-24.4375 38.855469-33.53125h173.574219c14.652343 9.09375 27.765625 20.4375 38.859375 33.53125zm0 0" fill="#f8e98e"/><path d="m512 388.234375v58.21875c0 11.371094-9.21875 20.601563-20.605469 20.601563h-470.789062c-11.386719 0-20.605469-9.230469-20.605469-20.601563v-58.21875zm0 0" fill="#3e4eb7"/><path d="m313.863281 445.246094c0 7.398437-.480469 14.671875-1.429687 21.808594h-98.855469c-13.230469-33.902344-38.363281-61.890626-70.21875-78.820313h160.398437c6.542969 17.761719 10.105469 36.964844 10.105469 57.011719zm0 0" fill="#fab03c"/><path d="m431.4375 371.253906h-.109375c-4.265625 0-7.722656-3.457031-7.722656-7.726562 0-4.265625 3.457031-7.722656 7.722656-7.722656h.109375c4.265625 0 7.726562 3.457031 7.726562 7.722656 0 4.269531-3.460937 7.726562-7.726562 7.726562zm0 0" fill="#38aaff"/><path d="m86.019531 425.066406h-.105469c-4.269531 0-7.726562-3.460937-7.726562-7.726562s3.457031-7.726563 7.726562-7.726563h.105469c4.265625 0 7.726563 3.460938 7.726563 7.726563s-3.460938 7.726562-7.726563 7.726562zm0 0" fill="#fab03c"/><path d="m63.242188 435.367188c-.023438 0-.046876 0-.074219 0h-.105469c-4.265625-.039063-7.695312-3.53125-7.652344-7.800782.039063-4.238281 3.488282-7.652344 7.722656-7.652344h.074219.105469c4.269531.042969 7.695312 3.535157 7.65625 7.800782-.039062 4.242187-3.492188 7.652344-7.726562 7.652344zm0 0" fill="#fab03c"/><path d="m355.261719 418.945312h-58.054688c-4.265625 0-7.726562-3.457031-7.726562-7.726562 0-4.265625 3.460937-7.722656 7.726562-7.722656h58.054688c4.265625 0 7.722656 3.457031 7.722656 7.722656 0 4.269531-3.457031 7.726562-7.722656 7.726562zm0 0" fill="#fab03c"/><path d="m301.167969 371.253906h-17.554688c-4.269531 0-7.726562-3.457031-7.726562-7.726562 0-4.265625 3.457031-7.722656 7.726562-7.722656h17.554688c4.269531 0 7.726562 3.457031 7.726562 7.722656 0 4.269531-3.457031 7.726562-7.726562 7.726562zm0 0" fill="#f6cb43"/><path d="m265.273438 435.367188h-98.957032c-4.269531 0-7.726562-3.457032-7.726562-7.726563 0-4.265625 3.457031-7.726563 7.726562-7.726563h98.957032c4.265624 0 7.722656 3.460938 7.722656 7.726563 0 4.269531-3.457032 7.726563-7.722656 7.726563zm0 0" fill="#3e4eb7"/><g fill="#fab03c"><path d="m63.175781 151.867188c-.015625 0-.027343 0-.039062 0-4.265625-.023438-7.710938-3.496094-7.691407-7.765626l.015626-2.796874c.019531-4.253907 3.476562-7.691407 7.722656-7.691407h.039062c4.265625.019531 7.710938 3.496094 7.6875 7.765625l-.011718 2.796875c-.019532 4.253907-3.476563 7.691407-7.722657 7.691407zm0 0"/><path d="m63.085938 180.347656c-.015626 0-.027344 0-.039063 0-4.269531-.019531-7.710937-3.496094-7.691406-7.765625l.015625-2.796875c.019531-4.269531 3.472656-7.726562 7.765625-7.691406 4.265625.023438 7.707031 3.5 7.6875 7.765625l-.015625 2.800781c-.019532 4.253906-3.472656 7.6875-7.722656 7.6875zm0 0"/><path d="m78.808594 164.757812c-.011719 0-.027344 0-.039063 0l-2.800781-.011718c-4.269531-.023438-7.710938-3.496094-7.691406-7.765625.019531-4.253907 3.476562-7.6875 7.726562-7.6875h.035156l2.804688.011719c4.265625.019531 7.710938 3.496093 7.6875 7.761718-.015625 4.257813-3.472656 7.691406-7.722656 7.691406zm0 0"/><path d="m50.269531 164.671875c-.015625 0-.027343 0-.039062 0l-2.804688-.015625c-4.265625-.019531-7.707031-3.492188-7.6875-7.761719s3.503907-7.722656 7.761719-7.691406l2.804688.015625c4.265624.019531 7.710937 3.492188 7.6875 7.761719-.019532 4.253906-3.476563 7.691406-7.722657 7.691406zm0 0"/><path d="m431.886719 66.949219c-.015625 0-.023438 0-.039063 0-4.265625-.019531-7.707031-3.496094-7.6875-7.761719l.011719-2.800781c.019531-4.253907 3.476563-7.6875 7.726563-7.6875h.035156c4.265625.019531 7.710937 3.492187 7.691406 7.761719l-.015625 2.796874c-.015625 4.253907-3.472656 7.691407-7.722656 7.691407zm0 0"/><path d="m431.800781 95.429688c-.015625 0-.027343 0-.039062 0-4.265625-.019532-7.710938-3.496094-7.691407-7.761719l.015626-2.800781c.019531-4.253907 3.476562-7.6875 7.722656-7.6875h.039062c4.265625.019531 7.710938 3.492187 7.6875 7.761718l-.011718 2.796875c-.019532 4.257813-3.476563 7.691407-7.722657 7.691407zm0 0"/><path d="m447.519531 79.839844c-.011719 0-.023437 0-.035156 0l-2.804687-.011719c-4.265626-.019531-7.710938-3.496094-7.691407-7.765625.023438-4.253906 3.476563-7.6875 7.726563-7.6875h.039062l2.800782.011719c4.269531.019531 7.710937 3.496093 7.691406 7.761719-.019532 4.253906-3.476563 7.691406-7.726563 7.691406zm0 0"/><path d="m418.980469 79.753906c-.011719 0-.023438 0-.035157 0l-2.804687-.015625c-4.269531-.019531-7.710937-3.492187-7.691406-7.761719.019531-4.253906 3.476562-7.691406 7.726562-7.691406h.035157l2.804687.015625c4.265625.019531 7.710937 3.492188 7.691406 7.761719-.019531 4.253906-3.476562 7.691406-7.726562 7.691406zm0 0"/><path d="m469.589844 115.34375c-.015625 0-.023438 0-.039063 0-4.265625-.019531-7.707031-3.496094-7.6875-7.761719l.011719-2.800781c.019531-4.269531 3.457031-7.726562 7.761719-7.6875 4.269531.019531 7.710937 3.492188 7.691406 7.761719l-.011719 2.796875c-.023437 4.253906-3.476562 7.691406-7.726562 7.691406zm0 0"/><path d="m469.5 143.824219c-.011719 0-.023438 0-.035156 0-4.269532-.019531-7.710938-3.496094-7.691406-7.761719l.011718-2.800781c.023438-4.253907 3.476563-7.6875 7.726563-7.6875h.039062c4.265625.019531 7.707031 3.492187 7.6875 7.761719l-.011719 2.796874c-.019531 4.253907-3.476562 7.691407-7.726562 7.691407zm0 0"/><path d="m485.222656 128.234375c-.011718 0-.027344 0-.039062 0l-2.804688-.011719c-4.265625-.023437-7.707031-3.5-7.6875-7.765625.023438-4.253906 3.476563-7.6875 7.726563-7.6875h.039062l2.804688.011719c4.265625.023438 7.707031 3.5 7.6875 7.765625-.019531 4.253906-3.476563 7.6875-7.726563 7.6875zm0 0"/><path d="m456.683594 128.148438c-.011719 0-.023438 0-.039063 0l-2.800781-.015626c-4.269531-.019531-7.710938-3.492187-7.691406-7.761718.019531-4.253906 3.476562-7.691406 7.726562-7.691406h.035156l2.804688.015624c4.265625.019532 7.710938 3.492188 7.6875 7.761719-.019531 4.253907-3.472656 7.691407-7.722656 7.691407zm0 0"/></g><path d="m143.414062 65.550781h-.109374c-4.265626 0-7.726563-3.460937-7.726563-7.726562 0-4.269531 3.460937-7.726563 7.726563-7.726563h.109374c4.265626 0 7.726563 3.457032 7.726563 7.726563 0 4.265625-3.460937 7.726562-7.726563 7.726562zm0 0" fill="#f8e98e"/><path d="m386.863281 158.269531c-.023437 0-.050781 0-.074219 0l-.105468-.003906c-4.269532-.039063-7.695313-3.53125-7.65625-7.796875.042968-4.242188 3.492187-7.65625 7.726562-7.65625h.074219l.105469.003906c4.269531.039063 7.695312 3.53125 7.65625 7.796875-.042969 4.242188-3.492188 7.65625-7.726563 7.65625zm0 0" fill="#f8e98e"/><path d="m357.082031 79.839844c-.023437 0-.050781 0-.074219 0h-.105468c-4.269532-.039063-7.695313-3.53125-7.65625-7.796875.042968-4.242188 3.492187-7.65625 7.726562-7.65625h.074219.105469c4.269531.042969 7.695312 3.535156 7.65625 7.800781-.039063 4.242188-3.492188 7.652344-7.726563 7.652344zm0 0" fill="#f6cb43"/><path d="m463.148438 201.21875h-.105469c-4.269531 0-7.726563-3.457031-7.726563-7.722656 0-4.269532 3.457032-7.726563 7.726563-7.726563h.105469c4.269531 0 7.726562 3.457031 7.726562 7.726563 0 4.265625-3.457031 7.722656-7.726562 7.722656zm0 0" fill="#f8e98e"/><path d="m419.035156 166.113281c-.023437 0-.050781 0-.074218 0l-.105469-.003906c-4.269531-.039063-7.695313-3.53125-7.65625-7.796875.039062-4.242188 3.492187-7.652344 7.726562-7.652344h.070313.109375c4.265625.039063 7.695312 3.53125 7.652343 7.796875-.039062 4.242188-3.488281 7.65625-7.722656 7.65625zm0 0" fill="#f6cb43"/><path d="m131.867188 98.285156h-.105469c-4.265625 0-7.726563-3.460937-7.726563-7.726562 0-4.269532 3.460938-7.726563 7.726563-7.726563h.105469c4.269531 0 7.726562 3.457031 7.726562 7.726563 0 4.265625-3.457031 7.726562-7.726562 7.726562zm0 0" fill="#f8e98e"/></svg>