<svg height="512pt" viewBox="0 -1 512 511" width="512pt" xmlns="http://www.w3.org/2000/svg"><path d="m511.933594 21.242188.066406 467.304687c.003906 11.460937-9.285156 20.75-20.742188 20.75l-470.441406.070313c-11.457031 0-20.7460935-9.289063-20.7499998-20.746094l-.0664062-467.304688c-.00390625-11.457031 9.285156-20.746094 20.742188-20.75l470.441406-.066406c11.457031-.003906 20.746094 9.285156 20.75 20.742188zm0 0" fill="#3e4eb7"/><path d="m485.273438 96.90625c0 42.96875-34.746094 77.714844-77.710938 77.714844-27.972656 0-52.488281-14.777344-66.175781-36.949219-3.058594-4.957031 1.777343-11.070313 7.300781-9.222656 7.109375 2.382812 14.714844 3.679687 22.628906 3.683593 39.382813.039063 71.472656-32.019531 71.46875-71.402343 0-7.9375-1.292968-15.570313-3.683594-22.703125-1.847656-5.519532 4.269532-10.351563 9.222657-7.292969 22.171875 13.6875 36.945312 38.203125 36.949219 66.171875zm0 0" fill="#f6cb43"/><path d="m485.273438 96.910156c0 42.914063-34.796876 77.710938-77.710938 77.710938-26.390625 0-49.710938-13.15625-63.75-33.269532 12.59375 8.792969 27.910156 13.949219 44.425781 13.949219 42.917969 0 77.710938-34.796875 77.710938-77.710937 0-16.527344-5.15625-31.84375-13.949219-44.4375 20.117188 14.046875 33.273438 37.359375 33.273438 63.757812zm0 0" fill="#fab03c"/><path d="m265.714844 105.058594c22.320312 11.988281 36.304687 32.8125 38.746094 54.035156.3125 2.71875-1.222657 5.367188-3.769532 6.375-5.460937 2.164062-11.804687 1.996094-17.390625-1.003906-4.996093-2.683594-8.429687-7.128906-9.964843-12.15625-5.039063 1.496094-10.644532 1.085937-15.640626-1.59375-5-2.6875-8.433593-7.132813-9.96875-12.160156-5.039062 1.496093-10.644531 1.089843-15.640624-1.59375-4.996094-2.683594-8.429688-7.132813-9.96875-12.160157-5.039063 1.496094-10.644532 1.089844-15.640626-1.59375-5.582031-2.996093-9.226562-8.195312-10.4375-13.945312-.5625-2.675781.796876-5.421875 3.234376-6.664063 19.039062-9.683594 44.125-9.527344 66.441406 2.460938zm0 0" fill="#00b579"/><path d="m217.738281 88.285156c-1.792969-5.558594-7.75-8.605468-13.308593-6.816406-37.800782 12.191406-67.632813 38.320312-86.265626 75.5625-12.304687 24.601562-15.914062 46.34375-16.667968 51.789062h21.414062c1.269532-7.210937 5.035156-24.289062 14.488282-42.96875 16.273437-32.152343 41.007812-53.773437 73.523437-64.257812 5.554687-1.792969 8.605469-7.753906 6.816406-13.308594zm0 0" fill="#f4bc8e"/><path d="m271.742188 64.40625c25.148437 3.078125 45.734374 17.414062 55.703124 36.304688 1.277344 2.421874.808594 5.445312-1.199218 7.308593-4.304688 4-10.28125 6.144531-16.570313 5.375-5.628906-.6875-10.441406-3.589843-13.695312-7.714843-4.15625 3.21875-9.527344 4.875-15.15625 4.183593-5.628907-.6875-10.445313-3.585937-13.699219-7.714843-4.152344 3.21875-9.523438 4.875-15.15625 4.1875-5.628906-.691407-10.441406-3.589844-13.699219-7.71875-4.152343 3.222656-9.523437 4.875-15.152343 4.1875-6.292969-.769532-11.570313-4.289063-14.785157-9.210938-1.496093-2.289062-1.226562-5.339844.597657-7.378906 14.230468-15.933594 37.664062-24.882813 62.8125-21.808594zm0 0" fill="#009765"/><path d="m220.785156 33.636719c19.828125-15.765625 44.488282-20.382813 64.945313-14.242188 2.621093.789063 4.445312 3.246094 4.367187 5.984375-.167968 5.871094-2.828125 11.636719-7.789062 15.578125-4.441406 3.53125-9.882813 4.925781-15.109375 4.351563-.617188 5.21875-3.203125 10.210937-7.644531 13.738281-4.441407 3.53125-9.882813 4.929687-15.109376 4.351563-.617187 5.222656-3.203124 10.210937-7.644531 13.742187-4.4375 3.527344-9.882812 4.925781-15.105469 4.351563-.617187 5.21875-3.207031 10.207031-7.644531 13.738281-4.960937 3.941406-11.175781 5.238281-16.9375 4.078125-2.683593-.539063-4.667969-2.871094-4.84375-5.605469-1.375-21.316406 8.683594-44.300781 28.515625-60.066406zm0 0" fill="#00b579"/><path d="m199.917969 86.097656c0 8.894532-7.210938 16.105469-16.105469 16.105469s-16.101562-7.210937-16.101562-16.105469c0-8.894531 7.207031-16.105468 16.101562-16.105468s16.105469 7.210937 16.105469 16.105468zm0 0" fill="#f8e98e"/><path d="m208.289062 110.769531c0 8.894531-7.210937 16.105469-16.105468 16.105469-8.894532 0-16.105469-7.210938-16.105469-16.105469s7.210937-16.105469 16.105469-16.105469c8.894531 0 16.105468 7.210938 16.105468 16.105469zm0 0" fill="#fab03c"/><path d="m127.550781 195.222656c-.296875 0-.601562-.015625-.90625-.050781l-18.640625-2.164063c-4.265625-.496093-7.324218-4.359374-6.832031-8.625.496094-4.269531 4.363281-7.328124 8.625-6.832031l18.640625 2.164063c4.269531.492187 7.328125 4.355468 6.832031 8.625-.460937 3.960937-3.824219 6.882812-7.71875 6.882812zm0 0" fill="#efa66f"/><path d="m133.363281 171.671875c-.8125 0-1.644531-.128906-2.460937-.398437l-14.273438-4.753907c-4.074218-1.359375-6.28125-5.765625-4.921875-9.839843 1.359375-4.078126 5.765625-6.285157 9.839844-4.921876l14.273437 4.753907c4.078126 1.355469 6.28125 5.761719 4.921876 9.839843-1.085938 3.257813-4.121094 5.320313-7.378907 5.320313zm0 0" fill="#efa66f"/><path d="m146.40625 149.925781c-1.257812 0-2.535156-.308593-3.71875-.953125l-12.3125-6.714844c-3.773438-2.054687-5.160156-6.78125-3.105469-10.554687 2.058594-3.769531 6.785157-5.164063 10.554688-3.105469l12.3125 6.714844c3.773437 2.058594 5.164062 6.785156 3.105469 10.554688-1.410157 2.589843-4.082032 4.058593-6.835938 4.058593zm0 0" fill="#efa66f"/><path d="m161.648438 133.304688c-1.546876 0-3.109376-.460938-4.472657-1.417969l-12.3125-8.679688c-3.511719-2.476562-4.351562-7.328125-1.878906-10.839843 2.476563-3.511719 7.328125-4.355469 10.84375-1.878907l12.3125 8.675781c3.511719 2.476563 4.351563 7.328126 1.875 10.84375-1.515625 2.148438-3.921875 3.296876-6.367187 3.296876zm0 0" fill="#efa66f"/><path d="m511.980469 354.710938.019531 133.835937c.003906 11.460937-9.285156 20.75-20.742188 20.75l-470.441406.070313c-11.457031 0-20.7460935-9.289063-20.7499998-20.746094l-.0195312-133.839844zm0 0" fill="#2081f6"/><path d="m511.996094 438.222656v50.320313c0 11.464843-9.28125 20.746093-20.734375 20.757812l-470.441407.0625c-11.460937 0-20.7539058-9.285156-20.7539058-20.738281v-50.320312zm0 0" fill="#1e6be7"/><path d="m39.925781 493.929688c-4.296875 0-7.78125-3.480469-7.78125-7.777344-.003906-4.296875 3.480469-7.78125 7.777344-7.78125l189.054687-.027344c4.292969 0 7.777344 3.480469 7.78125 7.777344 0 4.296875-3.484374 7.78125-7.78125 7.78125zm0 0" fill="#38aaff"/><path d="m311.789062 452.558594c0 4.296875-3.484374 7.78125-7.78125 7.78125l-303.9414058.039062v-15.558594l303.9414058-.042968c4.296876 0 7.78125 3.476562 7.78125 7.78125zm0 0" fill="#38aaff"/><path d="m.0507812 354.746094h511.9335938v33.769531h-511.9335938zm0 0" fill="#38aaff"/><path d="m185.75 452.570312-144.710938.019532-15.558593.011718h-25.4140628l-.03125-227.179687 185.6835938-.03125zm0 0" fill="#915040"/><path d="m145.960938 308.386719c-4.296876 0-7.777344-3.484375-7.78125-7.777344l-.003907-33.023437c0-4.296876 3.484375-7.78125 7.78125-7.78125s7.777344 3.484374 7.78125 7.78125l.003907 33.019531c0 4.296875-3.484376 7.78125-7.78125 7.78125zm0 0" fill="#7c3c2f"/><path d="m185.75 452.570312h-25.164062l-.03125-227.179687h25.164062zm0 0" fill="#7c3c2f"/><path d="m239.558594 245.195312-239.527344.035157-.0039062-39.621094 239.5273442-.035156c10.941406-.003907 19.8125 8.867187 19.8125 19.808593 0 10.941407-8.867188 19.8125-19.808594 19.8125zm0 0" fill="#00b579"/><path d="m242.410156 442.195312c0 5.726563-4.636718 10.375-10.375 10.375h-43.691406l-59.265625.007813-.015625-141.597656c-.003906-5.726563 4.640625-10.371094 10.371094-10.375l60.019531-.007813c2.75 0 5.390625 1.09375 7.335937 3.039063l32.574219 32.5625c1.945313 1.945312 3.039063 4.585937 3.039063 7.335937zm0 0" fill="#a86552"/><path d="m232.035156 452.570312h-11.410156l-.019531-106.039062-45.933594-45.933594h24.78125c2.75 0 5.386719 1.09375 7.332031 3.035156l32.574219 32.566407c1.949219 1.945312 3.039063 4.585937 3.039063 7.335937l.011718 98.660156c0 5.730469-4.644531 10.375-10.375 10.375zm0 0" fill="#915040"/><path d="m58.851562 478.25-.003906-15.136719c0-2.753906 1.09375-5.390625 3.039063-7.335937l20.710937-20.71875c1.941406-1.945313 4.582032-3.039063 7.332032-3.039063l44.839843-.007812c2.75 0 5.386719 1.09375 7.335938 3.039062l35.859375 35.847657c1.945312 1.945312 3.039062 4.582031 3.039062 7.335937 0 4.359375-3.535156 7.894531-7.898437 7.894531l-106.359375.015625c-4.359375.003907-7.894532-3.53125-7.894532-7.894531zm0 0" fill="#82807f"/><path d="m41.039062 452.589844-15.558593.011718-.03125-167.699218c0-4.296875 3.484375-7.78125 7.78125-7.78125 4.304687 0 7.777343 3.484375 7.777343 7.78125zm0 0" fill="#a86552"/><path d="m74.730469 310.3125c-4.296875 0-7.78125-3.480469-7.78125-7.777344v-17.636718c0-4.296876 3.480469-7.78125 7.777343-7.78125 4.296876 0 7.78125 3.484374 7.78125 7.78125l.003907 17.632812c0 4.296875-3.484375 7.78125-7.78125 7.78125zm0 0" fill="#7c3c2f"/><path d="m203.902344 452.570312h-15.558594l-.019531-91.960937c0-4.296875 3.484375-7.78125 7.777343-7.78125 4.304688 0 7.78125 3.484375 7.78125 7.78125zm0 0" fill="#915040"/><path d="m163.953125 372.542969c-4.296875 0-7.78125-3.484375-7.78125-7.78125l-.003906-29.042969c-.003907-4.296875 3.480469-7.78125 7.777343-7.78125 4.296876-.003906 7.78125 3.480469 7.78125 7.777344l.003907 29.046875c0 4.296875-3.480469 7.777343-7.777344 7.78125zm0 0" fill="#915040"/><path d="m290.101562 264.664062c-4.296874 0-7.78125-3.484374-7.78125-7.78125 0-4.296874 3.484376-7.78125 7.777344-7.78125l91.867188-.007812c7.597656 0 13.773437-6.183594 13.773437-13.777344s-6.179687-13.769531-13.773437-13.769531c0 0 0 0-.003906 0-7.59375 0-13.773438 6.179687-13.769532 13.773437 0 4.296876-3.484375 7.78125-7.78125 7.78125s-7.777344-3.480468-7.78125-7.777343c0-16.175781 13.15625-29.335938 29.332032-29.339844h.003906c16.171875 0 29.332031 13.15625 29.335937 29.328125 0 16.175781-13.15625 29.335938-29.332031 29.339844zm0 0" fill="#38aaff"/><path d="m444.214844 331.292969c-16.175782.003906-29.332032-13.152344-29.335938-29.328125 0-4.296875 3.480469-7.78125 7.777344-7.78125s7.78125 3.480468 7.78125 7.777344c.003906 7.597656 6.183594 13.773437 13.773438 13.773437h.003906c3.671875 0 7.128906-1.4375 9.730468-4.042969 2.609376-2.605468 4.042969-6.0625 4.042969-9.734375 0-3.667969-1.4375-7.125-4.042969-9.730469-2.605468-2.605468-6.0625-4.039062-9.730468-4.039062h-.003906l-154.105469.015625c-4.296875.003906-7.78125-3.480469-7.78125-7.777344-.003907-4.296875 3.480469-7.78125 7.777343-7.78125l154.109376-.019531h.003906c7.824218 0 15.183594 3.054688 20.730468 8.597656 5.546876 5.542969 8.601563 12.910156 8.601563 20.734375.003906 7.824219-3.050781 15.191407-8.59375 20.738281-5.546875 5.542969-12.910156 8.601563-20.734375 8.601563 0-.003906-.003906-.003906-.003906-.003906zm0 0" fill="#38aaff"/><path d="m74.742188 144.414062c-16.171876 0-29.328126-13.152343-29.332032-29.328124-.003906-4.296876 3.480469-7.78125 7.777344-7.78125s7.78125 3.480468 7.78125 7.777343c0 7.597657 6.179688 13.773438 13.773438 13.773438h.003906c7.59375 0 13.773437-6.183594 13.769531-13.777344 0-7.59375-6.179687-13.773437-13.773437-13.769531l-52.179688.007812c-4.296875 0-7.78125-3.484375-7.78125-7.78125s3.484375-7.777344 7.78125-7.78125l52.175781-.007812c16.175781 0 29.339844 13.15625 29.339844 29.332031 0 7.824219-3.050781 15.1875-8.597656 20.734375-5.542969 5.546875-12.90625 8.601562-20.734375 8.601562zm0 0" fill="#38aaff"/><path d="m22.5625 77.773438c-4.296875 0-7.78125-3.484376-7.78125-7.78125 0-4.296876 3.480469-7.777344 7.777344-7.78125l81.222656-.011719c7.597656 0 13.773438-6.179688 13.773438-13.773438 0-7.597656-6.179688-13.773437-13.773438-13.773437 0 0 0 0-.003906 0-3.667969 0-7.125 1.4375-9.730469 4.042968-2.605469 2.609376-4.039063 6.0625-4.039063 9.734376 0 4.296874-3.484374 7.78125-7.78125 7.78125-4.292968 0-7.777343-3.484376-7.78125-7.78125 0-16.171876 13.15625-29.335938 29.332032-29.335938h.003906c16.171875 0 29.332031 13.152344 29.335938 29.328125 0 16.175781-13.15625 29.335937-29.332032 29.339844zm0 0" fill="#38aaff"/><path d="m381.328125 37.46875c-.011719 0-.023437 0-.039063 0-4.296874-.019531-7.761718-3.523438-7.742187-7.820312l.015625-2.816407c.019531-4.28125 3.5-7.742187 7.777344-7.742187h.042968c4.296876.023437 7.761719 3.523437 7.738282 7.820312l-.011719 2.816406c-.019531 4.285157-3.5 7.742188-7.78125 7.742188zm0 0" fill="#fab03c"/><path d="m381.242188 66.148438c-.011719 0-.023438 0-.039063 0-4.296875-.019532-7.761719-3.519532-7.742187-7.816407l.011718-2.816406c.019532-4.285156 3.5-7.746094 7.78125-7.746094h.035156c4.296876.019531 7.765626 3.519531 7.742188 7.816407l-.011719 2.816406c-.019531 4.285156-3.5 7.746094-7.777343 7.746094zm0 0" fill="#fab03c"/><path d="m397.074219 50.449219c-.011719 0-.023438 0-.035157 0l-2.824218-.011719c-4.296875-.019531-7.765625-3.519531-7.742188-7.816406.019532-4.285156 3.5-7.742188 7.777344-7.742188h.039062l2.820313.011719c4.296875.019531 7.765625 3.519531 7.746094 7.816406-.019531 4.285157-3.5 7.742188-7.78125 7.742188zm0 0" fill="#fab03c"/><path d="m368.335938 50.363281c-.015626 0-.027344 0-.042969 0l-2.820313-.015625c-4.296875-.019531-7.761718-3.519531-7.742187-7.820312.019531-4.28125 3.5-7.738282 7.777343-7.738282h.042969l2.820313.011719c4.296875.023438 7.765625 3.523438 7.742187 7.820313-.019531 4.285156-3.5 7.742187-7.777343 7.742187zm0 0" fill="#fab03c"/><g fill="#f6cb43"><path d="m465.808594 214.425781c-.011719 0-.023438 0-.039063 0-4.292969-.019531-7.761719-3.519531-7.742187-7.816406l.011718-2.820313c.019532-4.28125 3.5-7.742187 7.78125-7.742187h.035157c4.296875.019531 7.765625 3.519531 7.746093 7.816406l-.015624 2.816407c-.019532 4.285156-3.5 7.746093-7.777344 7.746093zm0 0"/><path d="m465.71875 243.105469c-.011719 0-.023438 0-.035156 0-4.296875-.019531-7.765625-3.519531-7.746094-7.820313l.011719-2.816406c.023437-4.28125 3.5-7.742188 7.78125-7.742188h.039062c4.292969.019532 7.761719 3.519532 7.742188 7.816407l-.011719 2.816406c-.023438 4.285156-3.503906 7.746094-7.78125 7.746094zm0 0"/><path d="m481.550781 227.40625c-.011719 0-.023437 0-.039062 0l-2.824219-.011719c-4.296875-.023437-7.761719-3.523437-7.742188-7.820312.023438-4.285157 3.503907-7.742188 7.78125-7.742188h.039063l2.824219.015625c4.296875.019532 7.761718 3.519532 7.742187 7.816406-.023437 4.285157-3.503906 7.742188-7.78125 7.742188zm0 0"/><path d="m452.8125 227.316406c-.011719 0-.023438 0-.039062 0l-2.820313-.011718c-4.296875-.019532-7.765625-3.519532-7.746094-7.816407.019531-4.285156 3.5-7.746093 7.78125-7.746093h.035157l2.824218.015624c4.296875.019532 7.761719 3.519532 7.742188 7.816407-.019532 4.285156-3.5 7.742187-7.777344 7.742187zm0 0"/></g><path d="m355.585938 460.335938h-19.710938c-4.296875 0-7.777344-3.484376-7.777344-7.78125 0-4.296876 3.480469-7.777344 7.777344-7.777344h19.710938c4.296874 0 7.78125 3.480468 7.78125 7.777344 0 4.296874-3.484376 7.78125-7.78125 7.78125zm0 0" fill="#38aaff"/></svg>