<svg height="512pt" viewBox="0 -55 512 512" width="512pt" xmlns="http://www.w3.org/2000/svg"><path d="m442.691406 126.96875c-4.289062-70.839844-63.085937-126.96875-135.007812-126.96875-58 0-107.46875 36.511719-126.695313 87.804688-49.949219.601562-90.257812 41.257812-90.257812 91.347656 0 50.46875 40.910156 91.382812 91.378906 91.382812h258.074219c39.660156 0 71.8125-32.152344 71.8125-71.816406 0-38.820312-30.808594-70.425781-69.304688-71.75zm0 0" fill="#c4e1e8"/><path d="m512 198.71875c0 39.660156-32.15625 71.816406-71.820312 71.816406h-5.5625c5.207031-9.9375 8.152343-21.257812 8.152343-33.253906 0-38.816406-30.804687-70.425781-69.304687-71.753906-4.285156-70.835938-63.089844-126.972656-135.011719-126.972656-9.695313 0-19.152344 1.019531-28.265625 2.960937 24.601562-25.585937 59.1875-41.51171875 97.496094-41.51171875 71.917968 0 130.722656 56.12499975 135.011718 126.97265575 38.5 1.3125 69.304688 32.921876 69.304688 71.742188zm0 0" fill="#a4d5dd"/><path d="m406.886719 119.054688c-3.492188 0-6.65625-2.382813-7.507813-5.925782-1.25-5.203125-2.964844-10.335937-5.089844-15.242187-1.691406-3.917969.109376-8.464844 4.023438-10.160157 3.921875-1.695312 8.46875.105469 10.160156 4.023438 2.476563 5.722656 4.472656 11.699219 5.929688 17.769531 1 4.148438-1.554688 8.320313-5.703125 9.316407-.605469.144531-1.214844.21875-1.8125.21875zm0 0" fill="#c4e1e8"/><path d="m381.332031 72.40625c-2.03125 0-4.058593-.796875-5.574219-2.375-17.996093-18.75-42.171874-29.078125-68.070312-29.078125-4.269531 0-7.726562-3.457031-7.726562-7.722656 0-4.269531 3.457031-7.726563 7.726562-7.726563 30.148438 0 58.28125 12.011719 79.21875 33.828125 2.953125 3.078125 2.851562 7.96875-.226562 10.925781-1.496094 1.433594-3.421876 2.148438-5.347657 2.148438zm0 0" fill="#c4e1e8"/><path d="m71.050781 167.898438c3.066407-50.644532 45.101563-90.773438 96.519531-90.773438 41.464844 0 76.832032 26.101562 90.574219 62.769531 35.710938.433594 64.53125 29.5 64.53125 65.308594 0 36.082031-29.25 65.332031-65.332031 65.332031-15.101562 0-168.980469 0-184.5 0-28.355469 0-51.339844-22.988281-51.339844-51.34375 0-27.753906 22.023438-50.347656 49.546875-51.292968zm0 0" fill="#f0f5f7"/><path d="m322.675781 205.210938c0 35.769531-28.761719 64.824218-64.429687 65.308593 10.695312-11.636719 17.214844-27.140625 17.214844-44.175781 0-35.808594-28.8125-64.878906-64.53125-65.3125-13.746094-36.664062-49.105469-62.769531-90.578126-62.769531-4.902343 0-9.710937.367187-14.421874 1.070312 16.730468-13.871093 38.207031-22.203125 61.636718-22.203125 41.472656 0 76.832032 26.09375 90.578125 62.769532 35.71875.433593 64.53125 29.492187 64.53125 65.3125zm0 0" fill="#dde9ed"/><path d="m225.757812 255.917969c0 62.339843-50.539062 112.878906-112.878906 112.878906s-112.878906-50.539063-112.878906-112.878906c0-62.339844 50.539062-112.878907 112.878906-112.878907s112.878906 50.539063 112.878906 112.878907zm0 0" fill="#60daff"/><path d="m179.257812 272.132812-11.613281 5.101563c.53125-3.09375-.859375-6.328125-3.734375-7.992187-3.234375-1.875-7.273437-1.136719-9.660156 1.570312l-8.871094-5.109375 6.175782-2.714844c2.804687-1.230469 4.617187-4.007812 4.617187-7.070312 0-3.066407-1.8125-5.84375-4.617187-7.074219l-6.175782-2.710938 8.886719-5.113281c1.488281 1.679688 3.601563 2.613281 5.78125 2.613281 1.3125 0 2.644531-.335937 3.863281-1.039062 2.875-1.667969 4.265625-4.898438 3.734375-7.992188l11.613281 5.101563c1.011719.445313 2.066407.65625 3.105469.65625 2.972657 0 5.804688-1.726563 7.078125-4.621094 1.714844-3.90625-.058594-8.464843-3.964844-10.179687l-2.492187-1.097656c3.375-2.234376 4.480469-6.730469 2.433594-10.285157-2.058594-3.578125-6.539063-4.875-10.175781-3.035156l.296874-2.71875c.460938-4.242187-2.601562-8.058594-6.84375-8.519531-4.238281-.464844-8.054687 2.597656-8.519531 6.839844l-1.371093 12.5625c-2.417969-2.03125-5.941407-2.445313-8.832032-.773438-3.226562 1.871094-4.59375 5.714844-3.460937 9.117188l-8.902344 5.121093.734375-6.714843c.332031-3.042969-1.164062-5.992188-3.8125-7.527344-2.648438-1.53125-5.953125-1.355469-8.425781.449218l-5.496094 4.011719v-10.210937c3.527344-.714844 6.1875-3.832032 6.1875-7.574219 0-3.320313-2.101563-6.140625-5.042969-7.234375l10.1875-7.433594c3.445313-2.515625 4.203125-7.347656 1.6875-10.792968-2.515625-3.449219-7.347656-4.203126-10.792968-1.6875l-2.25 1.636718c-.234376-4.054687-3.589844-7.277344-7.703126-7.277344-4.117187 0-7.476562 3.226563-7.703124 7.285157l-2.257813-1.644531c-3.449219-2.519532-8.28125-1.761719-10.792969 1.6875-2.515625 3.445312-1.761718 8.28125 1.6875 10.792968l10.1875 7.433594c-2.941406 1.09375-5.042968 3.917969-5.042968 7.238281 0 3.742188 2.660156 6.859375 6.195312 7.570313v10.214844l-5.507812-4.015626c-2.472657-1.804687-5.777344-1.980468-8.421876-.445312-2.648437 1.53125-4.144531 4.484375-3.8125 7.523438l.734376 6.71875-8.902344-5.125c1.132812-3.402344-.234375-7.25-3.464844-9.117188-2.886719-1.671875-6.410156-1.257812-8.832031.773438l-1.371094-12.5625c-.460937-4.238282-4.269531-7.304688-8.515625-6.839844-4.242188.460937-7.304688 4.277344-6.84375 8.519531l.296875 2.71875c-3.640625-1.839844-8.121094-.542969-10.179687 3.035156-2.046876 3.554688-.941407 8.050781 2.433593 10.285157l-2.488281 1.09375c-3.90625 1.71875-5.683594 6.273437-3.964844 10.183593 1.269532 2.894531 4.105469 4.617188 7.074219 4.617188 1.039063 0 2.09375-.207031 3.105469-.652344l11.613281-5.105469c-.53125 3.09375.863281 6.328125 3.734375 7.992188 1.21875.707031 2.550781 1.042968 3.867188 1.042968 2.175781 0 4.292968-.933593 5.777343-2.617187l8.886719 5.113281-6.171875 2.714844c-2.808594 1.230469-4.617187 4.007812-4.617187 7.070312 0 3.066407 1.808593 5.839844 4.617187 7.074219l6.175781 2.714844-8.871094 5.105469c-2.386718-2.703125-6.421874-3.445313-9.660156-1.566406-2.875 1.664062-4.265625 4.898437-3.738281 7.988281l-11.613281-5.101563c-3.902344-1.71875-8.464844.058594-10.179688 3.964844-1.71875 3.90625.058594 8.464844 3.964844 10.183594l2.492188 1.09375c-3.375 2.234375-4.484376 6.730468-2.433594 10.285156 1.429687 2.484375 4.027344 3.875 6.703125 3.875 1.175781 0 2.363281-.285156 3.472656-.847656l-.296875 2.726562c-.460938 4.242188 2.601562 8.054688 6.84375 8.519532.285156.03125.566406.046874.847656.046874 3.890625 0 7.238282-2.933593 7.671875-6.890624l1.371094-12.566407c1.398437 1.175781 3.160156 1.820313 4.964844 1.820313 1.316406 0 2.648437-.335938 3.867187-1.042969 3.226563-1.867187 4.59375-5.710937 3.460938-9.113281l8.902344-5.121094-.734376 6.710938c-.328124 3.042968 1.164063 5.992187 3.8125 7.527343 1.203126.695313 2.539063 1.039063 3.871094 1.039063 1.601563 0 3.203125-.5 4.550782-1.484375l5.507812-4.019531v10.214843c-3.53125.710938-6.195312 3.832031-6.195312 7.574219 0 3.320312 2.101562 6.144531 5.042968 7.234375l-10.1875 7.433594c-3.445312 2.515625-4.203125 7.347656-1.6875 10.796875 2.515625 3.445312 7.347656 4.199218 10.796875 1.6875l2.253907-1.644532c.226562 4.058594 3.585937 7.285157 7.703124 7.285157 4.117188 0 7.472657-3.222657 7.703126-7.28125l2.25 1.640625c1.375 1 2.96875 1.484375 4.546874 1.484375 2.382813 0 4.734376-1.101563 6.246094-3.171875 2.515625-3.449219 1.761719-8.28125-1.6875-10.796875l-10.183594-7.433594c2.9375-1.089844 5.039063-3.914063 5.039063-7.234375 0-3.742188-2.65625-6.859375-6.1875-7.574219v-10.207031l5.5 4.011719c2.46875 1.800781 5.773437 1.972656 8.421875.445312 2.648438-1.535156 4.144531-4.484375 3.8125-7.527343l-.734375-6.710938 8.902344 5.121094c-1.128907 3.402344.238281 7.246094 3.464843 9.113281 1.21875.707031 2.550782 1.042969 3.863282 1.042969 1.804687 0 3.566406-.644532 4.96875-1.820313l1.371094 12.566407c.429687 3.957031 3.777343 6.890624 7.667968 6.890624.28125 0 .5625-.015624.847656-.046874 4.242188-.464844 7.308594-4.277344 6.84375-8.519532l-.296874-2.726562c1.113281.5625 2.296874.847656 3.472656.847656 2.675781 0 5.277344-1.390625 6.707031-3.875 2.046875-3.554688.9375-8.050781-2.4375-10.285156l2.492187-1.097656c3.90625-1.714844 5.683594-6.273438 3.964844-10.179688s-6.273437-5.679688-10.183594-3.960938zm-61.824218-4.734374c-.023438-.015626-.046875-.027344-.070313-.042969-.296875-.210938-.605469-.402344-.933593-.570313-.050782-.027344-.109376-.050781-.160157-.078125-.308593-.152343-.628906-.285156-.957031-.394531-.03125-.011719-.058594-.023438-.085938-.03125-.332031-.105469-.675781-.183594-1.023437-.242188-.089844-.015624-.179687-.03125-.273437-.042968-.316407-.042969-.636719-.070313-.964844-.074219-.027344 0-.058594-.007813-.085938-.007813-.03125 0-.066406.007813-.097656.007813-.316406.003906-.628906.03125-.933594.074219-.101562.011718-.203125.027344-.304687.042968-.335938.0625-.664063.136719-.984375.234376-.058594.019531-.117188.042968-.171875.066406-.289063.097656-.570313.214844-.84375.34375-.078125.039062-.160157.074218-.242188.117187-.300781.15625-.585937.335938-.863281.527344-.035156.027344-.074219.042969-.113281.070313l-3.648438 2.664062.484375-4.445312c.003906-.03125 0-.0625.003906-.09375.035157-.359376.046876-.71875.03125-1.082032-.003906-.066406-.011718-.128906-.015624-.195312-.023438-.339844-.066407-.679688-.132813-1.019532-.007813-.03125-.011719-.0625-.019531-.09375-.074219-.339843-.175782-.675781-.300782-1.011718-.03125-.082032-.0625-.167969-.097656-.25-.125-.3125-.269531-.621094-.441406-.921875-.023438-.039063-.046875-.074219-.066406-.109375-.167969-.28125-.351563-.542969-.546875-.796875-.058594-.074219-.113281-.144531-.171875-.214844-.226563-.269531-.460938-.523437-.714844-.757813-.039062-.035156-.078125-.0625-.117188-.097656-.246093-.214844-.503906-.410156-.773437-.59375-.058594-.039062-.113281-.078125-.175781-.117187-.296875-.191407-.609375-.355469-.929688-.503907-.035156-.015624-.066406-.039062-.101562-.054687l-4.070313-1.789063 4.070313-1.785156c.066406-.03125.128906-.074218.195312-.105468.253906-.125.507813-.257813.75-.40625.105469-.066407.207032-.132813.308594-.203126.21875-.148437.425781-.308593.628906-.480468.09375-.082032.1875-.15625.273438-.238282.199218-.1875.386718-.390624.566406-.597656.070312-.082031.148438-.15625.214844-.242187.207031-.261719.402344-.546875.578125-.84375.019531-.035157.046875-.066407.066406-.101563.003906 0 .003906 0 .003906-.003906.179688-.3125.328125-.632812.457031-.957031.03125-.078125.058594-.152344.089844-.226563.125-.339844.230469-.683594.304688-1.027344.007812-.027343.007812-.054687.015625-.082031.070312-.34375.113281-.6875.136719-1.03125.003906-.0625.011718-.125.011718-.1875.019532-.363281.003906-.722656-.03125-1.082031 0-.035156.003906-.066406 0-.097656l-.484375-4.445313 3.648438 2.664063c.03125.019531.066406.035156.09375.054687.289062.203125.585937.390625.902343.554688.0625.03125.125.058593.1875.089843.300782.148438.609376.277344.933594.382813.03125.011719.0625.027344.09375.035156.335938.109375.683594.1875 1.039063.246094.078125.015625.15625.027344.234375.039063.351562.046874.707031.082031 1.070312.082031h.003906c.367188 0 .726563-.035157 1.082032-.085938.070312-.011719.136718-.019531.207031-.03125.367187-.0625.726563-.144531 1.070313-.253906.003906 0 .007812-.003906.011718-.003906.363282-.117188.714844-.265625 1.050782-.433594.035156-.015625.070312-.035156.105468-.050781.339844-.175782.664063-.375.972656-.59375.015626-.011719.035157-.019532.050782-.03125l3.652344-2.664063-.484376 4.445313c-.003906.023437 0 .050781-.003906.074218-.035156.371094-.046875.746094-.03125 1.125 0 .042969.007813.085938.007813.128907.027343.378906.070312.753906.152343 1.125v.007812c.078126.359375.1875.714844.320313 1.066407.019531.0625.046875.121093.070313.179687.132812.335937.28125.664063.46875.984375.195312.34375.417968.660156.65625.957031.054687.070313.117187.128907.171874.195313.195313.226562.394532.445312.609376.644531.078124.074219.164062.140625.246093.210937.214844.183594.433594.351563.660157.507813.09375.0625.1875.128906.285156.1875.253906.15625.515625.296875.78125.421875.0625.027344.117187.066406.175781.09375l4.070313 1.789062-4.070313 1.789063c-.03125.015625-.058594.035156-.089844.050781-.328125.148438-.648437.316406-.957031.515625-.046875.027344-.089844.0625-.136719.09375-.289062.191407-.5625.402344-.828125.632813-.023437.023437-.050781.042968-.074218.066406-.261719.238281-.507813.5-.738282.78125-.050781.058594-.097656.117188-.144531.179688-.214844.273437-.414063.554687-.59375.863281-.007813.011719-.015625.019531-.019531.03125-.003906.003906-.003906.003906-.007813.007812-.179687.316407-.328125.640625-.460937.96875-.027344.066407-.054688.136719-.082032.203125-.128906.347656-.234374.699219-.3125 1.050782 0 .007812 0 .015624-.003906.027343-.078125.367188-.121094.734375-.148437 1.105469 0 .046875-.007813.089844-.007813.136719-.015625.378906-.007812.753906.03125 1.125.003906.023437 0 .046875.003906.070312l.484376 4.445313zm0 0" fill="#f0f5f7"/><g fill="#60daff"><path d="m47.078125 58.515625c-.011719 0-.027344 0-.039063 0-4.265624-.019531-7.710937-3.496094-7.6875-7.761719l.015626-3.027344c.019531-4.253906 3.476562-7.6875 7.722656-7.6875h.039062c4.265625.019532 7.710938 3.496094 7.6875 7.761719l-.011718 3.027344c-.023438 4.253906-3.476563 7.6875-7.726563 7.6875zm0 0"/><path d="m46.984375 89.320312c-.015625 0-.027344 0-.039063 0-4.265624-.019531-7.710937-3.496093-7.691406-7.761718l.015625-3.027344c.019531-4.253906 3.476563-7.6875 7.722657-7.6875h.039062c4.269531.019531 7.710938 3.492188 7.691406 7.761719l-.015625 3.023437c-.019531 4.257813-3.476562 7.691406-7.722656 7.691406zm0 0"/><path d="m63.988281 72.460938c-.015625 0-.027343 0-.039062 0l-3.03125-.015626c-4.269531-.019531-7.710938-3.496093-7.691407-7.761718.023438-4.269532 3.546876-7.714844 7.765626-7.691406l3.03125.015624c4.265624.019532 7.710937 3.496094 7.691406 7.765626-.023438 4.253906-3.476563 7.6875-7.726563 7.6875zm0 0"/><path d="m33.121094 72.367188c-.015625 0-.027344 0-.039063 0l-3.03125-.015626c-4.265625-.019531-7.710937-3.496093-7.691406-7.761718.019531-4.253906 3.476563-7.691406 7.726563-7.691406h.035156l3.03125.015624c4.269531.019532 7.710937 3.492188 7.691406 7.761719-.019531 4.253907-3.472656 7.691407-7.722656 7.691407zm0 0"/><path d="m265.328125 322.421875c-.011719 0-.023437 0-.035156 0-4.269531-.019531-7.710938-3.496094-7.691407-7.761719l.015626-3.027344c.019531-4.253906 3.476562-7.691406 7.722656-7.691406h.039062c4.265625.023438 7.710938 3.496094 7.6875 7.761719l-.011718 3.027344c-.019532 4.257812-3.476563 7.691406-7.726563 7.691406zm0 0"/><path d="m265.234375 353.226562c-.015625 0-.023437 0-.039063 0-4.265624-.023437-7.710937-3.496093-7.6875-7.761718l.011719-3.027344c.019531-4.253906 3.476563-7.691406 7.726563-7.691406h.035156c4.269531.019531 7.710938 3.496094 7.691406 7.761718l-.015625 3.027344c-.019531 4.253906-3.472656 7.691406-7.722656 7.691406zm0 0"/><path d="m282.238281 336.367188c-.011719 0-.023437 0-.039062 0l-3.03125-.015626c-4.265625-.023437-7.707031-3.496093-7.6875-7.765624.019531-4.253907 3.472656-7.6875 7.722656-7.6875h.039063l3.03125.015624c4.265624.019532 7.710937 3.496094 7.691406 7.761719-.019532 4.253907-3.476563 7.691407-7.726563 7.691407zm0 0"/><path d="m251.371094 336.269531c-.011719 0-.027344 0-.039063 0l-3.03125-.015625c-4.265625-.019531-7.710937-3.496094-7.6875-7.761718.019531-4.257813 3.476563-7.691407 7.722657-7.691407h.039062l3.03125.015625c4.269531.023438 7.710938 3.496094 7.691406 7.765625-.023437 4.253907-3.476562 7.6875-7.726562 7.6875zm0 0"/><path d="m344.5625 314.355469c-.015625 0-.027344 0-.039062 0h-.105469c-4.269531-.019531-7.710938-3.496094-7.691407-7.765625.019532-4.253906 3.476563-7.6875 7.726563-7.6875h.035156.109375c4.265625.019531 7.707032 3.496094 7.6875 7.761718-.019531 4.253907-3.472656 7.691407-7.722656 7.691407zm0 0"/><path d="m189.089844 401.421875h-.109375c-4.265625 0-7.722657-3.457031-7.722657-7.726563 0-4.265624 3.457032-7.726562 7.722657-7.726562h.109375c4.265625 0 7.726562 3.460938 7.726562 7.726562 0 4.269532-3.460937 7.726563-7.726562 7.726563zm0 0"/><path d="m374.015625 348.320312h-.109375c-4.265625 0-7.722656-3.457031-7.722656-7.722656 0-4.269531 3.457031-7.726562 7.722656-7.726562h.109375c4.269531 0 7.726563 3.457031 7.726563 7.726562 0 4.265625-3.457032 7.722656-7.726563 7.722656zm0 0"/><path d="m474.394531 329.972656c-.011719 0-.023437 0-.035156 0h-.105469c-4.269531-.019531-7.710937-3.496094-7.691406-7.761718.019531-4.257813 3.476562-7.691407 7.722656-7.691407h.039063.105469c4.269531.019531 7.710937 3.496094 7.691406 7.761719-.019532 4.253906-3.476563 7.691406-7.726563 7.691406zm0 0"/><path d="m428.597656 314.355469c-.011718 0-.023437 0-.035156 0h-.109375c-4.265625-.019531-7.707031-3.496094-7.6875-7.765625.019531-4.253906 3.476563-7.6875 7.722656-7.6875h.039063.105468c4.269532.019531 7.710938 3.496094 7.691407 7.761718-.019531 4.253907-3.476563 7.691407-7.726563 7.691407zm0 0"/><path d="m90.785156 22.367188c-.011718 0-.023437 0-.039062 0h-.105469c-4.265625-.019532-7.710937-3.496094-7.691406-7.761719.023437-4.257813 3.476562-7.691407 7.726562-7.691407h.039063.105468c4.265626.019532 7.710938 3.496094 7.691407 7.761719-.023438 4.257813-3.476563 7.691407-7.726563 7.691407zm0 0"/><path d="m153.554688 55.492188c-.015626 0-.027344 0-.039063 0h-.105469c-4.265625-.019532-7.710937-3.496094-7.691406-7.765626.019531-4.253906 3.476562-7.6875 7.726562-7.6875h.035157.109375c4.265625.019532 7.710937 3.496094 7.6875 7.761719-.015625 4.257813-3.472656 7.691407-7.722656 7.691407zm0 0"/><path d="m30.386719 393.476562c-.015625 0-.027344 0-.039063 0h-.105468c-4.269532-.019531-7.710938-3.496093-7.691407-7.761718.019531-4.257813 3.476563-7.691406 7.726563-7.691406h.035156.109375c4.265625.019531 7.710937 3.496093 7.6875 7.761718-.019531 4.253906-3.472656 7.691406-7.722656 7.691406zm0 0"/></g></svg>