<svg height="512pt" viewBox="0 -1 512 511" width="512pt" xmlns="http://www.w3.org/2000/svg"><path d="m512 21.25v467.367188c0 11.457031-9.289062 20.75-20.75 20.75h-470.5c-11.460938 0-20.75-9.292969-20.75-20.75v-467.367188c0-11.460938 9.289062-20.75 20.75-20.75h470.5c11.460938 0 20.75 9.289062 20.75 20.75zm0 0" fill="#60daff"/><path d="m452.882812 353.679688c0 42.796874-34.695312 77.492187-77.492187 77.492187s-77.492187-34.695313-77.492187-77.492187c0-42.796876 34.695312-77.492188 77.492187-77.492188s77.492187 34.695312 77.492187 77.492188zm0 0" fill="#fab03c"/><path d="m452.882812 353.679688c0 42.796874-34.691406 77.492187-77.492187 77.492187-42.796875 0-77.492187-34.695313-77.492187-77.492187 0-14.113282 3.777343-27.34375 10.371093-38.746094 13.394531 23.164062 38.441407 38.746094 67.121094 38.746094s53.726563-15.582032 67.121094-38.746094c6.597656 11.402344 10.371093 24.632812 10.371093 38.746094zm0 0" fill="#fd8f3e"/><g fill="#f8e98e"><path d="m375.390625 256.945312c-4.296875 0-7.78125-3.484374-7.78125-7.78125v-16.691406c0-4.296875 3.484375-7.78125 7.78125-7.78125s7.78125 3.484375 7.78125 7.78125v16.691406c0 4.296876-3.484375 7.78125-7.78125 7.78125zm0 0"/><path d="m323.140625 270.949219c-2.691406 0-5.304687-1.394531-6.746094-3.894531l-8.34375-14.453126c-2.152343-3.722656-.875-8.480468 2.847657-10.628906 3.71875-2.148437 8.480468-.875 10.628906 2.847656l8.34375 14.453126c2.148437 3.722656.871094 8.480468-2.847656 10.628906-1.226563.710937-2.5625 1.046875-3.882813 1.046875zm0 0"/><path d="m284.871094 309.203125c-1.320313 0-2.660156-.335937-3.882813-1.042969l-14.457031-8.347656c-3.71875-2.148438-4.996094-6.90625-2.847656-10.628906 2.148437-3.71875 6.90625-4.996094 10.628906-2.847656l14.457031 8.347656c3.71875 2.148437 4.996094 6.90625 2.847657 10.628906-1.441407 2.496094-4.058594 3.890625-6.746094 3.890625zm0 0"/><path d="m465.910156 309.203125c-2.6875 0-5.300781-1.394531-6.746094-3.890625-2.148437-3.722656-.871093-8.480469 2.851563-10.628906l14.453125-8.347656c3.71875-2.148438 8.480469-.871094 10.628906 2.847656 2.148438 3.722656.871094 8.480468-2.847656 10.628906l-14.453125 8.347656c-1.226563.707032-2.566406 1.042969-3.886719 1.042969zm0 0"/><path d="m427.640625 270.949219c-1.320313 0-2.65625-.335938-3.882813-1.046875-3.722656-2.148438-4.996093-6.90625-2.847656-10.628906l8.34375-14.453126c2.148438-3.722656 6.90625-4.996093 10.628906-2.847656 3.722657 2.148438 5 6.90625 2.847657 10.628906l-8.34375 14.453126c-1.441407 2.5-4.058594 3.894531-6.746094 3.894531zm0 0"/></g><path d="m63.859375 105.039062c-22.320313 11.992188-36.304687 32.824219-38.742187 54.046876-.3125 2.722656 1.226562 5.367187 3.769531 6.378906 5.464843 2.164062 11.8125 1.996094 17.394531-1.003906 4.996094-2.6875 8.429688-7.136719 9.964844-12.164063 5.042968 1.496094 10.648437 1.089844 15.644531-1.597656 4.996094-2.683594 8.429687-7.132813 9.96875-12.160157 5.039063 1.496094 10.644531 1.089844 15.640625-1.597656 4.996094-2.683594 8.433594-7.132812 9.96875-12.160156 5.039062 1.492188 10.644531 1.085938 15.640625-1.597656 5.585937-3 9.230469-8.199219 10.4375-13.949219.566406-2.679687-.792969-5.421875-3.234375-6.664063-19.042969-9.683593-44.132812-9.523437-66.453125 2.46875zm0 0" fill="#00fbaa"/><path d="m111.84375 88.257812c1.789062-5.558593 7.75-8.605468 13.304688-6.820312 37.8125 12.1875 67.648437 38.316406 86.289062 75.5625 12.308594 24.597656 15.921875 46.347656 16.675781 51.792969h-21.414062c-1.273438-7.207031-5.039063-24.289063-14.496094-42.96875-16.28125-32.15625-41.023437-53.777344-73.542969-64.257813-5.554687-1.792968-8.609375-7.75-6.816406-13.308594zm0 0" fill="#f4bc8e"/><path d="m57.828125 64.386719c-25.152344 3.078125-45.738281 17.421875-55.707031 36.316406-1.277344 2.421875-.804688 5.445313 1.199218 7.308594 4.308594 4 10.285157 6.144531 16.574219 5.375 5.628907-.691407 10.445313-3.59375 13.699219-7.722657 4.152344 3.222657 9.527344 4.875 15.15625 4.1875 5.632812-.691406 10.445312-3.59375 13.699219-7.722656 4.15625 3.222656 9.527343 4.875 15.15625 4.1875 5.632812-.691406 10.445312-3.59375 13.699219-7.722656 4.15625 3.222656 9.527343 4.875 15.15625 4.1875 6.292968-.769531 11.574218-4.292969 14.785156-9.214844 1.5-2.292968 1.226562-5.339844-.597656-7.382812-14.234376-15.929688-37.671876-24.878906-62.820313-21.796875zm0 0" fill="#78ffce"/><path d="m108.789062 33.605469c-19.835937-15.765625-44.5-20.382813-64.957031-14.234375-2.621093.785156-4.445312 3.246094-4.367187 5.980468.167968 5.875 2.832031 11.636719 7.792968 15.582032 4.441407 3.53125 9.886719 4.925781 15.109376 4.347656.621093 5.222656 3.207031 10.210938 7.648437 13.742188 4.441406 3.527343 9.886719 4.925781 15.113281 4.347656.617188 5.222656 3.207032 10.210937 7.648438 13.738281 4.441406 3.53125 9.882812 4.925781 15.109375 4.351563.617187 5.222656 3.207031 10.210937 7.648437 13.738281 4.960938 3.945312 11.175782 5.238281 16.9375 4.078125 2.683594-.539063 4.667969-2.875 4.84375-5.605469 1.367188-21.320313-8.695312-44.304687-28.527344-60.066406zm0 0" fill="#00fbaa"/><path d="m161.878906 86.066406c0 8.894532-7.214844 16.105469-16.109375 16.105469s-16.105469-7.210937-16.105469-16.105469c0-8.898437 7.210938-16.109375 16.105469-16.109375s16.109375 7.210938 16.109375 16.109375zm0 0" fill="#f8e98e"/><path d="m153.507812 110.742188c0 8.894531-7.210937 16.105468-16.105468 16.105468-8.894532 0-16.105469-7.210937-16.105469-16.105468 0-8.894532 7.210937-16.105469 16.105469-16.105469 8.894531 0 16.105468 7.210937 16.105468 16.105469zm0 0" fill="#fab03c"/><path d="m202.054688 193.121094c-3.898438 0-7.257813-2.921875-7.71875-6.886719-.496094-4.265625 2.5625-8.128906 6.832031-8.625l18.640625-2.164063c4.261718-.492187 8.132812 2.5625 8.628906 6.832032.492188 4.265625-2.566406 8.128906-6.832031 8.625l-18.644531 2.164062c-.304688.035156-.605469.054688-.90625.054688zm0 0" fill="#efa66f"/><path d="m194.164062 171.644531c-3.257812 0-6.296874-2.0625-7.382812-5.324219-1.355469-4.078124.847656-8.480468 4.921875-9.839843l14.277344-4.757813c4.078125-1.363281 8.484375.84375 9.839843 4.921875 1.359376 4.078125-.84375 8.484375-4.921874 9.84375l-14.273438 4.753907c-.816406.273437-1.644531.402343-2.460938.402343zm0 0" fill="#efa66f"/><path d="m183.191406 151.96875c-2.757812 0-5.425781-1.464844-6.839844-4.054688-2.058593-3.773437-.667968-8.5 3.105469-10.558593l12.3125-6.714844c3.769531-2.058594 8.496094-.671875 10.554688 3.101563 2.058593 3.773437.671875 8.5-3.101563 10.558593l-12.3125 6.71875c-1.183594.644531-2.460937.949219-3.71875.949219zm0 0" fill="#efa66f"/><path d="m167.941406 133.277344c-2.445312 0-4.847656-1.148438-6.367187-3.300782-2.472657-3.511718-1.632813-8.367187 1.878906-10.84375l12.3125-8.679687c3.511719-2.476563 8.367187-1.636719 10.84375 1.875 2.476563 3.515625 1.632813 8.367187-1.878906 10.84375l-12.3125 8.679687c-1.359375.960938-2.925781 1.425782-4.476563 1.425782zm0 0" fill="#efa66f"/><path d="m512 354.761719v133.855469c0 11.453124-9.285156 20.75-20.75 20.75h-470.5c-11.464844 0-20.75-9.296876-20.75-20.75v-133.855469zm0 0" fill="#38aaff"/><path d="m452.875 354.761719c-.15625 12.128906-3.113281 23.589843-8.25 33.769531-12.761719 25.292969-38.96875 42.640625-69.230469 42.640625-30.265625 0-56.480469-17.347656-69.234375-42.640625-5.132812-10.179688-8.089844-21.640625-8.257812-33.769531zm0 0" fill="#f6cb43"/><path d="m512 438.289062v50.328126c0 11.453124-9.285156 20.75-20.75 20.75h-470.5c-11.464844 0-20.75-9.296876-20.75-20.75v-50.328126zm0 0" fill="#2081f6"/><path d="m311.765625 452.585938c0 4.304687-3.488281 7.78125-7.78125 7.78125h-303.984375v-15.5625h303.984375c4.292969 0 7.78125 3.484374 7.78125 7.78125zm0 0" fill="#38aaff"/><path d="m228.9375 493.929688h-189.078125c-4.296875 0-7.78125-3.484376-7.78125-7.78125 0-4.296876 3.484375-7.78125 7.78125-7.78125h189.078125c4.300781 0 7.78125 3.484374 7.78125 7.78125 0 4.296874-3.480469 7.78125-7.78125 7.78125zm0 0" fill="#38aaff"/><path d="m277.648438 493.929688h-18.277344c-4.296875 0-7.78125-3.484376-7.78125-7.78125 0-4.296876 3.484375-7.78125 7.78125-7.78125h18.277344c4.296874 0 7.78125 3.484374 7.78125 7.78125 0 4.296874-3.484376 7.78125-7.78125 7.78125zm0 0" fill="#38aaff"/><path d="m0 354.757812h512v33.773438h-512zm0 0" fill="#a0ecff"/><path d="m452.875 354.761719c-.15625 12.128906-3.113281 23.589843-8.25 33.769531h-138.460938c-5.136718-10.179688-8.09375-21.640625-8.257812-33.769531zm0 0" fill="#f8e98e"/><path d="m0 225.375h185.710938v227.210938h-185.710938zm0 0" fill="#be7560"/><path d="m162.367188 225.375h23.34375v227.210938h-23.34375zm0 0" fill="#a86552"/><path d="m141.789062 308.378906c-4.296874 0-7.78125-3.484375-7.78125-7.78125v-33.027344c0-4.296874 3.484376-7.78125 7.78125-7.78125 4.300782 0 7.78125 3.484376 7.78125 7.78125v33.027344c0 4.296875-3.480468 7.78125-7.78125 7.78125zm0 0" fill="#a86552"/><path d="m239.558594 245.191406h-239.558594v-39.625h239.558594c10.941406 0 19.8125 8.871094 19.8125 19.8125s-8.871094 19.8125-19.8125 19.8125zm0 0" fill="#00fbaa"/><path d="m242.386719 343.535156v98.675782c0 5.738281-4.648438 10.375-10.375 10.375h-92.605469c-5.726562 0-10.375-4.636719-10.375-10.375v-131.242188c0-5.726562 4.648438-10.375 10.375-10.375h60.03125c2.757812 0 5.394531 1.101562 7.332031 3.039062l32.578125 32.566407c1.941406 1.953125 3.039063 4.585937 3.039063 7.335937zm0 0" fill="#ea998c"/><path d="m58.789062 477.527344v-15.140625c0-2.289063.910157-4.480469 2.527344-6.097657l21.742188-21.742187c1.617187-1.617187 3.808594-2.527344 6.097656-2.527344h46.292969c2.289062 0 4.480469.910157 6.097656 2.527344l36.886719 36.882813c1.617187 1.617187 2.523437 3.808593 2.523437 6.097656 0 4.761718-3.859375 8.621094-8.621093 8.621094h-104.921876c-4.761718 0-8.625-3.859376-8.625-8.621094zm0 0" fill="#82807f"/><path d="m40.980469 284.875v167.710938h-15.5625v-167.710938c0-4.292969 3.484375-7.78125 7.78125-7.78125 4.292969 0 7.78125 3.488281 7.78125 7.78125zm0 0" fill="#915040"/><path d="m74.699219 310.296875c-4.296875 0-7.78125-3.484375-7.78125-7.78125v-17.636719c0-4.300781 3.484375-7.78125 7.78125-7.78125s7.78125 3.480469 7.78125 7.78125v17.636719c0 4.296875-3.484375 7.78125-7.78125 7.78125zm0 0" fill="#ea998c"/><path d="m203.867188 360.613281v91.972657h-15.5625v-91.972657c0-4.296875 3.484374-7.78125 7.78125-7.78125 4.292968 0 7.78125 3.484375 7.78125 7.78125zm0 0" fill="#cf8671"/><path d="m163.921875 372.542969c-4.296875 0-7.78125-3.480469-7.78125-7.78125v-29.046875c0-4.300782 3.484375-7.78125 7.78125-7.78125 4.300781 0 7.78125 3.480468 7.78125 7.78125v29.046875c0 4.300781-3.480469 7.78125-7.78125 7.78125zm0 0" fill="#cf8671"/><path d="m282.675781 146.523438c-16.179687 0-29.339843-13.160157-29.339843-29.335938s13.160156-29.339844 29.339843-29.339844h189.53125c4.296875 0 7.78125 3.484375 7.78125 7.78125 0 4.300782-3.484375 7.78125-7.78125 7.78125h-189.53125c-7.597656 0-13.777343 6.179688-13.777343 13.777344 0 7.59375 6.179687 13.773438 13.777343 13.773438 7.59375 0 13.773438-6.179688 13.773438-13.773438 0-4.296875 3.484375-7.78125 7.78125-7.78125 4.300781 0 7.78125 3.484375 7.78125 7.78125 0 16.175781-13.160157 29.335938-29.335938 29.335938zm0 0" fill="#f0f5f7"/><path d="m430.707031 79.863281h-210.28125c-16.175781 0-29.335937-13.160156-29.335937-29.335937 0-16.175782 13.160156-29.335938 29.335937-29.335938s29.339844 13.160156 29.339844 29.335938c0 4.296875-3.484375 7.78125-7.78125 7.78125-4.300781 0-7.78125-3.484375-7.78125-7.78125 0-7.597656-6.179687-13.773438-13.777344-13.773438-7.597656 0-13.777343 6.175782-13.777343 13.773438 0 7.59375 6.179687 13.777344 13.777343 13.777344h210.28125c4.300781 0 7.78125 3.480468 7.78125 7.78125 0 4.296874-3.484375 7.777343-7.78125 7.777343zm0 0" fill="#f0f5f7"/><path d="m358.992188 201.730469c-16.175782 0-29.335938-13.164063-29.335938-29.339844s13.160156-29.335937 29.335938-29.335937h133.109374c4.296876 0 7.78125 3.480468 7.78125 7.78125 0 4.296874-3.484374 7.777343-7.78125 7.777343h-133.109374c-7.59375 0-13.773438 6.183594-13.773438 13.777344 0 7.597656 6.179688 13.777344 13.773438 13.777344 7.597656 0 13.777343-6.179688 13.777343-13.777344 0-4.296875 3.484375-7.78125 7.78125-7.78125s7.78125 3.484375 7.78125 7.78125c0 16.175781-13.160156 29.339844-29.339843 29.339844zm0 0" fill="#f0f5f7"/><path d="m473.132812 411.472656h-68.511718c-4.300782 0-7.78125-3.480468-7.78125-7.78125 0-4.296875 3.480468-7.78125 7.78125-7.78125h68.511718c4.296876 0 7.78125 3.484375 7.78125 7.78125 0 4.300782-3.484374 7.78125-7.78125 7.78125zm0 0" fill="#38aaff"/><path d="m344.445312 421.984375h-40.460937c-4.296875 0-7.78125-3.484375-7.78125-7.78125 0-4.300781 3.484375-7.78125 7.78125-7.78125h40.460937c4.296876 0 7.78125 3.480469 7.78125 7.78125 0 4.296875-3.484374 7.78125-7.78125 7.78125zm0 0" fill="#f6cb43"/><path d="m427.648438 460.371094h-23.027344c-4.300782 0-7.78125-3.484375-7.78125-7.78125 0-4.300782 3.480468-7.78125 7.78125-7.78125h23.027344c4.296874 0 7.78125 3.480468 7.78125 7.78125 0 4.296875-3.484376 7.78125-7.78125 7.78125zm0 0" fill="#38aaff"/></svg>