<svg height="512pt" viewBox="0 0 512 512" width="512pt" xmlns="http://www.w3.org/2000/svg"><path d="m429.425781 132.980469c-2.273437 0-4.523437-1.03125-5.996093-2.988281-19.128907-25.378907-44.167969-46.398438-72.402344-60.792969-29.59375-15.085938-61.566406-22.734375-95.027344-22.734375-46.261719 0-90.113281 14.769531-126.816406 42.71875-3.292969 2.511718-8 1.875-10.511719-1.421875-2.507813-3.296875-1.871094-8.003907 1.425781-10.511719 39.335938-29.953125 86.332032-45.785156 135.902344-45.785156 35.851562 0 70.117188 8.199218 101.839844 24.371094 30.25 15.421874 57.074218 37.941406 77.570312 65.128906 2.492188 3.308594 1.832032 8.011718-1.476562 10.503906-1.351563 1.019531-2.9375 1.511719-4.507813 1.511719zm0 0" fill="#dde9ed"/><path d="m38.964844 263.5c-4.144532 0-7.5-3.355469-7.5-7.5 0-57.921875 21.992187-112.910156 61.925781-154.835938 2.855469-3 7.601563-3.113281 10.601563-.257812s3.117187 7.601562.261718 10.601562c-37.269531 39.125-57.789062 90.4375-57.789062 144.492188 0 4.144531-3.359375 7.5-7.5 7.5zm0 0" fill="#dde9ed"/><path d="m139.476562 446.640625c-1.378906 0-2.773437-.378906-4.023437-1.175781-28-17.851563-52.125-42.148438-69.773437-70.269532-18.332032-29.214843-29.4375-61.417968-33-95.71875-.429688-4.121093 2.5625-7.808593 6.683593-8.238281 4.113281-.421875 7.808594 2.566407 8.234375 6.6875 3.328125 32 13.683594 62.042969 30.789063 89.296875 16.472656 26.25 38.996093 48.933594 65.128906 65.59375 3.496094 2.226563 4.519531 6.863282 2.292969 10.355469-1.429688 2.242187-3.855469 3.46875-6.332032 3.46875zm0 0" fill="#dde9ed"/><path d="m212.835938 476.242188c-.492188 0-.992188-.046876-1.492188-.148438-14.238281-2.871094-28.253906-7.164062-41.667969-12.753906-3.820312-1.59375-5.628906-5.984375-4.035156-9.808594 1.589844-3.820312 5.984375-5.628906 9.804687-4.035156 12.507813 5.210937 25.585938 9.214844 38.863282 11.894531 4.0625.820313 6.6875 4.773437 5.871094 8.835937-.71875 3.558594-3.847657 6.015626-7.34375 6.015626zm0 0" fill="#dde9ed"/><path d="m267.132812 480.253906c-3.96875 0-7.28125-3.113281-7.484374-7.121094-.207032-4.136718 2.976562-7.660156 7.113281-7.867187 111.460937-5.636719 198.773437-97.554687 198.773437-209.265625 0-27.804688-5.355468-54.804688-15.917968-80.257812-1.585938-3.824219.226562-8.214844 4.054687-9.800782 3.824219-1.59375 8.210937.226563 9.800781 4.050782 11.324219 27.285156 17.0625 56.222656 17.0625 86.007812 0 119.703125-93.566406 218.207031-213.015625 224.246094-.128906.007812-.257812.007812-.386719.007812zm0 0" fill="#dde9ed"/><path d="m28.230469 363.015625c-2.890625 0-5.640625-1.679687-6.875-4.496094-14.171875-32.386719-21.355469-66.878906-21.355469-102.519531 0-49.492188 14.148438-97.519531 40.917969-138.890625 26.070312-40.292969 62.742187-72.378906 106.046875-92.792969 3.75-1.765625 8.21875-.160156 9.984375 3.585938s.160156 8.214844-3.585938 9.980468c-40.777343 19.222657-75.304687 49.433594-99.851562 87.375-25.195313 38.9375-38.511719 84.144532-38.511719 130.742188 0 33.558594 6.761719 66.027344 20.097656 96.507812 1.660156 3.792969-.070312 8.21875-3.863281 9.878907-.980469.425781-2 .628906-3.003906.628906zm0 0" fill="#a4d5dd"/><path d="m256 512c-84.929688 0-164.15625-42.003906-211.933594-112.355469-2.324218-3.425781-1.433594-8.089843 1.992188-10.417969 3.425781-2.328124 8.089844-1.4375 10.417968 1.992188 44.980469 66.234375 119.570313 105.78125 199.523438 105.78125 24.445312 0 48.558594-3.644531 71.667969-10.832031 3.957031-1.238281 8.160156.976562 9.390625 4.933593 1.230468 3.953126-.980469 8.160157-4.933594 9.386719-24.558594 7.640625-50.167969 11.511719-76.125 11.511719zm0 0" fill="#a4d5dd"/><path d="m366.445312 486.171875c-2.757812 0-5.410156-1.527344-6.71875-4.164063-1.84375-3.707031-.332031-8.210937 3.375-10.054687 70.964844-35.265625 120.085938-102.972656 131.398438-181.113281.59375-4.101563 4.386719-6.945313 8.496094-6.347656 4.101562.59375 6.941406 4.394531 6.351562 8.496093-12.019531 83.015625-64.195312 154.941407-139.570312 192.398438-1.070313.535156-2.210938.785156-3.332032.785156zm0 0" fill="#a4d5dd"/><path d="m504.335938 254.515625c-4.019532 0-7.347657-3.183594-7.488282-7.230469-2.222656-62.527344-28.261718-120.960937-73.324218-164.539062-45.171876-43.6875-104.667969-67.746094-167.523438-67.746094-4.140625 0-7.5-3.355469-7.5-7.5s3.359375-7.5 7.5-7.5c66.769531 0 129.964844 25.558594 177.949219 71.960938 47.867187 46.292968 75.527343 108.367187 77.886719 174.789062.148437 4.140625-3.089844 7.613281-7.230469 7.761719-.089844.003906-.179688.003906-.269531.003906zm0 0" fill="#a4d5dd"/><path d="m191.527344 23.445312c-3.308594 0-6.339844-2.210937-7.238282-5.5625-1.070312-4 1.304688-8.113281 5.304688-9.183593 7.199219-1.929688 14.582031-3.5625 21.9375-4.851563 4.082031-.707031 7.964844 2.015625 8.683594 6.09375.714844 4.082032-2.015625 7.96875-6.097656 8.683594-6.921876 1.210938-13.867188 2.746094-20.640626 4.5625-.652343.175781-1.304687.257812-1.949218.257812zm0 0" fill="#a4d5dd"/><path d="m386.511719 256c0 72.082031-58.429688 130.511719-130.511719 130.511719s-130.511719-58.429688-130.511719-130.511719 58.429688-130.511719 130.511719-130.511719 130.511719 58.429688 130.511719 130.511719zm0 0" fill="#f0f5f7"/><path d="m353.519531 256c0 53.859375-43.660156 97.519531-97.519531 97.519531s-97.519531-43.660156-97.519531-97.519531 43.660156-97.519531 97.519531-97.519531 97.519531 43.660156 97.519531 97.519531zm0 0" fill="#dde9ed"/><path d="m318.019531 256c0 34.253906-27.765625 62.019531-62.019531 62.019531s-62.019531-27.765625-62.019531-62.019531 27.765625-62.019531 62.019531-62.019531 62.019531 27.765625 62.019531 62.019531zm0 0" fill="#a4d5dd"/><path d="m281.730469 256c0 14.210938-11.519531 25.730469-25.730469 25.730469s-25.730469-11.519531-25.730469-25.730469 11.519531-25.730469 25.730469-25.730469 25.730469 11.519531 25.730469 25.730469zm0 0" fill="#f0f5f7"/><path d="m256 394.015625c-76.101562 0-138.011719-61.914063-138.011719-138.015625s61.910157-138.015625 138.011719-138.015625 138.015625 61.914063 138.015625 138.015625-61.914063 138.015625-138.015625 138.015625zm0-261.03125c-67.828125 0-123.011719 55.1875-123.011719 123.015625s55.183594 123.015625 123.011719 123.015625 123.015625-55.1875 123.015625-123.015625-55.1875-123.015625-123.015625-123.015625zm0 0" fill="#dde9ed"/><path d="m256 361.019531c-57.90625 0-105.019531-47.109375-105.019531-105.019531s47.113281-105.019531 105.019531-105.019531c20.996094 0 41.261719 6.175781 58.609375 17.863281 3.433594 2.3125 4.34375 6.972656 2.027344 10.410156-2.3125 3.433594-6.972657 4.34375-10.410157 2.027344-14.859374-10.011719-32.230468-15.300781-50.226562-15.300781-49.636719 0-90.019531 40.382812-90.019531 90.019531s40.382812 90.019531 90.019531 90.019531 90.019531-40.382812 90.019531-90.019531c0-4.144531 3.359375-7.5 7.5-7.5s7.5 3.355469 7.5 7.5c0 57.90625-47.113281 105.019531-105.019531 105.019531zm0 0" fill="#a4d5dd"/><path d="m333.402344 204.164062c-2.25 0-4.476563-1.007812-5.953125-2.933593-1.9375-2.519531-4.027344-4.964844-6.222657-7.269531-2.855468-3.003907-2.738281-7.75.261719-10.605469s7.75-2.734375 10.605469.261719c2.558594 2.691406 4.996094 5.542968 7.253906 8.480468 2.519532 3.285156 1.902344 7.992188-1.382812 10.515625-1.363282 1.046875-2.96875 1.550781-4.5625 1.550781zm0 0" fill="#a4d5dd"/><path d="m386.511719 132.984375h-130.511719c-4.140625 0-7.5-3.355469-7.5-7.5 0-4.140625 3.359375-7.5 7.5-7.5h130.515625c4.140625 0 7.5 3.359375 7.5 7.5 0 4.144531-3.359375 7.5-7.503906 7.5zm0 0" fill="#dde9ed"/><path d="m256 394.015625h-129.574219c-4.140625 0-7.5-3.359375-7.5-7.5 0-4.144531 3.359375-7.5 7.5-7.5h129.574219c4.140625 0 7.5 3.355469 7.5 7.5 0 4.140625-3.359375 7.5-7.5 7.5zm0 0" fill="#dde9ed"/><path d="m125.957031 263.972656c-4.140625 0-7.5-3.359375-7.5-7.5v-130.515625c0-4.144531 3.359375-7.5 7.5-7.5s7.5 3.355469 7.5 7.5v130.515625c0 4.140625-3.359375 7.5-7.5 7.5zm0 0" fill="#dde9ed"/><path d="m386.984375 393.542969c-4.140625 0-7.5-3.355469-7.5-7.5v-129.570313c0-4.144531 3.359375-7.5 7.5-7.5s7.5 3.355469 7.5 7.5v129.570313c0 4.144531-3.359375 7.5-7.5 7.5zm0 0" fill="#dde9ed"/><g fill="#a4d5dd"><path d="m334.144531 96.953125h-98.851562c-4.140625 0-7.5-3.355469-7.5-7.5 0-4.140625 3.359375-7.5 7.5-7.5h98.851562c4.140625 0 7.5 3.359375 7.5 7.5 0 4.144531-3.359375 7.5-7.5 7.5zm0 0"/><path d="m276.703125 430.046875h-98.847656c-4.140625 0-7.5-3.359375-7.5-7.5 0-4.144531 3.359375-7.5 7.5-7.5h98.847656c4.144531 0 7.5 3.355469 7.5 7.5 0 4.140625-3.355469 7.5-7.5 7.5zm0 0"/><path d="m422.546875 341.644531c-4.144531 0-7.5-3.355469-7.5-7.5v-98.851562c0-4.140625 3.355469-7.5 7.5-7.5 4.140625 0 7.5 3.359375 7.5 7.5v98.851562c0 4.140625-3.359375 7.5-7.5 7.5zm0 0"/><path d="m89.453125 284.207031c-4.140625 0-7.5-3.359375-7.5-7.5v-98.851562c0-4.144531 3.359375-7.5 7.5-7.5 4.144531 0 7.5 3.355469 7.5 7.5v98.851562c0 4.140625-3.355469 7.5-7.5 7.5zm0 0"/><path d="m200.820312 96.953125h-.132812c-4.144531 0-7.5-3.355469-7.5-7.5 0-4.140625 3.355469-7.5 7.5-7.5h.132812c4.140626 0 7.5 3.359375 7.5 7.5 0 4.144531-3.359374 7.5-7.5 7.5zm0 0"/><path d="m311.3125 430.046875h-.132812c-4.140626 0-7.5-3.359375-7.5-7.5 0-4.144531 3.359374-7.5 7.5-7.5h.132812c4.140625 0 7.5 3.355469 7.5 7.5 0 4.140625-3.359375 7.5-7.5 7.5zm0 0"/><path d="m89.453125 318.8125c-.007813 0-.019531 0-.027344 0-4.140625-.015625-7.488281-3.386719-7.472656-7.527344v-.132812c.015625-4.132813 3.371094-7.472656 7.5-7.472656h.027344c4.140625.015624 7.488281 3.386718 7.472656 7.527343v.132813c-.015625 4.132812-3.367187 7.472656-7.5 7.472656zm0 0"/><path d="m422.546875 208.320312c-.011719 0-.019531 0-.027344 0-4.144531-.015624-7.488281-3.386718-7.472656-7.527343v-.132813c.011719-4.144531 3.390625-7.539062 7.523437-7.472656 4.144532.015625 7.488282 3.382812 7.476563 7.527344v.132812c-.015625 4.132813-3.371094 7.472656-7.5 7.472656zm0 0"/></g><path d="m198.511719 286.230469c-.019531 0-.035157 0-.054688 0l-.132812-.003907c-4.140625-.027343-7.476563-3.410156-7.445313-7.554687.03125-4.121094 3.382813-7.445313 7.5-7.445313h.054688l.132812.003907c4.144532.027343 7.476563 3.410156 7.445313 7.554687-.03125 4.121094-3.382813 7.445313-7.5 7.445313zm0 0" fill="#f0f5f7"/><path d="m351.175781 238.828125h-.132812c-4.140625 0-7.5-3.359375-7.5-7.5 0-4.144531 3.359375-7.5 7.5-7.5h.132812c4.144531 0 7.5 3.355469 7.5 7.5 0 4.140625-3.355469 7.5-7.5 7.5zm0 0" fill="#a4d5dd"/></svg>