<svg height="512pt" viewBox="0 -11 512 512" width="512pt" xmlns="http://www.w3.org/2000/svg"><path d="m64.585938 239.949219 173.152343-53.761719 47.652344 153.476562-173.152344 53.761719zm0 0" fill="#a09d9c"/><path d="m250.046875 225.828125 35.34375 113.863281-28.167969 8.742188-32.289062-104.023438c-1.6875-5.433594 1.347656-11.207031 6.78125-12.894531zm0 0" fill="#c4e1e8"/><path d="m252.371094 233.324219 9.351562 30.125-19.421875 36.914062-9.351562-30.125zm0 0" fill="#f0f5f7"/><path d="m263.613281 269.539062 5.214844 16.796876-19.421875 36.910156-5.214844-16.792969zm0 0" fill="#f0f5f7"/><path d="m108.105469 280.675781 32.292969 104.023438-28.167969 8.746093-35.34375-113.863281 18.328125-5.691406c5.433594-1.6875 11.207031 1.351563 12.890625 6.785156zm0 0" fill="#c4e1e8"/><path d="m109.539062 285.289062 9.351563 30.128907-19.421875 36.910156-9.355469-30.136719zm0 0" fill="#f0f5f7"/><path d="m120.78125 321.507812 5.214844 16.792969-19.425782 36.914063-5.214843-16.804688zm0 0" fill="#f0f5f7"/><path d="m228.328125 357.402344-59.03125 18.324218-24.890625-80.171874c-1.6875-5.433594 1.351562-11.207032 6.785156-12.894532l39.355469-12.214844c5.433594-1.6875 11.207031 1.351563 12.890625 6.78125zm0 0" fill="#fc4830"/><path d="m109.878906 104.65625-72.390625 137.5625c-4.273437 8.125 3.40625 17.359375 12.171875 14.636719l209.953125-65.175781c8.765625-2.71875 9.867188-14.679688 1.742188-18.953126l-137.5625-72.390624c-5.035157-2.648438-11.265625-.714844-13.914063 4.320312zm0 0" fill="#fc4830"/><path d="m259.617188 191.683594-11.148438 3.457031c-.8125-2.195313-2.414062-4.167969-4.851562-5.449219l-137.566407-72.390625c-.761719-.398437-1.554687-.695312-2.351562-.898437l6.179687-11.746094c2.644532-5.039062 8.882813-6.972656 13.914063-4.316406l137.566406 72.386718c8.121094 4.277344 7.023437 16.234376-1.742187 18.957032zm0 0" fill="#e81610"/><path d="m178.863281 335.851562c-3.285156 0-6.328125-2.109374-7.367187-5.402343-1.285156-4.070313.976562-8.410157 5.042968-9.691407l.105469-.035156c4.070313-1.285156 8.40625.976563 9.691407 5.046875 1.28125 4.070313-.976563 8.410157-5.046876 9.691407l-.101562.03125c-.773438.246093-1.554688.359374-2.324219.359374zm0 0" fill="#e81610"/><path d="m434.703125 224.507812c25.0625 2.179688 45.992187 15.691407 56.542969 34.097657 1.351562 2.355469.988281 5.375-.9375 7.292969-4.132813 4.121093-9.988282 6.457031-16.257813 5.910156-5.609375-.488282-10.488281-3.199219-13.863281-7.183594-4.007812 3.339844-9.28125 5.167969-14.894531 4.679688-5.609375-.488282-10.488281-3.199219-13.863281-7.183594-4.007813 3.34375-9.28125 5.171875-14.894532 4.683594-5.609375-.488282-10.488281-3.199219-13.863281-7.183594-4.011719 3.339844-9.28125 5.167968-14.894531 4.679687-6.269532-.542969-11.632813-3.855469-14.992188-8.625-1.566406-2.222656-1.402344-5.261719.335938-7.347656 13.566406-16.304687 36.515625-26.003906 61.582031-23.820313zm0 0" fill="#00b579"/><path d="m384.347656 228.023438c-3.8125-4.367188-10.445312-4.808594-14.8125-1-29.707031 25.953124-46.671875 61.496093-49.058594 102.78125-.277343 4.789062-.339843 9.386718-.253906 13.75h21.003906c-.097656-4.1875-.035156-8.625.253907-13.25 2.234375-35.71875 16.320312-65.148438 41.871093-87.464844 4.367188-3.816406 4.8125-10.449219.996094-14.816406zm0 0" fill="#f4bc8e"/><path d="m424.253906 185.054688c24.148438-7.058594 48.554688-2.050782 65.058594 11.269531 2.117188 1.707031 2.871094 4.652343 1.773438 7.140625-2.359376 5.335937-6.96875 9.636718-13.007813 11.402344-5.40625 1.578124-10.9375.824218-15.523437-1.667969-2.527344 4.570312-6.777344 8.1875-12.1875 9.765625-5.40625 1.582031-10.933594.824218-15.523438-1.664063-2.527344 4.566407-6.777344 8.183594-12.183594 9.765625-5.40625 1.578125-10.9375.820313-15.523437-1.667968-2.527344 4.570312-6.777344 8.183593-12.1875 9.765624-6.039063 1.765626-12.238281.625-17.101563-2.601562-2.261718-1.503906-3.210937-4.390625-2.351562-6.96875 6.738281-20.121094 24.609375-37.480469 48.757812-44.539062zm0 0" fill="#009765"/><path d="m365.691406 176.972656c11.90625-22.164062 32.589844-36.046875 53.667969-38.46875 2.699219-.3125 5.328125 1.214844 6.328125 3.742188 2.152344 5.425781 1.984375 11.726562-.996094 17.269531-2.664062 4.960937-7.082031 8.371094-12.074218 9.898437 1.484374 5.003907 1.078124 10.570313-1.585938 15.53125-2.667969 4.960938-7.085938 8.371094-12.078125 9.898438 1.484375 5.003906 1.082031 10.570312-1.585937 15.53125-2.664063 4.964844-7.082032 8.371094-12.074219 9.898438 1.484375 5.003906 1.078125 10.570312-1.585938 15.53125-2.976562 5.542968-8.140625 9.164062-13.851562 10.367187-2.660157.558594-5.382813-.789063-6.613281-3.214844-9.617188-18.90625-9.457032-43.820312 2.449218-65.984375zm0 0" fill="#00b579"/><path d="m368.535156 239.335938c0 8.832031-7.160156 15.992187-15.992187 15.992187-8.835938 0-15.996094-7.160156-15.996094-15.992187 0-8.832032 7.160156-15.992188 15.996094-15.992188 8.832031 0 15.992187 7.160156 15.992187 15.992188zm0 0" fill="#f8e98e"/><path d="m385.851562 258.5625c0 8.832031-7.160156 15.992188-15.996093 15.992188-8.832031 0-15.992188-7.160157-15.992188-15.992188s7.160157-15.996094 15.992188-15.996094c8.835937 0 15.996093 7.164063 15.996093 15.996094zm0 0" fill="#fab03c"/><path d="m341.230469 314.761719c-.242188 0-.484375-.015625-.730469-.035157l-13.867188-1.296874c-4.246093-.398438-7.371093-4.164063-6.972656-8.414063.398438-4.246094 4.179688-7.359375 8.410156-6.972656l13.867188 1.296875c4.25.398437 7.371094 4.164062 6.976562 8.414062-.375 4.003906-3.742187 7.007813-7.683593 7.007813zm0 0" fill="#efa66f"/><path d="m347.800781 291.726562c-.527343 0-1.0625-.054687-1.601562-.167968l-14.636719-3.085938c-4.175781-.878906-6.847656-4.980468-5.964844-9.152344.878906-4.175781 4.976563-6.847656 9.152344-5.96875l14.636719 3.085938c4.175781.878906 6.847656 4.980469 5.96875 9.15625-.765625 3.636719-3.976563 6.132812-7.554688 6.132812zm0 0" fill="#efa66f"/><path d="m501.699219 328.066406c5.6875 0 10.300781 4.613282 10.300781 10.300782v130.855468c0 11.375-9.21875 20.605469-20.605469 20.605469h-470.789062c-11.378907-.003906-20.605469-9.226563-20.605469-20.605469v-130.855468c0-5.6875 4.613281-10.300782 10.300781-10.300782zm0 0" fill="#00b579"/><path d="m512 338.367188v23.234374h-512v-23.234374c0-5.6875 4.613281-10.300782 10.300781-10.300782h491.398438c5.6875 0 10.300781 4.613282 10.300781 10.300782zm0 0" fill="#00fbaa"/><path d="m512 411.007812v58.214844c0 11.375-9.21875 20.605469-20.605469 20.605469h-470.789062c-11.386719-.003906-20.605469-9.230469-20.605469-20.605469v-58.214844zm0 0" fill="#009765"/><path d="m446.238281 477.382812h-89.875c-4.265625 0-7.722656-3.457031-7.722656-7.726562 0-4.265625 3.457031-7.722656 7.722656-7.722656h89.875c7.542969 0 13.679688-6.136719 13.679688-13.679688 0-7.542968-6.136719-13.679687-13.679688-13.679687s-13.679687 6.136719-13.679687 13.679687c0 4.265625-3.457032 7.726563-7.722656 7.726563-4.269532 0-7.726563-3.460938-7.726563-7.726563 0-16.0625 13.066406-29.132812 29.128906-29.132812 16.066407 0 29.132813 13.070312 29.132813 29.132812s-13.066406 29.128906-29.132813 29.128906zm0 0" fill="#00b579"/><path d="m139.199219 426.371094h-110.203125c-4.265625 0-7.726563-3.457032-7.726563-7.722656 0-4.269532 3.460938-7.726563 7.726563-7.726563h110.203125c7.542969 0 13.679687-6.136719 13.679687-13.679687 0-7.542969-6.136718-13.679688-13.679687-13.679688s-13.679688 6.136719-13.679688 13.679688c0 4.269531-3.457031 7.726562-7.722656 7.726562-4.269531 0-7.726563-3.460938-7.726563-7.726562 0-16.0625 13.066407-29.132813 29.128907-29.132813 16.066406 0 29.132812 13.070313 29.132812 29.132813s-13.070312 29.128906-29.132812 29.128906zm0 0" fill="#009765"/><path d="m384.449219 426.371094h-198.40625c-4.265625 0-7.726563-3.457032-7.726563-7.722656 0-4.269532 3.460938-7.726563 7.726563-7.726563h198.40625c7.539062 0 13.679687-6.136719 13.679687-13.679687 0-7.542969-6.140625-13.679688-13.679687-13.679688-7.542969 0-13.679688 6.136719-13.679688 13.679688 0 4.269531-3.460937 7.726562-7.726562 7.726562s-7.726563-3.460938-7.726563-7.726562c0-16.0625 13.070313-29.132813 29.132813-29.132813s29.132812 13.070313 29.132812 29.132813c-.003906 16.0625-13.070312 29.128906-29.132812 29.128906zm0 0" fill="#009765"/><path d="m469.046875 341.980469c-2.46875 0-4.890625-1.179688-6.386719-3.367188-2.40625-3.523437-1.503906-8.332031 2.015625-10.738281 3.183594-2.179688 5.085938-5.773438 5.085938-9.621094 0-6.425781-5.226563-11.65625-11.65625-11.65625-3.667969 0-7.050781 1.683594-9.285157 4.621094-2.582031 3.394531-7.429687 4.058594-10.828124 1.472656-3.394532-2.582031-4.054688-7.429687-1.46875-10.828125 5.179687-6.808593 13.046874-10.714843 21.582031-10.714843 14.949219 0 27.109375 12.160156 27.109375 27.109374 0 8.949219-4.417969 17.3125-11.816406 22.371094-1.332032.914063-2.851563 1.351563-4.351563 1.351563zm0 0" fill="#00fbaa"/><path d="m47.660156 341.980469c-2.464844 0-4.886718-1.179688-6.382812-3.367188-2.410156-3.523437-1.507813-8.332031 2.015625-10.738281 3.1875-2.179688 5.085937-5.773438 5.085937-9.621094 0-6.425781-5.226562-11.65625-11.65625-11.65625-3.667968 0-7.050781 1.683594-9.285156 4.621094-2.582031 3.398438-7.429688 4.054688-10.828125 1.472656-3.394531-2.582031-4.054687-7.429687-1.46875-10.828125 5.179687-6.808593 13.046875-10.714843 21.582031-10.714843 14.949219 0 27.113282 12.160156 27.113282 27.109374 0 8.949219-4.421876 17.3125-11.816407 22.375-1.335937.910157-2.855469 1.347657-4.359375 1.347657zm0 0" fill="#00fbaa"/><path d="m327.351562 477.382812h-48.6875c-4.269531 0-7.726562-3.457031-7.726562-7.726562 0-4.265625 3.460938-7.722656 7.726562-7.722656h48.6875c4.269532 0 7.726563 3.457031 7.726563 7.722656 0 4.269531-3.457031 7.726562-7.726563 7.726562zm0 0" fill="#00b579"/><path d="m147.507812 457.382812h-.105468c-4.265625 0-7.726563-3.457031-7.726563-7.726562 0-4.265625 3.460938-7.726562 7.726563-7.726562h.105468c4.269532 0 7.726563 3.460937 7.726563 7.726562 0 4.269531-3.457031 7.726562-7.726563 7.726562zm0 0" fill="#00b579"/><path d="m168.792969 468.503906h-.109375c-4.265625 0-7.722656-3.460937-7.722656-7.726562 0-4.269532 3.457031-7.726563 7.722656-7.726563h.109375c4.265625 0 7.726562 3.457031 7.726562 7.726563 0 4.265625-3.460937 7.726562-7.726562 7.726562zm0 0" fill="#00b579"/><path d="m460.132812 382.941406h-.105468c-4.269532 0-7.726563-3.460937-7.726563-7.726562 0-4.269532 3.460938-7.726563 7.726563-7.726563h.105468c4.269532 0 7.726563 3.457031 7.726563 7.726563 0 4.265625-3.457031 7.726562-7.726563 7.726562zm0 0" fill="#00fbaa"/><path d="m460.132812 382.941406h-.105468c-4.269532 0-7.726563-3.460937-7.726563-7.726562 0-4.269532 3.460938-7.726563 7.726563-7.726563h.105468c4.269532 0 7.726563 3.457031 7.726563 7.726563 0 4.265625-3.457031 7.726562-7.726563 7.726562zm0 0" fill="#00fbaa"/><path d="m65.425781 355.761719h-.109375c-4.265625 0-7.722656-3.457031-7.722656-7.726563 0-4.265625 3.457031-7.726562 7.722656-7.726562h.109375c4.265625 0 7.726563 3.460937 7.726563 7.726562 0 4.269532-3.460938 7.726563-7.726563 7.726563zm0 0" fill="#00b579"/><path d="m307.769531 126.609375c-1.976562 0-3.953125-.757813-5.460937-2.265625-3.019532-3.015625-3.019532-7.90625 0-10.925781l111.15625-111.15625c3.015625-3.015625 7.90625-3.015625 10.925781 0 3.015625 3.019531 3.015625 7.910156 0 10.929687l-111.15625 111.15625c-1.507813 1.507813-3.488281 2.261719-5.464844 2.261719zm0 0" fill="#00b579"/><path d="m296.332031 185.730469c-1.980469 0-3.957031-.757813-5.464843-2.265625-3.015626-3.015625-3.015626-7.90625 0-10.925782l78.855468-78.855468c3.019532-3.015625 7.910156-3.015625 10.925782 0 3.019531 3.019531 3.019531 7.910156 0 10.929687l-78.851563 78.851563c-1.511719 1.507812-3.488281 2.265625-5.464844 2.265625zm0 0" fill="#00fbaa"/><path d="m153.882812 172.308594c-1.980468 0-3.957031-.757813-5.464843-2.265625-3.019531-3.015625-3.019531-7.90625 0-10.925781l133.984375-133.984376c3.019531-3.015624 7.910156-3.015624 10.925781 0 3.019531 3.015626 3.019531 7.90625 0 10.925782l-133.984375 133.988281c-1.507812 1.507813-3.484375 2.261719-5.460938 2.261719zm0 0" fill="#00fbaa"/><path d="m38.699219 156.878906c-1.976563 0-3.957031-.753906-5.464844-2.261718-3.015625-3.019532-3.015625-7.910157 0-10.929688l27.410156-27.40625c3.015625-3.015625 7.90625-3.015625 10.925781 0 3.019532 3.019531 3.019532 7.910156 0 10.929688l-27.410156 27.40625c-1.507812 1.507812-3.484375 2.261718-5.460937 2.261718zm0 0" fill="#00b579"/><path d="m184.289062 96.109375c-1.976562 0-3.953124-.753906-5.460937-2.261719-3.019531-3.019531-3.019531-7.910156 0-10.929687l14.730469-14.726563c3.015625-3.015625 7.90625-3.015625 10.925781 0s3.019531 7.90625 0 10.925782l-14.730469 14.730468c-1.507812 1.507813-3.484375 2.261719-5.464844 2.261719zm0 0" fill="#00fbaa"/><path d="m429.917969 119.246094c-1.976563 0-3.957031-.753906-5.464844-2.261719-3.015625-3.019531-3.015625-7.910156 0-10.929687l55.996094-55.992188c3.015625-3.015625 7.90625-3.015625 10.925781 0s3.019531 7.90625 0 10.925781l-55.992188 55.996094c-1.511718 1.507813-3.488281 2.261719-5.464843 2.261719zm0 0" fill="#00fbaa"/><path d="m332.621094 63.253906c-1.976563 0-3.953125-.757812-5.460938-2.265625-3.019531-3.015625-3.019531-7.910156 0-10.925781l13.402344-13.40625c3.019531-3.015625 7.910156-3.015625 10.929688 0 3.015624 3.019531 3.015624 7.910156 0 10.929688l-13.40625 13.402343c-1.507813 1.507813-3.484376 2.265625-5.464844 2.265625zm0 0" fill="#00b579"/><g fill="#00fbaa"><path d="m49.402344 50.660156c-1.976563 0-3.953125-.753906-5.460938-2.261718-3.019531-3.015626-3.019531-7.910157 0-10.925782l13.402344-13.40625c3.019531-3.015625 7.910156-3.015625 10.929688 0 3.015624 3.019532 3.015624 7.910156 0 10.929688l-13.40625 13.402344c-1.507813 1.507812-3.484376 2.261718-5.464844 2.261718zm0 0"/><path d="m313.925781 80.164062h-.109375c-4.265625 0-7.726562-3.457031-7.726562-7.726562 0-4.265625 3.460937-7.722656 7.726562-7.722656h.109375c4.265625 0 7.722657 3.457031 7.722657 7.722656 0 4.269531-3.457032 7.726562-7.722657 7.726562zm0 0"/><path d="m217.007812 63.253906h-.105468c-4.265625 0-7.726563-3.460937-7.726563-7.726562 0-4.269532 3.460938-7.726563 7.726563-7.726563h.105468c4.269532 0 7.726563 3.457031 7.726563 7.726563 0 4.265625-3.457031 7.726562-7.726563 7.726562zm0 0"/><path d="m316.171875 200.105469h-.105469c-4.269531 0-7.726562-3.457031-7.726562-7.726563 0-4.265625 3.460937-7.726562 7.726562-7.726562h.105469c4.269531 0 7.726563 3.460937 7.726563 7.726562 0 4.269532-3.457032 7.726563-7.726563 7.726563zm0 0"/><path d="m76.9375 63.253906h-.105469c-4.269531 0-7.726562-3.460937-7.726562-7.726562 0-4.269532 3.457031-7.726563 7.726562-7.726563h.105469c4.265625 0 7.726562 3.457031 7.726562 7.726563 0 4.265625-3.460937 7.726562-7.726562 7.726562zm0 0"/></g></svg>