<svg height="511pt" viewBox="-27 0 511 511.99984" width="511pt" xmlns="http://www.w3.org/2000/svg"><path d="m389.632812 178.703125c-.152343.511719-.304687 1.023437-.460937 1.53125-5.457031 17.84375-31.867187 12.53125-30.308594-6.0625 1.457031-17.367187.089844-35.273437-4.460937-53.113281-19.46875-76.402344-90.695313-125.9375-166.65625-120.675782-6.75.464844-10.84375 7.628907-7.796875 13.667969 5.164062 10.25 9.308593 21.214844 12.257812 32.796875 9.609375 37.691406 5.027344 75.667969-10.390625 108.289063-18.640625 39.441406-74.652344 39.402343-93.4375.03125-3.710937-7.777344-6.933594-15.832031-9.621094-24.125-2.371093-7.308594-12.023437-8.824219-16.578124-2.636719-24.261719 32.964844-38.597657 73.6875-38.597657 117.757812 0 108.882813 87.503907 197.332032 196.039063 198.839844 104.046875 1.445313 248.839844-104.914062 187.914062-266.925781-3.203125-8.511719-15.339844-8.097656-17.902344.625zm0 0" fill="#fab03c"/><path d="m348.386719 398.230469c31.3125-45.175781 43.925781-105.296875 17.324219-176.027344-3.203126-8.511719-15.335938-8.101563-17.902344.625-.144532.507813-.300782 1.015625-.457032 1.523437-5.457031 17.851563-31.863281 12.535157-30.308593-6.0625 1.453125-17.363281.085937-35.265624-4.460938-53.109374-15.394531-60.425782-63.167969-104.039063-120.058593-117.03125-.105469-.429688-.214844-.867188-.320313-1.296876-2.949219-11.585937-7.085937-22.550781-12.261719-32.796874-3.035156-6.042969 1.054688-13.207032 7.800782-13.667969 75.964843-5.261719 147.191406 44.269531 166.667968 120.671875 4.535156 17.84375 5.914063 35.746094 4.449219 53.109375-1.550781 18.597656 24.851563 23.914062 30.308594 6.0625.15625-.507813.3125-1.015625.460937-1.523438 2.566406-8.726562 14.699219-9.136719 17.898438-.625 36.539062 97.136719-.894532 174.269531-59.140625 220.148438zm0 0" fill="#fd8f3e"/><path d="m414.335938 378.417969c-1.519532 0-3.050782-.445313-4.390626-1.375-3.507812-2.425781-4.382812-7.238281-1.957031-10.75 18.566407-26.8125 30-56.410157 33.992188-87.96875.535156-4.230469 4.414062-7.242188 8.632812-6.695313 4.234375.535156 7.234375 4.402344 6.699219 8.636719-4.304688 34.042969-16.625 65.949219-36.617188 94.828125-1.5 2.164062-3.910156 3.324219-6.359374 3.324219zm0 0" fill="#fab03c"/><path d="m382.773438 121.554688c-3.445313 0-6.589844-2.324219-7.480469-5.820313-7.503907-29.453125-22.351563-56.761719-42.933594-78.964844-2.898437-3.128906-2.714844-8.019531.414063-10.921875 3.128906-2.898437 8.019531-2.714844 10.917968.414063 22.328125 24.09375 38.433594 53.710937 46.574219 85.65625 1.054687 4.136719-1.445313 8.339843-5.578125 9.394531-.640625.164062-1.28125.242188-1.914062.242188zm0 0" fill="#f6cb43"/><path d="m155.335938 150.347656c-1.109376 0-2.230469-.238281-3.296876-.742187-3.859374-1.824219-5.507812-6.429688-3.683593-10.285157 12.242187-25.90625 15.082031-55.503906 7.988281-83.332031-1.054688-4.136719 1.445312-8.34375 5.578125-9.394531 4.136719-1.050781 8.34375 1.441406 9.394531 5.578125 7.980469 31.304687 4.785156 64.601563-8.992187 93.75-1.320313 2.789063-4.09375 4.425781-6.988281 4.425781zm0 0" fill="#fd8f3e"/><path d="m32.917969 381c-2.484375 0-4.921875-1.195312-6.414063-3.410156-10.484375-15.570313-19.074218-32.371094-25.527344-49.9375-1.472656-4.003906.582032-8.445313 4.585938-9.917969 4.007812-1.472656 8.449219.585937 9.917969 4.589844 6.027343 16.398437 14.046875 32.089843 23.839843 46.632812 2.386719 3.539063 1.449219 8.34375-2.089843 10.726563-1.328125.890625-2.828125 1.316406-4.3125 1.316406zm0 0" fill="#fab03c"/><path d="m52.359375 405.960938c-2.121094 0-4.230469-.867188-5.757813-2.570313-1.734374-1.9375-3.460937-3.929687-5.132812-5.921875-2.742188-3.269531-2.316406-8.144531.957031-10.882812 3.265625-2.742188 8.140625-2.316407 10.882813.953124 1.5625 1.863282 3.179687 3.730469 4.804687 5.539063 2.847657 3.179687 2.578125 8.0625-.601562 10.910156-1.472657 1.324219-3.316407 1.972657-5.152344 1.972657zm0 0" fill="#fab03c"/><path d="m135.15625 221.71875c-4.269531 0-7.726562-3.460938-7.726562-7.726562 0-4.269532 3.457031-7.726563 7.722656-7.726563 28.585937-.003906 53.933594-16.066406 66.152344-41.917969 1.824218-3.859375 6.433593-5.511718 10.289062-3.683594 3.859375 1.824219 5.507812 6.429688 3.683594 10.285157-14.800782 31.3125-45.5 50.765625-80.121094 50.769531zm0 0" fill="#f6cb43"/><path d="m307.320312 512h-7.996093c-5.691407 0-10.304688-4.613281-10.304688-10.300781v-51.871094h28.601563v51.871094c0 5.6875-4.609375 10.300781-10.300782 10.300781zm0 0" fill="#cf8671"/><path d="m307.320312 512h-4v-62.171875h14.304688v51.871094c-.003906 5.6875-4.613281 10.300781-10.304688 10.300781zm0 0" fill="#be7560"/><path d="m295.945312 278.972656-62.394531 171.9375c-1.859375 5.117188 1.929688 10.527344 7.375 10.527344h124.789063c5.445312 0 9.234375-5.410156 7.378906-10.527344l-62.394531-171.9375c-2.503907-6.894531-12.253907-6.894531-14.753907 0zm0 0" fill="#fc4830"/><path d="m365.71875 461.433594h-12.320312c-.070313-.371094-.179688-.738282-.3125-1.109375l-61.476563-169.40625 4.332031-11.945313c2.503906-6.890625 12.261719-6.890625 14.753906 0l62.402344 171.933594c1.851563 5.121094-1.941406 10.527344-7.378906 10.527344zm0 0" fill="#e81610"/><path d="m151.929688 512h-8c-5.6875 0-10.300782-4.613281-10.300782-10.300781v-51.871094h28.601563v51.871094c0 5.6875-4.609375 10.300781-10.300781 10.300781zm0 0" fill="#cf8671"/><path d="m151.929688 512h-4v-62.171875h14.300781v51.871094c0 5.6875-4.609375 10.300781-10.300781 10.300781zm0 0" fill="#be7560"/><path d="m140.554688 278.972656-62.394532 171.9375c-1.859375 5.117188 1.929688 10.527344 7.375 10.527344h124.789063c5.445312 0 9.234375-5.410156 7.378906-10.527344l-62.398437-171.9375c-2.5-6.894531-12.25-6.894531-14.75 0zm0 0" fill="#fc4830"/><path d="m210.328125 461.433594h-12.320313c-.074218-.371094-.179687-.738282-.316406-1.109375l-61.472656-169.40625 4.332031-11.945313c2.503907-6.890625 12.257813-6.890625 14.753907 0l62.398437 171.933594c1.855469 5.121094-1.9375 10.527344-7.375 10.527344zm0 0" fill="#e81610"/><path d="m231.652344 512h-12.050782c-5.691406 0-10.304687-4.613281-10.304687-10.300781v-79.074219h32.65625v79.074219c0 5.6875-4.613281 10.300781-10.300781 10.300781zm0 0" fill="#cf8671"/><path d="m231.652344 512h-6.027344v-89.375h16.328125v79.074219c0 5.6875-4.613281 10.300781-10.300781 10.300781zm0 0" fill="#be7560"/><path d="m217.203125 227.550781-71.238281 196.308594c-2.121094 5.84375 2.207031 12.015625 8.421875 12.015625h142.476562c6.21875 0 10.542969-6.171875 8.425781-12.015625l-71.242187-196.308594c-2.855469-7.871093-13.988281-7.871093-16.84375 0zm0 0" fill="#ff756e"/><path d="m77.730469 304.433594c-4.265625 0-7.777344-3.457032-7.777344-7.726563 0-4.265625 3.410156-7.726562 7.675781-7.726562h.101563c4.269531 0 7.726562 3.460937 7.726562 7.726562 0 4.269531-3.457031 7.726563-7.726562 7.726563zm0 0" fill="#fd8f3e"/><path d="m96.246094 311.445312c-.027344 0-.050782 0-.078125 0-4.265625-.042968-7.742188-3.535156-7.699219-7.800781.042969-4.242187 3.445312-7.652343 7.675781-7.652343h.078125.101563c4.265625.042968 7.691406 3.539062 7.648437 7.804687-.042968 4.242187-3.496094 7.648437-7.726562 7.648437zm0 0" fill="#fd8f3e"/><path d="m285.132812 75.847656c-4.269531 0-7.777343-3.457031-7.777343-7.726562 0-4.265625 3.410156-7.726563 7.675781-7.726563h.101562c4.269532 0 7.726563 3.460938 7.726563 7.726563 0 4.269531-3.457031 7.726562-7.726563 7.726562zm0 0" fill="#fab03c"/><path d="m404.902344 108.535156c-4.269532 0-7.777344-3.460937-7.777344-7.726562 0-4.269532 3.410156-7.726563 7.675781-7.726563h.101563c4.269531 0 7.726562 3.457031 7.726562 7.726563 0 4.265625-3.460937 7.726562-7.726562 7.726562zm0 0" fill="#f6cb43"/><g fill="#fd8f3e"><path d="m129.382812 165.308594c-.027343 0-.050781 0-.078124 0-4.269532-.042969-7.742188-3.535156-7.699219-7.804688.042969-4.238281 3.445312-7.648437 7.671875-7.648437h.078125.101562c4.269531.042969 7.691407 3.539062 7.648438 7.804687-.042969 4.242188-3.492188 7.648438-7.722657 7.648438zm0 0"/><path d="m113.28125 152.558594c-.027344 0-.050781 0-.078125 0-4.265625-.042969-7.742187-3.535156-7.699219-7.804688.042969-4.238281 3.445313-7.648437 7.675782-7.648437h.078124.101563c4.265625.042969 7.691406 3.535156 7.648437 7.804687-.042968 4.242188-3.496093 7.648438-7.726562 7.648438zm0 0"/></g></svg>