<svg height="512pt" viewBox="0 -9 512 511" width="512pt" xmlns="http://www.w3.org/2000/svg"><path d="m337.9375 296.445312 147.101562 40.421876-35.832031 130.386718-147.101562-40.425781zm0 0" fill="#a09d9c"/><path d="m475.773438 370.503906-26.582032 96.722656-23.925781-6.578124 23.847656-86.789063c1.507813-5.484375 7.179688-8.710937 12.664063-7.203125zm0 0" fill="#c4e1e8"/><path d="m474.023438 376.871094-7.035157 25.589844-30.5 17.355468 7.03125-25.59375zm0 0" fill="#f0f5f7"/><path d="m465.566406 407.632812-3.917968 14.269532-30.503907 17.351562 3.921875-14.265625zm0 0" fill="#f0f5f7"/><path d="m349.878906 346.589844-23.851562 86.789062-23.929688-6.574218 26.582032-96.722657 13.992187 3.84375c5.488281 1.507813 8.714844 7.179688 7.207031 12.664063zm0 0" fill="#c4e1e8"/><path d="m349.234375 348.933594-7.035156 25.589844-30.503907 17.351562 7.035157-25.597656zm0 0" fill="#f0f5f7"/><path d="m340.777344 379.699219-3.917969 14.265625-30.503906 17.351562 3.921875-14.273437zm0 0" fill="#f0f5f7"/><path d="m400.71875 453.902344-50.144531-13.78125 18.28125-66.527344c1.507812-5.484375 7.175781-8.710938 12.664062-7.203125l30.277344 8.320313c5.484375 1.507812 8.710937 7.175781 7.203125 12.664062zm0 0" fill="#fab03c"/><path d="m431.378906 221.070312-113.679687 64.667969c-6.710938 3.816407-5.457031 13.84375 1.992187 15.890625l178.347656 49.011719c7.445313 2.046875 13.648438-5.933594 9.828126-12.644531l-64.667969-113.679688c-2.367188-4.160156-7.660157-5.613281-11.820313-3.246094zm0 0" fill="#f6cb43"/><path d="m498.039062 350.644531-9.46875-2.601562c.421876-1.925781.175782-4.050781-.96875-6.066407l-64.667968-113.679687c-.359375-.628906-.785156-1.195313-1.257813-1.703125l9.707031-5.519531c4.15625-2.375 9.453126-.917969 11.816407 3.246093l64.667969 113.679688c3.820312 6.714844-2.382813 14.691406-9.828126 12.644531zm0 0" fill="#fab03c"/><path d="m379.03125 418.476562c-.6875 0-1.386719-.09375-2.082031-.285156-4.109375-1.148437-6.554688-5.421875-5.40625-9.53125 1.148437-4.113281 5.371093-6.523437 9.476562-5.378906l.085938.027344c4.109375 1.144531 6.511719 5.40625 5.363281 9.515625-.953125 3.414062-4.058594 5.652343-7.4375 5.652343zm0 0"/><path d="m512 427.015625v46.371094c0 11.378906-9.226562 20.605469-20.605469 20.605469h-470.789062c-11.378907 0-20.605469-9.226563-20.605469-20.605469v-275.015625c0-100.300782 80.765625-182.847656 181.066406-182.898438 100.089844-.042968 181.257813 81.085938 181.257813 181.15625 0 2.171875-.039063 8.992188-.113281 16.246094-.09375 8.652344-5.429688 16.027344-12.96875 19.128906-4.070313 1.675782-8.765626 2.105469-13.707032.808594-9.042968-2.363281-15.15625-10.808594-15.15625-20.15625v-4.222656c0-44.957032-36.4375-81.402344-81.40625-81.402344-43.246094 0-78.625 33.726562-81.230468 76.324219 0 183.730469 287.71875 209.980469 344.570312 213.375 5.441406.328125 9.6875 4.832031 9.6875 10.285156zm0 0" fill="#38aaff"/><path d="m512 427.015625v22.019531l-30.90625-2.875c-34.714844-3.058594-94.796875-10.777344-155.535156-29.957031-164.253906-51.882813-198.722656-144.382813-198.722656-212.847656v-.949219l.050781-.945312c3.625-59.070313 52.859375-105.335938 112.085937-105.335938 28.039063 0 53.710938 10.320312 73.410156 27.378906 34.066407 37.140625 38.828126 79.550782 36.859376 108.5-4.070313 1.675782-8.765626 2.101563-13.707032.808594-9.042968-2.367188-15.15625-10.8125-15.15625-20.15625v-4.222656c0-44.957032-36.4375-81.40625-81.40625-81.40625-43.246094 0-78.625 33.730468-81.230468 76.328125 0 183.730469 287.71875 209.980469 344.570312 213.375 5.441406.328125 9.6875 4.832031 9.6875 10.285156zm0 0" fill="#60daff"/><path d="m205.675781 493.992188h-185.070312c-11.378907 0-20.605469-9.226563-20.605469-20.605469v-241.039063c19.171875 120.136719 102.027344 203.644532 205.675781 261.644532zm0 0" fill="#2081f6"/><path d="m233.292969 307.113281c-1.835938 0-3.679688-.648437-5.152344-1.972656-31.5-28.230469-46.945313-61.175781-47.21875-100.714844-.003906-.222656.003906-.441406.023437-.660156.976563-12.433594 5.828126-23.996094 14.019532-33.441406 2.796875-3.222657 7.675781-3.570313 10.898437-.777344 3.222657 2.800781 3.570313 7.679687.773438 10.902344-5.941407 6.847656-9.484375 15.214843-10.261719 24.207031.328125 34.789062 14.097656 63.898438 42.078125 88.976562 3.175781 2.847657 3.445313 7.734376.597656 10.910157-1.527343 1.703125-3.640625 2.570312-5.757812 2.570312zm0 0" fill="#38aaff"/><path d="m220.289062 169.242188c-3.066406 0-5.96875-1.835938-7.175781-4.859376-1.582031-3.964843.347657-8.460937 4.308594-10.042968 6.867187-2.742188 14.117187-4.136719 21.546875-4.136719 4.269531 0 7.726562 3.460937 7.726562 7.726563 0 4.269531-3.457031 7.726562-7.726562 7.726562-5.457031 0-10.777344 1.019531-15.816406 3.035156-.9375.375-1.910156.550782-2.863282.550782zm0 0" fill="#60daff"/><path d="m386.007812 149.171875c-3.410156 0-6.53125-2.277344-7.457031-5.726563-1.886719-7.046874-4.175781-14.054687-6.808593-20.835937-1.542969-3.980469.429687-8.457031 4.40625-10 3.980468-1.542969 8.457031.429687 10 4.410156 2.832031 7.296875 5.296874 14.84375 7.328124 22.429688 1.105469 4.121093-1.34375 8.355469-5.464843 9.460937-.667969.179688-1.339844.261719-2.003907.261719zm0 0" fill="#a0ecff"/><path d="m368.015625 103.855469c-2.746094 0-5.410156-1.472657-6.804687-4.058594-9.414063-17.441406-21.390626-33.484375-35.597657-47.683594-14.960937-14.953125-31.9375-27.410156-50.457031-37.027343-3.789062-1.96875-5.261719-6.632813-3.296875-10.417969 1.96875-3.789063 6.632813-5.261719 10.417969-3.296875 19.925781 10.34375 38.179687 23.742187 54.261718 39.8125 15.269532 15.261718 28.144532 32.511718 38.269532 51.273437 2.027344 3.757813.625 8.445313-3.128906 10.46875-1.167969.632813-2.425782.929688-3.664063.929688zm0 0" fill="#a0ecff"/><path d="m168.523438 413.914062c-1.648438 0-3.308594-.523437-4.710938-1.605468-5.8125-4.484375-11.472656-9.15625-16.820312-13.894532-3.191407-2.828124-3.488282-7.710937-.660157-10.90625 2.828125-3.191406 7.714844-3.488281 10.90625-.660156 5.085938 4.507813 10.472657 8.953125 16.007813 13.222656 3.378906 2.605469 4.007812 7.457032 1.398437 10.835938-1.519531 1.972656-3.808593 3.007812-6.121093 3.007812zm0 0" fill="#60daff"/><path d="m306.945312 482.867188c-.773437 0-1.554687-.117188-2.332031-.359376-42.640625-13.46875-80.484375-30.46875-112.476562-50.519531-3.617188-2.265625-4.710938-7.035156-2.445313-10.648437 2.265625-3.617188 7.035156-4.710938 10.652344-2.445313 30.878906 19.355469 67.527344 35.800781 108.925781 48.878907 4.070313 1.285156 6.324219 5.625 5.039063 9.691406-1.039063 3.296875-4.085938 5.402344-7.363282 5.402344zm0 0" fill="#60daff"/><path d="m119.753906 310.355469c-2.792968 0-5.488281-1.523438-6.863281-4.171875-16.382813-31.59375-24.691406-66.1875-24.691406-102.828125 0-4.269531 3.460937-7.726563 7.726562-7.726563 4.269531 0 7.726563 3.460938 7.726563 7.726563 0 34.140625 7.722656 66.34375 22.957031 95.710937 1.960937 3.789063.484375 8.453125-3.304687 10.417969-1.136719.589844-2.351563.871094-3.550782.871094zm0 0" fill="#2081f6"/><path d="m316.253906 453.398438c-.773437 0-1.554687-.117188-2.328125-.359376-17.855469-5.640624-34.957031-11.980468-50.835937-18.847656-3.914063-1.691406-5.71875-6.242187-4.023438-10.15625 1.695313-3.917968 6.242188-5.722656 10.15625-4.027344 15.398438 6.660157 32.003906 12.8125 49.355469 18.296876 4.070313 1.285156 6.324219 5.625 5.039063 9.691406-1.039063 3.296875-4.085938 5.402344-7.363282 5.402344zm0 0" fill="#2081f6"/><path d="m401.199219 474.195312c-.460938 0-.929688-.042968-1.398438-.128906-12.691406-2.320312-25.269531-4.9375-37.382812-7.777344-4.15625-.972656-6.734375-5.128906-5.761719-9.285156.976562-4.152344 5.140625-6.738281 9.285156-5.757812 11.871094 2.78125 24.195313 5.34375 36.640625 7.621094 4.195313.765624 6.976563 4.792968 6.207031 8.988281-.679687 3.730469-3.929687 6.339843-7.589843 6.339843zm0 0" fill="#2081f6"/><path d="m30.90625 206.089844c-4.269531 0-7.726562-3.457032-7.726562-7.722656 0-7.632813.539062-15.300782 1.605468-22.800782.601563-4.226562 4.503906-7.167968 8.738282-6.5625 4.222656.601563 7.160156 4.511719 6.5625 8.738282-.964844 6.78125-1.453126 13.71875-1.453126 20.625 0 4.265624-3.460937 7.722656-7.726562 7.722656zm0 0" fill="#60daff"/><path d="m178.734375 46.753906c0-4.488281-3.800781-8.035156-8.277344-7.730468-29.050781 1.960937-56.734375 11.921874-80.636719 29.101562-26.183593 18.820312-45.871093 44.792969-56.9375 75.109375-1.460937 4.007813.601563 8.445313 4.609376 9.90625.875.320313 1.769531.472656 2.648437.472656 3.15625 0 6.117187-1.949219 7.257813-5.082031 19.496093-53.410156 68.648437-90.234375 124.164062-94.066406 4.042969-.277344 7.171875-3.65625 7.171875-7.710938zm0 0" fill="#60daff"/><path d="m36.773438 289.242188h-.105469c-4.269531 0-7.726563-3.460938-7.726563-7.726563s3.460938-7.726563 7.726563-7.726563h.105469c4.269531 0 7.726562 3.460938 7.726562 7.726563s-3.457031 7.726563-7.726562 7.726563zm0 0" fill="#2081f6"/><path d="m139.695312 337.703125h-.105468c-4.269532 0-7.726563-3.457031-7.726563-7.726563 0-4.265624 3.457031-7.726562 7.726563-7.726562h.105468c4.269532 0 7.726563 3.460938 7.726563 7.726562 0 4.269532-3.457031 7.726563-7.726563 7.726563zm0 0" fill="#2081f6"/><g fill="#60daff"><path d="m130.828125 422.789062c-1.828125 0-3.664063-.648437-5.136719-1.960937-20.765625-18.511719-38.632812-39.050781-53.097656-61.058594-2.34375-3.5625-1.355469-8.355469 2.210938-10.699219 3.566406-2.34375 8.355468-1.355468 10.699218 2.210938 13.726563 20.878906 30.707032 40.398438 50.46875 58.011719 3.183594 2.839843 3.464844 7.722656.625 10.910156-1.523437 1.710937-3.640625 2.585937-5.769531 2.585937zm0 0"/><path d="m291.261719 245.113281c-.027344 0-.050781 0-.074219 0h-.109375c-4.265625-.039062-7.691406-3.53125-7.652344-7.796875.039063-4.242187 3.488281-7.65625 7.722657-7.65625h.074218.105469c4.269531.042969 7.695313 3.53125 7.65625 7.800782-.039063 4.242187-3.492187 7.652343-7.722656 7.652343zm0 0"/><path d="m306.996094 258.835938h-.109375c-4.265625 0-7.726563-3.460938-7.726563-7.726563s3.460938-7.726563 7.726563-7.726563h.109375c4.265625 0 7.726562 3.460938 7.726562 7.726563s-3.460937 7.726563-7.726562 7.726563zm0 0"/></g><path d="m285.191406 341.9375c-.027344 0-.050781 0-.074218 0h-.109376c-4.265624-.039062-7.691406-3.53125-7.652343-7.800781.039062-4.242188 3.492187-7.652344 7.722656-7.652344h.074219.109375c4.265625.039063 7.691406 3.53125 7.652343 7.800781-.039062 4.242188-3.492187 7.652344-7.722656 7.652344zm0 0" fill="#38aaff"/><path d="m390.683594 195.234375c-.027344 0-.050782 0-.074219 0h-.109375c-4.265625-.039063-7.691406-3.53125-7.652344-7.796875.039063-4.242188 3.492188-7.65625 7.722656-7.65625h.074219.109375c4.265625.042969 7.691406 3.535156 7.652344 7.800781-.039062 4.242188-3.492188 7.652344-7.722656 7.652344zm0 0" fill="#a0ecff"/><path d="m168.582031 93.582031h-.109375c-4.265625 0-7.726562-3.460937-7.726562-7.726562s3.460937-7.726563 7.726562-7.726563h.109375c4.265625 0 7.726563 3.460938 7.726563 7.726563s-3.460938 7.726562-7.726563 7.726562zm0 0" fill="#60daff"/></svg>