<svg height="512pt" viewBox="-23 0 512 512.00075" width="512pt" xmlns="http://www.w3.org/2000/svg"><path d="m254.347656 512h-42.59375c-6.148437 0-10.925781-5.347656-10.238281-11.453125l13.300781-118.152344h36.46875l13.300782 118.152344c.6875 6.105469-4.09375 11.453125-10.238282 11.453125zm0 0" fill="#ea998c"/><path d="m254.347656 511.996094h-8.851562l-14.582032-129.605469h20.367188l13.304688 118.152344c.6875 6.105469-4.09375 11.453125-10.238282 11.453125zm0 0" fill="#cf8671"/><path d="m462.527344 247.980469-116.160156 78.074219 37.441406 25.160156c2.867187 1.933594 2.191406 6.351562-1.136719 7.324218l-7.519531 2.207032c-7.355469 2.15625-10.757813 10.625-6.949219 17.273437l15.640625 27.28125c2.082031 3.621094-1.957031 7.660157-5.578125 5.589844l-27.28125-15.644531c-6.648437-3.816406-15.117187-.414063-17.277344 6.949218l-2.210937 7.511719c-.976563 3.328125-5.382813 4.015625-7.316406 1.136719l-22.617188-33.640625c-8.929688-13.289063-28.15625-14.160156-38.253906-1.746094l-22.980469 28.25c-3.75 4.613281-10.800781 4.613281-14.554687 0l-22.976563-28.25c-10.097656-12.414062-29.324219-11.542969-38.253906 1.746094l-22.617188 33.640625c-1.933593 2.878906-6.34375 2.191406-7.316406-1.136719l-2.214844-7.511719c-2.15625-7.363281-10.625-10.765624-17.273437-6.949218l-27.28125 15.644531c-3.621094 2.070313-7.660156-1.96875-5.578125-5.589844l15.640625-27.28125c3.808594-6.648437.402344-15.117187-6.949219-17.273437l-7.519531-2.207032c-3.328125-.972656-4.003906-5.390624-1.136719-7.324218l6.988281-4.695313 30.449219-20.464843-116.160156-78.074219c-5.683594-3.816407-4.332031-12.527344 2.234375-14.453125l14.84375-4.359375c14.519531-4.257813 21.234375-20.96875 13.710937-34.089844l-30.871093-53.839844c-4.097657-7.148437 3.871093-15.128906 11.019531-11.03125l53.839843 30.875c13.128907 7.53125 29.839844.804688 34.097657-13.710937l4.351562-14.847656c1.933594-6.5625 10.644531-7.90625 14.460938-2.222657l53.851562 80.117188-25.277343-128.910157c-1.320313-6.714843 5.789062-11.929687 11.800781-8.648437l13.570312 7.417969c13.277344 7.25 29.851563.1875 33.808594-14.414063l16.242187-59.898437c2.15625-7.953125 13.429688-7.953125 15.585938 0l16.242188 59.898437c3.960937 14.601563 20.53125 21.664063 33.8125 14.414063l13.570312-7.417969c6.007812-3.28125 13.117188 1.933594 11.796875 8.648437l-25.277344 128.914063 53.851563-80.117187c3.816406-5.683594 12.527344-4.34375 14.460937 2.222656l4.351563 14.84375c4.257812 14.519531 20.96875 21.242187 34.097656 13.710937l26-14.902343 27.84375-15.96875c7.144531-4.097657 15.117188 3.882812 11.019531 11.027343l-30.875 53.839844c-7.519531 13.121094-.804687 29.832031 13.710938 34.089844l14.847656 4.363281c6.5625 1.921875 7.914063 10.632812 2.230469 14.449219zm0 0" fill="#fab03c"/><g fill="#fd8f3e"><path d="m462.527344 247.980469-116.160156 78.074219 37.441406 25.160156c2.867187 1.933594 2.191406 6.351562-1.136719 7.324218l-7.519531 2.207032c-7.355469 2.15625-10.757813 10.625-6.949219 17.273437l15.640625 27.28125c2.082031 3.621094-1.957031 7.660157-5.578125 5.589844l-27.28125-15.644531c-6.648437-3.816406-15.117187-.414063-17.277344 6.949218l-2.210937 7.511719c-.976563 3.328125-5.382813 4.015625-7.316406 1.136719l-22.617188-33.640625c-8.929688-13.289063-28.15625-14.160156-38.253906-1.746094l-22.980469 28.25c-3.75 4.613281-10.800781 4.613281-14.554687 0l-22.976563-28.25c-10.097656-12.414062-29.324219-11.542969-38.253906 1.746094l-22.617188 33.640625c-1.933593 2.878906-6.34375 2.191406-7.316406-1.136719l-2.214844-7.511719c-2.15625-7.363281-10.625-10.765624-17.273437-6.949218l-27.28125 15.644531c-3.621094 2.070313-7.660156-1.96875-5.578125-5.589844l15.640625-27.28125c3.808594-6.648437.402344-15.117187-6.949219-17.273437l-7.519531-2.207032c-3.328125-.972656-4.003906-5.390624-1.136719-7.324218l6.988281-4.695313c254.441406 11.140625 319.40625-115.101562 334.464844-200.339843l27.84375-15.96875c7.148438-4.097657 15.117188 3.882812 11.019531 11.027343l-30.871093 53.839844c-7.523438 13.121094-.808594 29.832031 13.710937 34.089844l14.84375 4.363281c6.5625 1.921875 7.914063 10.632812 2.230469 14.449219zm0 0"/><path d="m401.578125 232.851562-34.125-.167968 21.816406-20.757813c3.089844-2.941406 3.210938-7.832031.269531-10.925781-2.941406-3.089844-7.832031-3.210938-10.921874-.269531l-22.671876 21.570312-.171874-35.257812c-.023438-4.253907-3.476563-7.6875-7.726563-7.6875-.011719 0-.023437 0-.039063 0-4.265624.023437-7.707031 3.5-7.6875 7.765625l.242188 49.816406-99.789062 94.953125v-174.097656l35.539062-35.1875c3.03125-3.003907 3.054688-7.894531.050781-10.929688-3-3.03125-7.894531-3.054687-10.925781-.050781l-24.664062 24.421875v-34.5625c0-4.269531-3.457032-7.726563-7.726563-7.726563-4.265625 0-7.726563 3.457032-7.726563 7.726563v34.5625l-24.660156-24.421875c-3.03125-3.003906-7.925781-2.980469-10.925781.050781-3.003906 3.03125-2.980469 7.925781.050781 10.929688l35.535156 35.1875v174.097656l-99.734374-94.902344.246093-49.867187c.019531-4.265625-3.421875-7.742188-7.6875-7.765625-.015625 0-.027343 0-.039062 0-4.25 0-7.707031 3.4375-7.726563 7.6875l-.171875 35.308593-22.722656-21.621093c-3.09375-2.941407-7.984375-2.820313-10.925781.269531-2.941406 3.09375-2.820313 7.984375.273437 10.925781l21.8125 20.757813-34.070312.167968c-4.265625.019532-7.707031 3.496094-7.6875 7.765626.019531 4.253906 3.476562 7.6875 7.722656 7.6875h.039063l50.15625-.246094 112.917968 107.449218c1.492188 1.421876 3.410156 2.128907 5.328125 2.128907 1.914063 0 3.832031-.707031 5.324219-2.128907l112.921875-107.449218 50.203125.246094h.039062c4.25 0 7.707032-3.433594 7.726563-7.6875.023437-4.269532-3.417969-7.746094-7.6875-7.765626zm0 0"/></g></svg>