<svg height="512pt" viewBox="0 -17 512 512" width="512pt" xmlns="http://www.w3.org/2000/svg"><path d="m341.113281 148.453125c-21.996093 12.207031-35.597656 33.082031-37.730469 54.1875-.273437 2.703125 1.289063 5.308594 3.828126 6.277344 5.453124 2.074219 11.753906 1.820312 17.257812-1.230469 4.921875-2.734375 8.273438-7.199219 9.730469-12.210938 5.023437 1.414063 10.582031.933594 15.507812-1.800781 4.925781-2.730469 8.273438-7.195312 9.730469-12.210937 5.027344 1.417968 10.585938.9375 15.511719-1.796875s8.273437-7.199219 9.730469-12.210938c5.023437 1.414063 10.585937.9375 15.511718-1.796875 5.5-3.054687 9.046875-8.265625 10.171875-13.992187.523438-2.667969-.863281-5.371094-3.300781-6.570313-19.042969-9.355468-43.949219-8.855468-65.949219 3.355469zm0 0" fill="#00fbaa"/><path d="m398.472656 136.886719c4.433594-3.742188 11.054688-3.171875 14.792969 1.257812 25.425781 30.160157 36.804687 67.859375 32.902344 109.03125-2.578125 27.191407-10.976563 47.40625-13.207031 52.390625l-18.035157-11.265625c2.722657-6.742187 8.539063-23.109375 10.402344-43.816406 3.210937-35.644531-6.25-66.867187-28.117187-92.804687-3.734376-4.433594-3.171876-11.058594 1.261718-14.792969zm0 0" fill="#f4bc8e"/><path d="m429.507812 90.242188c-19.832031 15.480468-30.019531 38.21875-28.84375 59.398437.152344 2.710937 2.101563 5.046875 4.761719 5.605469 5.710938 1.203125 11.890625-.027344 16.851563-3.902344 4.441406-3.464844 7.054687-8.398438 7.710937-13.574219 5.1875.617188 10.605469-.722656 15.042969-4.191406 4.441406-3.464844 7.054688-8.398437 7.710938-13.574219 5.183593.617188 10.601562-.722656 15.042968-4.191406 4.4375-3.464844 7.050782-8.398438 7.710938-13.574219 5.183594.617188 10.601562-.722656 15.039062-4.1875 4.960938-3.875 7.65625-9.574219 7.875-15.40625.101563-2.714843-1.6875-5.171875-4.285156-5.976562-20.261719-6.28125-44.789062-1.910157-64.617188 13.574219zm0 0" fill="#00fbaa"/><path d="m370.679688 93.417969c-22.800782-10.636719-47.683594-9.394531-66.019532 1.273437-2.351562 1.367188-3.542968 4.160156-2.835937 6.785156 1.523437 5.632813 5.429687 10.582032 11.128906 13.246094 5.105469 2.378906 10.6875 2.46875 15.597656.707032 1.804688 4.898437 5.457031 9.117187 10.5625 11.5 5.105469 2.382812 10.6875 2.472656 15.597657.707031 1.804687 4.898437 5.457031 9.117187 10.5625 11.5 5.105468 2.382812 10.6875 2.472656 15.597656.707031 1.804687 4.898438 5.457031 9.121094 10.5625 11.5 5.703125 2.664062 12.003906 2.476562 17.300781.023438 2.464844-1.144532 3.839844-3.855469 3.378906-6.53125-3.605469-20.90625-18.636719-40.777344-41.433593-51.417969zm0 0" fill="#78ffce"/><path d="m444.191406 152.890625c0 8.832031-7.164062 15.992187-15.996094 15.992187-8.832031 0-15.992187-7.160156-15.992187-15.992187s7.160156-15.996094 15.992187-15.996094c8.832032 0 15.996094 7.164063 15.996094 15.996094zm0 0" fill="#f8e98e"/><path d="m424.160156 169.265625c0 8.835937-7.160156 15.996094-15.996094 15.996094-8.832031 0-15.992187-7.160157-15.992187-15.996094 0-8.832031 7.160156-15.992187 15.992187-15.992187 8.835938 0 15.996094 7.160156 15.996094 15.992187zm0 0" fill="#fab03c"/><path d="m440.195312 281.820312c-1.105468 0-2.234374-.238281-3.304687-.746093l-16.835937-7.984375c-3.855469-1.828125-5.5-6.4375-3.671876-10.292969 1.832032-3.855469 6.4375-5.496094 10.292969-3.667969l16.839844 7.984375c3.851563 1.828125 5.496094 6.433594 3.667969 10.289063-1.320313 2.789062-4.09375 4.417968-6.988282 4.417968zm0 0" fill="#efa66f"/><path d="m442.542969 255.097656c-.601563 0-1.210938-.070312-1.820313-.214844l-14.523437-3.503906c-4.148438-1.003906-6.699219-5.179687-5.695313-9.324218 1-4.148438 5.171875-6.703126 9.320313-5.699219l14.523437 3.503906c4.148438 1 6.699219 5.175781 5.699219 9.324219-.855469 3.539062-4.019531 5.914062-7.503906 5.914062zm0 0" fill="#efa66f"/><path d="m443.027344 230.066406c-.152344 0-.304688-.003906-.460938-.011718l-13.902344-.820313c-4.261718-.253906-7.511718-3.910156-7.257812-8.167969.25-4.261718 3.917969-7.492187 8.167969-7.257812l13.902343.820312c4.257813.25 7.507813 3.90625 7.257813 8.167969-.242187 4.105469-3.648437 7.269531-7.707031 7.269531zm0 0" fill="#efa66f"/><path d="m426.109375 205.484375c-4.070313 0-7.480469-3.183594-7.707031-7.296875-.238282-4.261719 3.023437-7.90625 7.285156-8.144531l14.933594-.832031c4.261718-.226563 7.90625 3.023437 8.144531 7.285156.234375 4.261718-3.027344 7.90625-7.285156 8.144531l-14.9375.832031c-.144531.007813-.289063.011719-.433594.011719zm0 0" fill="#efa66f"/><path d="m512 326.703125v131.15625c0 11.378906-9.226562 20.605469-20.605469 20.605469h-470.789062c-11.378907 0-20.605469-9.226563-20.605469-20.605469v-131.15625c0-5.519531 4.476562-10 10-10h492c5.523438 0 10 4.480469 10 10zm0 0" fill="#38aaff"/><path d="m512 399.644531v58.214844c0 11.378906-9.226562 20.605469-20.605469 20.605469h-470.789062c-11.378907 0-20.605469-9.226563-20.605469-20.605469v-58.214844zm0 0" fill="#2081f6"/><path d="m512 326.703125v23.535156h-512v-23.535156c0-5.519531 4.476562-10 10-10h492c5.523438 0 10 4.480469 10 10zm0 0" fill="#a0ecff"/><path d="m494.550781 407.898438h-412.566406c-4.269531 0-7.726563-3.457032-7.726563-7.722657 0-4.269531 3.457032-7.726562 7.726563-7.726562h412.566406c4.269531 0 7.726563 3.457031 7.726563 7.726562 0 4.265625-3.457032 7.722657-7.726563 7.722657zm0 0" fill="#a0ecff"/><path d="m457.617188 434.679688h-125.3125c-4.265626 0-7.726563-3.460938-7.726563-7.726563s3.460937-7.726563 7.726563-7.726563h125.3125c4.265624 0 7.726562 3.460938 7.726562 7.726563s-3.460938 7.726563-7.726562 7.726563zm0 0" fill="#a0ecff"/><path d="m228.792969 134.414062c0 44.730469-36.261719 80.996094-80.996094 80.996094s-80.996094-36.265625-80.996094-80.996094c0-44.734374 36.261719-81 80.996094-81s80.996094 36.265626 80.996094 81zm0 0" fill="#f6cb43"/><path d="m223.382812 163.558594c-11.691406 30.328125-41.125 51.847656-75.582031 51.847656-34.460937 0-63.894531-21.519531-75.597656-51.847656 11.703125-30.328125 41.136719-51.847656 75.597656-51.847656 34.457031 0 63.890625 21.519531 75.582031 51.847656zm0 0" fill="#fab03c"/><g fill="#f8e98e"><path d="m147.796875 32.898438c-4.269531 0-7.726563-3.460938-7.726563-7.726563v-17.445313c0-4.269531 3.457032-7.726562 7.726563-7.726562 4.265625 0 7.726563 3.460938 7.726563 7.726562v17.445313c0 4.265625-3.460938 7.726563-7.726563 7.726563zm0 0"/><path d="m147.796875 268.828125c-4.269531 0-7.726563-3.460937-7.726563-7.726563v-17.445312c0-4.269531 3.457032-7.726562 7.726563-7.726562 4.265625 0 7.726563 3.457031 7.726563 7.726562v17.445312c0 4.265626-3.460938 7.726563-7.726563 7.726563zm0 0"/><path d="m93.183594 47.535156c-2.671875 0-5.269532-1.386718-6.699219-3.863281l-8.722656-15.109375c-2.132813-3.695312-.867188-8.421875 2.828125-10.554688 3.691406-2.132812 8.421875-.867187 10.554687 2.828126l8.722657 15.109374c2.132812 3.695313.867187 8.417969-2.828126 10.550782-1.21875.703125-2.546874 1.039062-3.855468 1.039062zm0 0"/><path d="m211.144531 251.855469c-2.667969 0-5.265625-1.386719-6.695312-3.863281l-8.722657-15.109376c-2.132812-3.695312-.867187-8.421874 2.828126-10.554687 3.695312-2.132813 8.421874-.867187 10.554687 2.828125l8.71875 15.109375c2.136719 3.695313.867187 8.421875-2.824219 10.554687-1.21875.699219-2.546875 1.035157-3.859375 1.035157zm0 0"/><path d="m53.183594 87.519531c-1.3125 0-2.640625-.332031-3.855469-1.035156l-15.109375-8.722656c-3.695312-2.132813-4.960938-6.859375-2.828125-10.554688 2.132813-3.695312 6.859375-4.960937 10.554687-2.828125l15.109376 8.722656c3.695312 2.132813 4.960937 6.859376 2.828124 10.554688-1.433593 2.480469-4.03125 3.863281-6.699218 3.863281zm0 0"/><path d="m257.503906 205.484375c-1.3125 0-2.640625-.335937-3.855468-1.035156l-15.109376-8.722657c-3.695312-2.132812-4.960937-6.859374-2.828124-10.554687 2.132812-3.695313 6.859374-4.960937 10.554687-2.828125l15.105469 8.722656c3.695312 2.132813 4.964844 6.859375 2.828125 10.554688-1.429688 2.476562-4.027344 3.863281-6.695313 3.863281zm0 0"/><path d="m274.484375 142.140625h-17.445313c-4.269531 0-7.726562-3.460937-7.726562-7.726563 0-4.269531 3.457031-7.726562 7.726562-7.726562h17.445313c4.265625 0 7.726563 3.460938 7.726563 7.726562 0 4.265626-3.460938 7.726563-7.726563 7.726563zm0 0"/><path d="m38.554688 142.140625h-17.445313c-4.265625 0-7.726563-3.460937-7.726563-7.726563 0-4.269531 3.460938-7.726562 7.726563-7.726562h17.445313c4.265624 0 7.726562 3.460938 7.726562 7.726562 0 4.265626-3.460938 7.726563-7.726562 7.726563zm0 0"/><path d="m242.410156 87.519531c-2.671875 0-5.269531-1.382812-6.699218-3.863281-2.132813-3.695312-.867188-8.421875 2.828124-10.554688l15.109376-8.722656c3.691406-2.132812 8.417968-.867187 10.550781 2.828125 2.136719 3.695313.871093 8.421875-2.828125 10.554688l-15.105469 8.722656c-1.214844.703125-2.546875 1.035156-3.855469 1.035156zm0 0"/><path d="m38.089844 205.484375c-2.671875 0-5.269532-1.386719-6.699219-3.863281-2.132813-3.695313-.867187-8.421875 2.828125-10.554688l15.109375-8.722656c3.695313-2.132812 8.417969-.867188 10.554687 2.828125 2.132813 3.695313.863282 8.421875-2.828124 10.554687l-15.109376 8.722657c-1.21875.699219-2.546874 1.035156-3.855468 1.035156zm0 0"/><path d="m202.410156 47.535156c-1.3125 0-2.640625-.335937-3.855468-1.039062-3.695313-2.132813-4.960938-6.855469-2.828126-10.550782l8.722657-15.109374c2.132812-3.695313 6.855469-4.960938 10.554687-2.828126 3.695313 2.132813 4.960938 6.859376 2.824219 10.554688l-8.71875 15.109375c-1.433594 2.476563-4.03125 3.863281-6.699219 3.863281zm0 0"/><path d="m84.445312 251.855469c-1.3125 0-2.640624-.335938-3.855468-1.035157-3.695313-2.136718-4.960938-6.859374-2.828125-10.554687l8.722656-15.109375c2.132813-3.695312 6.859375-4.960938 10.554687-2.828125 3.695313 2.132813 4.960938 6.859375 2.828126 10.554687l-8.722657 15.109376c-1.433593 2.476562-4.03125 3.863281-6.699219 3.863281zm0 0"/></g><path d="m216.035156 399.644531c-6.011718 0-10.753906-5.125-10.28125-11.113281 5.664063-71.609375 65.566406-127.953125 138.632813-127.953125 73.0625 0 132.964843 56.34375 138.628906 127.953125.472656 5.988281-4.269531 11.113281-10.28125 11.113281zm0 0" fill="#fbdbb7"/><path d="m338.390625 333.007812-28.261719 6.351563-13.304687-31.875c-2.464844-5.910156 1-12.613281 7.25-14.015625l19.171875-4.3125c6.132812-1.378906 12.058594 3.007812 12.53125 9.277344zm0 0" fill="#fc4830"/><path d="m280.132812 381.789062c0-34.390624 27.875-62.265624 62.261719-62.265624 34.390625 0 62.265625 27.875 62.265625 62.265624zm0 0" fill="#fbdbb7"/><path d="m282.21875 373.480469c-.65625 0-1.324219-.085938-1.988281-.261719-4.125-1.097656-6.578125-5.328125-5.484375-9.453125 8.136718-30.597656 35.953125-51.96875 67.648437-51.96875 9.445313 0 18.613281 1.851563 27.246094 5.503906 3.929687 1.660157 5.769531 6.195313 4.105469 10.125-1.660156 3.929688-6.195313 5.769531-10.125 4.105469-6.71875-2.839844-13.859375-4.28125-21.226563-4.28125-24.699219 0-46.378906 16.648438-52.710937 40.484375-.921875 3.460937-4.046875 5.746094-7.464844 5.746094zm0 0" fill="#f4bc8e"/><path d="m472.738281 399.648438h-26.332031c0-70.527344-52.484375-128.785157-120.539062-137.847657 6.054687-.816406 12.238281-1.226562 18.523437-1.226562 73.058594 0 132.960937 56.347656 138.625 127.957031.472656 5.992188-4.269531 11.117188-10.277344 11.117188zm0 0" fill="#f4bc8e"/><path d="m407.722656 353.378906c-.027344 0-.050781 0-.074218 0h-.109376c-4.265624-.039062-7.691406-3.53125-7.652343-7.800781.042969-4.238281 3.492187-7.652344 7.726562-7.652344h.074219.105469c4.265625.042969 7.691406 3.535157 7.652343 7.800781-.039062 4.242188-3.492187 7.652344-7.722656 7.652344zm0 0" fill="#f4bc8e"/><path d="m387.023438 365.515625h-.105469c-4.269531 0-7.726563-3.460937-7.726563-7.726563 0-4.269531 3.457032-7.726562 7.726563-7.726562h.105469c4.265624 0 7.726562 3.460938 7.726562 7.726562 0 4.265626-3.460938 7.726563-7.726562 7.726563zm0 0" fill="#f4bc8e"/><path d="m256.054688 358.382812h-.109376c-4.265624 0-7.726562-3.460937-7.726562-7.726562 0-4.269531 3.460938-7.726562 7.726562-7.726562h.109376c4.265624 0 7.722656 3.457031 7.722656 7.726562 0 4.265625-3.457032 7.726562-7.722656 7.726562zm0 0" fill="#f4bc8e"/></svg>