<svg height="512pt" viewBox="0 -2 512 512" width="512pt" xmlns="http://www.w3.org/2000/svg"><path d="m365.019531 125.527344c-16.179687 0-29.34375-13.164063-29.34375-29.34375 0-4.269532 3.457031-7.726563 7.726563-7.726563 4.265625 0 7.726562 3.460938 7.726562 7.726563 0 7.660156 6.230469 13.890625 13.890625 13.890625 7.65625 0 13.886719-6.230469 13.886719-13.890625s-6.230469-13.890625-13.886719-13.890625h-347.59375c-4.265625 0-7.726562-3.457031-7.726562-7.726563 0-4.265625 3.460937-7.722656 7.726562-7.722656h347.59375c16.179688 0 29.34375 13.160156 29.34375 29.339844 0 16.179687-13.164062 29.34375-29.34375 29.34375zm0 0" fill="#a0ecff"/><path d="m427.441406 58.683594h-306.25c-4.269531 0-7.726562-3.457032-7.726562-7.722656 0-4.269532 3.457031-7.726563 7.726562-7.726563h306.25c7.65625 0 13.886719-6.230469 13.886719-13.890625s-6.230469-13.890625-13.886719-13.890625c-7.660156 0-13.890625 6.230469-13.890625 13.890625 0 4.265625-3.460937 7.722656-7.726562 7.722656s-7.726563-3.457031-7.726563-7.722656c0-16.179688 13.164063-29.34375 29.34375-29.34375 16.179688 0 29.34375 13.164062 29.34375 29.34375-.003906 16.175781-13.164062 29.339844-29.34375 29.339844zm0 0" fill="#a0ecff"/><path d="m82.621094 144.832031-27.035156 51.804688h72.519531l-27.039063-51.804688c-3.890625-7.453125-14.554687-7.453125-18.445312 0zm0 0" fill="#e81610"/><path d="m91.84375 310.65625c37.257812 0 67.464844-30.203125 67.464844-67.464844l-118.109375-92.566406c-6.828125-5.351562-16.820313-.488281-16.820313 8.1875v84.378906c0 37.261719 30.207032 67.464844 67.464844 67.464844zm0 0" fill="#fc4830"/><path d="m91.84375 310.65625c-37.257812 0-67.464844-30.203125-67.464844-67.464844l118.105469-92.566406c6.828125-5.351562 16.824219-.488281 16.824219 8.1875v84.378906c0 37.261719-30.207032 67.464844-67.464844 67.464844zm0 0" fill="#ff756e"/><path d="m159.3125 158.816406v83.339844c0 37.1875-29.65625 68.15625-66.84375 68.492188-14.125.128906-27.273438-4.089844-38.171875-11.398438 4.289063.792969 8.734375 1.179688 13.269531 1.117188 37.058594-.5 66.527344-31.402344 66.527344-68.460938v-74.695312l8.394531-6.582032c6.828125-5.351562 16.824219-.488281 16.824219 8.1875zm0 0" fill="#fc4830"/><path d="m79.734375 476.769531h-19.113281c-33.476563 0-60.61718775-27.140625-60.61718775-60.617187v-67.898438c0-5.746094 4.65624975-10.40625 10.40234375-10.40625h19.109375c33.480469 0 60.621094 27.140625 60.621094 60.621094v67.898438c0 5.746093-4.660157 10.402343-10.402344 10.402343zm0 0" fill="#00fbaa"/><path d="m90.136719 398.472656v67.894532c0 5.742187-4.660157 10.402343-10.40625 10.402343h-10.734375v-71.035156c0-25.820313-20.933594-46.753906-46.753906-46.753906h-22.242188v-10.722657c0-5.746093 4.660156-10.40625 10.402344-10.40625h19.113281c33.476563 0 60.621094 27.140626 60.621094 60.621094zm0 0" fill="#00df97"/><path d="m90.136719 506.191406c-4.269531 0-7.726563-3.460937-7.726563-7.726562v-187.808594c0-4.269531 3.457032-7.726562 7.726563-7.726562 4.265625 0 7.726562 3.460937 7.726562 7.726562v187.808594c0 4.265625-3.460937 7.726562-7.726562 7.726562zm0 0" fill="#be7560"/><path d="m252.019531 201.011719-27.039062 51.804687h72.519531l-27.035156-51.804687c-3.890625-7.453125-14.558594-7.453125-18.445313 0zm0 0" fill="#e81610"/><path d="m261.242188 366.835938c37.257812 0 67.460937-30.207032 67.460937-67.464844l-118.105469-92.566406c-6.828125-5.355469-16.820312-.488282-16.820312 8.1875v84.378906c0 37.261718 30.203125 67.464844 67.464844 67.464844zm0 0" fill="#fc4830"/><path d="m261.242188 366.835938c-37.261719 0-67.464844-30.207032-67.464844-67.464844l118.105468-92.566406c6.828126-5.355469 16.820313-.488282 16.820313 8.1875v84.378906c0 37.261718-30.203125 67.464844-67.460937 67.464844zm0 0" fill="#ff756e"/><path d="m328.707031 214.996094v83.339844c0 37.1875-29.65625 68.152343-66.839843 68.492187-14.128907.128906-27.273438-4.09375-38.171876-11.398437 4.289063.792968 8.734376 1.175781 13.269532 1.117187 37.054687-.5 66.523437-31.402344 66.523437-68.460937v-74.695313l8.398438-6.582031c6.828125-5.355469 16.820312-.488282 16.820312 8.1875zm0 0" fill="#fc4830"/><path d="m249.128906 476.769531h-19.109375c-33.476562 0-60.617187-27.140625-60.617187-60.617187v-11.71875c0-5.746094 4.65625-10.40625 10.402344-10.40625h19.109374c33.480469 0 60.621094 27.140625 60.621094 60.621094v11.71875c0 5.746093-4.660156 10.402343-10.40625 10.402343zm0 0" fill="#00fbaa"/><path d="m259.535156 454.652344v11.714844c0 5.742187-4.664062 10.402343-10.40625 10.402343h-10.734375v-14.855469c0-25.820312-20.933593-46.753906-46.753906-46.753906h-22.242187v-10.726562c0-5.742188 4.660156-10.402344 10.402343-10.402344h19.113281c33.476563 0 60.621094 27.140625 60.621094 60.621094zm0 0" fill="#00df97"/><path d="m259.535156 506.191406c-4.269531 0-7.726562-3.460937-7.726562-7.726562v-131.628906c0-4.269532 3.457031-7.726563 7.726562-7.726563 4.265625 0 7.726563 3.457031 7.726563 7.726563v131.628906c0 4.265625-3.460938 7.726562-7.726563 7.726562zm0 0" fill="#be7560"/><path d="m445.324219 145.984375 27.039062 51.804687h-72.519531l27.035156-51.804687c3.890625-7.453125 14.558594-7.453125 18.445313 0zm0 0" fill="#e81610"/><path d="m436.101562 311.808594c-37.257812 0-67.460937-30.203125-67.460937-67.460938l118.105469-92.570312c6.828125-5.351563 16.820312-.488282 16.820312 8.1875v84.382812c0 37.257813-30.203125 67.460938-67.464844 67.460938zm0 0" fill="#fc4830"/><path d="m436.101562 311.808594c37.261719 0 67.464844-30.203125 67.464844-67.460938l-118.105468-92.570312c-6.828126-5.351563-16.820313-.488282-16.820313 8.1875v84.382812c0 37.257813 30.203125 67.460938 67.460937 67.460938zm0 0" fill="#ff756e"/><path d="m368.636719 159.96875v83.339844c0 37.1875 29.65625 68.15625 66.839843 68.496094 14.128907.125 27.277344-4.09375 38.171876-11.402344-4.289063.792968-8.734376 1.179687-13.269532 1.117187-37.054687-.496093-66.523437-31.398437-66.523437-68.460937v-74.695313l-8.398438-6.582031c-6.828125-5.351562-16.820312-.484375-16.820312 8.1875zm0 0" fill="#fc4830"/><path d="m446.375 460.953125h15.726562c27.554688 0 49.894532-22.335937 49.894532-49.890625v-55.886719c0-4.730469-3.835938-8.5625-8.5625-8.5625h-15.730469c-27.554687 0-49.890625 22.335938-49.890625 49.894531v55.882813c0 4.730469 3.832031 8.5625 8.5625 8.5625zm0 0" fill="#00fbaa"/><path d="m437.8125 396.511719v55.878906c0 4.726563 3.835938 8.5625 8.5625 8.5625h8.835938v-58.464844c0-21.253906 17.230468-38.484375 38.480468-38.484375h18.308594v-8.828125c0-4.726562-3.835938-8.5625-8.5625-8.5625h-15.730469c-27.554687 0-49.894531 22.339844-49.894531 49.898438zm0 0" fill="#00df97"/><path d="m437.8125 507.34375c-4.269531 0-7.726562-3.457031-7.726562-7.726562v-185.726563c0-4.269531 3.457031-7.726563 7.726562-7.726563 4.265625 0 7.722656 3.460938 7.722656 7.726563v185.726563c0 4.269531-3.457031 7.726562-7.722656 7.726562zm0 0" fill="#be7560"/><path d="m427.40625 432.269531h-19.109375c-33.476563 0-60.617187-27.140625-60.617187-60.621093v-11.71875c0-5.746094 4.65625-10.402344 10.402343-10.402344h19.109375c33.480469 0 60.621094 27.136718 60.621094 60.617187v11.71875c0 5.746094-4.660156 10.40625-10.40625 10.40625zm0 0" fill="#00df97"/><path d="m437.8125 410.148438v11.714843c0 5.742188-4.664062 10.40625-10.40625 10.40625h-10.734375v-14.859375c0-25.820312-20.933594-46.75-46.753906-46.75h-22.242188v-10.726562c0-5.742188 4.660157-10.40625 10.402344-10.40625h19.109375c33.480469 0 60.625 27.144531 60.625 60.621094zm0 0" fill="#00b579"/><path d="m233.828125 115.664062h-.109375c-4.265625 0-7.726562-3.460937-7.726562-7.726562 0-4.269531 3.460937-7.726562 7.726562-7.726562h.109375c4.265625 0 7.726563 3.460937 7.726563 7.726562s-3.460938 7.726562-7.726563 7.726562zm0 0" fill="#60daff"/><path d="m251.199219 131.015625h-.105469c-4.269531 0-7.726562-3.460937-7.726562-7.726563 0-4.269531 3.457031-7.726562 7.726562-7.726562h.105469c4.269531 0 7.726562 3.457031 7.726562 7.726562 0 4.265626-3.457031 7.726563-7.726562 7.726563zm0 0" fill="#60daff"/><path d="m437.863281 91.695312c-.023437 0-.046875 0-.070312 0h-.109375c-4.265625-.039062-7.691406-3.53125-7.652344-7.800781.039062-4.242187 3.492188-7.652343 7.722656-7.652343h.074219.109375c4.265625.039062 7.691406 3.53125 7.652344 7.800781-.039063 4.242187-3.492188 7.652343-7.726563 7.652343zm0 0" fill="#60daff"/><path d="m397.835938 468.605469h-.105469c-4.269531 0-7.726563-3.460938-7.726563-7.726563 0-4.269531 3.457032-7.726562 7.726563-7.726562h.105469c4.269531 0 7.726562 3.460937 7.726562 7.726562s-3.457031 7.726563-7.726562 7.726563zm0 0" fill="#be7560"/><path d="m397.835938 468.605469h-.105469c-4.269531 0-7.726563-3.460938-7.726563-7.726563 0-4.269531 3.457032-7.726562 7.726563-7.726562h.105469c4.269531 0 7.726562 3.460937 7.726562 7.726562s-3.457031 7.726563-7.726562 7.726563zm0 0" fill="#be7560"/><path d="m377.925781 482.210938h-.105469c-4.269531 0-7.726562-3.457032-7.726562-7.726563 0-4.265625 3.457031-7.726563 7.726562-7.726563h.105469c4.269531 0 7.726563 3.460938 7.726563 7.726563 0 4.269531-3.457032 7.726563-7.726563 7.726563zm0 0" fill="#00df97"/><path d="m128.15625 365.570312h-.105469c-4.269531 0-7.726562-3.460937-7.726562-7.726562s3.457031-7.726562 7.726562-7.726562h.105469c4.269531 0 7.726562 3.460937 7.726562 7.726562s-3.457031 7.726562-7.726562 7.726562zm0 0" fill="#be7560"/><g fill="#00df97"><path d="m56.808594 38.308594c9.71875 1.359375 19.945312-1.695313 27.433594-9.183594 7.488281-7.488281 10.542968-17.714844 9.183593-27.433594-9.722656-1.359375-19.945312 1.695313-27.433593 9.183594-7.488282 7.488281-10.542969 17.714844-9.183594 27.433594zm0 0"/><path d="m330.886719 155.378906c1.355469-9.722656-1.699219-19.945312-9.1875-27.433594-7.488281-7.488281-17.710938-10.546874-27.433594-9.1875-1.359375 9.722657 1.699219 19.945313 9.183594 27.433594 7.488281 7.488282 17.714843 10.546875 27.4375 9.1875zm0 0"/><path d="m497.984375 108.585938c1.359375-9.722657-1.695313-19.945313-9.183594-27.433594-7.488281-7.488282-17.710937-10.546875-27.433593-9.1875-1.359376 9.722656 1.695312 19.945312 9.183593 27.433594 7.488281 7.488281 17.714844 10.546874 27.433594 9.1875zm0 0"/><path d="m157.566406 307.132812c1.359375-9.722656-1.695312-19.945312-9.183594-27.433593-7.488281-7.488281-17.710937-10.542969-27.433593-9.183594-1.359375 9.722656 1.695312 19.945313 9.183593 27.433594 7.488282 7.488281 17.714844 10.542969 27.433594 9.183593zm0 0"/></g><path d="m184.191406 27.726562c-.023437 0-.046875 0-.074218 0h-.105469c-4.269531-.039062-7.695313-3.53125-7.65625-7.800781.042969-4.242187 3.492187-7.652343 7.726562-7.652343h.074219.105469c4.269531.039062 7.695312 3.53125 7.652343 7.800781-.035156 4.242187-3.488281 7.652343-7.722656 7.652343zm0 0" fill="#60daff"/></svg>