<svg height="512pt" viewBox="-21 0 512 512.001" width="512pt" xmlns="http://www.w3.org/2000/svg"><path d="m452.265625 319.101562-46.726563 20.605469-12.078124-6.972656 3.535156-6.121094c3.515625-6.09375 1.429687-13.882812-4.664063-17.402343-6.097656-3.515626-13.886719-1.429688-17.402343 4.664062l-3.535157 6.121094-58.921875-34.019532 41.539063-18.316406c4.621093-2.039062 7.601562-6.609375 7.601562-11.65625 0-5.050781-2.980469-9.621094-7.601562-11.660156l-41.539063-18.316406 58.921875-34.019532 3.535157 6.121094c2.359374 4.085938 6.640624 6.371094 11.046874 6.371094 2.160157 0 4.351563-.550781 6.355469-1.707031 6.09375-3.519531 8.179688-11.308594 4.664063-17.402344l-3.535156-6.121094 12.078124-6.972656 46.726563 20.605469c1.671875.738281 3.417969 1.085937 5.132813 1.085937 4.894531 0 9.5625-2.835937 11.664062-7.601562 2.839844-6.4375-.078125-13.957031-6.515625-16.796875l-29.664063-13.082032 19.230469-11.101562c6.097657-3.519531 8.183594-11.308594 4.664063-17.402344-3.515625-6.09375-11.308594-8.183594-17.402344-4.664062l-19.230469 11.105468 3.503907-32.230468c.757812-6.996094-4.292969-13.28125-11.289063-14.042969-6.984375-.765625-13.28125 4.292969-14.042969 11.289063l-5.519531 50.773437-12.074219 6.96875-3.535156-6.117187c-3.515625-6.09375-11.308594-8.183594-17.402344-4.664063-6.09375 3.515625-8.179687 11.308594-4.664062 17.402344l3.535156 6.121093-58.925781 34.019532 4.910156-45.136719c.542969-5.015625-1.925781-9.882813-6.296875-12.40625-4.371094-2.527344-9.820312-2.230469-13.894531.75l-36.632813 26.816406v-68.039062h7.070313c7.035156 0 12.738281-5.703125 12.738281-12.738281 0-7.039063-5.703125-12.742188-12.738281-12.742188h-7.070313v-13.945312l41.210938-30.167969c5.675781-4.15625 6.910156-12.125 2.753906-17.804688-4.15625-5.679687-12.125-6.910156-17.804688-2.753906l-26.160156 19.152344v-22.210938c0-7.035156-5.707031-12.738281-12.742187-12.738281-7.035157 0-12.738281 5.703125-12.738281 12.738281v22.210938l-26.160157-19.148438c-5.675781-4.160156-13.648437-2.925781-17.804687 2.753907-4.15625 5.675781-2.921875 13.644531 2.753906 17.800781l41.210938 30.167969v13.945312h-7.070313c-7.035156 0-12.738281 5.703125-12.738281 12.738281 0 7.035157 5.703125 12.742188 12.738281 12.742188h7.070313v68.039062l-36.636719-26.816406c-4.070313-2.984375-9.523438-3.277344-13.894531-.753906-4.371094 2.523437-6.839844 7.390625-6.292969 12.410156l4.910156 45.136719-58.929687-34.023438 3.535156-6.121094c3.519531-6.09375 1.433594-13.882812-4.664063-17.402343-6.09375-3.515625-13.882812-1.429688-17.398437 4.664062l-3.535156 6.121094-12.074219-6.972656-5.523438-50.769531c-.761719-6.996094-7.054687-12.058594-14.042969-11.289063-6.992187.761719-12.046874 7.046875-11.285156 14.042969l3.503906 32.226562-19.234374-11.105468c-6.09375-3.515626-13.882813-1.429688-17.398438 4.664062-3.519531 6.09375-1.433594 13.886719 4.660156 17.402344l19.234375 11.105468-29.664062 13.078126c-6.4375 2.839843-9.355469 10.359374-6.519531 16.796874 2.105468 4.765626 6.769531 7.601563 11.664062 7.601563 1.71875 0 3.460938-.347656 5.132812-1.085937l46.730469-20.601563 12.078125 6.972656-3.535156 6.117188c-3.519531 6.09375-1.429688 13.886719 4.664062 17.402343 2.003907 1.160157 4.195313 1.710938 6.355469 1.710938 4.402344 0 8.6875-2.285156 11.046875-6.371094l3.53125-6.121094 58.925782 34.019532-41.539063 18.316406c-4.621094 2.035156-7.601563 6.609375-7.601563 11.65625s2.980469 9.621094 7.601563 11.65625l41.539063 18.316406-58.925782 34.019532-3.53125-6.121094c-3.519531-6.089844-11.308594-8.179688-17.402344-4.660156-6.09375 3.515624-8.183593 11.308593-4.664062 17.402343l3.535156 6.117188-12.078125 6.972656-46.730469-20.601563c-6.4375-2.839843-13.957031.078126-16.796874 6.515626-2.835938 6.4375.082031 13.957031 6.519531 16.796874l29.660156 13.078126-19.230469 11.105468c-6.09375 3.515625-8.179687 11.308594-4.664062 17.402344 2.359375 4.085938 6.640625 6.371094 11.046875 6.371094 2.160156 0 4.351562-.550782 6.355469-1.710938l19.234374-11.101562-3.507812 32.230468c-.757812 6.992188 4.292969 13.28125 11.289062 14.039063.46875.054687.933594.078125 1.394532.078125 6.414062 0 11.9375-4.835938 12.648437-11.363281l5.519531-50.773438 12.078126-6.972656 3.53125 6.121094c2.359374 4.089843 6.640624 6.371093 11.046874 6.371093 2.160157 0 4.351563-.550781 6.355469-1.707031 6.09375-3.519531 8.183594-11.308593 4.664063-17.402343l-3.535156-6.121094 58.925781-34.019532-4.90625 45.132813c-.546875 5.019531 1.921875 9.886719 6.292969 12.410156 1.976562 1.144531 4.175781 1.707031 6.371093 1.707031 2.648438 0 5.292969-.824218 7.523438-2.460937l36.636719-26.816406v68.042969h-7.070313c-7.035156 0-12.738281 5.703124-12.738281 12.738281 0 7.035156 5.703125 12.738281 12.738281 12.738281h7.070313v13.945312l-41.210938 30.167969c-5.675781 4.15625-6.910156 12.125-2.753906 17.804688 4.15625 5.679687 12.128906 6.910156 17.804687 2.753906l26.160157-19.148437v22.207031c0 7.035156 5.703124 12.738281 12.738281 12.738281 7.035156 0 12.742187-5.703125 12.742187-12.738281v-22.207031l26.15625 19.148437c2.269532 1.660156 4.90625 2.460937 7.515625 2.460937 3.925781 0 7.792969-1.808593 10.289063-5.214843 4.15625-5.679688 2.921875-13.648438-2.753906-17.804688l-41.207032-30.167969v-13.945312h7.066406c7.035157 0 12.742188-5.703125 12.742188-12.738281 0-7.035157-5.707031-12.738281-12.742188-12.738281h-7.066406v-68.042969l36.628906 26.816406c4.074219 2.980469 9.523438 3.277344 13.898438.753906 4.371094-2.523437 6.839844-7.390625 6.292969-12.410156l-4.90625-45.132813 58.921875 34.019532-3.53125 6.121094c-3.519532 6.09375-1.433594 13.882812 4.660156 17.402343 2.007812 1.15625 4.199219 1.707031 6.359375 1.707031 4.402344 0 8.683594-2.285156 11.042969-6.371093l3.535156-6.121094 12.078125 6.972656 5.519531 50.769531c.707032 6.527344 6.230469 11.367188 12.648438 11.367188.460937 0 .925781-.027344 1.394531-.078125 6.992187-.761719 12.046875-7.046875 11.285156-14.042969l-3.503906-32.226562 19.234375 11.101562c2.007812 1.160156 4.195312 1.710938 6.355469 1.710938 4.402343 0 8.6875-2.285156 11.046875-6.371094 3.515625-6.09375 1.429687-13.886719-4.664063-17.402344l-19.234375-11.105468 29.664063-13.078126c6.4375-2.839843 9.355469-10.359374 6.519531-16.796874-2.839844-6.4375-10.363281-9.355469-16.796875-6.515626zm-134.972656-63.101562-32.167969 14.183594-24.570312-14.183594 24.570312-14.183594zm-41.105469-71.203125-3.800781 34.953125-24.570313 14.183594v-28.367188zm-82.222656 0 28.371094 20.769531v28.367188l-24.570313-14.183594zm-41.109375 71.203125 32.171875-14.183594 24.570312 14.183594-24.570312 14.183594zm41.109375 71.203125 3.800781-34.953125 24.570313-14.183594v28.367188zm82.222656 0-28.371094-20.769531v-28.367188l24.570313 14.183594zm0 0" fill="#a0ecff"/><g fill="#38aaff"><path d="m138.0625 397.339844h-.105469c-4.269531 0-7.726562-3.460938-7.726562-7.726563 0-4.269531 3.460937-7.726562 7.726562-7.726562h.105469c4.269531 0 7.726562 3.457031 7.726562 7.726562 0 4.265625-3.457031 7.726563-7.726562 7.726563zm0 0"/><path d="m145.492188 436.433594h-.105469c-4.269531 0-7.726563-3.457032-7.726563-7.722656 0-4.269532 3.460938-7.726563 7.726563-7.726563h.105469c4.269531 0 7.726562 3.457031 7.726562 7.726563 0 4.265624-3.457031 7.722656-7.726562 7.722656zm0 0"/><path d="m352.605469 73.3125c-.023438 0-.050781 0-.074219 0h-.105469c-4.269531-.039062-7.695312-3.53125-7.65625-7.796875.039063-4.242187 3.492188-7.65625 7.722657-7.65625h.074218.109375c4.265625.042969 7.691407 3.535156 7.652344 7.800781-.039063 4.242188-3.488281 7.652344-7.722656 7.652344zm0 0"/><path d="m405.140625 237.105469h-.109375c-4.265625 0-7.726562-3.460938-7.726562-7.726563 0-4.269531 3.460937-7.726562 7.726562-7.726562h.109375c4.265625 0 7.722656 3.457031 7.722656 7.726562 0 4.265625-3.457031 7.726563-7.722656 7.726563zm0 0"/><path d="m337.257812 451.886719h-.105468c-4.269532 0-7.726563-3.457031-7.726563-7.726563 0-4.265625 3.457031-7.726562 7.726563-7.726562h.105468c4.269532 0 7.726563 3.460937 7.726563 7.726562 0 4.269532-3.457031 7.726563-7.726563 7.726563zm0 0"/><path d="m146.546875 119.671875h-.109375c-4.265625 0-7.722656-3.460937-7.722656-7.726563 0-4.269531 3.457031-7.726562 7.722656-7.726562h.109375c4.265625 0 7.726563 3.457031 7.726563 7.726562 0 4.265626-3.460938 7.726563-7.726563 7.726563zm0 0"/><path d="m76.425781 48.03125h-.105469c-4.269531 0-7.726562-3.457031-7.726562-7.722656 0-4.269532 3.460938-7.726563 7.726562-7.726563h.105469c4.269531 0 7.726563 3.457031 7.726563 7.726563 0 4.265625-3.457032 7.722656-7.726563 7.722656zm0 0"/></g></svg>