<svg height="512pt" viewBox="0 -47 512 512" width="512pt" xmlns="http://www.w3.org/2000/svg"><path d="m512 208.609375c0 92.734375-75.175781 167.90625-167.90625 167.90625s-167.90625-75.171875-167.90625-167.90625c0-92.730469 75.175781-167.90625 167.90625-167.90625s167.90625 75.175781 167.90625 167.90625zm0 0" fill="#fab03c"/><path d="m483.628906 302.035156c-30.128906 44.925782-81.378906 74.484375-139.53125 74.484375-92.734375 0-167.90625-75.171875-167.90625-167.90625s75.171875-167.90625 167.90625-167.90625c7.472656 0 14.828125.488281 22.042969 1.441407-17.917969 26.703124-28.375 58.84375-28.375 93.421874 0 85.257813 63.542969 155.679688 145.863281 166.464844zm0 0" fill="#fd8f3e"/><path d="m306.386719 208.613281c0 84.609375-68.589844 153.1875-153.199219 153.1875-27.714844 0-53.710938-7.367187-76.144531-20.242187-21.863281-12.546875-40.332031-30.339844-53.710938-51.640625-14.777343-23.5625-23.332031-51.429688-23.332031-81.304688 0-43.785156 18.371094-83.289062 47.828125-111.207031 27.453125-26.023438 64.535156-41.980469 105.359375-41.980469 81.15625 0 147.574219 63.09375 152.859375 142.921875.230469 3.390625.339844 6.8125.339844 10.265625zm0 0" fill="#1e6be7"/><path d="m306.386719 208.613281c0 84.609375-68.589844 153.1875-153.199219 153.1875-54.730469 0-102.757812-28.707031-129.855469-71.882812-.230469-3.390625-.339843-6.8125-.339843-10.265625 0-84.609375 68.589843-153.1875 153.199218-153.1875 54.730469 0 102.757813 28.707031 129.855469 71.878906.230469 3.394531.339844 6.816406.339844 10.269531zm0 0" fill="#3e4eb7"/><path d="m131.453125 263.222656v24.175782c0 5.984374-2.679687 11.65625-7.300781 15.457031l-47.109375 38.703125c-21.863281-12.546875-40.332031-30.335938-53.710938-51.640625-.757812-1.210938-1.5-2.441407-2.230469-3.671875-13.40625-22.761719-21.101562-49.296875-21.101562-77.632813 0-43.785156 18.371094-83.289062 47.828125-111.207031l56.0625 12.789062c9.101563 2.082032 15.558594 10.175782 15.558594 19.511719v27.824219c0 6.984375-3.644531 13.457031-9.617188 17.089844l-28.996093 17.652344c-5.972657 3.628906-9.617188 10.105468-9.617188 17.089843v5c0 8.625 5.523438 16.28125 13.71875 18.992188l32.796875 10.875c8.199219 2.714843 13.71875 10.367187 13.71875 18.992187zm0 0" fill="#38aaff"/><path d="m131.453125 263.222656v24.175782c0 5.984374-2.679687 11.65625-7.300781 15.457031l-47.109375 38.703125c-21.863281-12.546875-40.332031-30.335938-53.710938-51.640625-.757812-1.210938-1.5-2.441407-2.230469-3.671875 1.191407-3.730469 1.890626-6.101563 1.890626-6.59375 0-64.554688 39.933593-119.789063 96.457031-142.332032v20.210938c0 6.984375-3.644531 13.460938-9.617188 17.089844l-28.996093 17.652344c-5.972657 3.632812-9.617188 10.105468-9.617188 17.089843v5.003907c0 8.625 5.523438 16.277343 13.71875 18.988281l32.796875 10.878906c8.199219 2.710937 13.71875 10.363281 13.71875 18.988281zm0 0" fill="#2081f6"/><g fill="#dde9ed"><path d="m171.71875 16.296875c-.234375 0-.472656-.011719-.710938-.035156-5.886718-.535157-11.882812-.808594-17.816406-.808594-4.269531 0-7.726562-3.460937-7.726562-7.726563 0-4.265624 3.460937-7.726562 7.726562-7.726562 6.402344 0 12.867188.296875 19.222656.875 4.25.386719 7.378907 4.148438 6.992188 8.398438-.367188 4.007812-3.734375 7.023437-7.6875 7.023437zm0 0"/><path d="m206.199219 410.15625c-3.394531 0-6.511719-2.257812-7.449219-5.695312-1.121094-4.117188 1.304688-8.363282 5.421875-9.488282 10.769531-2.9375 21.355469-6.851562 31.460937-11.625 3.855469-1.828125 8.464844-.175781 10.285157 3.683594 1.824219 3.855469.175781 8.460938-3.683594 10.285156-10.917969 5.164063-22.355469 9.386719-33.996094 12.566406-.679687.183594-1.363281.273438-2.039062.273438zm62.871093-29.695312c-2.425781 0-4.808593-1.136719-6.316406-3.265626-2.464844-3.484374-1.636718-8.308593 1.847656-10.769531 9.117188-6.453125 17.738282-13.742187 25.621094-21.679687 3.003906-3.027344 7.894532-3.042969 10.925782-.03125 3.027343 3.003906 3.042968 7.898437.035156 10.925781-8.507813 8.5625-17.816406 16.4375-27.660156 23.398437-1.355469.960938-2.910157 1.421876-4.453126 1.421876zm48.988282-49.324219c-1.523438 0-3.066406-.453125-4.410156-1.390625-3.5-2.441406-4.359376-7.257813-1.917969-10.757813 6.398437-9.179687 12.03125-18.964843 16.730469-29.082031 1.800781-3.871094 6.394531-5.546875 10.265624-3.75 3.867188 1.796875 5.546876 6.390625 3.75 10.261719-5.078124 10.929687-11.160156 21.5-18.074218 31.410156-1.5 2.152344-3.902344 3.308594-6.34375 3.308594zm29.296875-63.050781c-.65625 0-1.324219-.085938-1.988281-.265626-4.125-1.09375-6.582032-5.324218-5.484376-9.449218 2.863282-10.773438 4.800782-21.890625 5.753907-33.046875.367187-4.253907 4.121093-7.410157 8.359375-7.039063 4.25.363282 7.402344 4.109375 7.039062 8.359375-1.03125 12.046875-3.125 24.054688-6.21875 35.695313-.917968 3.460937-4.042968 5.746094-7.460937 5.746094zm5.957031-69.265626c-3.964844 0-7.339844-3.039062-7.6875-7.0625-.964844-11.15625-2.90625-22.273437-5.777344-33.042968-1.101562-4.121094 1.351563-8.355469 5.472656-9.457032 4.117188-1.09375 8.359376 1.351563 9.457032 5.476563 3.101562 11.636719 5.203125 23.644531 6.242187 35.695313.367188 4.25-2.78125 7.996093-7.03125 8.359374-.226562.019532-.453125.03125-.675781.03125zm-17.902344-67.164062c-2.910156 0-5.699218-1.65625-7.007812-4.46875-4.707032-10.113281-10.34375-19.890625-16.75-29.0625-2.445313-3.5-1.589844-8.316406 1.910156-10.761719 3.496094-2.441406 8.3125-1.585937 10.757812 1.910157 6.917969 9.90625 13.003907 20.464843 18.09375 31.390624 1.800782 3.867188.121094 8.464844-3.746093 10.265626-1.054688.492187-2.164063.726562-3.257813.726562zm-39.804687-57c-1.984375 0-3.964844-.761719-5.476563-2.277344-7.890625-7.929687-16.515625-15.214844-25.636718-21.660156-3.484376-2.460938-4.316407-7.28125-1.855469-10.765625 2.460937-3.484375 7.285156-4.316406 10.769531-1.855469 9.847656 6.957032 19.160156 14.824219 27.675781 23.382813 3.011719 3.023437 3 7.914062-.027343 10.925781-1.507813 1.5-3.480469 2.25-5.449219 2.25zm-56.808594-40.097656c-1.105469 0-2.226563-.238282-3.289063-.738282-10.113281-4.773437-20.699218-8.675781-31.476562-11.609374-4.117188-1.121094-6.546875-5.363282-5.425781-9.484376 1.121093-4.117187 5.371093-6.535156 9.484375-5.425781 11.640625 3.167969 23.085937 7.386719 34.007812 12.542969 3.859375 1.820312 5.511719 6.425781 3.691406 10.285156-1.316406 2.792969-4.09375 4.429688-6.992187 4.429688zm0 0"/><path d="m153.191406 417.222656c-4.269531 0-7.726562-3.457031-7.726562-7.726562 0-4.265625 3.460937-7.726563 7.726562-7.726563 5.953125 0 11.945313-.273437 17.816406-.808593 4.257813-.394532 8.007813 2.738281 8.398438 6.988281.386719 4.25-2.742188 8.011719-6.992188 8.398437-6.335937.582032-12.800781.875-19.222656.875zm0 0"/></g><path d="m446.636719 151.421875c0 16.578125-13.441407 30.019531-30.019531 30.019531-16.574219 0-30.015626-13.441406-30.015626-30.019531s13.441407-30.015625 30.015626-30.015625c16.578124 0 30.019531 13.4375 30.019531 30.015625zm0 0" fill="#fbdbb7"/><path d="m446.636719 151.417969c0 16.582031-13.4375 30.019531-30.019531 30.019531-16.578126 0-30.015626-13.441406-30.015626-30.019531 0-3.871094.730469-7.582031 2.082032-10.976563 4.371094 11.148438 15.226562 19.042969 27.933594 19.042969 12.707031 0 23.566406-7.894531 27.9375-19.042969 1.351562 3.394532 2.082031 7.105469 2.082031 10.976563zm0 0" fill="#f4bc8e"/><path d="m481.363281 218.617188c0 11.320312-9.175781 20.5-20.496093 20.5-11.320313 0-20.5-9.179688-20.5-20.5 0-11.320313 9.179687-20.496094 20.5-20.496094 11.320312 0 20.496093 9.175781 20.496093 20.496094zm0 0" fill="#fbdbb7"/><path d="m481.363281 218.617188c0 11.320312-9.175781 20.496093-20.496093 20.496093-11.324219 0-20.5-9.175781-20.5-20.496093 0-2.644532.5-5.179688 1.421874-7.496094 2.984376 7.609375 10.398438 13 19.078126 13 8.675781 0 16.089843-5.390625 19.074218-13 .921875 2.316406 1.421875 4.851562 1.421875 7.496094zm0 0" fill="#f4bc8e"/><path d="m416.722656 232.84375h-.105468c-4.265626 0-7.726563-3.460938-7.726563-7.726562 0-4.265626 3.460937-7.726563 7.726563-7.726563h.105468c4.265625 0 7.726563 3.460937 7.726563 7.726563 0 4.265624-3.460938 7.726562-7.726563 7.726562zm0 0" fill="#fe672d"/><path d="m412.773438 103.464844c-.023438 0-.050782 0-.074219 0h-.105469c-4.265625-.042969-7.691406-3.535156-7.652344-7.804688.042969-4.238281 3.496094-7.648437 7.726563-7.648437h.074219.105468c4.265625.042969 7.691406 3.535156 7.652344 7.800781-.042969 4.242188-3.492188 7.652344-7.726562 7.652344zm0 0" fill="#fd8f3e"/><path d="m391.378906 93.308594c-.027344 0-.054687 0-.078125 0h-.105469c-4.265624-.042969-7.691406-3.535156-7.648437-7.800782.039063-4.242187 3.492187-7.652343 7.722656-7.652343h.078125.101563c4.269531.042969 7.691406 3.535156 7.652343 7.800781-.042968 4.242188-3.492187 7.652344-7.722656 7.652344zm0 0" fill="#fd8f3e"/><path d="m350.671875 350.410156h-.101563c-4.269531 0-7.726562-3.457031-7.726562-7.726562 0-4.265625 3.457031-7.722656 7.726562-7.722656h.101563c4.269531 0 7.726563 3.457031 7.726563 7.722656 0 4.269531-3.457032 7.726562-7.726563 7.726562zm0 0" fill="#fab03c"/></svg>