<svg height="512pt" viewBox="-58 0 512 512" width="512pt" xmlns="http://www.w3.org/2000/svg"><path d="m328.246094 388.605469v68.6875c0 5.605469-4.542969 10.148437-10.148438 10.148437h-238.105468c-5.605469 0-10.148438-4.542968-10.148438-10.148437v-67.332031c0-71.597657 57.65625-130.585938 129.257812-130.558594 35.660157.015625 67.933594 14.476562 91.300782 37.84375 23.382812 23.386718 37.84375 55.6875 37.84375 91.359375zm0 0" fill="#38aaff"/><path d="m137.546875 363.417969v104.023437h-15.226563v-104.023437c0-4.203125 3.410157-7.613281 7.613282-7.613281s7.613281 3.410156 7.613281 7.613281zm0 0" fill="#2081f6"/><path d="m328.253906 415.429688v41.863281c0 5.605469-4.546875 10.148437-10.152344 10.148437h-238.105468c-5.605469 0-10.148438-4.542968-10.148438-10.148437v-41.863281zm0 0" fill="#a0ecff"/><path d="m122.320312 415.429688h15.226563v52.011718h-15.226563zm0 0" fill="#60daff"/><path d="m271.492188 24.085938c0 13.300781-10.785157 24.085937-24.085938 24.085937-13.304688 0-24.085938-10.785156-24.085938-24.085937 0-13.300782 10.78125-24.085938 24.085938-24.085938 13.300781 0 24.085938 10.785156 24.085938 24.085938zm0 0" fill="#00fbaa"/><path d="m284.203125 128.148438v-18.90625c0-47.03125-38.125-85.15625-85.152344-85.15625-47.03125 0-85.15625 38.125-85.15625 85.15625v18.90625zm0 0" fill="#00df97"/><path d="m284.203125 109.238281v18.914063h-26.316406v-14.589844c0-43.480469-30.65625-79.804688-71.535157-88.53125 4.140626-.628906 8.382813-.945312 12.699219-.945312 47.027344-.003907 85.152344 38.121093 85.152344 85.152343zm0 0" fill="#00b579"/><path d="m123.433594 122.53125v71.769531c0 41.761719 33.855468 75.617188 75.617187 75.617188s75.613281-33.855469 75.613281-75.617188v-71.769531zm0 0" fill="#fbdbb7"/><path d="m274.664062 122.53125v71.769531c0 20.878907-8.464843 39.789063-22.152343 53.46875-13.679688 13.679688-32.582031 22.144531-53.460938 22.144531-4.0625 0-8.054687-.320312-11.949219-.945312 16.097657-2.546875 30.496094-10.1875 41.515626-21.199219 13.679687-13.679687 22.144531-32.589843 22.144531-53.46875v-71.769531zm0 0" fill="#f4bc8e"/><path d="m163.558594 181.640625c-4.203125 0-7.660156-3.410156-7.660156-7.613281s3.359374-7.609375 7.5625-7.609375h.097656c4.203125 0 7.613281 3.40625 7.613281 7.609375s-3.410156 7.613281-7.613281 7.613281zm0 0" fill="#7c3c2f"/><path d="m234.636719 181.640625c-4.203125 0-7.660157-3.410156-7.660157-7.613281s3.359376-7.609375 7.5625-7.609375h.097657c4.203125 0 7.609375 3.40625 7.609375 7.609375s-3.40625 7.613281-7.609375 7.613281zm0 0" fill="#7c3c2f"/><path d="m206.972656 229.390625h-15.84375c-4.207031 0-7.613281-3.410156-7.613281-7.613281v-47.75c0-4.203125 3.410156-7.609375 7.613281-7.609375s7.609375 3.40625 7.609375 7.609375v40.140625h8.234375c4.203125 0 7.609375 3.40625 7.609375 7.609375s-3.40625 7.613281-7.609375 7.613281zm0 0" fill="#fd8f3e"/><path d="m281.378906 150.152344h-164.65625c-8.828125 0-15.984375-7.15625-15.984375-15.980469v-12.042969c0-8.828125 7.15625-15.980468 15.984375-15.980468h164.65625c8.824219 0 15.980469 7.152343 15.980469 15.980468v12.042969c0 8.824219-7.15625 15.980469-15.980469 15.980469zm0 0" fill="#00fbaa"/><path d="m150.945312 157.765625c-13.011718 0-23.59375-10.585937-23.59375-23.59375v-12.042969c0-13.011718 10.582032-23.59375 23.59375-23.59375 4.203126 0 7.609376 3.40625 7.609376 7.609375 0 4.207031-3.40625 7.613281-7.609376 7.613281-4.617187 0-8.371093 3.753907-8.371093 8.371094v12.042969c0 4.613281 3.753906 8.367187 8.371093 8.367187 4.203126 0 7.609376 3.40625 7.609376 7.613282 0 4.203125-3.40625 7.613281-7.609376 7.613281zm0 0" fill="#00df97"/><path d="m191.128906 157.765625c-13.011718 0-23.59375-10.585937-23.59375-23.59375v-12.042969c0-13.011718 10.582032-23.59375 23.59375-23.59375 4.203125 0 7.609375 3.40625 7.609375 7.609375 0 4.207031-3.410156 7.613281-7.609375 7.613281-4.617187 0-8.371094 3.753907-8.371094 8.371094v12.042969c0 4.613281 3.753907 8.367187 8.371094 8.367187 4.203125 0 7.609375 3.40625 7.609375 7.613282 0 4.203125-3.40625 7.613281-7.609375 7.613281zm0 0" fill="#00df97"/><path d="m231.308594 157.765625c-13.007813 0-23.589844-10.585937-23.589844-23.59375v-12.042969c0-13.011718 10.582031-23.59375 23.589844-23.59375 4.203125 0 7.613281 3.40625 7.613281 7.609375 0 4.207031-3.410156 7.613281-7.613281 7.613281-4.613282 0-8.367188 3.753907-8.367188 8.371094v12.042969c0 4.613281 3.753906 8.367187 8.367188 8.367187 4.203125 0 7.613281 3.40625 7.613281 7.613282 0 4.203125-3.410156 7.613281-7.613281 7.613281zm0 0" fill="#00df97"/><path d="m271.492188 157.765625c-13.011719 0-23.59375-10.585937-23.59375-23.59375v-12.042969c0-13.011718 10.582031-23.59375 23.59375-23.59375 4.203124 0 7.609374 3.40625 7.609374 7.609375 0 4.207031-3.40625 7.613281-7.609374 7.613281-4.617188 0-8.371094 3.753907-8.371094 8.371094v12.042969c0 4.613281 3.753906 8.367187 8.371094 8.367187 4.203124 0 7.609374 3.40625 7.609374 7.613282 0 4.203125-3.40625 7.613281-7.609374 7.613281zm0 0" fill="#00df97"/><path d="m228.542969 512c-4.203125 0-7.613281-3.40625-7.613281-7.613281v-29.550781c0-4.207032 3.410156-7.613282 7.613281-7.613282s7.609375 3.40625 7.609375 7.613282v29.550781c0 4.207031-3.40625 7.613281-7.609375 7.613281zm0 0" fill="#00b579"/><path d="m248.515625 512c-4.203125 0-7.613281-3.40625-7.613281-7.613281v-29.550781c0-4.207032 3.410156-7.613282 7.613281-7.613282s7.613281 3.40625 7.613281 7.613282v29.550781c0 4.207031-3.410156 7.613281-7.613281 7.613281zm0 0" fill="#00b579"/><path d="m268.488281 512c-4.203125 0-7.609375-3.40625-7.609375-7.613281v-29.550781c0-4.207032 3.40625-7.613282 7.609375-7.613282 4.207031 0 7.613281 3.40625 7.613281 7.613282v29.550781c0 4.207031-3.40625 7.613281-7.613281 7.613281zm0 0" fill="#00b579"/><path d="m288.464844 512c-4.203125 0-7.613282-3.40625-7.613282-7.613281v-29.550781c0-4.207032 3.410157-7.613282 7.613282-7.613282s7.609375 3.40625 7.609375 7.613282v29.550781c0 4.207031-3.40625 7.613281-7.609375 7.613281zm0 0" fill="#00b579"/><path d="m220.925781 281.355469h75.148438v193.472656h-75.148438zm0 0" fill="#00df97"/><path d="m220.925781 393.382812h75.148438v44.09375h-75.148438zm0 0" fill="#f0f5f7"/><path d="m282.8125 300.375h-167.527344c-15.789062 0-28.589844-12.800781-28.589844-28.589844 0-15.789062 12.800782-28.589844 28.589844-28.589844h167.527344c15.789062 0 28.589844 12.800782 28.589844 28.589844 0 15.789063-12.800782 28.589844-28.589844 28.589844zm0 0" fill="#00df97"/><path d="m311.40625 271.785156c0 7.894532-3.199219 15.039063-8.375 20.214844s-12.320312 8.375-20.214844 8.375h-167.535156c-15.78125 0-28.589844-12.796875-28.589844-28.589844 0-3.824218.753906-7.46875 2.121094-10.808594 4.261719 10.421876 14.515625 17.78125 26.46875 17.78125h167.535156c7.894532 0 15.039063-3.199218 20.214844-8.375 2.667969-2.667968 4.8125-5.855468 6.253906-9.40625 1.367188 3.339844 2.121094 6.984376 2.121094 10.808594zm0 0" fill="#00b579"/><g fill="#60daff"><path d="m338.121094 304.316406c-.023438 0-.046875 0-.070313 0h-.105469c-4.203124-.042968-7.578124-3.480468-7.539062-7.683594.039062-4.179687 3.441406-7.539062 7.609375-7.539062h.074219.101562c4.207032.039062 7.582032 3.480469 7.539063 7.683594-.039063 4.175781-3.4375 7.539062-7.609375 7.539062zm0 0"/><path d="m368.53125 101.53125h-.105469c-4.203125 0-7.613281-3.40625-7.613281-7.609375 0-4.207031 3.410156-7.613281 7.613281-7.613281h.105469c4.203125 0 7.613281 3.40625 7.613281 7.613281 0 4.203125-3.410156 7.609375-7.613281 7.609375zm0 0"/><path d="m48.808594 304.316406c-.023438 0-.046875 0-.070313 0h-.105469c-4.203124-.042968-7.578124-3.480468-7.539062-7.683594.039062-4.203124 3.480469-7.546874 7.683594-7.539062h.105468c4.203126.039062 7.578126 3.480469 7.539063 7.683594-.042969 4.175781-3.441406 7.539062-7.613281 7.539062zm0 0"/><path d="m33.765625 329.976562h-.105469c-4.207031 0-7.613281-3.40625-7.613281-7.609374 0-4.207032 3.410156-7.613282 7.613281-7.613282h.105469c4.203125 0 7.609375 3.40625 7.609375 7.613282 0 4.203124-3.40625 7.609374-7.609375 7.609374zm0 0"/><path d="m71.929688 73.066406h-.105469c-4.203125 0-7.609375-3.40625-7.609375-7.613281 0-4.203125 3.40625-7.609375 7.609375-7.609375h.105469c4.203124 0 7.609374 3.40625 7.609374 7.609375 0 4.207031-3.40625 7.613281-7.609374 7.613281zm0 0"/><path d="m387.496094 203.507812h-7.773438c2.296875-2.988281 2.085938-7.28125-.648437-10.015624-2.734375-2.730469-7.027344-2.945313-10.011719-.648438v-7.773438c0-4.207031-3.410156-7.613281-7.613281-7.613281s-7.609375 3.40625-7.609375 7.613281v7.773438c-2.984375-2.296875-7.277344-2.082031-10.011719.648438-2.734375 2.734374-2.949219 7.027343-.652344 10.015624h-7.773437c-4.203125 0-7.613282 3.40625-7.613282 7.609376 0 4.203124 3.410157 7.609374 7.613282 7.609374h7.773437c-2.292969 2.988282-2.082031 7.277344.652344 10.011719 1.484375 1.488281 3.433594 2.230469 5.382813 2.230469 1.632812 0 3.265624-.53125 4.628906-1.578125v7.773437c0 4.203126 3.40625 7.609376 7.609375 7.609376 4.207031 0 7.613281-3.40625 7.613281-7.609376v-7.773437c1.363281 1.046875 2.992188 1.578125 4.628906 1.578125 1.949219 0 3.898438-.742188 5.382813-2.230469 2.734375-2.734375 2.945312-7.023437.652343-10.011719h7.769532c4.207031 0 7.613281-3.40625 7.613281-7.609374 0-4.203126-3.410156-7.609376-7.613281-7.609376zm0 0"/></g><path d="m59.707031 135.023438h-7.773437c2.296875-2.988282 2.082031-7.28125-.652344-10.015626-2.734375-2.730468-7.027344-2.945312-10.011719-.648437v-7.773437c0-4.207032-3.40625-7.613282-7.609375-7.613282s-7.613281 3.40625-7.613281 7.613282v7.773437c-2.984375-2.296875-7.277344-2.082031-10.011719.648437-2.734375 2.734376-2.945312 7.027344-.648437 10.015626h-7.777344c-4.203125 0-7.609375 3.40625-7.609375 7.609374 0 4.203126 3.40625 7.609376 7.609375 7.609376h7.777344c-2.296875 2.988281-2.085938 7.28125.648437 10.015624 1.488282 1.484376 3.433594 2.226563 5.382813 2.226563 1.636719 0 3.269531-.53125 4.628906-1.578125v7.777344c0 4.203125 3.410156 7.609375 7.613281 7.609375s7.609375-3.40625 7.609375-7.609375v-7.777344c1.363281 1.046875 2.996094 1.578125 4.628907 1.578125 1.949218 0 3.898437-.742187 5.382812-2.226563 2.734375-2.734374 2.949219-7.027343.652344-10.015624h7.773437c4.203125 0 7.609375-3.40625 7.609375-7.609376 0-4.203124-3.40625-7.609374-7.609375-7.609374zm0 0" fill="#a0ecff"/><path d="m330.511719 83.433594c0 4.203125 3.40625 7.609375 7.609375 7.609375s7.613281-3.40625 7.613281-7.609375v-7.777344c1.359375 1.050781 2.992187 1.582031 4.628906 1.582031 1.945313 0 3.894531-.746093 5.382813-2.230469 2.734375-2.734374 2.945312-7.027343.648437-10.011718h7.777344c4.203125 0 7.609375-3.40625 7.609375-7.613282 0-4.203124-3.40625-7.609374-7.609375-7.609374h-7.777344c2.296875-2.984376 2.085938-7.277344-.648437-10.011719s-7.027344-2.949219-10.011719-.652344v-7.773437c0-4.203126-3.410156-7.613282-7.613281-7.613282s-7.609375 3.410156-7.609375 7.613282v7.773437c-2.984375-2.296875-7.277344-2.082031-10.015625.652344-2.734375 2.730469-2.945313 7.027343-.648438 10.011719h-7.773437c-4.207031 0-7.613281 3.40625-7.613281 7.609374 0 4.207032 3.410156 7.613282 7.613281 7.613282h7.773437c-2.296875 2.984375-2.085937 7.277344.648438 10.011718 1.488281 1.484376 3.4375 2.230469 5.382812 2.230469 1.636719 0 3.269532-.53125 4.632813-1.582031zm0 0" fill="#a0ecff"/></svg>