<svg height="512pt" viewBox="-78 0 512 512" width="512pt" xmlns="http://www.w3.org/2000/svg"><path d="m242.296875 150.769531c0 50.550781-40.976563 91.527344-91.527344 91.527344-27.929687 0-52.925781-12.503906-69.703125-32.214844-13.621094-15.976562-21.824218-36.6875-21.824218-59.308593 0-50.550782 40.976562-91.527344 91.527343-91.527344 46.082031 0 84.203125 34.046875 90.585938 78.363281.621093 4.300781.941406 8.695313.941406 13.160156zm0 0" fill="#fab03c"/><path d="m242.296875 150.769531c0 50.550781-40.976563 91.527344-91.527344 91.527344-27.929687 0-52.925781-12.503906-69.703125-32.214844-.621094-4.300781-.9375-8.691406-.9375-13.160156 0-50.554687 40.984375-91.527344 91.527344-91.527344 27.925781 0 52.925781 12.503907 69.699219 32.214844.621093 4.300781.941406 8.695313.941406 13.160156zm0 0" fill="#fd8f3e"/><g fill="#f8e98e"><path d="m150.769531 34.9375c-4.207031 0-7.613281-3.410156-7.613281-7.613281v-19.714844c0-4.203125 3.410156-7.609375 7.613281-7.609375s7.609375 3.40625 7.609375 7.609375v19.714844c0 4.203125-3.40625 7.613281-7.609375 7.613281zm0 0"/><path d="m89.054688 51.476562c-2.632813 0-5.191407-1.367187-6.601563-3.808593l-9.855469-17.070313c-2.101562-3.640625-.855468-8.296875 2.785156-10.398437 3.640626-2.101563 8.296876-.855469 10.398438 2.785156l9.855469 17.074219c2.101562 3.636718.855469 8.292968-2.785157 10.394531-1.199218.691406-2.507812 1.023437-3.796874 1.023437zm0 0"/><path d="m43.855469 96.660156c-1.289063 0-2.597657-.332031-3.796875-1.023437l-17.074219-9.855469c-3.640625-2.101562-4.886719-6.757812-2.785156-10.398438 2.101562-3.640624 6.753906-4.886718 10.394531-2.785156l17.074219 9.855469c3.640625 2.105469 4.886719 6.757813 2.785156 10.398437-1.410156 2.445313-3.96875 3.808594-6.597656 3.808594zm0 0"/><path d="m27.324219 158.378906h-19.714844c-4.203125 0-7.609375-3.40625-7.609375-7.609375s3.40625-7.613281 7.609375-7.613281h19.714844c4.203125 0 7.609375 3.410156 7.609375 7.613281s-3.40625 7.609375-7.609375 7.609375zm0 0"/><path d="m257.679688 96.660156c-2.628907 0-5.1875-1.367187-6.597657-3.808594-2.101562-3.640624-.855469-8.292968 2.785157-10.398437l17.074218-9.855469c3.636719-2.101562 8.292969-.855468 10.394532 2.785156 2.101562 3.640626.855468 8.296876-2.785157 10.398438l-17.074219 9.855469c-1.195312.691406-2.503906 1.023437-3.796874 1.023437zm0 0"/><path d="m26.796875 229.960938c-2.628906 0-5.1875-1.367188-6.597656-3.808594-2.101563-3.640625-.855469-8.296875 2.785156-10.394532l17.074219-9.859374c3.636718-2.097657 8.292968-.851563 10.394531 2.789062s.855469 8.292969-2.785156 10.394531l-17.074219 9.855469c-1.195312.695312-2.503906 1.023438-3.796875 1.023438zm0 0"/><path d="m212.484375 51.476562c-1.292969 0-2.601563-.332031-3.800781-1.023437-3.640625-2.101563-4.886719-6.757813-2.785156-10.394531l9.855468-17.074219c2.101563-3.640625 6.757813-4.886719 10.398438-2.785156 3.640625 2.101562 4.886718 6.757812 2.785156 10.398437l-9.855469 17.070313c-1.410156 2.441406-3.96875 3.808593-6.597656 3.808593zm0 0"/><path d="m79.183594 282.359375c-1.292969 0-2.601563-.328125-3.800782-1.019531-3.640624-2.105469-4.886718-6.757813-2.785156-10.398438l9.855469-17.074218c2.101563-3.640626 6.757813-4.886719 10.398437-2.785157 3.640626 2.101563 4.886719 6.757813 2.785157 10.398438l-9.855469 17.070312c-1.410156 2.441407-3.96875 3.808594-6.597656 3.808594zm0 0"/></g><path d="m329.234375 240.59375c0 10.503906-8.519531 19.019531-19.023437 19.019531-10.503907 0-19.023438-8.515625-19.023438-19.019531 0-10.507812 8.519531-19.023438 19.023438-19.023438 10.503906 0 19.023437 8.515626 19.023437 19.023438zm0 0" fill="#efa66f"/><path d="m177.15625 240.59375c0 10.503906-8.515625 19.019531-19.019531 19.019531-10.507813 0-19.023438-8.515625-19.023438-19.019531 0-10.507812 8.515625-19.023438 19.023438-19.023438 10.503906 0 19.019531 8.515626 19.019531 19.023438zm0 0" fill="#efa66f"/><path d="m353.683594 439.070312v62.78125c0 5.605469-4.542969 10.148438-10.148438 10.148438h-218.722656c-5.601562 0-10.148438-4.542969-10.148438-10.148438v-62.78125c0-43.292968 23.027344-81.207031 57.492188-102.175781 18.074219-10.988281 39.308594-17.332031 62.019531-17.332031 22.5 0 43.535157 6.21875 61.5 17.03125 8.390625 5.042969 16.125 11.089844 23.007813 17.972656 21.625 21.636719 35 51.511719 35 84.503906zm0 0" fill="#f0f5f7"/><path d="m172.503906 415.78125v96.21875h-15.222656v-96.21875c0-4.210938 3.410156-7.609375 7.609375-7.609375 4.203125 0 7.613281 3.398437 7.613281 7.609375zm0 0" fill="#dde9ed"/><path d="m311.171875 415.78125v96.21875h-15.222656v-96.21875c0-4.210938 3.410156-7.609375 7.613281-7.609375 4.199219 0 7.609375 3.398437 7.609375 7.609375zm0 0" fill="#dde9ed"/><path d="m343.539062 511.992188h-47.589843v-67.089844h57.738281v56.945312c0 5.601563-4.542969 10.144532-10.148438 10.144532zm0 0" fill="#f4bc8e"/><path d="m295.949219 444.90625h15.222656v67.082031h-15.222656zm0 0" fill="#efa66f"/><path d="m172.402344 444.90625v67.082031h-47.589844c-5.601562 0-10.148438-4.542969-10.148438-10.148437v-56.933594zm0 0" fill="#f4bc8e"/><path d="m157.28125 444.90625h15.121094v67.082031h-15.121094zm0 0" fill="#efa66f"/><path d="m295.679688 336.59375c-13.59375 19.570312-36.234376 32.367188-61.863282 32.367188-25.496094 0-48.042968-12.671876-61.65625-32.066407 18.070313-10.992187 39.304688-17.328125 62.015625-17.328125 22.5 0 43.535157 6.210938 61.503907 17.027344zm0 0" fill="#efa66f"/><path d="m164.230469 174.1875v85.160156c0 38.625 31.316406 69.941406 69.941406 69.941406 38.628906 0 69.941406-31.316406 69.941406-69.941406v-85.160156zm0 0" fill="#fbdbb7"/><path d="m304.113281 174.1875v85.15625c0 19.3125-7.828125 36.808594-20.488281 49.460938-12.652344 12.652343-30.140625 20.480468-49.453125 20.480468-3.757813 0-7.445313-.292968-11.050781-.875 14.886718-2.355468 28.207031-9.421875 38.402344-19.605468 12.652343-12.652344 20.480468-30.148438 20.480468-49.460938v-85.15625zm0 0" fill="#f4bc8e"/><path d="m234.175781 119.171875c-44.792969 0-81.101562 36.308594-81.101562 81.101563v17.472656c0 6.152344 5.417969 10.886718 11.515625 10.054687 20.5-2.789062 62.964844-10.910156 82.292968-31.78125 7.195313 11.8125 23.039063 26.890625 57.433594 29.546875 5.90625.457032 10.957032-4.199218 10.957032-10.121094v-15.171874c0-44.792969-36.308594-81.101563-81.097657-81.101563zm0 0" fill="#82807f"/><path d="m315.273438 200.277344v15.164062c0 5.929688-5.066407 10.578125-10.980469 10.121094-4.617188-.359375-8.902344-.941406-12.878907-1.710938v-23.574218c0-40.738282-30.03125-74.460938-69.175781-80.238282 3.898438-.578124 7.875-.871093 11.9375-.871093 44.785157 0 81.097657 36.3125 81.097657 81.109375zm0 0" fill="#6d6d6d"/><path d="m201.347656 248.203125c-4.207031 0-7.660156-3.40625-7.660156-7.609375s3.363281-7.613281 7.570312-7.613281h.089844c4.203125 0 7.609375 3.410156 7.609375 7.613281s-3.40625 7.609375-7.609375 7.609375zm0 0" fill="#7c3c2f"/><path d="m267.089844 248.203125c-4.203125 0-7.65625-3.40625-7.65625-7.609375s3.363281-7.613281 7.566406-7.613281h.089844c4.207031 0 7.613281 3.410156 7.613281 7.613281s-3.410156 7.609375-7.613281 7.609375zm0 0" fill="#7c3c2f"/><path d="m241.503906 292.371094h-14.65625c-4.207031 0-7.613281-3.40625-7.613281-7.609375v-44.167969c0-4.203125 3.410156-7.613281 7.613281-7.613281s7.609375 3.410156 7.609375 7.613281v36.554688h7.046875c4.203125 0 7.609375 3.410156 7.609375 7.613281s-3.410156 7.609375-7.609375 7.609375zm0 0" fill="#fd8f3e"/><path d="m323.347656 172.90625c0 10.621094-8.609375 19.230469-19.230468 19.230469-10.621094 0-19.230469-8.609375-19.230469-19.230469 0-6.96875 8.28125-20.652344 13.972656-29.230469 2.496094-3.761719 8.015625-3.761719 10.511719 0 5.695312 8.578125 13.976562 22.261719 13.976562 29.230469zm0 0" fill="#a0ecff"/><path d="m323.34375 172.90625c0 10.617188-8.605469 19.230469-19.230469 19.230469-2.660156 0-5.199219-.542969-7.507812-1.519531 6.898437-2.921876 11.730469-9.753907 11.730469-17.710938 0-6.09375-6.328126-17.316406-11.722657-25.777344.773438-1.214844 1.527344-2.367187 2.238281-3.445312 2.496094-3.765625 8.019532-3.777344 10.519532-.011719 5.691406 8.582031 13.972656 22.261719 13.972656 29.234375zm0 0" fill="#60daff"/><path d="m356.394531 368.648438c0 10.621093-8.613281 19.230468-19.234375 19.230468s-19.230468-8.609375-19.230468-19.230468c0-6.972657 8.285156-20.652344 13.976562-29.234376 2.496094-3.761718 8.015625-3.761718 10.511719 0 5.691406 8.582032 13.976562 22.261719 13.976562 29.234376zm0 0" fill="#a0ecff"/><path d="m356.390625 368.648438c0 10.617187-8.605469 19.230468-19.230469 19.230468-2.664062 0-5.199218-.542968-7.507812-1.519531 6.894531-2.921875 11.730468-9.753906 11.730468-17.710937 0-6.09375-6.328124-17.320313-11.722656-25.78125.769532-1.210938 1.523438-2.367188 2.238282-3.441407 2.496093-3.765625 8.019531-3.777343 10.515624-.011719 5.695313 8.582032 13.976563 22.261719 13.976563 29.234376zm0 0" fill="#60daff"/><path d="m184.121094 281.3125c0 10.621094-8.609375 19.230469-19.230469 19.230469s-19.230469-8.609375-19.230469-19.230469c0-6.96875 8.28125-20.652344 13.976563-29.234375 2.496093-3.757813 8.015625-3.757813 10.511719 0 5.691406 8.582031 13.972656 22.265625 13.972656 29.234375zm0 0" fill="#a0ecff"/><path d="m184.121094 281.3125c0 10.617188-8.605469 19.230469-19.230469 19.230469-2.664063 0-5.199219-.542969-7.507813-1.519531 6.894532-2.921876 11.726563-9.753907 11.726563-17.710938 0-6.09375-6.328125-17.316406-11.71875-25.777344.769531-1.214844 1.523437-2.371094 2.238281-3.445312 2.496094-3.765625 8.019532-3.777344 10.515625-.011719 5.695313 8.582031 13.976563 22.261719 13.976563 29.234375zm0 0" fill="#60daff"/></svg>