<svg height="512pt" viewBox="-4 0 512 512.00025" width="512pt" xmlns="http://www.w3.org/2000/svg"><path d="m364.210938 354.90625c44.273437-44.4375 24.46875-103.914062-1.726563-147.839844h-209.707031c-26.191406 43.925782-45.996094 103.402344-1.726563 147.839844zm0 0" fill="#915040"/><path d="m366.386719 201.5c0 12.019531-9.746094 21.761719-21.765625 21.761719-12.019532 0-21.761719-9.742188-21.761719-21.761719s9.742187-21.761719 21.761719-21.761719c12.019531 0 21.765625 9.742188 21.765625 21.761719zm0 0" fill="#efa66f"/><path d="m192.40625 201.5c0 12.019531-9.746094 21.761719-21.765625 21.761719s-21.761719-9.742188-21.761719-21.761719 9.742188-21.761719 21.761719-21.761719 21.765625 9.742188 21.765625 21.761719zm0 0" fill="#efa66f"/><path d="m394.359375 428.570312v73.273438c0 5.605469-4.546875 10.152344-10.152344 10.152344h-253.15625c-5.605469 0-10.148437-4.546875-10.148437-10.152344v-73.273438c0-49.523437 26.34375-92.910156 65.785156-116.898437 20.671875-12.574219 44.96875-19.820313 70.949219-19.820313 25.734375 0 49.808593 7.101563 70.359375 19.472657 9.601562 5.777343 18.441406 12.695312 26.316406 20.570312 24.742188 24.742188 40.046875 58.925781 40.046875 96.675781zm0 0" fill="#f6cb43"/><path d="m120.902344 437.726562h73.667968v39.476563h-73.667968zm0 0" fill="#fc4830"/><path d="m394.355469 428.566406v73.285156c0 5.605469-4.542969 10.148438-10.148438 10.148438h-26.144531v-83.433594c0-37.746094-15.316406-71.925781-40.054688-96.667968-7.875-7.871094-16.707031-14.804688-26.3125-20.574219-15.625-9.402344-33.296874-15.777344-52.1875-18.285157 5.933594-.789062 11.980469-1.195312 18.125-1.195312 25.738282 0 49.808594 7.117188 70.371094 19.480469 9.589844 5.769531 18.4375 12.703125 26.308594 20.574219 24.742188 24.742187 40.042969 58.921874 40.042969 96.667968zm0 0" fill="#fab03c"/><path d="m314.949219 331.429688h-114.636719c-21.738281 0-39.359375-17.621094-39.359375-39.359376v-19.164062c0-6.269531 5.082031-11.351562 11.355469-11.351562h170.648437c6.269531 0 11.351563 5.082031 11.351563 11.351562v19.164062c0 21.738282-17.621094 39.359376-39.359375 39.359376zm0 0" fill="#fab03c"/><path d="m177.613281 125.527344v97.425781c0 44.191406 35.828125 80.019531 80.019531 80.019531 44.191407 0 80.015626-35.828125 80.015626-80.019531v-97.425781zm0 0" fill="#fbdbb7"/><path d="m337.648438 125.527344v97.425781c0 22.09375-8.957032 42.109375-23.441407 56.582031-14.476562 14.476563-34.480469 23.433594-56.574219 23.433594-4.300781 0-8.519531-.335938-12.644531-1 17.035157-2.695312 32.273438-10.78125 43.933594-22.433594 14.476563-14.476562 23.433594-34.488281 23.433594-56.582031v-97.425781zm0 0" fill="#f4bc8e"/><path d="m194.566406 401.925781v110.070313h-15.21875v-110.070313c0-4.203125 3.410156-7.613281 7.609375-7.613281s7.609375 3.410156 7.609375 7.613281zm0 0" fill="#fab03c"/><path d="m179.347656 437.722656h15.21875v39.480469h-15.21875zm0 0" fill="#e81610"/><path d="m335.910156 401.921875v110.070313h-15.222656v-110.070313c0-4.203125 3.410156-7.613281 7.613281-7.613281 4.210938 0 7.609375 3.410156 7.609375 7.613281zm0 0" fill="#fab03c"/><path d="m257.632812 42.199219c-58.800781 0-106.464843 47.664062-106.464843 106.464843v20.050782c0 4.832031 3.40625 9.023437 8.148437 9.953125 63.855469 12.503906 88.757813-15.878907 98.316406-36.621094 9.554688 20.742187 34.457032 49.121094 98.3125 36.621094 4.746094-.929688 8.148438-5.121094 8.148438-9.953125v-20.050782c.003906-58.800781-47.664062-106.464843-106.460938-106.464843zm0 0" fill="#915040"/><path d="m364.101562 149.710938v19.003906c0 4.835937-3.410156 9.023437-8.152343 9.953125-6.65625 1.304687-12.890625 2.167969-18.726563 2.632812v-24.371093c0-55.570313-38.640625-102.09375-90.515625-114.191407 3.832031-.382812 7.730469-.570312 11.679688-.542969 58.675781.402344 105.714843 48.839844 105.714843 107.515626zm0 0" fill="#7c3c2f"/><path d="m220.078125 209.113281c-.023437 0-.050781 0-.074219 0l-.105468-.003906c-4.203126-.039063-7.578126-3.480469-7.535157-7.683594.039063-4.175781 3.4375-7.539062 7.609375-7.539062h.074219l.101563.003906c4.207031.039063 7.578124 3.480469 7.539062 7.683594-.039062 4.179687-3.441406 7.539062-7.609375 7.539062zm0 0" fill="#7c3c2f"/><path d="m295.292969 209.113281c-.027344 0-.050781 0-.074219 0l-.105469-.003906c-4.203125-.039063-7.578125-3.480469-7.535156-7.683594.039063-4.175781 3.441406-7.539062 7.609375-7.539062h.074219l.101562.003906c4.203125.039063 7.578125 3.480469 7.539063 7.683594-.039063 4.179687-3.441406 7.539062-7.609375 7.539062zm0 0" fill="#7c3c2f"/><path d="m266.015625 259.640625h-16.765625c-4.207031 0-7.613281-3.40625-7.613281-7.609375v-50.53125c0-4.203125 3.410156-7.613281 7.613281-7.613281s7.609375 3.410156 7.609375 7.613281v42.921875h9.15625c4.207031 0 7.613281 3.40625 7.613281 7.609375-.003906 4.203125-3.410156 7.609375-7.613281 7.609375zm0 0" fill="#fd8f3e"/><g fill="#fc4830"><path d="m266.078125 374.515625c-.023437 0-.042969 0-.0625 0h-.121094c-4.203125-.035156-7.585937-3.472656-7.550781-7.675781s3.464844-7.5625 7.675781-7.546875h.121094c4.203125.035156 7.582031 3.472656 7.546875 7.675781-.035156 4.179688-3.4375 7.546875-7.609375 7.546875zm0 0"/><path d="m266.074219 422.097656h-.117188c-4.207031 0-7.613281-3.410156-7.613281-7.613281s3.40625-7.609375 7.613281-7.609375h.117188c4.207031 0 7.613281 3.40625 7.613281 7.609375s-3.40625 7.613281-7.613281 7.613281zm0 0"/><path d="m266.074219 469.675781h-.117188c-4.207031 0-7.613281-3.40625-7.613281-7.613281 0-4.203125 3.40625-7.609375 7.613281-7.609375h.117188c4.207031 0 7.613281 3.40625 7.613281 7.609375 0 4.207031-3.40625 7.613281-7.613281 7.613281zm0 0"/></g><path d="m417.292969 117.816406c-1.945313 0-3.894531-.742187-5.382813-2.226562-2.972656-2.972656-2.972656-7.792969 0-10.765625l79.789063-79.789063c2.976562-2.972656 7.792969-2.972656 10.765625 0s2.972656 7.789063 0 10.761719l-79.789063 79.792969c-1.488281 1.484375-3.433593 2.226562-5.382812 2.226562zm0 0" fill="#60daff"/><path d="m434.515625 146.925781c-1.945313 0-3.894531-.746093-5.382813-2.230469-2.972656-2.972656-2.972656-7.792968 0-10.765624l29.105469-29.105469c2.972657-2.972657 7.792969-2.972657 10.765625 0 2.972656 2.972656 2.972656 7.792969 0 10.765625l-29.105468 29.105468c-1.484376 1.484376-3.433594 2.230469-5.382813 2.230469zm0 0" fill="#38aaff"/><path d="m7.613281 190.378906c-1.949219 0-3.898437-.742187-5.382812-2.230468-2.972657-2.972657-2.972657-7.792969 0-10.765626l143.554687-143.554687c2.972656-2.972656 7.792969-2.972656 10.765625 0 2.972657 2.972656 2.972657 7.792969 0 10.765625l-143.558593 143.554688c-1.484376 1.488281-3.433594 2.230468-5.378907 2.230468zm0 0" fill="#a0ecff"/><path d="m97.578125 153.765625c-1.945313 0-3.894531-.746094-5.382813-2.230469-2.96875-2.972656-2.972656-7.792968 0-10.765625l13.664063-13.664062c2.972656-2.972657 7.792969-2.96875 10.765625 0 2.972656 2.972656 2.972656 7.792969 0 10.765625l-13.664062 13.664062c-1.484376 1.484375-3.433594 2.230469-5.382813 2.230469zm0 0" fill="#38aaff"/><path d="m79.390625 77.921875c-1.949219 0-3.898437-.742187-5.382813-2.230469-2.972656-2.972656-2.972656-7.789062 0-10.761718l62.699219-62.703126c2.972657-2.96875 7.792969-2.96875 10.765625 0 2.972656 2.976563 2.972656 7.792969 0 10.765626l-62.699218 62.699218c-1.488282 1.488282-3.4375 2.230469-5.382813 2.230469zm0 0" fill="#60daff"/><path d="m299.304688 110.21875c-1.949219 0-3.898438-.742188-5.386719-2.230469-2.96875-2.972656-2.96875-7.792969 0-10.765625l70.066406-70.0625c2.972656-2.972656 7.792969-2.972656 10.765625 0s2.972656 7.792969 0 10.765625l-70.066406 70.0625c-1.484375 1.484375-3.433594 2.230469-5.378906 2.230469zm0 0" fill="#60daff"/><path d="m74.539062 229.417969c-1.949218 0-3.894531-.742188-5.382812-2.230469-2.972656-2.972656-2.972656-7.789062 0-10.761719l14.742188-14.742187c2.972656-2.972656 7.792968-2.96875 10.761718 0 2.976563 2.972656 2.976563 7.792968 0 10.765625l-14.738281 14.738281c-1.488281 1.488281-3.4375 2.230469-5.382813 2.230469zm0 0" fill="#60daff"/><path d="m436.398438 236.335938c-1.949219 0-3.898438-.742188-5.382813-2.226563-2.972656-2.972656-2.972656-7.792969 0-10.765625l27.222656-27.226562c2.972657-2.96875 7.792969-2.96875 10.765625 0 2.972656 2.972656 2.972656 7.792968 0 10.765624l-27.222656 27.226563c-1.488281 1.484375-3.433594 2.226563-5.382812 2.226563zm0 0" fill="#a0ecff"/></svg>