<svg height="512pt" viewBox="-21 0 511 512" width="512pt" xmlns="http://www.w3.org/2000/svg"><path d="m225.898438 25.386719-8.074219 30.9375h34.351562l-8.074219-30.9375c-2.445312-9.378907-15.753906-9.378907-18.203124 0zm0 0" fill="#00df97"/><path d="m242.613281 417.15625v-171.71875c0-4.203125-3.40625-7.609375-7.613281-7.609375-4.203125 0-7.609375 3.40625-7.609375 7.609375v171.71875zm0 0" fill="#6d6d6d"/><path d="m454.78125 254.390625c-14.519531-9.074219-31.6875-14.3125-50.070312-14.3125-33.664063 0-63.226563 17.570313-80.007813 44.027344-1.8125 2.855469-4.75 4.320312-7.738281 4.398437-3.125.09375-6.285156-1.324218-8.277344-4.226562-16.09375-23.449219-43.089844-38.835938-73.6875-38.835938s-57.589844 15.386719-73.683594 38.835938c-1.992187 2.902344-5.152344 4.320312-8.277344 4.226562-2.988281-.078125-5.929687-1.542968-7.738281-4.398437-7.558593-11.917969-17.703125-22.023438-29.648437-29.542969-14.582032-9.175781-31.851563-14.484375-50.359375-14.484375-18.382813 0-35.550781 5.238281-50.074219 14.3125-7.078125 4.425781-16.023438-1.570313-14.558594-9.789063 15.691406-88.035156 79.757813-159.308593 163.722656-185.34375 22.308594-6.925781 46.027344-10.652343 70.617188-10.652343 117.121094 0 214.484375 84.566406 234.34375 195.996093 1.464844 8.21875-7.484375 14.214844-14.5625 9.789063zm0 0" fill="#00fbaa"/><path d="m232.746094 48.628906c-23.785156.21875-46.738282 3.914063-68.363282 10.628906-20.949218 44.007813-38.023437 112.355469-48.730468 195.304688 11.945312 7.519531 22.089844 17.625 29.648437 29.542969 1.808594 2.855469 4.75 4.320312 7.738281 4.398437 3.125.09375 6.285157-1.324218 8.277344-4.226562 15.695313-22.871094 41.765625-38.0625 71.429688-38.796875zm0 0" fill="#00df97"/><path d="m454.78125 254.390625c-13.746094-8.582031-29.847656-13.738281-47.121094-14.265625-17.464844-83.070312-65.5625-151.613281-129.121094-187.546875 97.058594 17.933594 173.464844 94.742187 190.804688 192.023437 1.464844 8.21875-7.484375 14.214844-14.5625 9.789063zm0 0" fill="#00df97"/><path d="m316.964844 288.5c-3.125.09375-6.285156-1.324219-8.277344-4.226562-16.09375-23.449219-43.089844-38.835938-73.6875-38.835938s-57.589844 15.386719-73.683594 38.835938c-1.992187 2.902343-5.152344 4.320312-8.277344 4.226562 10.25-138.558594 43.058594-239.898438 81.960938-239.898438s71.714844 101.339844 81.964844 239.898438zm0 0" fill="#dde9ed"/><path d="m316.964844 288.503906c-3.125.09375-6.285156-1.324218-8.277344-4.226562-9.570312-13.949219-23-25.039063-38.75-31.746094-10.117188-94.222656-31.085938-166.394531-56.816406-192.898438 6.984375-7.195312 14.320312-11.027343 21.878906-11.027343 38.902344 0 71.714844 101.339843 81.964844 239.898437zm0 0" fill="#c4e1e8"/><path d="m266.890625 512c-24.1875 0-43.863281-19.675781-43.863281-43.859375v-56.242187c0-6.613282 5.359375-11.972657 11.972656-11.972657s11.976562 5.359375 11.976562 11.972657v56.242187c0 10.976563 8.929688 19.910156 19.910157 19.910156s19.914062-8.933593 19.914062-19.910156c0-6.613281 5.363281-11.976563 11.972657-11.976563 6.613281 0 11.976562 5.363282 11.976562 11.976563 0 24.183594-19.675781 43.859375-43.859375 43.859375zm0 0" fill="#00fbaa"/><path d="m415.679688 60.191406c-4.203126 0-7.613282-3.40625-7.613282-7.609375v-34.230469c0-4.203124 3.410156-7.609374 7.613282-7.609374 4.203124 0 7.613281 3.40625 7.613281 7.609374v34.230469c-.003907 4.203125-3.410157 7.609375-7.613281 7.609375zm0 0" fill="#a0ecff"/><path d="m106.808594 138.445312c-4.207032 0-7.613282-3.40625-7.613282-7.609374v-109.03125c0-4.203126 3.40625-7.613282 7.613282-7.613282 4.203125 0 7.609375 3.410156 7.609375 7.613282v109.03125c0 4.203124-3.40625 7.609374-7.609375 7.609374zm0 0" fill="#a0ecff"/><path d="m77.050781 82.398438c-4.203125 0-7.613281-3.40625-7.613281-7.613282v-19.355468c0-4.203126 3.410156-7.613282 7.613281-7.613282s7.609375 3.410156 7.609375 7.613282v19.355468c0 4.207032-3.40625 7.613282-7.609375 7.613282zm0 0" fill="#38aaff"/><path d="m310.75 35.71875c-4.203125 0-7.613281-3.410156-7.613281-7.613281v-20.496094c0-4.203125 3.410156-7.609375 7.613281-7.609375 4.207031 0 7.609375 3.40625 7.609375 7.609375v20.496094c.003906 4.203125-3.40625 7.613281-7.609375 7.613281zm0 0" fill="#60daff"/><path d="m455.777344 132.992188c-4.203125 0-7.609375-3.40625-7.609375-7.609376v-20.496093c0-4.203125 3.40625-7.609375 7.609375-7.609375 4.207031 0 7.613281 3.40625 7.613281 7.609375v20.496093c0 4.203126-3.410156 7.609376-7.613281 7.609376zm0 0" fill="#38aaff"/><g fill="#a0ecff"><path d="m14.222656 132.992188c-4.203125 0-7.609375-3.40625-7.609375-7.609376v-20.496093c0-4.203125 3.40625-7.609375 7.609375-7.609375 4.207032 0 7.613282 3.40625 7.613282 7.609375v20.496093c0 4.203126-3.40625 7.609376-7.613282 7.609376zm0 0"/><path d="m377.945312 141.113281c-4.203124 0-7.609374-3.410156-7.609374-7.613281v-77.175781c0-4.207031 3.40625-7.613281 7.609374-7.613281 4.207032 0 7.613282 3.40625 7.613282 7.613281v77.175781c0 4.203125-3.40625 7.613281-7.613282 7.613281zm0 0"/></g></svg>