<svg height="512pt" viewBox="0 -70 512 512" width="512pt" xmlns="http://www.w3.org/2000/svg"><path d="m480.242188 331.554688h-448.484376v-322.511719h448.484376" fill="#f0f5f7"/><path d="m452.242188 331.554688h-177.355469v-17.988282c0-5.691406 4.613281-10.300781 10.300781-10.300781h156.753906c5.6875 0 10.300782 4.609375 10.300782 10.300781zm0 0" fill="#82807f"/><path d="m425.484375 267.90625h-338.96875c-5.691406 0-10.300781-4.609375-10.300781-10.300781v-202.460938c0-5.691406 4.609375-10.300781 10.300781-10.300781h338.96875c5.691406 0 10.300781 4.609375 10.300781 10.300781v202.460938c0 5.6875-4.609375 10.300781-10.300781 10.300781zm0 0" fill="#a4d5dd"/><path d="m76.214844 203.003906h359.570312v35.292969h-359.570312zm0 0" fill="#fab03c"/><path d="m76.214844 203.003906h359.570312v17.644532h-359.570312zm0 0" fill="#f6cb43"/><path d="m76.214844 138.726562h359.570312v35.296876h-359.570312zm0 0" fill="#fab03c"/><path d="m76.214844 138.726562h359.570312v17.648438h-359.570312zm0 0" fill="#f6cb43"/><path d="m76.214844 74.453125h359.570312v35.292969h-359.570312zm0 0" fill="#fab03c"/><path d="m76.214844 74.453125h359.570312v17.648437h-359.570312zm0 0" fill="#f6cb43"/><g fill="#dde9ed"><path d="m125.167969 287.867188c-4.269531 0-7.726563-3.457032-7.726563-7.726563v-247.53125c0-4.269531 3.457032-7.726563 7.726563-7.726563 4.265625 0 7.726562 3.460938 7.726562 7.726563v247.53125c0 4.269531-3.460937 7.726563-7.726562 7.726563zm0 0"/><path d="m190.582031 287.867188c-4.265625 0-7.726562-3.457032-7.726562-7.726563v-247.53125c0-4.269531 3.460937-7.726563 7.726562-7.726563 4.269531 0 7.726563 3.460938 7.726563 7.726563v247.53125c0 4.269531-3.457032 7.726563-7.726563 7.726563zm0 0"/><path d="m256 287.867188c-4.269531 0-7.726562-3.457032-7.726562-7.726563v-247.53125c0-4.269531 3.460937-7.726563 7.726562-7.726563s7.726562 3.460938 7.726562 7.726563v247.53125c0 4.269531-3.457031 7.726563-7.726562 7.726563zm0 0"/><path d="m321.417969 287.867188c-4.269531 0-7.726563-3.457032-7.726563-7.726563v-247.53125c0-4.269531 3.457032-7.726563 7.726563-7.726563 4.265625 0 7.726562 3.460938 7.726562 7.726563v247.53125c0 4.269531-3.460937 7.726563-7.726562 7.726563zm0 0"/><path d="m386.832031 287.867188c-4.265625 0-7.726562-3.457032-7.726562-7.726563v-247.53125c0-4.269531 3.460937-7.726563 7.726562-7.726563 4.269531 0 7.726563 3.460938 7.726563 7.726563v247.53125c0 4.269531-3.457032 7.726563-7.726563 7.726563zm0 0"/></g><path d="m173.070312 314.589844h-47.902343c-4.269531 0-7.726563-3.457032-7.726563-7.726563 0-4.265625 3.457032-7.722656 7.726563-7.722656h47.902343c4.269532 0 7.726563 3.457031 7.726563 7.722656 0 4.269531-3.457031 7.726563-7.726563 7.726563zm0 0" fill="#82807f"/><path d="m103.640625 314.589844h-.109375c-4.265625 0-7.722656-3.457032-7.722656-7.726563 0-4.265625 3.457031-7.722656 7.722656-7.722656h.109375c4.265625 0 7.726563 3.457031 7.726563 7.722656 0 4.269531-3.460938 7.726563-7.726563 7.726563zm0 0" fill="#fc4830"/><path d="m83.035156 314.589844h-.105468c-4.269532 0-7.726563-3.457032-7.726563-7.726563 0-4.265625 3.460937-7.722656 7.726563-7.722656h.105468c4.269532 0 7.726563 3.457031 7.726563 7.722656 0 4.269531-3.457031 7.726563-7.726563 7.726563zm0 0" fill="#00fbaa"/><path d="m19.53125 372.3125c-10.785156 0-19.53125-8.746094-19.53125-19.53125v-333.25c0-10.785156 8.746094-19.53125 19.53125-19.53125 10.789062 0 19.53125 8.746094 19.53125 19.53125v333.246094c.003906 10.789062-8.742188 19.535156-19.53125 19.535156zm0 0" fill="#82807f"/><path d="m492.46875 372.3125c-10.789062 0-19.53125-8.746094-19.53125-19.53125v-333.25c0-10.785156 8.742188-19.53125 19.53125-19.53125 10.785156 0 19.53125 8.746094 19.53125 19.53125v333.246094c0 10.789062-8.746094 19.535156-19.53125 19.535156zm0 0" fill="#82807f"/></svg>