<svg height="512pt" viewBox="-7 0 511 512" width="512pt" xmlns="http://www.w3.org/2000/svg"><path d="m47.46875 86.910156c-4.140625 0-7.5-3.355468-7.5-7.5v-71.910156c0-4.144531 3.359375-7.5 7.5-7.5 4.144531 0 7.5 3.355469 7.5 7.5v71.910156c0 4.144532-3.355469 7.5-7.5 7.5zm0 0" fill="#38aaff"/><path d="m37.566406 27.164062h-29.300781c-4.289063 0-7.765625-3.476562-7.765625-7.761718 0-4.289063 3.476562-7.765625 7.765625-7.765625h29.300781c4.289063 0 7.761719 3.476562 7.761719 7.765625 0 4.285156-3.472656 7.761718-7.761719 7.761718zm0 0" fill="#c4e1e8"/><path d="m94.992188 27.164062h-42.019532c-4.289062 0-7.761718-3.476562-7.761718-7.761718 0-4.289063 3.472656-7.765625 7.761718-7.765625h42.019532c4.289062 0 7.765624 3.476562 7.765624 7.765625 0 4.285156-3.476562 7.761718-7.765624 7.761718zm0 0" fill="#c4e1e8"/><path d="m31.355469 112.558594v389.089844c0 5.714843 4.632812 10.351562 10.351562 10.351562h5.054688c5.71875 0 10.351562-4.636719 10.351562-10.351562v-389.089844zm0 0" fill="#38aaff"/><path d="m62.335938 227.960938h-36.203126c-4.417968 0-8-3.582032-8-8.003907v-42.386719c0-4.417968 3.582032-8 8-8h36.203126c4.417968 0 8.003906 3.582032 8.003906 8v42.386719c0 4.421875-3.585938 8.003907-8.003906 8.003907zm0 0" fill="#dde9ed"/><path d="m70.335938 177.566406v42.394532c0 4.421874-3.582032 8.003906-8 8.003906h-17.339844c4.417968 0 8-3.582032 8-8.003906v-42.394532c0-4.410156-3.582032-7.992187-8-7.992187h17.339844c4.417968 0 8 3.582031 8 7.992187zm0 0" fill="#c4e1e8"/><path d="m62.335938 117.363281h-36.203126c-4.417968 0-8-3.582031-8-8v-42.386719c0-4.417968 3.582032-8 8-8h36.203126c4.417968 0 8.003906 3.582032 8.003906 8v42.386719c0 4.417969-3.585938 8-8.003906 8zm0 0" fill="#dde9ed"/><path d="m70.335938 66.984375v42.382813c0 4.417968-3.582032 8-8 8h-19.152344c4.417968 0 8-3.582032 8-8v-42.382813c0-4.421875-3.582032-8.003906-8-8.003906h19.152344c4.417968 0 8 3.582031 8 8.003906zm0 0" fill="#c4e1e8"/><path d="m498.40625 198.332031c0 19.082031-3.695312 36.011719-6.695312 46.632813-2.007813 7.082031-7.605469 12.5625-14.734376 14.386718l-13.714843 3.511719-27.738281 7.109375-24.46875 6.265625-28.265626 7.246094-12.519531 3.203125c-23.222656 5.945312-46.777343 10.425781-70.515625 13.414062-23.742187 2.988282-47.667968 4.496094-71.632812 4.496094v-212.53125c47.953125 0 95.699218 6.019532 142.148437 17.910156l12.519531 3.203126 28.265626 7.246093 24.46875 6.265625 27.738281 7.109375 13.714843 3.511719c7.128907 1.824219 12.726563 7.304688 14.734376 14.386719 3 10.621093 6.695312 27.558593 6.695312 46.632812zm0 0" fill="#dde9ed"/><path d="m420.007812 198.332031c0 29.539063-4.171874 56.617188-8.953124 77.90625l-28.265626 7.242188c5.566407-21.121094 11.457032-51.457031 11.457032-85.148438 0-33.683593-5.890625-64.019531-11.457032-85.152343l28.265626 7.246093c4.78125 21.285157 8.953124 48.363281 8.953124 77.90625zm0 0" fill="#fd8f3e"/><path d="m469.464844 198.332031c0 23.667969-2.679688 45.738281-6.203125 64.53125l-27.738281 7.109375c4.378906-19.699218 8.179687-44.582031 8.179687-71.640625 0-27.046875-3.800781-51.941406-8.179687-71.640625l27.738281 7.109375c3.523437 18.792969 6.203125 40.863281 6.203125 64.53125zm0 0" fill="#fd8f3e"/><path d="m271.921875 198.332031c0 41.605469-9.851563 77.628907-24.226563 95.070313-5.882812 7.164062-12.539062 11.191406-19.574218 11.191406-24.183594 0-43.792969-47.574219-43.792969-106.261719 0-58.691406 19.609375-106.265625 43.792969-106.265625 7.035156 0 13.691406 4.03125 19.574218 11.191406 14.375 17.445313 24.226563 53.464844 24.226563 95.074219zm0 0" fill="#82807f"/><path d="m271.921875 198.332031c0 41.605469-9.851563 77.628907-24.226563 95.070313-14.359374-17.441406-24.210937-53.464844-24.210937-95.070313 0-41.609375 9.847656-77.628906 24.210937-95.074219 14.375 17.445313 24.226563 53.464844 24.226563 95.074219zm0 0" fill="#6d6d6d"/><path d="m251.453125 288.253906c-1.210937 1.855469-2.464844 3.574219-3.757813 5.144532-2.125 2.589843-4.359374 4.773437-6.667968 6.492187l-39.039063-16.285156-184.613281-77.039063c-2.878906-1.210937-4.761719-4.019531-4.773438-7.144531-.007812-3.117187 1.84375-5.941406 4.710938-7.164063l184.398438-78.699218 39.339843-16.78125c2.308594 1.730468 4.523438 3.902344 6.644531 6.480468 1.292969 1.5625 2.546876 3.28125 3.769532 5.144532-.746094.839844-1.679688 1.535156-2.777344 2l-55.433594 23.65625-152.917968 65.257812 153.101562 63.886719 55.199219 23.03125c1.117187.46875 2.070312 1.171875 2.816406 2.019531zm0 0" fill="#fd8f3e"/><path d="m57.113281 19.402344c0 7.113281-5.765625 12.878906-12.878906 12.878906s-12.878906-5.765625-12.878906-12.878906c0-7.113282 5.765625-12.882813 12.878906-12.882813s12.878906 5.769531 12.878906 12.882813zm0 0" fill="#fd8f3e"/><path d="m92.105469 39.605469c-2.363281 0-4.695313-1.070313-6.21875-3.105469-2.574219-3.429688-1.878907-8.296875 1.554687-10.871094l7.769532-5.824218-7.769532-5.828126c-3.433594-2.574218-4.128906-7.441406-1.554687-10.871093 2.574219-3.429688 7.4375-4.125 10.871093-1.550781l16.050782 12.039062c1.957031 1.464844 3.105468 3.765625 3.105468 6.210938 0 2.441406-1.148437 4.746093-3.105468 6.210937l-16.050782 12.039063c-1.398437 1.046874-3.03125 1.550781-4.652343 1.550781zm0 0" fill="#82807f"/><path d="m404.652344 427.589844c-16.257813 0-29.488282-13.226563-29.488282-29.488282 0-4.289062 3.476563-7.761718 7.765626-7.761718 4.289062 0 7.761718 3.476562 7.761718 7.761718 0 7.699219 6.261719 13.960938 13.960938 13.960938 7.695312 0 13.957031-6.261719 13.957031-13.960938 0-7.695312-6.261719-13.957031-13.957031-13.957031h-275.773438c-4.289062 0-7.765625-3.476562-7.765625-7.765625 0-4.289062 3.476563-7.761718 7.765625-7.761718h275.773438c16.257812 0 29.488281 13.226562 29.488281 29.484374 0 16.261719-13.230469 29.488282-29.488281 29.488282zm0 0" fill="#a0ecff"/><path d="m467.378906 360.417969h-286.363281c-4.289063 0-7.765625-3.476563-7.765625-7.761719 0-4.289062 3.476562-7.765625 7.765625-7.765625h286.363281c7.695313 0 13.960938-6.261719 13.960938-13.957031 0-7.699219-6.265625-13.960938-13.960938-13.960938-7.695312 0-13.957031 6.261719-13.957031 13.960938 0 4.289062-3.476563 7.761718-7.765625 7.761718s-7.765625-3.476562-7.765625-7.761718c0-16.261719 13.230469-29.488282 29.488281-29.488282 16.257813 0 29.488282 13.226563 29.488282 29.488282 0 16.257812-13.230469 29.484375-29.488282 29.484375zm0 0" fill="#a0ecff"/><path d="m312.152344 61.769531h-138.269532c-4.289062 0-7.765624-3.476562-7.765624-7.765625 0-4.289062 3.476562-7.765625 7.765624-7.765625h138.269532c7.699218 0 13.960937-6.261719 13.960937-13.957031s-6.261719-13.960938-13.960937-13.960938c-7.695313 0-13.957032 6.265626-13.957032 13.960938 0 4.289062-3.476562 7.765625-7.765624 7.765625-4.285157 0-7.761719-3.476563-7.761719-7.765625 0-16.261719 13.226562-29.488281 29.488281-29.488281 16.257812 0 29.484375 13.230469 29.484375 29.488281s-13.230469 29.488281-29.488281 29.488281zm0 0" fill="#a0ecff"/><g fill="#00df97"><path d="m401.1875 86.449219c1.367188-9.769531-1.703125-20.042969-9.226562-27.566407-7.527344-7.527343-17.800782-10.597656-27.570313-9.230468-1.367187 9.769531 1.707031 20.042968 9.230469 27.566406 7.523437 7.527344 17.796875 10.597656 27.566406 9.230469zm0 0"/><path d="m315.476562 462.824219c9.769532 1.367187 20.042969-1.703125 27.570313-9.226563 7.523437-7.527344 10.59375-17.800781 9.226563-27.570312-9.765626-1.367188-20.042969 1.707031-27.566407 9.230468-7.523437 7.523438-10.597656 17.800782-9.230469 27.566407zm0 0"/><path d="m105.347656 330.679688c9.765625 1.363281 20.042969-1.707032 27.566406-9.230469 7.523438-7.527344 10.597657-17.800781 9.230469-27.570313-9.769531-1.363281-20.042969 1.707032-27.570312 9.230469-7.523438 7.523437-10.59375 17.796875-9.226563 27.570313zm0 0"/><path d="m284.101562 416.09375h-.105468c-4.289063 0-7.765625-3.476562-7.765625-7.765625s3.476562-7.761719 7.765625-7.761719h.105468c4.289063 0 7.765626 3.472656 7.765626 7.761719s-3.476563 7.765625-7.765626 7.765625zm0 0"/><path d="m253.390625 430.808594h-.109375c-4.285156 0-7.761719-3.476563-7.761719-7.765625 0-4.289063 3.476563-7.761719 7.761719-7.761719h.109375c4.289063 0 7.761719 3.476562 7.761719 7.761719 0 4.289062-3.472656 7.765625-7.761719 7.765625zm0 0"/><path d="m469.519531 75.816406h-.109375c-4.285156 0-7.761718-3.476562-7.761718-7.765625 0-4.289062 3.476562-7.765625 7.761718-7.765625h.109375c4.289063 0 7.761719 3.476563 7.761719 7.765625 0 4.289063-3.472656 7.765625-7.761719 7.765625zm0 0"/><path d="m164.539062 87.546875h-.105468c-4.289063 0-7.765625-3.476563-7.765625-7.761719 0-4.289062 3.476562-7.765625 7.765625-7.765625h.105468c4.289063 0 7.765626 3.476563 7.765626 7.765625 0 4.289063-3.476563 7.761719-7.765626 7.761719zm0 0"/></g></svg>