<svg height="512pt" viewBox="-4 0 512 512" width="512pt" xmlns="http://www.w3.org/2000/svg"><path d="m252.195312 512c-4.207031 0-7.613281-3.40625-7.613281-7.613281v-194.847657c0-4.203124 3.410157-7.613281 7.613281-7.613281 4.203126 0 7.609376 3.410157 7.609376 7.613281v194.847657c0 4.207031-3.40625 7.613281-7.609376 7.613281zm0 0" fill="#c4e1e8"/><path d="m140.765625 347.574219h-93.832031l-44.09375-40.21875c-5.835938-5.324219-2.070313-15.042969 5.828125-15.042969h68.160156c2.15625 0 4.238281.804688 5.832031 2.257812zm0 0" fill="#fc4830"/><path d="m140.765625 360.496094h-93.832031l-44.09375 40.222656c-5.835938 5.324219-2.070313 15.042969 5.828125 15.042969h68.160156c2.15625 0 4.238281-.808594 5.832031-2.261719zm0 0" fill="#e81610"/><path d="m108.183594 355.1875c-1.832032 0-3.667969-.65625-5.128906-1.988281l-36.097657-32.929688c-3.105469-2.832031-3.328125-7.644531-.492187-10.75 2.832031-3.105469 7.644531-3.328125 10.75-.496093l36.097656 32.929687c3.109375 2.832031 3.328125 7.648437.496094 10.753906-1.5 1.644531-3.5625 2.480469-5.625 2.480469zm0 0" fill="#ff756e"/><path d="m78.96875 355.1875c-1.832031 0-3.667969-.65625-5.128906-1.988281l-36.097656-32.929688c-3.105469-2.832031-3.324219-7.644531-.492188-10.75s7.648438-3.328125 10.753906-.496093l36.097656 32.929687c3.105469 2.832031 3.324219 7.648437.492188 10.753906-1.5 1.644531-3.558594 2.480469-5.625 2.480469zm0 0" fill="#ff756e"/><path d="m72.089844 400.695312c-2.066406 0-4.125-.835937-5.625-2.480468-2.832032-3.109375-2.613282-7.921875.492187-10.753906l36.097657-32.929688c3.105468-2.832031 7.921874-2.613281 10.753906.492188 2.832031 3.109374 2.613281 7.921874-.492188 10.753906l-36.097656 32.929687c-1.460938 1.332031-3.296875 1.988281-5.128906 1.988281zm0 0" fill="#fc4830"/><path d="m42.875 400.695312c-2.066406 0-4.121094-.835937-5.625-2.480468-2.832031-3.109375-2.613281-7.921875.492188-10.753906l36.101562-32.929688c3.105469-2.832031 7.917969-2.613281 10.75.492188 2.835938 3.109374 2.613281 7.921874-.492188 10.753906l-36.097656 32.929687c-1.460937 1.332031-3.296875 1.988281-5.128906 1.988281zm0 0" fill="#fc4830"/><path d="m466.777344 363.378906h-430.429688c-5.160156 0-9.339844-4.183594-9.339844-9.34375s4.179688-9.34375 9.339844-9.34375h430.429688zm0 0" fill="#dde9ed"/><path d="m434.347656 376.578125 11.917969-22.511719-11.917969-22.507812c-3.925781-7.417969 3.953125-15.523438 11.476563-11.804688l53.746093 26.558594c6.421876 3.175781 6.421876 12.335938 0 15.511719l-53.746093 26.554687c-7.523438 3.71875-15.402344-4.382812-11.476563-11.800781zm0 0" fill="#fc4830"/><path d="m354.066406 95.183594h-35.890625c-20.808593 0-37.675781-16.867188-37.675781-37.675782v-20.722656c0-20.316406 16.46875-36.785156 36.785156-36.785156 20.3125 0 36.78125 16.46875 36.78125 36.785156zm0 0" fill="#fc4830"/><path d="m327.546875 50.789062c-2.570313 0-5.078125-1.300781-6.511719-3.65625l-10.253906-16.863281c-2.183594-3.59375-1.042969-8.277343 2.550781-10.457031 3.59375-2.1875 8.273438-1.042969 10.457031 2.546875l10.253907 16.863281c2.183593 3.59375 1.042969 8.277344-2.550781 10.460938-1.234376.75-2.601563 1.105468-3.945313 1.105468zm0 0" fill="#e81610"/><path d="m374.109375 72.035156v161.761719c0 41.164063-33.367187 74.53125-74.53125 74.53125h-59.582031c-20.582032 0-39.214844-8.34375-52.703125-21.832031-13.488281-13.484375-21.828125-32.117188-21.828125-52.699219 0-6.171875-4.996094-11.164063-11.164063-11.164063h-31.707031c-11.121094 0-20.53125-8.730468-20.832031-19.851562-.050781-2 .179687-3.925781.660156-5.765625 2.292969-8.769531 10.269531-15.222656 19.746094-15.222656h-23.929688c-11.132812 0-20.542969-8.726563-20.84375-19.851563-.050781-1.996094.179688-3.925781.660157-5.761718 2.292968-8.769532 10.28125-15.222657 19.757812-15.222657h-24.367188c-11.46875 0-20.734374-9.460937-20.410156-21 .304688-11.121093 9.710938-19.851562 20.835938-19.851562h112.761718c16.035157 0 30.546876 6.507812 41.0625 17.011719 10.503907 10.503906 17 25.027343 17 41.058593 0 17.710938 14.359376 32.058594 32.070313 32.058594h.832031c17.707032 0 32.058594-14.347656 32.058594-32.058594v-86.140625c0-17.800781 14.429688-32.230468 32.230469-32.230468 17.792969 0 32.222656 14.429687 32.222656 32.230468zm0 0" fill="#38aaff"/><path d="m374.113281 72.035156v161.757813c0 41.164062-33.375 74.53125-74.527343 74.53125h-22.15625c41.164062 0 74.53125-33.367188 74.53125-74.53125v-161.757813c0-13.90625-8.804688-25.746094-21.148438-30.265625 3.460938-1.265625 7.1875-1.957031 11.078125-1.957031 17.796875 0 32.222656 14.425781 32.222656 32.222656zm0 0" fill="#2081f6"/><path d="m366.089844 71.449219-10.238282 10.238281c-2.378906 2.378906-2.378906 6.238281 0 8.617188l10.238282 10.238281c1.765625 1.765625 4.429687 2.273437 6.722656 1.285156l23.738281-10.238281c4.90625-2.117188 4.90625-9.074219 0-11.1875l-23.738281-10.242188c-2.292969-.984375-4.957031-.476562-6.722656 1.289063zm0 0" fill="#a0ecff"/><path d="m278.347656 354.035156c0 14.445313-11.710937 26.15625-26.152344 26.15625-14.445312 0-26.15625-11.710937-26.15625-26.15625 0-14.445312 11.710938-26.152344 26.15625-26.152344 14.441407 0 26.152344 11.707032 26.152344 26.152344zm0 0" fill="#fc4830"/><path d="m278.347656 354.03125c0 14.445312-11.707031 26.160156-26.152344 26.160156-14.449218 0-26.152343-11.714844-26.152343-26.160156 0-3.890625.851562-7.589844 2.390625-10.90625 4.121094 8.992188 13.214844 15.246094 23.761718 15.246094 10.546876 0 19.640626-6.253906 23.761719-15.246094 1.535157 3.316406 2.390625 7.019531 2.390625 10.90625zm0 0" fill="#e81610"/><path d="m160.601562 148.566406c0 4.203125-3.410156 7.613282-7.609374 7.613282h-74.9375c2.292968-8.769532 10.28125-15.222657 19.757812-15.222657h55.175781c4.203125 0 7.613281 3.398438 7.613281 7.609375zm0 0" fill="#2081f6"/><path d="m191.667969 189.40625c0 4.199219-3.402344 7.613281-7.613281 7.613281h-81.632813c2.292969-8.769531 10.269531-15.222656 19.746094-15.222656h61.886719c4.214843-.003906 7.613281 3.40625 7.613281 7.609375zm0 0" fill="#2081f6"/><path d="m337.964844 461.335938c-4.203125 0-7.613282-3.40625-7.613282-7.613282v-44.53125c0-3.308594 2.136719-6.238281 5.289063-7.25 3.15625-1.003906 6.597656.136719 8.519531 2.828125l17.628906 24.703125v-20.28125c0-4.203125 3.410157-7.609375 7.613282-7.609375s7.609375 3.40625 7.609375 7.609375v44.050782c0 3.308593-2.136719 6.238281-5.289063 7.25-3.152344 1.011718-6.59375-.136719-8.515625-2.828126l-17.632812-24.703124v20.765624c0 4.203126-3.40625 7.609376-7.609375 7.609376zm0 0" fill="#38aaff"/><path d="m146.121094 461.335938c-5.703125 0-11.023438-2.550782-14.605469-6.992188-2.636719-3.273438-2.121094-8.066406 1.15625-10.703125 3.273437-2.636719 8.0625-2.121094 10.699219 1.152344.675781.839843 1.679687 1.320312 2.75 1.320312 1.941406 0 3.519531-1.582031 3.519531-3.523437s-1.578125-3.519532-3.519531-3.519532c-10.335938 0-18.746094-8.410156-18.746094-18.746093 0-10.335938 8.410156-18.742188 18.746094-18.742188 4.886718 0 9.511718 1.867188 13.023437 5.265625 3.023438 2.921875 3.105469 7.738282.183594 10.761719s-7.738281 3.105469-10.761719.183594c-.382812-.371094-1.207031-.988281-2.445312-.988281-1.941406 0-3.523438 1.578124-3.523438 3.519531 0 1.945312 1.582032 3.523437 3.523438 3.523437 10.335937 0 18.742187 8.40625 18.742187 18.742188 0 10.335937-8.40625 18.746094-18.742187 18.746094zm0 0" fill="#fc4830"/><path d="m394.804688 485.007812h-284.160157c-4.203125 0-7.609375-3.40625-7.609375-7.613281 0-4.203125 3.40625-7.613281 7.609375-7.613281h284.160157c4.207031 0 7.613281 3.410156 7.613281 7.613281 0 4.207031-3.40625 7.613281-7.613281 7.613281zm0 0" fill="#dde9ed"/><path d="m411.660156 499.085938c-11.960937 0-21.691406-9.730469-21.691406-21.691407 0-11.960937 9.730469-21.691406 21.691406-21.691406 4.203125 0 7.613282 3.40625 7.613282 7.613281 0 4.203125-3.410157 7.609375-7.613282 7.609375-3.566406 0-6.46875 2.902344-6.46875 6.46875 0 3.566407 2.902344 6.46875 6.46875 6.46875 4.203125 0 7.613282 3.40625 7.613282 7.609375 0 4.207032-3.410157 7.613282-7.613282 7.613282zm0 0" fill="#c4e1e8"/><path d="m92.726562 499.085938c-4.203124 0-7.609374-3.40625-7.609374-7.613282 0-4.203125 3.40625-7.609375 7.609374-7.609375 3.566407 0 6.46875-2.902343 6.46875-6.46875 0-3.566406-2.902343-6.46875-6.46875-6.46875-4.203124 0-7.609374-3.40625-7.609374-7.609375 0-4.207031 3.40625-7.613281 7.609374-7.613281 11.960938 0 21.691407 9.730469 21.691407 21.691406 0 11.960938-9.730469 21.691407-21.691407 21.691407zm0 0" fill="#c4e1e8"/><path d="m320.828125 200.804688c0 14.417968-5.84375 27.46875-15.292969 36.929687-9.460937 9.449219-22.511718 15.292969-36.929687 15.292969h-40.644531c-7.042969 0-12.757813-5.714844-12.757813-12.757813v-15.046875c0-1.554687.070313-3.085937.203125-4.597656.464844-5.347656 1.734375-10.464844 3.691406-15.222656 7.804688-19.011719 26.5-32.394532 48.320313-32.394532h25.605469c15.355468-.003906 27.804687 12.4375 27.804687 27.796876zm0 0" fill="#fc4830"/><g fill="#e81610"><path d="m320.828125 200.804688c0 14.421874-5.84375 27.484374-15.292969 36.933593-9.460937 9.445313-22.511718 15.292969-36.929687 15.292969h-22.117188c14.414063 0 27.472657-5.847656 36.921875-15.292969 9.449219-9.449219 15.292969-22.511719 15.292969-36.933593 0-15.355469-12.441406-27.804688-27.796875-27.804688h22.117188c15.355468-.003906 27.804687 12.449219 27.804687 27.804688zm0 0"/><path d="m270.289062 213.011719c0 4.210937-3.398437 7.609375-7.613281 7.609375h-47.273437c.46875-5.347656 1.738281-10.460938 3.695312-15.222656h43.578125c4.214844 0 7.613281 3.410156 7.613281 7.613281zm0 0"/></g></svg>