<svg height="512pt" viewBox="-39 0 511 512" width="512pt" xmlns="http://www.w3.org/2000/svg"><path d="m351.167969 377.980469c0 74.015625-60 134.015625-134.015625 134.015625-74.011719 0-134.011719-60-134.011719-134.015625 0-74.011719 60-134.011719 134.011719-134.011719 74.015625 0 134.015625 60 134.015625 134.011719zm0 0" fill="#f0f5f7"/><path d="m351.167969 377.984375c0 74.007813-59.996094 134.015625-134.015625 134.015625-5.933594 0-11.785156-.390625-17.523438-1.144531 65.726563-8.578125 116.492188-64.796875 116.492188-132.871094s-50.765625-124.300781-116.492188-132.871094c5.738282-.753906 11.589844-1.144531 17.523438-1.144531 74.019531 0 134.015625 60 134.015625 134.015625zm0 0" fill="#c4e1e8"/><path d="m236.027344 306.339844c0 10.421875-8.449219 18.875-18.875 18.875-10.421875 0-18.875-8.453125-18.875-18.875 0-10.425782 8.453125-18.875 18.875-18.875 10.425781 0 18.875 8.449218 18.875 18.875zm0 0" fill="#6d6d6d"/><path d="m236.027344 365.398438c0 10.421874-8.449219 18.875-18.875 18.875-10.421875 0-18.875-8.453126-18.875-18.875 0-10.425782 8.453125-18.875 18.875-18.875 10.425781 0 18.875 8.449218 18.875 18.875zm0 0" fill="#6d6d6d"/><path d="m299.851562 164.460938c0 45.675781-37.023437 82.699218-82.699218 82.699218-45.671875 0-82.699219-37.023437-82.699219-82.699218 0-45.675782 37.027344-82.699219 82.699219-82.699219 45.675781 0 82.699218 37.023437 82.699218 82.699219zm0 0" fill="#f0f5f7"/><path d="m299.855469 164.460938c0 45.679687-37.023438 82.703124-82.703125 82.703124-15.667969 0-30.328125-4.359374-42.8125-11.929687 5.574218 1.183594 11.363281 1.8125 17.285156 1.8125 45.679688 0 82.703125-37.023437 82.703125-82.691406 0-30.019531-15.988281-56.300781-39.917969-70.792969 37.394532 7.929688 65.445313 41.144531 65.445313 80.898438zm0 0" fill="#c4e1e8"/><path d="m221.765625 259.699219h60.859375v133.894531h-60.859375zm0 0" fill="#fc4830"/><path d="m221.765625 259.699219h60.859375v16.691406h-60.859375zm0 0" fill="#e81610"/><path d="m229.496094 421.117188c-4.265625 0-7.726563-3.457032-7.726563-7.722657v-19.800781c0-4.269531 3.460938-7.726562 7.726563-7.726562 4.269531 0 7.726562 3.460937 7.726562 7.726562v19.800781c0 4.265625-3.457031 7.722657-7.726562 7.722657zm0 0" fill="#e81610"/><path d="m252.199219 421.117188c-4.269531 0-7.726563-3.457032-7.726563-7.722657v-19.800781c0-4.269531 3.457032-7.726562 7.726563-7.726562 4.265625 0 7.726562 3.460937 7.726562 7.726562v19.800781c0 4.265625-3.460937 7.722657-7.726562 7.722657zm0 0" fill="#e81610"/><path d="m274.898438 421.117188c-4.265626 0-7.726563-3.457032-7.726563-7.722657v-19.800781c0-4.269531 3.460937-7.726562 7.726563-7.726562 4.265624 0 7.726562 3.460937 7.726562 7.726562v19.800781c0 4.265625-3.457031 7.722657-7.726562 7.722657zm0 0" fill="#e81610"/><path d="m275.925781 264.03125h-117.546875c-11.011718 0-19.933594-8.925781-19.933594-19.9375s8.925782-19.9375 19.933594-19.9375h117.546875c11.011719 0 19.9375 8.929688 19.9375 19.9375 0 11.011719-8.925781 19.9375-19.9375 19.9375zm0 0" fill="#fc4830"/><path d="m322.523438 103.074219c0-11.683594-47.175782-21.15625-105.371094-21.15625-58.195313 0-105.371094 9.472656-105.371094 21.15625 0 11.683593 47.175781 21.152343 105.371094 21.152343 58.195312 0 105.371094-9.46875 105.371094-21.152343zm0 0" fill="#1e6be7"/><path d="m279.144531 21.636719-4.820312 23.109375-6.277344 30.1875-3.746094 17.980468s-16.203125 10.15625-47.148437 10.15625c-29.011719 0-47.148438-10.15625-47.148438-10.15625l-3.8125-18.328124-6.3125-30.320313-4.71875-22.628906c-2.320312-11.164063 6.195313-21.636719 17.59375-21.636719h88.800782c11.398437 0 19.914062 10.472656 17.589843 21.636719zm0 0" fill="#38aaff"/><path d="m279.140625 21.636719-4.8125 23.109375-6.285156 30.183594-3.738281 17.984374s-9.355469 5.863282-27.414063 8.675782c.03125-.011719.042969-.019532.042969-.019532l4.171875-20.058593 7.003906-33.664063 5.378906-25.777344c1.9375-9.3125-2.886719-18.179687-10.757812-22.06640575h18.824219c11.390624 0 19.914062 10.46874975 17.585937 21.63281275zm0 0" fill="#2081f6"/><path d="m274.328125 44.746094-6.285156 30.183594c-7.859375 1.605468-16.648438 2.957031-26.359375 3.832031-7.625.6875-15.804688 1.089843-24.53125 1.089843-19.507813 0-36.664063-2.234374-50.960938-5.261718l-6.316406-30.320313c14.414062 4 33.933594 7.644531 57.277344 7.644531 11.332031 0 21.523437-.75 30.515625-1.914062 10.621093-1.382812 19.550781-3.320312 26.660156-5.253906zm0 0" fill="#fc4830"/><path d="m274.328125 44.746094-6.285156 30.183594c-7.859375 1.605468-16.648438 2.957031-26.359375 3.832031l5.984375-28.761719c10.621093-1.382812 19.550781-3.320312 26.660156-5.253906zm0 0" fill="#e81610"/><g fill="#a0ecff"><path d="m345.707031 168.789062h-.105469c-4.269531 0-7.726562-3.457031-7.726562-7.726562 0-4.265625 3.457031-7.722656 7.726562-7.722656h.105469c4.269531 0 7.726563 3.457031 7.726563 7.722656 0 4.269531-3.460938 7.726562-7.726563 7.726562zm0 0"/><path d="m102.804688 168.789062h-.109376c-4.265624 0-7.722656-3.457031-7.722656-7.726562 0-4.265625 3.457032-7.722656 7.722656-7.722656h.109376c4.265624 0 7.726562 3.457031 7.726562 7.722656 0 4.269531-3.460938 7.726562-7.726562 7.726562zm0 0"/><path d="m94.445312 192.261719c-.027343 0-.050781 0-.074218 0h-.109375c-4.265625-.042969-7.691407-3.535157-7.652344-7.800781.039063-4.242188 3.492187-7.652344 7.726563-7.652344h.070312.109375c4.265625.039062 7.691406 3.53125 7.652344 7.796875-.039063 4.242187-3.492188 7.65625-7.722657 7.65625zm0 0"/><path d="m54.726562 34.4375c-.027343 0-.050781 0-.074218 0h-.109375c-4.265625-.039062-7.691407-3.53125-7.652344-7.796875.039063-4.242187 3.492187-7.65625 7.722656-7.65625h.074219.109375c4.265625.042969 7.691406 3.535156 7.652344 7.800781-.039063 4.242188-3.492188 7.652344-7.722657 7.652344zm0 0"/><path d="m374.960938 42.996094h-.105469c-4.269531 0-7.726563-3.457032-7.726563-7.726563 0-4.265625 3.460938-7.722656 7.726563-7.722656h.105469c4.269531 0 7.726562 3.457031 7.726562 7.722656 0 4.269531-3.457031 7.726563-7.726562 7.726563zm0 0"/></g><path d="m59.171875 222.019531v-40.019531c0-4.265625-3.460937-7.726562-7.726563-7.726562-4.269531 0-7.726562 3.460937-7.726562 7.726562v24.566406l-17.050781-17.050781c-3.015625-3.015625-7.90625-3.015625-10.925781 0-3.015626 3.019531-3.015626 7.910156 0 10.929687l17.046874 17.046876h-24.5625c-4.265624 0-7.726562 3.457031-7.726562 7.726562 0 4.265625 3.460938 7.726562 7.726562 7.726562h40.015626l70.503906 70.5c1.507812 1.507813 3.484375 2.265626 5.464844 2.265626 1.976562 0 3.953124-.757813 5.460937-2.265626 3.019531-3.015624 3.019531-7.90625 0-10.925781zm0 0" fill="#be7560"/><path d="m426.078125 217.492188h-24.5625l17.050781-17.046876c3.015625-3.019531 3.015625-7.910156 0-10.925781-3.019531-3.015625-7.910156-3.019531-10.929687 0l-17.046875 17.046875v-24.5625c0-4.269531-3.460938-7.726562-7.726563-7.726562-4.269531 0-7.726562 3.457031-7.726562 7.726562v40.015625l-70.503907 70.503907c-3.015624 3.015624-3.015624 7.910156 0 10.925781 1.511719 1.507812 3.488282 2.265625 5.464844 2.265625 1.976563 0 3.957032-.757813 5.464844-2.265625l70.503906-70.503907h40.015625c4.269531 0 7.726563-3.457031 7.726563-7.722656-.003906-4.269531-3.460938-7.730468-7.730469-7.730468zm0 0" fill="#be7560"/><path d="m232.605469 185.304688c0 8.535156-6.917969 15.453124-15.453125 15.453124s-15.453125-6.917968-15.453125-15.453124c0-8.535157 6.917969-15.453126 15.453125-15.453126s15.453125 6.917969 15.453125 15.453126zm0 0" fill="#fd8f3e"/><path d="m249.46875 164.527344h-.105469c-4.269531 0-7.726562-3.457032-7.726562-7.722656 0-4.269532 3.457031-7.726563 7.726562-7.726563h.105469c4.269531 0 7.726562 3.457031 7.726562 7.726563 0 4.265624-3.460937 7.722656-7.726562 7.722656zm0 0" fill="#6d6d6d"/><path d="m184.945312 164.527344h-.105468c-4.269532 0-7.726563-3.457032-7.726563-7.722656 0-4.269532 3.457031-7.726563 7.726563-7.726563h.105468c4.265626 0 7.726563 3.457031 7.726563 7.726563 0 4.265624-3.460937 7.722656-7.726563 7.722656zm0 0" fill="#6d6d6d"/></svg>