<svg height="511pt" viewBox="-27 1 511 511.999" width="511pt" xmlns="http://www.w3.org/2000/svg"><path d="m253.433594 511.996094h-218.710938c-18.902344 0-34.222656-15.320313-34.222656-34.222656v-443.550782c0-18.902344 15.320312-34.222656 34.222656-34.222656h218.710938c18.898437 0 34.222656 15.320312 34.222656 34.222656v443.550782c0 18.902343-15.324219 34.222656-34.222656 34.222656zm0 0" fill="#82807f"/><path d="m287.652344 34.226562v443.550782c0 18.894531-15.316406 34.222656-34.222656 34.222656h-32.097657c18.890625 0 34.222657-15.328125 34.222657-34.222656v-443.550782c0-18.90625-15.332032-34.22265575-34.222657-34.22265575h32.097657c18.90625 0 34.222656 15.32031275 34.222656 34.22265575zm0 0" fill="#6d6d6d"/><path d="m.503906 55.324219h287.148438v359.921875h-287.148438zm0 0" fill="#00fbaa"/><path d="m255.554688 55.324219h32.097656v359.921875h-32.097656zm0 0" fill="#00df97"/><path d="m287.652344 69.820312v47.675782l-287.148438 287.148437v-47.675781zm0 0" fill="#78ffce"/><path d="m287.652344 69.820312v47.675782l-32.097656 32.097656v-47.675781zm0 0" fill="#00fbaa"/><path d="m287.652344 146.15625v89.789062l-32.097656 32.101563v-89.792969zm0 0" fill="#00fbaa"/><path d="m.503906 55.324219h287.148438v38.929687h-287.148438zm0 0" fill="#2081f6"/><path d="m255.554688 55.324219h32.097656v38.929687h-32.097656zm0 0" fill="#1e6be7"/><path d="m287.652344 146.15625v89.789062l-179.300782 179.300782h-89.777343l236.980469-236.992188zm0 0" fill="#78ffce"/><path d="m168.359375 462.296875c0 13.410156-10.871094 24.28125-24.28125 24.28125s-24.28125-10.871094-24.28125-24.28125 10.871094-24.28125 24.28125-24.28125 24.28125 10.871094 24.28125 24.28125zm0 0" fill="#565656"/><path d="m402.746094 257.734375c-3.347656-55.304687-49.25-99.121094-105.398438-99.121094-45.28125 0-83.898437 28.503907-98.90625 68.542969-38.996094.472656-70.464844 32.210938-70.464844 71.316406 0 39.398438 31.941407 71.339844 71.339844 71.339844h201.472656c30.960938 0 56.0625-25.101562 56.0625-56.0625 0-30.308594-24.050781-54.980469-54.105468-56.015625zm0 0" fill="#a0ecff"/><path d="m456.855469 313.746094c0 30.964844-25.105469 56.070312-56.070313 56.070312h-4.34375c4.066406-7.761718 6.367188-16.597656 6.367188-25.964844 0-30.304687-24.050782-54.980468-54.105469-56.015624-3.347656-55.300782-49.253906-99.125-105.402344-99.125-7.570312 0-14.953125.796874-22.0625 2.308593 19.207031-19.972656 46.203125-32.40625 76.109375-32.40625 56.148438 0 102.054688 43.816407 105.402344 99.125 30.054688 1.027344 54.105469 25.703125 54.105469 56.007813zm0 0" fill="#60daff"/><path d="m374.792969 253.25c-3.488281 0-6.65625-2.382812-7.503907-5.921875-.957031-3.972656-2.261718-7.882813-3.882812-11.625-1.695312-3.917969.105469-8.464844 4.023438-10.160156 3.910156-1.695313 8.464843.105469 10.160156 4.023437 1.972656 4.554688 3.558594 9.316406 4.722656 14.148438.996094 4.148437-1.558594 8.320312-5.707031 9.316406-.605469.148438-1.214844.21875-1.8125.21875zm0 0" fill="#a0ecff"/><path d="m354.84375 216.832031c-2.03125 0-4.058594-.796875-5.574219-2.375-13.726562-14.300781-32.167969-22.179687-51.921875-22.179687-4.265625 0-7.722656-3.457032-7.722656-7.722656 0-4.269532 3.457031-7.726563 7.722656-7.726563 24.003906 0 46.402344 9.5625 63.070313 26.929687 2.953125 3.078126 2.855469 7.96875-.222657 10.921876-1.5 1.4375-3.425781 2.152343-5.351562 2.152343zm0 0" fill="#a0ecff"/><path d="m112.613281 289.6875c2.394531-39.539062 35.210938-70.867188 75.351563-70.867188 32.371094 0 59.980468 20.378907 70.710937 49.003907 27.875.339843 50.375 23.03125 50.375 50.988281 0 28.164062-22.835937 51-51 51-11.792969 0-131.921875 0-144.039062 0-22.132813 0-40.078125-17.945312-40.078125-40.082031 0-21.664063 17.195312-39.304688 38.679687-40.042969zm0 0" fill="#f0f5f7"/><path d="m309.050781 318.816406c0 27.921875-22.453125 50.605469-50.296875 50.984375 8.347656-9.085937 13.4375-21.1875 13.4375-34.488281 0-27.953125-22.492187-50.648438-50.378906-50.988281-10.726562-28.621094-38.335938-49.003907-70.710938-49.003907-3.824218 0-7.582031.289063-11.257812.839844 13.0625-10.832031 29.828125-17.335937 48.117188-17.335937 32.378906 0 59.984374 20.371093 70.714843 49.003906 27.882813.339844 50.375 23.023437 50.375 50.988281zm0 0" fill="#dde9ed"/><g fill="#f0f5f7"><path d="m61.113281 139.222656h-16.808593c-4.269532 0-7.726563-3.457031-7.726563-7.726562 0-4.265625 3.457031-7.722656 7.726563-7.722656h16.808593c4.265625 0 7.726563 3.457031 7.726563 7.722656 0 4.269531-3.460938 7.726562-7.726563 7.726562zm0 0"/><path d="m104.378906 166.675781h-60.074218c-4.269532 0-7.726563-3.460937-7.726563-7.726562 0-4.269531 3.457031-7.726563 7.726563-7.726563h60.074218c4.269532 0 7.726563 3.460938 7.726563 7.726563 0 4.269531-3.457031 7.726562-7.726563 7.726562zm0 0"/><path d="m104.378906 188.671875h-60.074218c-4.269532 0-7.726563-3.457031-7.726563-7.726563 0-4.265624 3.457031-7.726562 7.726563-7.726562h60.074218c4.269532 0 7.726563 3.460938 7.726563 7.726562 0 4.269532-3.457031 7.726563-7.726563 7.726563zm0 0"/></g><path d="m44.359375 225.425781h-.109375c-4.265625 0-7.726562-3.457031-7.726562-7.726562 0-4.265625 3.460937-7.722657 7.726562-7.722657h.109375c4.265625 0 7.722656 3.457032 7.722656 7.722657 0 4.269531-3.457031 7.726562-7.722656 7.726562zm0 0" fill="#2081f6"/><path d="m64.433594 225.425781h-.105469c-4.269531 0-7.726563-3.457031-7.726563-7.726562 0-4.265625 3.457032-7.722657 7.726563-7.722657h.105469c4.269531 0 7.726562 3.457032 7.726562 7.722657 0 4.269531-3.460937 7.726562-7.726562 7.726562zm0 0" fill="#2081f6"/></svg>