<svg height="511pt" viewBox="0 -31 511.9992 511" width="511pt" xmlns="http://www.w3.org/2000/svg"><g fill="#c4e1e8"><path d="m504.492188 200.484375c-1.1875 0-2.390626-.28125-3.515626-.878906l-95.367187-50.691407-35.078125 33.03125c-3.015625 2.839844-7.761719 2.695313-10.601562-.320312-2.839844-3.015625-2.695313-7.761719.320312-10.601562l38.988281-36.714844c2.339844-2.203125 5.824219-2.671875 8.664063-1.164063l100.117187 53.214844c3.65625 1.945313 5.042969 6.488281 3.101563 10.144531-1.347656 2.535156-3.945313 3.980469-6.628906 3.980469zm0 0"/><path d="m153.503906 283.902344c-1.636718 0-3.28125-.53125-4.660156-1.628906-3.242188-2.578126-3.78125-7.296876-1.203125-10.539063l52.304687-65.769531c2.394532-3.007813 6.667969-3.722656 9.90625-1.652344l68.578126 43.757812 53.304687-50.191406c3.011719-2.839844 7.757813-2.699218 10.601563.316406 2.839843 3.015626 2.695312 7.761719-.320313 10.601563l-57.550781 54.199219c-2.5 2.355468-6.28125 2.710937-9.175782.859375l-67.808593-43.265625-48.101563 60.480468c-1.480468 1.863282-3.667968 2.832032-5.875 2.832032zm0 0"/><path d="m102.34375 348.234375c-1.097656 0-2.207031-.242187-3.25-.742187l-94.84375-45.648438c-3.734375-1.796875-5.304688-6.277344-3.507812-10.011719 1.796874-3.734375 6.28125-5.300781 10.011718-3.503906l89.449219 43.054687 27.246094-34.261718c2.578125-3.242188 7.296875-3.777344 10.539062-1.199219 3.242188 2.578125 3.777344 7.296875 1.199219 10.535156l-30.972656 38.945313c-1.457032 1.835937-3.640625 2.832031-5.871094 2.832031zm0 0"/></g><path d="m121.492188 208.679688c0 14.863281-12.046876 26.910156-26.910157 26.910156s-26.910156-12.046875-26.910156-26.910156c0-9.753907 11.589844-28.898438 19.554687-40.90625 3.492188-5.261719 11.21875-5.261719 14.710938 0 7.96875 12.011718 19.554688 31.152343 19.554688 40.90625zm0 0" fill="#a0ecff"/><path d="m121.492188 208.679688c0 14.859374-12.042969 26.910156-26.910157 26.910156-3.726562 0-7.277343-.757813-10.507812-2.128906 9.648437-4.085938 16.414062-13.648438 16.414062-24.78125 0-8.527344-8.855469-24.230469-16.402343-36.070313 1.078124-1.695313 2.132812-3.3125 3.128906-4.820313 3.496094-5.269531 11.222656-5.285156 14.71875-.015624 7.96875 12.007812 19.558594 31.152343 19.558594 40.90625zm0 0" fill="#60daff"/><path d="m232.726562 107.039062c0 14.859376-12.046874 26.910157-26.910156 26.910157-14.863281 0-26.910156-12.046875-26.910156-26.910157 0-9.753906 11.585938-28.898437 19.554688-40.90625 3.492187-5.261718 11.214843-5.261718 14.707031 0 7.96875 12.007813 19.558593 31.152344 19.558593 40.90625zm0 0" fill="#a0ecff"/><path d="m232.722656 107.039062c0 14.859376-12.039062 26.910157-26.90625 26.910157-3.726562 0-7.277344-.757813-10.507812-2.128907 9.648437-4.085937 16.414062-13.648437 16.414062-24.78125 0-8.527343-8.855468-24.234374-16.40625-36.070312 1.082032-1.699219 2.136719-3.3125 3.132813-4.820312 3.496093-5.269532 11.222656-5.285157 14.71875-.015626 7.964843 12.007813 19.554687 31.152344 19.554687 40.90625zm0 0" fill="#60daff"/><path d="m306.847656 149.574219c0 14.863281-12.046875 26.910156-26.910156 26.910156s-26.910156-12.046875-26.910156-26.910156c0-9.753907 11.589844-28.898438 19.554687-40.90625 3.492188-5.261719 11.214844-5.261719 14.710938 0 7.964843 12.007812 19.554687 31.152343 19.554687 40.90625zm0 0" fill="#a0ecff"/><path d="m306.84375 149.574219c0 14.859375-12.039062 26.910156-26.90625 26.910156-3.726562 0-7.277344-.757813-10.507812-2.128906 9.648437-4.085938 16.414062-13.648438 16.414062-24.78125 0-8.527344-8.855469-24.230469-16.40625-36.070313 1.082031-1.695312 2.136719-3.3125 3.132812-4.820312 3.496094-5.269532 11.222657-5.285156 14.71875-.015625 7.96875 12.007812 19.554688 31.152343 19.554688 40.90625zm0 0" fill="#60daff"/><path d="m430.519531 45.351562c0 14.863282-12.050781 26.910157-26.910156 26.910157-14.863281 0-26.914063-12.046875-26.914063-26.910157 0-9.75 11.589844-28.894531 19.558594-40.90625 3.492188-5.261718 11.214844-5.261718 14.707032 0 7.96875 12.011719 19.558593 31.15625 19.558593 40.90625zm0 0" fill="#a0ecff"/><path d="m430.515625 45.355469c0 14.855469-12.042969 26.90625-26.910156 26.90625-3.726563 0-7.273438-.757813-10.503907-2.125 9.648438-4.089844 16.410157-13.648438 16.410157-24.78125 0-8.527344-8.855469-24.234375-16.402344-36.074219 1.082031-1.695312 2.132813-3.3125 3.132813-4.816406 3.492187-5.273438 11.222656-5.289063 14.71875-.019532 7.964843 12.007813 19.554687 31.152344 19.554687 40.910157zm0 0" fill="#60daff"/><path d="m126.285156 340.734375c0 13.222656-10.71875 23.9375-23.9375 23.9375-13.222656 0-23.9375-10.714844-23.9375-23.9375 0-13.21875 10.714844-23.9375 23.9375-23.9375 13.21875 0 23.9375 10.71875 23.9375 23.9375zm0 0" fill="#00fbaa"/><path d="m229.753906 210.632812c0 13.222657-10.71875 23.9375-23.9375 23.9375-13.222656 0-23.9375-10.714843-23.9375-23.9375 0-13.21875 10.714844-23.9375 23.9375-23.9375 13.21875 0 23.9375 10.71875 23.9375 23.9375zm0 0" fill="#fab03c"/><path d="m303.875 258.507812c0 13.222657-10.714844 23.9375-23.9375 23.9375-13.21875 0-23.9375-10.714843-23.9375-23.9375 0-13.21875 10.71875-23.9375 23.9375-23.9375 13.222656 0 23.9375 10.71875 23.9375 23.9375zm0 0" fill="#00fbaa"/><path d="m427.546875 140.601562c0 13.222657-10.71875 23.9375-23.9375 23.9375-13.222656 0-23.941406-10.714843-23.941406-23.9375 0-13.21875 10.71875-23.9375 23.941406-23.9375 13.21875 0 23.9375 10.71875 23.9375 23.9375zm0 0" fill="#fab03c"/><path d="m108.648438 402.113281h-16.316407c-4.140625 0-7.5-3.355469-7.5-7.5s3.359375-7.5 7.5-7.5h16.316407c4.144531 0 7.5 3.355469 7.5 7.5s-3.355469 7.5-7.5 7.5zm0 0" fill="#00fbaa"/><path d="m150.648438 428.761719h-58.316407c-4.140625 0-7.5-3.355469-7.5-7.5s3.359375-7.5 7.5-7.5h58.316407c4.144531 0 7.5 3.355469 7.5 7.5s-3.355469 7.5-7.5 7.5zm0 0" fill="#6d6d6d"/><path d="m150.648438 450.113281h-58.316407c-4.140625 0-7.5-3.355469-7.5-7.5s3.359375-7.5 7.5-7.5h58.316407c4.144531 0 7.5 3.355469 7.5 7.5s-3.355469 7.5-7.5 7.5zm0 0" fill="#6d6d6d"/><path d="m291.035156 324.234375h-16.316406c-4.144531 0-7.5-3.355469-7.5-7.5 0-4.140625 3.355469-7.5 7.5-7.5h16.316406c4.140625 0 7.5 3.359375 7.5 7.5 0 4.144531-3.359375 7.5-7.5 7.5zm0 0" fill="#00fbaa"/><path d="m333.03125 350.882812h-58.3125c-4.144531 0-7.5-3.355468-7.5-7.5 0-4.144531 3.355469-7.5 7.5-7.5h58.3125c4.144531 0 7.5 3.355469 7.5 7.5 0 4.144532-3.355469 7.5-7.5 7.5zm0 0" fill="#6d6d6d"/><path d="m333.03125 372.234375h-58.3125c-4.144531 0-7.5-3.355469-7.5-7.5s3.355469-7.5 7.5-7.5h58.3125c4.144531 0 7.5 3.355469 7.5 7.5s-3.355469 7.5-7.5 7.5zm0 0" fill="#6d6d6d"/></svg>