<svg height="512pt" viewBox="0 -64 512 511" width="512pt" xmlns="http://www.w3.org/2000/svg"><path d="m450.308594 113.515625c-3.816406-63.054687-56.152344-113.015625-120.167969-113.015625-51.628906 0-95.660156 32.5-112.769531 78.152344-44.460938.539062-80.339844 36.726562-80.339844 81.3125 0 44.921875 36.414062 81.335937 81.335938 81.335937h229.707031c35.304687 0 63.921875-28.617187 63.921875-63.921875 0-34.554687-27.421875-62.6875-61.6875-63.863281zm0 0" fill="#a0ecff"/><path d="m512 177.378906c0 35.300782-28.621094 63.925782-63.925781 63.925782h-4.953125c4.636718-8.851563 7.257812-18.925782 7.257812-29.601563 0-34.550781-27.417968-62.6875-61.6875-63.867187-3.816406-63.054688-56.15625-113.019532-120.171875-113.019532-8.632812 0-17.050781.910156-25.160156 2.636719 21.898437-22.773437 52.679687-36.949219 86.78125-36.949219 64.015625 0 116.355469 49.953125 120.171875 113.015625 34.269531 1.167969 61.6875 29.304688 61.6875 63.859375zm0 0" fill="#60daff"/><path d="m419.910156 123.078125c-4.054687 0-7.457031-3.15625-7.707031-7.257813-.292969-4.863281-1.019531-9.710937-2.160156-14.410156-1.007813-4.144531 1.535156-8.324218 5.683593-9.332031 4.152344-1.007813 8.324219 1.539063 9.332032 5.6875 1.355468 5.585937 2.222656 11.347656 2.574218 17.121094.257813 4.261719-2.988281 7.921875-7.246093 8.179687-.160157.007813-.320313.011719-.476563.011719zm0 0" fill="#a0ecff"/><path d="m408.824219 85.003906c-2.714844 0-5.347657-1.433594-6.761719-3.972656-10.976562-19.734375-29.78125-34.246094-51.59375-39.8125-4.132812-1.058594-6.628906-5.265625-5.574219-9.398438 1.058594-4.136718 5.265625-6.628906 9.398438-5.578124 25.90625 6.617187 48.238281 23.847656 61.273437 47.277343 2.074219 3.730469.734375 8.433594-2.996094 10.507813-1.1875.664062-2.476562.976562-3.746093.976562zm0 0" fill="#a0ecff"/><path d="m113.425781 149.945312c2.726563-45.082031 40.144531-80.796874 85.910157-80.796874 36.910156 0 68.386718 23.234374 80.621093 55.871093 31.785157.382813 57.4375 26.253907 57.4375 58.132813 0 32.113281-26.035156 58.148437-58.152343 58.148437-13.441407 0-150.40625 0-164.222657 0-25.238281 0-45.695312-20.460937-45.695312-45.699219 0-24.703124 19.605469-44.816406 44.101562-45.65625zm0 0" fill="#f0f5f7"/><path d="m337.394531 183.15625c0 31.835938-25.601562 57.699219-57.347656 58.132812 9.515625-10.359374 15.320313-24.160156 15.320313-39.324218 0-31.871094-25.644532-57.746094-57.4375-58.132813-12.234376-32.632812-43.707032-55.871093-80.625-55.871093-4.359376 0-8.644532.328124-12.832032.953124 14.890625-12.347656 34.003906-19.761718 54.859375-19.761718 36.914063 0 68.390625 23.226562 80.625 55.871094 31.789063.386718 57.4375 26.25 57.4375 58.132812zm0 0" fill="#dde9ed"/><g fill="#00fbaa"><path d="m257.152344 200.074219h-245.128906c-6.640626 0-12.023438-5.382813-12.023438-12.023438 0-6.644531 5.382812-12.027343 12.023438-12.027343h245.128906c17.0625 0 30.941406-13.878907 30.941406-30.9375 0-17.0625-13.882812-30.941407-30.941406-30.941407s-30.9375 13.878907-30.9375 30.941407c0 6.640624-5.386719 12.023437-12.027344 12.023437s-12.023438-5.382813-12.023438-12.023437c0-30.320313 24.667969-54.988282 54.988282-54.988282 30.324218 0 54.992187 24.667969 54.992187 54.988282 0 30.320312-24.671875 54.988281-54.992187 54.988281zm0 0"/><path d="m223.59375 273.027344h-141.019531c-6.644531 0-12.027344 5.382812-12.027344 12.023437s5.386719 12.027344 12.027344 12.027344h141.019531c17.058594 0 30.9375 13.878906 30.9375 30.9375s-13.878906 30.9375-30.9375 30.9375c-17.0625 0-30.941406-13.878906-30.941406-30.9375 0-6.640625-5.382813-12.023437-12.023438-12.023437s-12.027344 5.382812-12.027344 12.023437c0 30.320313 24.671876 54.988281 54.992188 54.988281s54.988281-24.667968 54.988281-54.988281-24.667969-54.988281-54.988281-54.988281zm0 0"/><path d="m351.734375 225.25h-302.847656c-6.640625 0-12.023438 5.386719-12.023438 12.027344s5.382813 12.023437 12.023438 12.023437h302.847656c17.0625 0 30.941406 13.878907 30.941406 30.9375 0 17.0625-13.878906 30.941407-30.941406 30.941407-17.058594 0-30.9375-13.878907-30.9375-30.941407 0-6.640625-5.382813-12.023437-12.023437-12.023437-6.640626 0-12.027344 5.382812-12.027344 12.023437 0 30.324219 24.667968 54.992188 54.992187 54.992188 30.320313 0 54.988281-24.667969 54.988281-54.992188 0-30.320312-24.667968-54.988281-54.992187-54.988281zm0 0"/><path d="m431.933594 287.371094c-.015625 0-.027344 0-.039063 0h-.105469c-4.269531-.019532-7.710937-3.496094-7.691406-7.761719.019532-4.269531 3.488282-7.699219 7.765625-7.691406l.105469.003906c4.265625.019531 7.710938 3.492187 7.6875 7.761719-.019531 4.253906-3.476562 7.6875-7.722656 7.6875zm0 0"/><path d="m441.066406 313.589844c-.015625 0-.027344 0-.039062 0h-.105469c-4.269531-.023438-7.710937-3.496094-7.691406-7.765625.023437-4.253907 3.476562-7.6875 7.726562-7.6875h.039063.105468c4.265626.019531 7.707032 3.496093 7.6875 7.761719-.019531 4.257812-3.472656 7.691406-7.722656 7.691406zm0 0"/><path d="m119.351562 335.742188c-.011718 0-.023437 0-.035156 0h-.105468c-4.269532-.019532-7.710938-3.496094-7.691407-7.761719.019531-4.257813 3.476563-7.691407 7.726563-7.691407h.035156.105469c4.269531.019532 7.710937 3.496094 7.691406 7.765626-.019531 4.253906-3.476563 7.6875-7.726563 7.6875zm0 0"/><path d="m62.519531 141.125c-.011719 0-.023437 0-.035156 0h-.105469c-4.269531-.019531-7.710937-3.496094-7.691406-7.761719.023438-4.269531 3.527344-7.691406 7.761719-7.691406h.109375c4.265625.023437 7.707031 3.496094 7.6875 7.765625-.019532 4.253906-3.476563 7.6875-7.726563 7.6875zm0 0"/></g></svg>