<svg height="512pt" viewBox="0 -11 512 512" width="512pt" xmlns="http://www.w3.org/2000/svg"><path d="m325.457031 332.925781h-69.847656l39.144531-39.144531h-95.121094l-58.90625 58.898438c-7.109374 7.105468-2.066406 19.257812 7.976563 19.257812h66.191406l-99.5625 99.5625c-4.773437 4.769531-4.105469 10.90625-.855469 14.992188 3.328126 4.171874 9.375 6.195312 15.105469 2.359374l202.148438-135.269531c9.261719-6.207031 4.871093-20.65625-6.273438-20.65625zm0 0" fill="#f6cb43"/><path d="m325.457031 332.925781h-69.847656l39.144531-39.144531h-47.558594l-39.804687 39.808594c-7.109375 7.105468-2.074219 19.257812 7.976563 19.257812h66.328124l-167.222656 133.644532c3.328125 4.175781 9.375 6.195312 15.105469 2.359374l202.148437-135.269531c9.265626-6.207031 4.875-20.65625-6.269531-20.65625zm0 0" fill="#fab03c"/><path d="m269.230469 100.816406c0 55.683594-45.136719 100.820313-100.820313 100.820313-55.679687 0-100.816406-45.136719-100.816406-100.820313 0-55.679687 45.136719-100.816406 100.816406-100.816406 55.683594 0 100.820313 45.136719 100.820313 100.816406zm0 0" fill="#f6cb43"/><path d="m268.890625 92.570312c4.550781 55.496094-36.742187 104.171876-92.238281 108.722657-48.671875 3.992187-92.105469-27.28125-105.109375-72.476563 6.546875.769532 13.261719.902344 20.082031.34375 55.496094-4.550781 96.789062-53.226562 92.238281-108.722656-.5625-6.820312-1.789062-13.421875-3.613281-19.757812 46.710938 5.472656 84.648438 43.226562 88.640625 91.890624zm0 0" fill="#fab03c"/><path d="m439.652344 145.230469c-4.476563-73.945313-65.851563-132.535157-140.925782-132.535157-60.542968 0-112.179687 38.113282-132.25 91.652344-52.136718.628906-94.214843 43.066406-94.214843 95.355469 0 52.679687 42.707031 95.386719 95.386719 95.386719h269.386718c41.398438 0 74.960938-33.5625 74.960938-74.960938 0-40.523437-32.15625-73.515625-72.34375-74.898437zm0 0" fill="#a0ecff"/><path d="m512 220.125c0 41.398438-33.566406 74.96875-74.96875 74.96875h-5.808594c5.4375-10.378906 8.511719-22.191406 8.511719-34.714844 0-40.519531-32.15625-73.515625-72.339844-74.898437-4.476562-73.945313-65.859375-132.539063-140.933593-132.539063-10.121094 0-19.992188 1.066406-29.503907 3.089844 25.683594-26.710938 61.78125-43.332031 101.769531-43.332031 75.074219 0 136.453126 58.582031 140.929688 132.539062 40.1875 1.371094 72.34375 34.367188 72.34375 74.886719zm0 0" fill="#60daff"/><path d="m402.277344 136.628906c-3.488282 0-6.652344-2.378906-7.503906-5.921875-1.3125-5.453125-3.105469-10.824219-5.332032-15.96875-1.695312-3.917969.109375-8.464843 4.023438-10.160156 3.917968-1.695313 8.464844.105469 10.160156 4.023437 2.578125 5.957032 4.65625 12.179688 6.171875 18.492188 1 4.148438-1.558594 8.320312-5.707031 9.316406-.605469.148438-1.214844.21875-1.8125.21875zm0 0" fill="#a0ecff"/><path d="m375.601562 87.9375c-2.03125 0-4.054687-.796875-5.574218-2.375-18.847656-19.640625-44.171875-30.457031-71.296875-30.457031-4.269531 0-7.726563-3.457031-7.726563-7.722657 0-4.269531 3.457032-7.726562 7.726563-7.726562 31.375 0 60.65625 12.503906 82.445312 35.207031 2.957031 3.078125 2.855469 7.96875-.222656 10.921875-1.5 1.4375-3.425781 2.152344-5.351563 2.152344zm0 0" fill="#a0ecff"/><path d="m51.71875 187.953125c3.203125-52.867187 47.082031-94.753906 100.75-94.753906 43.285156 0 80.203125 27.246093 94.550781 65.523437 37.273438.453125 67.355469 30.792969 67.355469 68.171875 0 37.664063-30.53125 68.195313-68.195312 68.195313-15.765626 0-176.390626 0-192.585938 0-29.601562 0-53.59375-23.996094-53.59375-53.59375 0-28.96875 22.988281-52.554688 51.71875-53.542969zm0 0" fill="#f0f5f7"/><path d="m314.375 226.902344c0 37.335937-30.023438 67.667968-67.253906 68.171875 11.160156-12.148438 17.96875-28.332031 17.96875-46.113281 0-37.378907-30.078125-67.722657-67.363282-68.175782-14.34375-38.269531-51.253906-65.523437-94.546874-65.523437-5.117188 0-10.136719.386719-15.050782 1.121093 17.460938-14.480468 39.878906-23.179687 64.335938-23.179687 43.292968 0 80.203125 27.242187 94.550781 65.523437 37.285156.453126 67.359375 30.785157 67.359375 68.175782zm0 0" fill="#dde9ed"/></svg>