<svg height="512pt" viewBox="0 -6 512 512" width="512pt" xmlns="http://www.w3.org/2000/svg"><path d="m281.980469 363.222656-202.148438 135.269532c-5.730469 3.835937-11.777343 1.816406-15.105469-2.359376-3.25-4.082031-3.914062-10.222656.855469-14.992187l99.5625-99.5625h-66.191406c-10.039063 0-15.082031-12.152344-7.972656-19.257813l106.511719-106.5h95.117187l-86.746094 86.746094h69.84375c11.148438 0 15.535157 14.449219 6.273438 20.65625zm0 0" fill="#f6cb43"/><path d="m281.980469 363.222656-202.148438 135.269532c-5.730469 3.835937-11.777343 1.816406-15.105469-2.359376l167.21875-133.644531h-66.324218c-10.050782 0-15.085938-12.152343-7.980469-19.257812l87.402344-87.414063h47.566406l-86.746094 86.746094h69.84375c11.148438.003906 15.535157 14.453125 6.273438 20.660156zm0 0" fill="#fab03c"/><path d="m331.289062 338.328125 127.582032 80.953125c3.617187 2.292969 7.339844.949219 9.34375-1.691406 1.957031-2.585938 2.277344-6.410156-.757813-9.300782l-63.332031-60.324218 41.105469-1c6.234375-.152344 9.183593-7.773438 4.660156-12.078125l-67.753906-64.53125-59.070313 1.4375 55.183594 52.558593-43.375 1.054688c-6.925781.167969-9.429688 9.210938-3.585938 12.921875zm0 0" fill="#f6cb43"/><path d="m360.796875 438.1875c-1.976563 0-3.953125-.753906-5.460937-2.265625l-31.132813-31.132813c-2.210937-2.207031-2.871094-5.53125-1.675781-8.417968 1.195312-2.886719 4.011718-4.769532 7.136718-4.769532h12.480469l-8.042969-8.042968c-3.015624-3.019532-3.015624-7.910156 0-10.925782 3.019532-3.019531 7.910157-3.019531 10.929688 0l21.230469 21.230469c2.210937 2.210938 2.871093 5.535157 1.675781 8.421875-1.195312 2.886719-4.015625 4.769532-7.140625 4.769532h-12.476563l17.941407 17.941406c3.015625 3.019531 3.015625 7.910156 0 10.929687-1.507813 1.503907-3.488281 2.261719-5.464844 2.261719zm0 0" fill="#fab03c"/><path d="m42.289062 365.449219c-1.976562 0-3.953124-.753907-5.464843-2.261719-3.015625-3.019531-3.015625-7.910156 0-10.929688l17.945312-17.941406h-12.480469c-3.125 0-5.941406-1.882812-7.136718-4.769531-1.199219-2.886719-.535156-6.210937 1.671875-8.417969l21.234375-21.234375c3.015625-3.015625 7.910156-3.015625 10.925781 0 3.019531 3.015625 3.019531 7.910157 0 10.925781l-8.042969 8.042969h12.480469c3.125 0 5.941406 1.882813 7.136719 4.773438 1.199218 2.886719.535156 6.207031-1.671875 8.417969l-31.132813 31.132812c-1.511718 1.507812-3.488281 2.261719-5.464844 2.261719zm0 0" fill="#f6cb43"/><path d="m439.652344 132.535156c-4.476563-73.945312-65.851563-132.535156-140.925782-132.535156-60.542968 0-112.179687 38.113281-132.25 91.652344-52.136718.628906-94.214843 43.066406-94.214843 95.355468 0 52.679688 42.707031 95.386719 95.386719 95.386719h269.386718c41.398438 0 74.960938-33.5625 74.960938-74.960937 0-40.523438-32.15625-73.515625-72.34375-74.898438zm0 0" fill="#c4e1e8"/><path d="m512 207.429688c0 41.398437-33.566406 74.96875-74.96875 74.96875h-5.808594c5.4375-10.378907 8.511719-22.191407 8.511719-34.714844 0-40.519532-32.15625-73.515625-72.339844-74.898438-4.476562-73.941406-65.859375-132.539062-140.933593-132.539062-10.121094 0-19.992188 1.066406-29.503907 3.089844 25.683594-26.707032 61.78125-43.33203175 101.769531-43.33203175 75.074219 0 136.453126 58.58203175 140.929688 132.53906275 40.1875 1.371093 72.34375 34.367187 72.34375 74.886719zm0 0" fill="#a4d5dd"/><path d="m402.277344 123.933594c-3.488282 0-6.652344-2.378906-7.503906-5.921875-1.3125-5.453125-3.105469-10.824219-5.332032-15.972657-1.691406-3.914062.109375-8.460937 4.027344-10.15625 3.917969-1.695312 8.460938.109376 10.15625 4.023438 2.578125 5.957031 4.652344 12.179688 6.171875 18.492188 1 4.148437-1.558594 8.320312-5.707031 9.320312-.605469.144531-1.214844.214844-1.8125.214844zm0 0" fill="#c4e1e8"/><path d="m375.601562 75.242188c-2.03125 0-4.054687-.796876-5.574218-2.375-18.847656-19.640626-44.171875-30.457032-71.300782-30.457032-4.265624 0-7.722656-3.457031-7.722656-7.722656 0-4.269531 3.457032-7.726562 7.722656-7.726562 31.378907 0 60.660157 12.503906 82.449219 35.203124 2.957031 3.078126 2.855469 7.972657-.222656 10.925782-1.5 1.4375-3.425781 2.152344-5.351563 2.152344zm0 0" fill="#c4e1e8"/><path d="m51.71875 175.257812c3.203125-52.867187 47.082031-94.753906 100.75-94.753906 43.285156 0 80.203125 27.25 94.550781 65.523438 37.273438.453125 67.355469 30.792968 67.355469 68.171875 0 37.664062-30.53125 68.195312-68.195312 68.195312-15.765626 0-176.390626 0-192.585938 0-29.601562 0-53.59375-23.996093-53.59375-53.59375 0-28.96875 22.988281-52.554687 51.71875-53.542969zm0 0" fill="#f0f5f7"/><path d="m314.375 214.207031c0 37.335938-30.023438 67.667969-67.253906 68.171875 11.160156-12.148437 17.96875-28.332031 17.96875-46.113281 0-37.378906-30.078125-67.722656-67.363282-68.175781-14.34375-38.269532-51.253906-65.523438-94.546874-65.523438-5.117188 0-10.136719.386719-15.050782 1.121094 17.460938-14.480469 39.878906-23.179688 64.335938-23.179688 43.292968 0 80.203125 27.242188 94.550781 65.523438 37.285156.453125 67.359375 30.785156 67.359375 68.175781zm0 0" fill="#dde9ed"/></svg>