<svg height="512pt" viewBox="0 -26 512 512" width="512pt" xmlns="http://www.w3.org/2000/svg"><path d="m444.40625 100.816406c0 55.683594-45.140625 100.820313-100.820312 100.820313-55.679688 0-100.816407-45.136719-100.816407-100.820313 0-55.679687 45.136719-100.816406 100.816407-100.816406 55.679687 0 100.820312 45.136719 100.820312 100.816406zm0 0" fill="#f6cb43"/><path d="m243.105469 92.570312c-4.550781 55.496094 36.742187 104.171876 92.238281 108.726563 48.675781 3.992187 92.105469-27.285156 105.109375-72.480469-6.546875.769532-13.257813.902344-20.082031.34375-55.496094-4.550781-96.789063-53.226562-92.234375-108.722656.558593-6.824219 1.785156-13.425781 3.609375-19.757812-46.710938 5.472656-84.644532 43.226562-88.640625 91.890624zm0 0" fill="#fab03c"/><path d="m72.34375 145.230469c4.476562-73.945313 65.851562-132.535157 140.925781-132.535157 60.546875 0 112.183594 38.113282 132.25 91.652344 52.140625.628906 94.21875 43.066406 94.21875 95.355469 0 52.679687-42.707031 95.386719-95.386719 95.386719-22.050781 0-246.730468 0-269.390624 0-41.398438 0-74.960938-33.5625-74.960938-74.960938 0-40.523437 32.15625-73.515625 72.34375-74.898437zm0 0" fill="#a09d9c"/><path d="m439.734375 199.703125c0 50.15625-38.710937 91.28125-87.910156 95.101563 12.234375-16.03125 19.488281-36.058594 19.488281-57.773438 0-52.289062-42.082031-94.726562-94.21875-95.363281-20.0625-53.535157-71.703125-91.644531-132.25-91.644531-10.546875 0-20.832031 1.15625-30.722656 3.359374 25.492187-25.160156 60.496094-40.6875 99.144531-40.6875 60.546875 0 112.1875 38.109376 132.25 91.65625 52.148437.625 94.21875 43.0625 94.21875 95.351563zm0 0" fill="#82807f"/><path d="m460.28125 187.953125c-3.203125-52.867187-47.082031-94.753906-100.75-94.753906-43.289062 0-80.203125 27.246093-94.550781 65.523437-37.273438.453125-67.355469 30.792969-67.355469 68.171875 0 37.664063 30.53125 68.195313 68.191406 68.195313h192.589844c29.601562 0 53.59375-23.996094 53.59375-53.59375 0-28.96875-22.992188-52.554688-51.71875-53.542969zm0 0" fill="#f0f5f7"/><path d="m512 241.503906c0 29.363282-23.628906 53.214844-52.90625 53.578125 4.777344-8.015625 7.53125-17.398437 7.53125-27.40625 0-28.972656-22.992188-52.554687-51.71875-53.546875-3.191406-52.863281-47.082031-94.757812-100.75-94.757812-8.972656 0-17.683594 1.164062-25.964844 3.378906 18.246094-18.257812 43.472656-29.554688 71.339844-29.554688 53.667969 0 97.546875 41.898438 100.75 94.761719 28.726562.988281 51.71875 24.574219 51.71875 53.546875zm0 0" fill="#dde9ed"/><path d="m426.054688 197.75c-4.054688 0-7.457032-3.15625-7.707032-7.257812-.152344-2.535157-.472656-5.074219-.949218-7.550782-.804688-4.1875 1.941406-8.238281 6.132812-9.042968 4.195312-.804688 8.238281 1.941406 9.042969 6.128906.601562 3.125 1.003906 6.332031 1.199219 9.527344.257812 4.261718-2.988282 7.921874-7.246094 8.179687-.160156.011719-.316406.015625-.472656.015625zm0 0" fill="#f0f5f7"/><path d="m417.003906 168.078125c-2.644531 0-5.21875-1.359375-6.660156-3.800781-5.175781-8.769532-12.578125-16.097656-21.410156-21.199219-3.695313-2.132813-4.964844-6.859375-2.828125-10.554687 2.132812-3.695313 6.859375-4.960938 10.550781-2.828126 11.132812 6.429688 20.46875 15.671876 26.996094 26.730469 2.167968 3.671875.945312 8.410157-2.726563 10.578125-1.234375.726563-2.585937 1.074219-3.921875 1.074219zm0 0" fill="#f0f5f7"/><g fill="#60daff"><path d="m464.378906 351.476562c-4.253906 0-7.710937-3.441406-7.726562-7.699218-.015625-4.265625 3.433594-7.738282 7.699218-7.753906h.132813.03125c4.253906 0 7.707031 3.441406 7.722656 7.699218.019531 4.265625-3.429687 7.738282-7.695312 7.753906h-.136719c-.007812 0-.019531 0-.027344 0zm0 0"/><path d="m415.527344 351.476562c-4.253906 0-7.710938-3.441406-7.726563-7.699218-.015625-4.265625 3.429688-7.738282 7.695313-7.753906h.136718.03125c4.253907 0 7.707032 3.441406 7.722657 7.699218.015625 4.265625-3.429688 7.738282-7.695313 7.753906h-.136718c-.007813 0-.019532 0-.027344 0zm0 0"/><path d="m140.890625 351.476562c-4.253906 0-7.710937-3.441406-7.726563-7.699218-.015624-4.265625 3.433594-7.738282 7.699219-7.753906h.132813.03125c4.253906 0 7.707031 3.441406 7.722656 7.695312.015625 4.269531-3.429688 7.742188-7.695312 7.757812h-.132813c-.011719 0-.023437 0-.03125 0zm0 0"/><path d="m92.039062 351.476562c-4.253906 0-7.710937-3.441406-7.726562-7.699218-.015625-4.265625 3.429688-7.738282 7.699219-7.753906h.132812.03125c4.253907 0 7.707031 3.441406 7.722657 7.699218.015624 4.265625-3.429688 7.738282-7.695313 7.753906h-.136719c-.007812 0-.019531 0-.027344 0zm0 0"/><path d="m424.949219 390.902344c-4.253907 0-7.707031-3.4375-7.722657-7.695313-.015624-4.265625 3.429688-7.738281 7.695313-7.757812h.136719.027344c4.253906 0 7.710937 3.441406 7.726562 7.699219.015625 4.265624-3.429688 7.738281-7.699219 7.753906l-.132812.003906c-.007813-.003906-.019531-.003906-.03125-.003906zm0 0"/><path d="m376.097656 390.902344c-4.253906 0-7.707031-3.4375-7.722656-7.695313-.015625-4.265625 3.429688-7.738281 7.695312-7.757812h.132813.03125c4.253906 0 7.710937 3.441406 7.726563 7.699219.015624 4.265624-3.433594 7.738281-7.699219 7.753906l-.132813.003906c-.011718-.003906-.019531-.003906-.03125-.003906zm0 0"/><path d="m101.460938 390.902344c-4.253907 0-7.707032-3.4375-7.722657-7.695313-.015625-4.269531 3.429688-7.738281 7.695313-7.757812h.136718.027344c4.253906 0 7.710938 3.441406 7.726563 7.699219.015625 4.265624-3.429688 7.738281-7.695313 7.753906l-.136718.003906c-.011719-.003906-.019532-.003906-.03125-.003906zm0 0"/><path d="m52.609375 390.902344c-4.253906 0-7.707031-3.4375-7.722656-7.695313-.015625-4.265625 3.429687-7.738281 7.695312-7.757812h.136719c4.253906-.035157 7.738281 3.433593 7.753906 7.699219.015625 4.265624-3.429687 7.738281-7.695312 7.753906l-.136719.003906c-.007813-.003906-.019531-.003906-.03125-.003906zm0 0"/><path d="m385.523438 430.332031c-4.253907 0-7.710938-3.441406-7.726563-7.695312-.015625-4.269531 3.429687-7.742188 7.695313-7.757813h.136718.027344c4.253906 0 7.710938 3.4375 7.726562 7.695313.015626 4.269531-3.429687 7.738281-7.695312 7.757812h-.136719c-.007812 0-.019531 0-.027343 0zm0 0"/><path d="m336.671875 430.332031c-4.257813 0-7.710937-3.441406-7.726563-7.695312-.015624-4.269531 3.429688-7.742188 7.695313-7.757813h.136719.027344c4.253906 0 7.710937 3.4375 7.726562 7.695313.015625 4.269531-3.429688 7.738281-7.695312 7.757812h-.136719c-.007813 0-.019531 0-.027344 0zm0 0"/><path d="m62.035156 430.332031c-4.253906 0-7.710937-3.441406-7.726562-7.695312-.015625-4.269531 3.429687-7.742188 7.699218-7.757813h.132813.03125c4.253906 0 7.707031 3.4375 7.722656 7.695313.015625 4.269531-3.429687 7.738281-7.695312 7.757812h-.136719c-.007812 0-.019531 0-.027344 0zm0 0"/><path d="m13.183594 430.332031c-4.253906 0-7.710938-3.441406-7.726563-7.695312-.015625-4.269531 3.429688-7.742188 7.695313-7.757813h.136718.027344c4.253906 0 7.710938 3.4375 7.726563 7.695313.015625 4.269531-3.429688 7.738281-7.695313 7.757812h-.136718c-.007813 0-.019532 0-.027344 0zm0 0"/></g><path d="m288.847656 367.105469c0 12.078125 9.789063 21.867187 21.867188 21.867187 12.074218 0 21.863281-9.789062 21.863281-21.867187 0-7.925781-9.417969-23.476563-15.890625-33.238281-2.835938-4.273438-9.113281-4.273438-11.949219 0-6.472656 9.761718-15.890625 25.3125-15.890625 33.238281zm0 0" fill="#a0ecff"/><path d="m288.851562 367.105469c0 12.074219 9.78125 21.867187 21.863282 21.867187 3.027344 0 5.910156-.617187 8.535156-1.730468-7.839844-3.320313-13.335938-11.089844-13.335938-20.136719 0-6.929688 7.195313-19.691407 13.328126-29.308594-.878907-1.378906-1.734376-2.691406-2.542969-3.914063-2.839844-4.285156-9.121094-4.296874-11.960938-.015624-6.472656 9.757812-15.886719 25.3125-15.886719 33.238281zm0 0" fill="#60daff"/><path d="m190.183594 367.105469c0 12.078125 9.789062 21.867187 21.863281 21.867187 12.078125 0 21.867187-9.789062 21.867187-21.867187 0-7.925781-9.417968-23.476563-15.890624-33.238281-2.839844-4.273438-9.113282-4.273438-11.949219 0-6.476563 9.761718-15.890625 25.3125-15.890625 33.238281zm0 0" fill="#a0ecff"/><path d="m190.183594 367.105469c0 12.074219 9.785156 21.867187 21.863281 21.867187 3.027344 0 5.914063-.617187 8.539063-1.730468-7.84375-3.320313-13.335938-11.089844-13.335938-20.136719 0-6.929688 7.195312-19.691407 13.328125-29.308594-.878906-1.378906-1.734375-2.691406-2.546875-3.914063-2.839844-4.285156-9.117188-4.296874-11.957031-.015624-6.472657 9.757812-15.890625 25.3125-15.890625 33.238281zm0 0" fill="#60daff"/><path d="m239.515625 438.914062c0 12.074219 9.789063 21.867188 21.863281 21.867188 12.078125 0 21.867188-9.792969 21.867188-21.867188 0-7.925781-9.417969-23.480468-15.890625-33.238281-2.839844-4.277343-9.113281-4.277343-11.949219 0-6.476562 9.757813-15.890625 25.3125-15.890625 33.238281zm0 0" fill="#a0ecff"/><path d="m239.515625 438.914062c0 12.074219 9.785156 21.867188 21.867187 21.867188 3.023438 0 5.910157-.617188 8.535157-1.730469-7.839844-3.320312-13.335938-11.089843-13.335938-20.136719 0-6.929687 7.195313-19.691406 13.328125-29.308593-.878906-1.378907-1.734375-2.691407-2.546875-3.914063-2.835937-4.285156-9.117187-4.296875-11.957031-.015625-6.472656 9.757813-15.890625 25.3125-15.890625 33.238281zm0 0" fill="#60daff"/><path d="m140.847656 438.914062c0 12.074219 9.792969 21.867188 21.867188 21.867188 12.074218 0 21.867187-9.792969 21.867187-21.867188 0-7.925781-9.417969-23.480468-15.890625-33.238281-2.839844-4.277343-9.113281-4.277343-11.953125 0-6.472656 9.757813-15.890625 25.3125-15.890625 33.238281zm0 0" fill="#a0ecff"/><path d="m140.851562 438.914062c0 12.074219 9.785157 21.867188 21.863282 21.867188 3.027344 0 5.914062-.617188 8.539062-1.730469-7.84375-3.320312-13.335937-11.089843-13.335937-20.136719 0-6.929687 7.195312-19.691406 13.328125-29.308593-.878906-1.378907-1.734375-2.691407-2.546875-3.914063-2.839844-4.285156-9.117188-4.296875-11.957031-.015625-6.476563 9.757813-15.890626 25.3125-15.890626 33.238281zm0 0" fill="#60daff"/></svg>